;TYPE=PLATED
;Layer: PTH_Through
;EasyEDA Pro v3.2.58, 2026-03-15 17:59:32
;Gerber Generator version 0.3
M48
METRIC,LZ,0000.00000
;Hole size 1 = 0.30500 METRIC
T01C0.30500
;Hole size 2 = 0.60000 METRIC
T02C0.60000
;Hole size 3 = 0.90002 METRIC
T03C0.90002
;Hole size 4 = 1.10002 METRIC
T04C1.10002
%
G05
G90
T01
X-11.44089Y8.39289
X-13.589Y4.445
X15.113Y8.128
X19.05Y8.128
X1.27Y-6.985
X1.27Y-4.826
X11.811Y6.35
X11.811Y5.08
X3.429Y-7.62
X-11.58395Y-5.334
X-12.7Y-5.334
X-13.40011Y2.47811
X-13.40011Y3.23689
X-4.82515Y1.397
X-3.048Y-3.175
X-21.844Y-5.715
X1.016Y3.937
X22.733Y12.7
X22.733Y11.049
X22.733Y11.87093
X14.7109Y-2.794
X-0.508Y-2.794
X-3.048Y-4.191
X-3.048Y-5.334
X-22.479Y-5.05196
X6.223Y-0.127
X21.209Y-0.127
X0.381Y-0.711
X6.223Y-1.27
X20.447Y-1.194
X18.542Y-5.35102
X8.636Y8.128
X13.081Y2.921
X21.45106Y10.26998
X-1.524Y1.016
X-23.368Y-9.652
X-8.13664Y-2.159
X21.209Y-15.113
X25.908Y-14.732
X21.209Y-14.07225
X25.273Y-14.224
X-1.524Y-0.127
X-9.5204Y-7.8444
X-19.67636Y-9.89736
X-12.573Y-7.62
X-0.127Y-7.62
X-5.715Y-8.509
X-8.636Y1.778
X-24.638Y-2.794
X-24.638Y-4.318
X-24.638Y-3.556
X-24.638Y-15.24
X-24.638Y-14.478
X-26.797Y-7.68198
X-26.797Y-12.00302
X23.241Y-11.97508
X23.241Y-10.88492
X21.844Y-9.652
X19.68492Y-3.81
X12.44004Y-9.90004
X8.763Y-5.715
X14.732Y-9.779
X-22.479Y-2.667
X12.065Y-13.462
X11.81452Y-5.77359
X16.18161Y-9.779
X18.542Y-10.668
X13.462Y-12.065
X13.462Y-13.716
X6.223Y2.286
X1.905Y6.985
X10.4628Y-2.29617
X12.624Y-2.286
X-14.51101Y-2.15897
X-14.75702Y-3.59397
X-8.35698Y-3.59396
X16.002Y-3.175
X16.891Y-3.175
T02
X-15.88193Y-3.69396G85X-15.88193Y-4.59396
X-7.23191Y-3.69397G85X-7.23191Y-4.594
X-15.88198Y-8.04403G85X-15.88198Y-8.64403
X-7.23201Y-8.04403G85X-7.23201Y-8.64403
T03
X17.62105Y-15.113
X15.62105Y-15.113
X13.62105Y-15.113
X10.017Y13.97
X8.017Y13.97
T04
X1.778Y14.097
X1.778Y11.557
X-0.762Y14.097
X-0.762Y11.557
X-3.302Y14.097
X-3.302Y11.557
M30