G04 Layer: TopSolderMaskLayer*
G04 EasyEDA Pro v3.2.58, 2026-03-15 17:59:32*
G04 Gerber Generator version 0.3*
G04 Scale: 100 percent, Rotated: No, Reflected: No*
G04 Dimensions in millimeters*
G04 Leading zeros omitted, absolute positions, 4 integers and 5 decimals*
G04 Generated by one-click*
%FSLAX45Y45*%
%MOMM*%
%AMRoundRect*1,1,$1,$2,$3*1,1,$1,$4,$5*1,1,$1,0-$2,0-$3*1,1,$1,0-$4,0-$5*20,1,$1,$2,$3,$4,$5,0*20,1,$1,$4,$5,0-$2,0-$3,0*20,1,$1,0-$2,0-$3,0-$4,0-$5,0*20,1,$1,0-$4,0-$5,$2,$3,0*4,1,4,$2,$3,$4,$5,0-$2,0-$3,0-$4,0-$5,$2,$3,0*%
%ADD10RoundRect,0.1016X-0.85X0.85X0.85X0.85*%
%ADD11C,1.8016*%
%ADD12RoundRect,0.1016X-0.432X-0.40324X-0.432X0.40324*%
%ADD13RoundRect,0.1016X-1.8X-1.8X-1.8X1.8*%
%ADD14RoundRect,0.1016X-0.5X-1.5X-0.5X1.5*%
%ADD15RoundRect,0.1000X-1.5X-0.5X-1.5X0.5*%
%ADD16RoundRect,0.1016X-1.5X-0.5X-1.5X0.5*%
%ADD17RoundRect,0.10003X-1.0X1.5X1.0X1.5*%
%ADD18RoundRect,0.10003X-0.15X0.62501X0.15X0.62501*%
%ADD19C,1.6016*%
%ADD20RoundRect,0.1016X-0.75X0.75X0.75X0.75*%
%ADD21C,1.7016*%
%ADD22RoundRect,0.1016X-0.40324X0.432X0.40324X0.432*%
%ADD23RoundRect,0.10003X-0.27501X0.55X0.27501X0.55*%
%ADD24RoundRect,0.10003X-0.15X0.55X0.15X0.55*%
%ADD25O,1.20002X2.10002*%
%ADD26O,1.30002X1.90002*%
%ADD27C,0.6016*%
G75*


G04 Pad Start*
G54D10*
G01X177800Y1409700D03*
G54D11*
G01X177800Y1155700D03*
G01X-76200Y1409700D03*
G01X-76200Y1155700D03*
G01X-330200Y1409700D03*
G01X-330200Y1155700D03*
G54D12*
G01X95808Y-52003D03*
G01X95808Y98670D03*
G01X95808Y-356803D03*
G01X95808Y-206130D03*
G54D13*
G01X1426108Y237490D03*
G54D14*
G01X2145106Y-772998D03*
G01X2018106Y-772998D03*
G01X1891106Y-772998D03*
G01X1764106Y-772998D03*
G01X1637106Y-772998D03*
G01X1510106Y-772998D03*
G01X1383106Y-772998D03*
G01X1256106Y-772998D03*
G01X1129106Y-772998D03*
G01X1002106Y-772998D03*
G01X875106Y-772998D03*
G01X748106Y-772998D03*
G01X621106Y-772998D03*
G01X494106Y-772998D03*
G01X494106Y1026998D03*
G01X621106Y1026998D03*
G01X748106Y1026998D03*
G01X875106Y1026998D03*
G01X1002106Y1026998D03*
G01X1129106Y1026998D03*
G01X1256106Y1026998D03*
G01X1383106Y1026998D03*
G01X1510106Y1026998D03*
G01X1637106Y1026998D03*
G01X1764106Y1026998D03*
G01X1891106Y1026998D03*
G01X2018106Y1026998D03*
G01X2145106Y1026998D03*
G54D16*
G01X344094Y-444500D03*
G01X344094Y-317500D03*
G01X344094Y-190500D03*
G01X344094Y-63500D03*
G01X344094Y63500D03*
G01X344094Y190500D03*
G01X344094Y317500D03*
G01X344094Y444500D03*
G01X344094Y571500D03*
G01X344094Y698500D03*
G54D17*
G01X-2446299Y-636943D03*
G54D18*
G01X-2046300Y-404457D03*
G01X-2146300Y-404457D03*
G01X-2246300Y-404457D03*
G54D17*
G01X-1846301Y-636943D03*
G54D19*
G01X1762100Y-1511300D03*
G01X1562100Y-1511300D03*
G54D20*
G01X1362100Y-1511300D03*
G54D21*
G01X1001700Y1397000D03*
G01X801700Y1397000D03*
G54D22*
G01X-1296264Y-215900D03*
G01X-1446936Y-215900D03*
G01X-989736Y-203200D03*
G01X-839064Y-203200D03*
G54D23*
G01X-1475702Y-359397D03*
G01X-1395692Y-359397D03*
G54D24*
G01X-1330693Y-359397D03*
G01X-1280681Y-359397D03*
G01X-1230693Y-359397D03*
G01X-1180706Y-359397D03*
G01X-1130694Y-359397D03*
G01X-1080706Y-359397D03*
G01X-1030694Y-359397D03*
G01X-980681Y-359397D03*
G54D23*
G01X-915683Y-359397D03*
G01X-835698Y-359397D03*
G54D25*
G01X-1588198Y-414388D03*
G01X-723201Y-414388D03*
G54D26*
G01X-1588198Y-834403D03*
G01X-723201Y-834403D03*
G54D27*
G01X-235655Y-612554D03*
G01X1536700Y-1028700D03*
G01X2055146Y-377553D03*
G04 Pad End*

M02*

