G04 Layer: BottomSolderMaskLayer*
G04 EasyEDA Pro v3.2.58, 2026-03-15 17:59:32*
G04 Gerber Generator version 0.3*
G04 Scale: 100 percent, Rotated: No, Reflected: No*
G04 Dimensions in millimeters*
G04 Leading zeros omitted, absolute positions, 4 integers and 5 decimals*
G04 Generated by one-click*
%FSLAX45Y45*%
%MOMM*%
%AMRoundRect*1,1,$1,$2,$3*1,1,$1,$4,$5*1,1,$1,0-$2,0-$3*1,1,$1,0-$4,0-$5*20,1,$1,$2,$3,$4,$5,0*20,1,$1,$4,$5,0-$2,0-$3,0*20,1,$1,0-$2,0-$3,0-$4,0-$5,0*20,1,$1,0-$4,0-$5,$2,$3,0*4,1,4,$2,$3,$4,$5,0-$2,0-$3,0-$4,0-$5,$2,$3,0*%
%ADD10RoundRect,0.1016X-0.45X-0.4X-0.45X0.4*%
%ADD11RoundRect,0.1016X-0.4X0.45X0.4X0.45*%
%ADD12RoundRect,0.1016X-0.85X0.85X0.85X0.85*%
%ADD13C,1.8016*%
%ADD14RoundRect,0.1016X-0.7X1.06001X0.7X1.06001*%
%ADD15RoundRect,0.1077X-0.7X1.2X0.7X1.2*%
%ADD16RoundRect,0.1016X-0.7X1.2X0.7X1.2*%
%ADD17RoundRect,0.1016X-0.62501X0.35X0.62501X0.35*%
%ADD18RoundRect,0.1016X-0.40324X0.432X0.40324X0.432*%
%ADD19RoundRect,0.1016X-0.432X-0.40324X-0.432X0.40324*%
%ADD20RoundRect,0.1016X-0.3X0.6X0.3X0.6*%
%ADD21RoundRect,0.1016X-0.6X-0.3X-0.6X0.3*%
%ADD22RoundRect,0.1016X-1.2X-1.65X-1.2X1.65*%
%ADD23RoundRect,0.1016X-0.4X0.4X0.4X0.4*%
%ADD24RoundRect,0.10003X-0.55X-0.27501X-0.55X0.27501*%
%ADD25O,0.66159X1.84661*%
%ADD26C,1.6016*%
%ADD27RoundRect,0.1016X-0.75X0.75X0.75X0.75*%
%ADD28RoundRect,0.1016X-0.27X-0.39505X-0.27X0.39505*%
%ADD29C,0.28001*%
%ADD30C,1.7016*%
%ADD31RoundRect,0.1016X-0.4X1.6X0.4X1.6*%
%ADD32O,1.20002X2.10002*%
%ADD33O,1.30002X1.90002*%
%ADD34C,0.6016*%
%ADD35O,0.38003X0.90002*%
%ADD36O,0.90002X0.38003*%
%ADD37RoundRect,0.10003X-1.35X1.35X1.35X1.35*%
G75*


G04 Pad Start*
G54D10*
G01X-112718Y236177D03*
G01X-112718Y96172D03*
G01X52382Y236177D03*
G01X52382Y96172D03*
G01X217482Y236177D03*
G01X217482Y96172D03*
G01X382582Y236177D03*
G01X382582Y96172D03*
G01X482600Y628802D03*
G01X482600Y488798D03*
G54D11*
G01X31902Y901700D03*
G01X-108102Y901700D03*
G01X-1034379Y123584D03*
G01X-1174384Y123584D03*
G54D10*
G01X-1182179Y421112D03*
G01X-1182179Y281107D03*
G54D11*
G01X-572681Y136512D03*
G01X-712686Y136512D03*
G54D10*
G01X-952500Y-18898D03*
G01X-952500Y-158902D03*
G54D11*
G01X-395186Y-155595D03*
G01X-255181Y-155595D03*
G01X-395186Y9505D03*
G01X-255181Y9505D03*
G01X1631798Y1257300D03*
G01X1771802Y1257300D03*
G01X-2296678Y-1312581D03*
G01X-2436683Y-1312581D03*
G54D10*
G01X-2679700Y-1060298D03*
G01X-2679700Y-1200302D03*
G01X-2679700Y-908202D03*
G01X-2679700Y-768198D03*
G54D11*
G01X-1962302Y-546100D03*
G01X-1822298Y-546100D03*
G54D12*
G01X177800Y1409700D03*
G54D13*
G01X177800Y1155700D03*
G01X-76200Y1409700D03*
G01X-76200Y1155700D03*
G01X-330200Y1409700D03*
G01X-330200Y1155700D03*
G54D14*
G01X-101194Y571500D03*
G01X304394Y571500D03*
G54D16*
G01X-456794Y-457200D03*
G01X-51206Y-457200D03*
G54D17*
G01X1522400Y552196D03*
G01X1522400Y362204D03*
G01X1322400Y457200D03*
G01X2005000Y564896D03*
G01X2005000Y374904D03*
G01X1805000Y469900D03*
G54D18*
G01X342036Y901700D03*
G01X191364Y901700D03*
G54D19*
G01X-1028700Y418236D03*
G01X-1028700Y267564D03*
G01X647700Y634136D03*
G01X647700Y483464D03*
G01X787400Y483464D03*
G01X787400Y634136D03*
G54D18*
G01X1994764Y1257300D03*
G01X2145436Y1257300D03*
G54D19*
G01X1663700Y545236D03*
G01X1663700Y394564D03*
G54D18*
G01X1993036Y685800D03*
G01X1842364Y685800D03*
G01X-1816964Y-889000D03*
G01X-1967636Y-889000D03*
G01X-1816964Y-723900D03*
G01X-1967636Y-723900D03*
G36*
G01X1958284Y1661094D02*
G01X1958284Y1596095D01*
G03X1963384Y1590995I5100J0D01*
G01X1998287Y1590993D01*
G01X1998287Y1531092D01*
G03X2003387Y1525991I5100J0D01*
G01X2068383Y1525991D01*
G03X2073483Y1531092I0J5100D01*
G01X2073483Y1661094D01*
G03X2068383Y1666194I-5100J0D01*
G01X1963384Y1666194D01*
G03X1958284Y1661094I0J-5100D01*
G37*
G36*
G01X1533307Y1661094D02*
G01X1533307Y1531092D01*
G03X1538407Y1525991I5100J0D01*
G01X1603403Y1525991D01*
G03X1608503Y1531092I0J5100D01*
G01X1608503Y1590993D01*
G01X1643403Y1590993D01*
G03X1648503Y1596093I0J5100D01*
G01X1648506Y1661094D01*
G03X1643405Y1666194I-5100J0D01*
G01X1538407Y1666194D01*
G03X1533307Y1661094I0J-5100D01*
G37*
G54D20*
G01X1633398Y1401102D03*
G01X1973402Y1401102D03*
G54D21*
G01X-849630Y355600D03*
G01X-849630Y482600D03*
G01X-849630Y609600D03*
G01X-849630Y736600D03*
G01X-267970Y736600D03*
G01X-267970Y609600D03*
G01X-267970Y482600D03*
G01X-267970Y355600D03*
G54D22*
G01X-558800Y546100D03*
G54D23*
G01X-1510962Y714947D03*
G01X-1511648Y555054D03*
G01X-1359238Y567754D03*
G01X-1358552Y727647D03*
G01X-1193462Y714947D03*
G01X-1194148Y555054D03*
G01X-1029038Y567754D03*
G01X-1028352Y727647D03*
G54D24*
G01X-788073Y-35192D03*
G01X-788073Y-130188D03*
G01X-788073Y-225184D03*
G01X-548094Y-225184D03*
G01X-548094Y-130188D03*
G01X-548094Y-35192D03*
G54D25*
G01X1854200Y-452349D03*
G01X1727200Y-452349D03*
G01X1600200Y-452349D03*
G01X1473200Y-452349D03*
G01X1346200Y-452349D03*
G01X1219200Y-452349D03*
G01X1092200Y-452349D03*
G01X965200Y-452349D03*
G01X1854200Y122149D03*
G01X1727200Y122149D03*
G01X1600200Y122149D03*
G01X1473200Y122149D03*
G01X1346200Y122149D03*
G01X1219200Y122149D03*
G01X1092200Y122149D03*
G01X965200Y122149D03*
G54D26*
G01X1762100Y-1511300D03*
G01X1562100Y-1511300D03*
G54D27*
G01X1362100Y-1511300D03*
G54D28*
G01X2324100Y-1197508D03*
G01X2324100Y-1088492D03*
G54D29*
G01X2458390Y-1173797D03*
G01X2418410Y-1173797D03*
G01X2458390Y-1213802D03*
G01X2418410Y-1213802D03*
G54D30*
G01X1001700Y1397000D03*
G01X801700Y1397000D03*
G54D31*
G01X1968492Y-1217915D03*
G01X1968492Y-737906D03*
G01X1714492Y-1217915D03*
G01X1714492Y-737906D03*
G01X1460492Y-1217915D03*
G01X1460492Y-737906D03*
G01X1206492Y-1217915D03*
G01X1206492Y-737906D03*
G54D32*
G01X-1588198Y-414388D03*
G01X-723201Y-414388D03*
G54D33*
G01X-1588198Y-834403D03*
G01X-723201Y-834403D03*
G54D34*
G01X642245Y808246D03*
G01X-2086654Y-1422153D03*
G01X634346Y354246D03*
G54D35*
G01X-2217996Y-1167661D03*
G01X-2267983Y-1167661D03*
G01X-2317995Y-1167661D03*
G01X-2367983Y-1167661D03*
G01X-2417995Y-1167661D03*
G01X-2467982Y-1167661D03*
G54D36*
G01X-2542989Y-1092655D03*
G01X-2542989Y-1042668D03*
G01X-2542989Y-992655D03*
G01X-2542989Y-942668D03*
G01X-2542989Y-892656D03*
G01X-2542989Y-842668D03*
G54D35*
G01X-2467982Y-767662D03*
G01X-2417995Y-767662D03*
G01X-2367983Y-767662D03*
G01X-2317995Y-767662D03*
G01X-2267983Y-767662D03*
G01X-2218783Y-767662D03*
G54D36*
G01X-2142989Y-842668D03*
G01X-2142989Y-892656D03*
G01X-2142989Y-942668D03*
G01X-2142989Y-992655D03*
G01X-2142989Y-1042668D03*
G01X-2142989Y-1092655D03*
G54D37*
G01X-2344234Y-967662D03*
G04 Pad End*

M02*

