G04 Layer: BoardOutlineLayer*
G04 EasyEDA Pro v3.2.58, 2026-03-15 17:59:32*
G04 Gerber Generator version 0.3*
G04 Scale: 100 percent, Rotated: No, Reflected: No*
G04 Dimensions in millimeters*
G04 Leading zeros omitted, absolute positions, 4 integers and 5 decimals*
G04 Generated by one-click*
%FSLAX45Y45*%
%MOMM*%
%ADD10C,0.1*%
%ADD11C,0.0254*%
%ADD12C,0.3507*%
G75*


G04 PolygonModel Start*
G54D10*
G01X2939407Y1144039D02*
G01X2939407Y1146862D01*
G01X-984175Y1209818D02*
G01X-1062266Y1155129D01*
G01X-1063921Y1153970D02*
G01X-1691727Y714327D01*
G03X-2939430Y-1489522I1688193J-2410882D01*
G01X-2939610Y-1492874D01*
G01X-2939677Y-1496227D01*
G01X-2939632Y-1499579D01*
G01X-2939474Y-1502927D01*
G01X-2939205Y-1506269D01*
G01X-2938823Y-1509601D01*
G01X-2938330Y-1512921D01*
G01X-2937725Y-1516223D01*
G01X-2937010Y-1519499D01*
G01X-2936186Y-1522749D01*
G01X-2935254Y-1525969D01*
G01X-2934215Y-1529156D01*
G01X-2933069Y-1532308D01*
G01X-2931816Y-1535422D01*
G01X-2930460Y-1538491D01*
G01X-2929004Y-1541510D01*
G01X-2927449Y-1544474D01*
G01X-2925798Y-1547383D01*
G01X-2924051Y-1550233D01*
G01X-2922210Y-1553023D01*
G01X-2920277Y-1555749D01*
G01X-2918253Y-1558410D01*
G01X-2913940Y-1563527D01*
G01X-2909283Y-1568355D01*
G01X-2904317Y-1572856D01*
G01X-2901729Y-1574977D01*
G01X-2899072Y-1577008D01*
G01X-2896349Y-1578948D01*
G01X-2893564Y-1580795D01*
G01X-2890719Y-1582549D01*
G01X-2887815Y-1584208D01*
G01X-2884856Y-1585769D01*
G01X-2881843Y-1587232D01*
G01X-2878779Y-1588595D01*
G01X-2875668Y-1589855D01*
G01X-2872521Y-1591009D01*
G01X-2869340Y-1592056D01*
G01X-2866129Y-1592995D01*
G01X-2862890Y-1593825D01*
G01X-2859627Y-1594546D01*
G01X-2856341Y-1595158D01*
G01X-2853036Y-1595660D01*
G01X-2849714Y-1596051D01*
G01X-2846379Y-1596332D01*
G01X-2843032Y-1596500D01*
G01X-1914796Y-1596556D01*
G03X-1814795Y-1496556I0J100000D01*
G01X-1814795Y-1056769D01*
G02X-1714795Y-956769I100000J0D01*
G01X936656Y-956769D01*
G02X1036657Y-1056769I0J-100000D01*
G01X1036719Y-1596730D01*
G03X1136728Y-1696729I100000J0D01*
G01X2839668Y-1696586D01*
G03X2939660Y-1596589I-8J100000D01*
G01X2939677Y-1121679D01*
G01X2939511Y852788D01*
G01X2939407Y1144039D01*
G01X2939407Y1146862D02*
G03X2389853Y1696396I-549357J176D01*
G01X-124368Y1696661D01*
G01X-133095Y1696454D01*
G01X-141732Y1696109D01*
G01X-150578Y1695620D01*
G01X-159203Y1695004D01*
G01X-167882Y1694245D01*
G01X-176544Y1693349D01*
G01X-185189Y1692316D01*
G01X-193813Y1691146D01*
G01X-202419Y1689840D01*
G01X-211003Y1688398D01*
G01X-219563Y1686820D01*
G01X-228097Y1685106D01*
G01X-236604Y1683257D01*
G01X-245090Y1681271D01*
G01X-253539Y1679152D01*
G01X-261958Y1676898D01*
G01X-270346Y1674509D01*
G01X-278695Y1671987D01*
G01X-287019Y1669328D01*
G01X-295298Y1666537D01*
G01X-303538Y1663613D01*
G01X-311749Y1660550D01*
G01X-319904Y1657359D01*
G01X-327882Y1654091D01*
G01X-335453Y1650853D01*
G01X-342666Y1647642D01*
G01X-349569Y1644453D01*
G01X-356227Y1641264D01*
G01X-362686Y1638066D01*
G01X-369006Y1634833D01*
G01X-375239Y1631543D01*
G01X-381426Y1628174D01*
G01X-387639Y1624687D01*
G01X-393905Y1621062D01*
G01X-400282Y1617258D01*
G01X-406807Y1613243D01*
G01X-413532Y1608972D01*
G01X-420481Y1604413D01*
G01X-427701Y1599515D01*
G01X-437252Y1592842D01*
G01X-474108Y1567031D01*
G01X-982093Y1211276D01*

G04 Rect Start*
G54D11*
G01X2349500Y-820900D02*
G01X2349500Y1062200D01*
G02X2379500Y1092200I30000J0D01*
G01X2929100Y1092200D01*
G02X2959100Y1062200I0J-30000D01*
G01X2959100Y-820900D01*
G02X2929100Y-850900I-30000J0D01*
G01X2379500Y-850900D01*
G02X2349500Y-820900I0J30000D01*
G04 Rect End*

M02*

