G04 Layer: InnerLayer2*
G04 EasyEDA Pro v3.2.58, 2026-03-15 17:59:32*
G04 Gerber Generator version 0.3*
G04 Scale: 100 percent, Rotated: No, Reflected: No*
G04 Dimensions in millimeters*
G04 Leading zeros omitted, absolute positions, 4 integers and 5 decimals*
G04 Generated by one-click*
%FSLAX45Y45*%
%MOMM*%
%ADD10C,0.2032*%
%ADD11C,0.254*%
%ADD12R,1.7X1.7*%
%ADD13C,1.7*%
%ADD14C,1.5*%
%ADD15R,1.5048X1.5*%
%ADD16R,1.5X1.5*%
%ADD17C,1.6*%
%ADD18O,1.1X2.0*%
%ADD19O,1.2X1.8*%
%ADD20C,0.61*%
G75*


G04 Copper Start*
G36*
G01X-2673983Y-1349265D02*
G01X-2690014Y-1332886D01*
G01X-2708570Y-1319436D01*
G01X-2729124Y-1309297D01*
G01X-2751090Y-1302759D01*
G01X-2773843Y-1300008D01*
G01X-2796734Y-1301121D01*
G01X-2819112Y-1306068D01*
G01X-2840340Y-1314707D01*
G01X-2859813Y-1326792D01*
G01X-2876977Y-1341980D01*
G01X-2891342Y-1359837D01*
G01X-2877048Y-1254138D01*
G01X-2858886Y-1149035D01*
G01X-2836882Y-1044668D01*
G01X-2823178Y-989736D01*
G01X-2033950Y-989736D01*
G01X-2032023Y-1005606D01*
G01X-2026355Y-1020554D01*
G01X-2017273Y-1033711D01*
G01X-2005307Y-1044312D01*
G01X-1991152Y-1051741D01*
G01X-1975630Y-1055567D01*
G01X-1959643Y-1055567D01*
G01X-1944121Y-1051741D01*
G01X-1929966Y-1044312D01*
G01X-1918000Y-1033711D01*
G01X-1908918Y-1020554D01*
G01X-1903249Y-1005606D01*
G01X-1901322Y-989736D01*
G01X-1903249Y-973866D01*
G01X-1908918Y-958919D01*
G01X-1918000Y-945762D01*
G01X-1929966Y-935161D01*
G01X-1944121Y-927732D01*
G01X-1959643Y-923906D01*
G01X-1975630Y-923906D01*
G01X-1991152Y-927732D01*
G01X-2005307Y-935161D01*
G01X-2017273Y-945762D01*
G01X-2026355Y-958919D01*
G01X-2032023Y-973866D01*
G01X-2033950Y-989736D01*
G01X-2033950Y-989736D01*
G01X-2823178Y-989736D01*
G01X-2811064Y-941179D01*
G01X-2781467Y-838707D01*
G01X-2748132Y-737389D01*
G01X-2711102Y-637362D01*
G01X-2670429Y-538760D01*
G01X-2651907Y-498153D01*
G01X-2313839Y-498153D01*
G01X-2313679Y-513604D01*
G01X-2309947Y-528598D01*
G01X-2302847Y-542322D01*
G01X-2292764Y-554030D01*
G01X-2280245Y-563086D01*
G01X-2265970Y-569000D01*
G01X-2250714Y-571450D01*
G01X-2248926Y-586798D01*
G01X-2243634Y-601315D01*
G01X-2235126Y-614213D01*
G01X-2223865Y-624793D01*
G01X-2210461Y-632479D01*
G01X-2195642Y-636854D01*
G01X-2180212Y-637682D01*
G01X-2165010Y-634916D01*
G01X-2150861Y-628707D01*
G01X-2138533Y-619393D01*
G01X-2138533Y-619393D01*
G01X-2128694Y-607478D01*
G01X-2121881Y-593611D01*
G01X-2118461Y-578542D01*
G01X-2118621Y-563092D01*
G01X-2122353Y-548097D01*
G01X-2129453Y-534374D01*
G01X-2139536Y-522666D01*
G01X-2152055Y-513609D01*
G01X-2166330Y-507695D01*
G01X-2181586Y-505246D01*
G01X-2183374Y-489898D01*
G01X-2188666Y-475381D01*
G01X-2197174Y-462483D01*
G01X-2208435Y-451903D01*
G01X-2221839Y-444217D01*
G01X-2236658Y-439841D01*
G01X-2252088Y-439014D01*
G01X-2267290Y-441780D01*
G01X-2281439Y-447988D01*
G01X-2293767Y-457303D01*
G01X-2303606Y-469217D01*
G01X-2310419Y-483085D01*
G01X-2313839Y-498153D01*
G01X-2651907Y-498153D01*
G01X-2626166Y-441717D01*
G01X-2578373Y-346363D01*
G01X-2537487Y-271753D01*
G01X-2529672Y-271753D01*
G01X-2529580Y-287797D01*
G01X-2525638Y-303349D01*
G01X-2518077Y-317500D01*
G01X-2525693Y-331792D01*
G01X-2529618Y-347503D01*
G01X-2529618Y-363697D01*
G01X-2525693Y-379408D01*
G01X-2518077Y-393700D01*
G01X-2525638Y-407851D01*
G01X-2529580Y-423403D01*
G01X-2529672Y-439447D01*
G01X-2525907Y-455043D01*
G01X-2518507Y-469279D01*
G01X-2507905Y-481321D01*
G01X-2494721Y-490464D01*
G01X-2479726Y-496173D01*
G01X-2463800Y-498114D01*
G01X-2463800Y-498114D01*
G01X-2447874Y-496173D01*
G01X-2432879Y-490464D01*
G01X-2419695Y-481321D01*
G01X-2409093Y-469279D01*
G01X-2401693Y-455043D01*
G01X-2397928Y-439447D01*
G01X-2398020Y-423403D01*
G01X-2401962Y-407851D01*
G01X-2409523Y-393700D01*
G01X-2401907Y-379408D01*
G01X-2399404Y-369388D01*
G01X-1679012Y-369388D01*
G01X-1679012Y-459388D01*
G01X-1677093Y-477959D01*
G01X-1671417Y-495745D01*
G01X-1662224Y-511994D01*
G01X-1649902Y-526020D01*
G01X-1634973Y-537230D01*
G01X-1618066Y-545150D01*
G01X-1599898Y-549445D01*
G01X-1581234Y-549935D01*
G01X-1562866Y-546597D01*
G01X-1545567Y-539574D01*
G01X-1530071Y-529162D01*
G01X-1517031Y-515801D01*
G01X-1506999Y-500055D01*
G01X-1497695Y-513366D01*
G01X-1485603Y-524207D01*
G01X-1471359Y-532009D01*
G01X-1455712Y-536359D01*
G01X-1439485Y-537031D01*
G01X-1423532Y-533989D01*
G01X-1422208Y-533400D01*
G01X-1336314Y-533400D01*
G01X-1334511Y-548758D01*
G01X-1329201Y-563280D01*
G01X-1320671Y-576178D01*
G01X-1309387Y-586750D01*
G01X-1295961Y-594421D01*
G01X-1281123Y-598775D01*
G01X-1265680Y-599573D01*
G01X-1250473Y-596774D01*
G01X-1236327Y-590529D01*
G01X-1224012Y-581177D01*
G01X-1214197Y-569228D01*
G01X-1204383Y-581177D01*
G01X-1192068Y-590529D01*
G01X-1177922Y-596774D01*
G01X-1162715Y-599573D01*
G01X-1147272Y-598775D01*
G01X-1132434Y-594421D01*
G01X-1119008Y-586750D01*
G01X-1107724Y-576178D01*
G01X-1099194Y-563280D01*
G01X-1093884Y-548758D01*
G01X-1092081Y-533400D01*
G01X-1093884Y-518042D01*
G01X-1099194Y-503520D01*
G01X-1107724Y-490622D01*
G01X-1119008Y-480050D01*
G01X-1132434Y-472379D01*
G01X-1147272Y-468025D01*
G01X-1162715Y-467227D01*
G01X-1177922Y-470026D01*
G01X-1192068Y-476271D01*
G01X-1204383Y-485623D01*
G01X-1214197Y-497572D01*
G01X-1224012Y-485623D01*
G01X-1236327Y-476271D01*
G01X-1250473Y-470026D01*
G01X-1265680Y-467227D01*
G01X-1281123Y-468025D01*
G01X-1295961Y-472379D01*
G01X-1309387Y-480050D01*
G01X-1320671Y-490622D01*
G01X-1329201Y-503520D01*
G01X-1334511Y-518042D01*
G01X-1336314Y-533400D01*
G01X-1336314Y-533400D01*
G01X-1422208Y-533400D01*
G01X-1408692Y-527392D01*
G01X-1395745Y-517587D01*
G01X-1385373Y-505091D01*
G01X-1378119Y-490560D01*
G01X-1374367Y-474759D01*
G01X-1374314Y-458527D01*
G01X-937061Y-458527D01*
G01X-937006Y-474764D01*
G01X-937006Y-474764D01*
G01X-933254Y-490562D01*
G01X-926003Y-505090D01*
G01X-915632Y-517585D01*
G01X-902688Y-527388D01*
G01X-887852Y-533986D01*
G01X-871902Y-537030D01*
G01X-855678Y-536362D01*
G01X-840033Y-532016D01*
G01X-825790Y-524220D01*
G01X-813696Y-513385D01*
G01X-804389Y-500080D01*
G01X-794353Y-515820D01*
G01X-781311Y-529176D01*
G01X-765814Y-539584D01*
G01X-748516Y-546602D01*
G01X-730149Y-549936D01*
G01X-711488Y-549443D01*
G01X-693322Y-545146D01*
G01X-676418Y-537225D01*
G01X-661492Y-526014D01*
G01X-649172Y-511989D01*
G01X-639981Y-495741D01*
G01X-634306Y-477957D01*
G01X-632388Y-459388D01*
G01X-632388Y-424603D01*
G01X-370885Y-424603D01*
G01X-367706Y-440087D01*
G01X-360951Y-454378D01*
G01X-351007Y-466666D01*
G01X-338437Y-476250D01*
G01X-338437Y-476250D01*
G01X-350926Y-485756D01*
G01X-360831Y-497931D01*
G01X-367598Y-512093D01*
G01X-370846Y-527448D01*
G01X-370395Y-543137D01*
G01X-366270Y-558281D01*
G01X-358700Y-572030D01*
G01X-348112Y-583616D01*
G01X-335097Y-592388D01*
G01X-320385Y-597857D01*
G01X-304800Y-599714D01*
G01X-289215Y-597857D01*
G01X-274503Y-592388D01*
G01X-261488Y-583616D01*
G01X-250900Y-572030D01*
G01X-250608Y-571500D01*
G01X809986Y-571500D01*
G01X811913Y-587370D01*
G01X817582Y-602318D01*
G01X826663Y-615474D01*
G01X838629Y-626075D01*
G01X852785Y-633505D01*
G01X868307Y-637331D01*
G01X884293Y-637331D01*
G01X899815Y-633505D01*
G01X913971Y-626075D01*
G01X925937Y-615474D01*
G01X935018Y-602318D01*
G01X940687Y-587370D01*
G01X942614Y-571500D01*
G01X940687Y-555630D01*
G01X935018Y-540682D01*
G01X925937Y-527526D01*
G01X913971Y-516925D01*
G01X899815Y-509495D01*
G01X884293Y-505669D01*
G01X868307Y-505669D01*
G01X852785Y-509495D01*
G01X838629Y-516925D01*
G01X826663Y-527526D01*
G01X817582Y-540682D01*
G01X811913Y-555630D01*
G01X809986Y-571500D01*
G01X809986Y-571500D01*
G01X-250608Y-571500D01*
G01X-243330Y-558281D01*
G01X-239205Y-543137D01*
G01X-238754Y-527448D01*
G01X-242002Y-512093D01*
G01X-248769Y-497931D01*
G01X-258674Y-485756D01*
G01X-262820Y-482600D01*
G01X60686Y-482600D01*
G01X62613Y-498470D01*
G01X68282Y-513418D01*
G01X77363Y-526574D01*
G01X89329Y-537175D01*
G01X103485Y-544605D01*
G01X119007Y-548431D01*
G01X134993Y-548431D01*
G01X150515Y-544605D01*
G01X164671Y-537175D01*
G01X176637Y-526574D01*
G01X185718Y-513418D01*
G01X191387Y-498470D01*
G01X193314Y-482600D01*
G01X191387Y-466730D01*
G01X185718Y-451782D01*
G01X176637Y-438626D01*
G01X164671Y-428025D01*
G01X150515Y-420595D01*
G01X134993Y-416769D01*
G01X119007Y-416769D01*
G01X103485Y-420595D01*
G01X89329Y-428025D01*
G01X77363Y-438626D01*
G01X68282Y-451782D01*
G01X62613Y-466730D01*
G01X60686Y-482600D01*
G01X60686Y-482600D01*
G01X-262820Y-482600D01*
G01X-271163Y-476250D01*
G01X-258593Y-466666D01*
G01X-248649Y-454378D01*
G01X-241894Y-440087D01*
G01X-238715Y-424603D01*
G01X-239290Y-408806D01*
G01X-243587Y-393594D01*
G01X-251363Y-379831D01*
G01X-262175Y-368300D01*
G01X-251151Y-356479D01*
G01X-243315Y-342342D01*
G01X-239131Y-326730D01*
G01X-238849Y-310569D01*
G01X-242485Y-294820D01*
G01X-249823Y-280418D01*
G01X-250708Y-279400D01*
G01X-117114Y-279400D01*
G01X-115187Y-295270D01*
G01X-109518Y-310218D01*
G01X-100437Y-323374D01*
G01X-88471Y-333975D01*
G01X-74315Y-341405D01*
G01X-58793Y-345231D01*
G01X-42807Y-345231D01*
G01X-27285Y-341405D01*
G01X-13129Y-333975D01*
G01X-1163Y-323374D01*
G01X7918Y-310218D01*
G01X13587Y-295270D01*
G01X15514Y-279400D01*
G01X13587Y-263530D01*
G01X7918Y-248582D01*
G01X-1163Y-235426D01*
G01X-7720Y-229617D01*
G01X979966Y-229617D01*
G01X981893Y-245487D01*
G01X987562Y-260434D01*
G01X996643Y-273591D01*
G01X1008609Y-284192D01*
G01X1022765Y-291621D01*
G01X1038287Y-295447D01*
G01X1054273Y-295447D01*
G01X1069795Y-291621D01*
G01X1083951Y-284192D01*
G01X1095917Y-273591D01*
G01X1104998Y-260434D01*
G01X1110667Y-245487D01*
G01X1112594Y-229617D01*
G01X1112471Y-228600D01*
G01X1196086Y-228600D01*
G01X1198013Y-244470D01*
G01X1203682Y-259418D01*
G01X1212763Y-272574D01*
G01X1224729Y-283175D01*
G01X1238885Y-290605D01*
G01X1254407Y-294431D01*
G01X1270393Y-294431D01*
G01X1285915Y-290605D01*
G01X1300070Y-283175D01*
G01X1304332Y-279400D01*
G01X1404776Y-279400D01*
G01X1406703Y-295270D01*
G01X1412372Y-310218D01*
G01X1421453Y-323374D01*
G01X1433419Y-333975D01*
G01X1447575Y-341405D01*
G01X1463097Y-345231D01*
G01X1479083Y-345231D01*
G01X1494605Y-341405D01*
G01X1508761Y-333975D01*
G01X1520727Y-323374D01*
G01X1524782Y-317500D01*
G01X1533886Y-317500D01*
G01X1535640Y-332653D01*
G01X1540811Y-347004D01*
G01X1549124Y-359794D01*
G01X1560140Y-370346D01*
G01X1573275Y-378102D01*
G01X1587835Y-382651D01*
G01X1603050Y-383753D01*
G01X1618113Y-381349D01*
G01X1632229Y-375566D01*
G01X1644650Y-366711D01*
G01X1657071Y-375566D01*
G01X1671187Y-381349D01*
G01X1686250Y-383753D01*
G01X1701465Y-382651D01*
G01X1706749Y-381000D01*
G01X1902178Y-381000D01*
G01X1904105Y-396870D01*
G01X1909774Y-411818D01*
G01X1918856Y-424974D01*
G01X1930822Y-435575D01*
G01X1944977Y-443005D01*
G01X1960499Y-446831D01*
G01X1976486Y-446831D01*
G01X1992008Y-443005D01*
G01X2006163Y-435575D01*
G01X2018129Y-424974D01*
G01X2027211Y-411818D01*
G01X2032879Y-396870D01*
G01X2034806Y-381000D01*
G01X2032879Y-365130D01*
G01X2027211Y-350182D01*
G01X2018129Y-337026D01*
G01X2006163Y-326425D01*
G01X1992008Y-318995D01*
G01X1976486Y-315169D01*
G01X1960499Y-315169D01*
G01X1944977Y-318995D01*
G01X1930822Y-326425D01*
G01X1918856Y-337026D01*
G01X1909774Y-350182D01*
G01X1904105Y-365130D01*
G01X1902178Y-381000D01*
G01X1902178Y-381000D01*
G01X1706749Y-381000D01*
G01X1716025Y-378102D01*
G01X1729160Y-370346D01*
G01X1740176Y-359794D01*
G01X1748489Y-347004D01*
G01X1753660Y-332653D01*
G01X1755414Y-317500D01*
G01X1753660Y-302347D01*
G01X1748489Y-287996D01*
G01X1740176Y-275206D01*
G01X1729160Y-264654D01*
G01X1716025Y-256898D01*
G01X1701465Y-252349D01*
G01X1686250Y-251247D01*
G01X1671187Y-253651D01*
G01X1657071Y-259434D01*
G01X1644650Y-268289D01*
G01X1632229Y-259434D01*
G01X1618113Y-253651D01*
G01X1603050Y-251247D01*
G01X1587835Y-252349D01*
G01X1573275Y-256898D01*
G01X1560140Y-264654D01*
G01X1549124Y-275206D01*
G01X1540811Y-287996D01*
G01X1535640Y-302347D01*
G01X1533886Y-317500D01*
G01X1533886Y-317500D01*
G01X1524782Y-317500D01*
G01X1529808Y-310218D01*
G01X1535477Y-295270D01*
G01X1537404Y-279400D01*
G01X1535477Y-263530D01*
G01X1529808Y-248582D01*
G01X1520727Y-235426D01*
G01X1508761Y-224825D01*
G01X1494605Y-217395D01*
G01X1479083Y-213569D01*
G01X1463097Y-213569D01*
G01X1447575Y-217395D01*
G01X1433419Y-224825D01*
G01X1421453Y-235426D01*
G01X1412372Y-248582D01*
G01X1406703Y-263530D01*
G01X1404776Y-279400D01*
G01X1404776Y-279400D01*
G01X1304332Y-279400D01*
G01X1312037Y-272574D01*
G01X1321118Y-259418D01*
G01X1326787Y-244470D01*
G01X1328714Y-228600D01*
G01X1326787Y-212730D01*
G01X1321118Y-197782D01*
G01X1312037Y-184626D01*
G01X1300070Y-174025D01*
G01X1285915Y-166595D01*
G01X1270393Y-162769D01*
G01X1254407Y-162769D01*
G01X1238885Y-166595D01*
G01X1224729Y-174025D01*
G01X1212763Y-184626D01*
G01X1203682Y-197782D01*
G01X1198013Y-212730D01*
G01X1196086Y-228600D01*
G01X1196086Y-228600D01*
G01X1112471Y-228600D01*
G01X1110667Y-213747D01*
G01X1104998Y-198799D01*
G01X1095917Y-185642D01*
G01X1083951Y-175041D01*
G01X1069795Y-167612D01*
G01X1054273Y-163786D01*
G01X1038287Y-163786D01*
G01X1022765Y-167612D01*
G01X1008609Y-175041D01*
G01X996643Y-185642D01*
G01X987562Y-198799D01*
G01X981893Y-213747D01*
G01X979966Y-229617D01*
G01X979966Y-229617D01*
G01X-7720Y-229617D01*
G01X-13129Y-224825D01*
G01X-27285Y-217395D01*
G01X-42807Y-213569D01*
G01X-58793Y-213569D01*
G01X-74315Y-217395D01*
G01X-88471Y-224825D01*
G01X-100437Y-235426D01*
G01X-109518Y-248582D01*
G01X-115187Y-263530D01*
G01X-117114Y-279400D01*
G01X-117114Y-279400D01*
G01X-250708Y-279400D01*
G01X-260427Y-268219D01*
G01X-273667Y-258948D01*
G01X-288757Y-253156D01*
G01X-304800Y-251186D01*
G01X-320843Y-253156D01*
G01X-335933Y-258948D01*
G01X-349173Y-268219D01*
G01X-359777Y-280418D01*
G01X-367115Y-294820D01*
G01X-370751Y-310569D01*
G01X-370469Y-326730D01*
G01X-366285Y-342342D01*
G01X-358449Y-356479D01*
G01X-347425Y-368300D01*
G01X-358237Y-379831D01*
G01X-366013Y-393594D01*
G01X-370310Y-408806D01*
G01X-370885Y-424603D01*
G01X-632388Y-424603D01*
G01X-632388Y-369388D01*
G01X-634372Y-350507D01*
G01X-640239Y-332451D01*
G01X-649732Y-316009D01*
G01X-662435Y-301901D01*
G01X-677795Y-290741D01*
G01X-695138Y-283019D01*
G01X-713709Y-279072D01*
G01X-732694Y-279072D01*
G01X-751265Y-283019D01*
G01X-768608Y-290741D01*
G01X-783968Y-301901D01*
G01X-796671Y-316009D01*
G01X-806164Y-332451D01*
G01X-812031Y-350507D01*
G01X-814015Y-369388D01*
G01X-814015Y-419073D01*
G01X-826182Y-408320D01*
G01X-840478Y-400620D01*
G01X-856152Y-396380D01*
G01X-872380Y-395822D01*
G01X-888308Y-398974D01*
G01X-903100Y-405672D01*
G01X-915977Y-415563D01*
G01X-926263Y-428127D01*
G01X-933416Y-442704D01*
G01X-937061Y-458527D01*
G01X-1374314Y-458527D01*
G01X-1374314Y-458519D01*
G01X-1377962Y-442693D01*
G01X-1385119Y-428115D01*
G01X-1395410Y-415551D01*
G01X-1408292Y-405662D01*
G01X-1423088Y-398967D01*
G01X-1439021Y-395819D01*
G01X-1455251Y-396384D01*
G01X-1470926Y-400632D01*
G01X-1485221Y-408340D01*
G01X-1497385Y-419101D01*
G01X-1497385Y-369388D01*
G01X-1497385Y-369388D01*
G01X-1499369Y-350507D01*
G01X-1505236Y-332451D01*
G01X-1514729Y-316009D01*
G01X-1527432Y-301901D01*
G01X-1542792Y-290741D01*
G01X-1560135Y-283019D01*
G01X-1578706Y-279072D01*
G01X-1597691Y-279072D01*
G01X-1616262Y-283019D01*
G01X-1633605Y-290741D01*
G01X-1648965Y-301901D01*
G01X-1661668Y-316009D01*
G01X-1671161Y-332451D01*
G01X-1677028Y-350507D01*
G01X-1679012Y-369388D01*
G01X-2399404Y-369388D01*
G01X-2397982Y-363697D01*
G01X-2397982Y-347503D01*
G01X-2401907Y-331792D01*
G01X-2409523Y-317500D01*
G01X-2401962Y-303349D01*
G01X-2398020Y-287797D01*
G01X-2397928Y-271753D01*
G01X-2399148Y-266700D01*
G01X-2314214Y-266700D01*
G01X-2312287Y-282570D01*
G01X-2306618Y-297518D01*
G01X-2297537Y-310674D01*
G01X-2285571Y-321275D01*
G01X-2271415Y-328705D01*
G01X-2255893Y-332531D01*
G01X-2239907Y-332531D01*
G01X-2224385Y-328705D01*
G01X-2210229Y-321275D01*
G01X-2198263Y-310674D01*
G01X-2189182Y-297518D01*
G01X-2183513Y-282570D01*
G01X-2181586Y-266700D01*
G01X-2183513Y-250830D01*
G01X-2189182Y-235882D01*
G01X-2198263Y-222726D01*
G01X-2210229Y-212125D01*
G01X-2224385Y-204695D01*
G01X-2239907Y-200869D01*
G01X-2255893Y-200869D01*
G01X-2271415Y-204695D01*
G01X-2285571Y-212125D01*
G01X-2297537Y-222726D01*
G01X-2306618Y-235882D01*
G01X-2312287Y-250830D01*
G01X-2314214Y-266700D01*
G01X-2314214Y-266700D01*
G01X-2399148Y-266700D01*
G01X-2401693Y-256157D01*
G01X-2409093Y-241921D01*
G01X-2419695Y-229879D01*
G01X-2432879Y-220736D01*
G01X-2447874Y-215027D01*
G01X-2463800Y-213086D01*
G01X-2479726Y-215027D01*
G01X-2494721Y-220736D01*
G01X-2507905Y-229879D01*
G01X-2518507Y-241921D01*
G01X-2525907Y-256157D01*
G01X-2529672Y-271753D01*
G01X-2537487Y-271753D01*
G01X-2527115Y-252826D01*
G01X-2472461Y-161232D01*
G01X-2414483Y-71704D01*
G01X-2373123Y-12700D01*
G01X-218714Y-12700D01*
G01X-216787Y-28570D01*
G01X-211118Y-43518D01*
G01X-202037Y-56674D01*
G01X-190071Y-67275D01*
G01X-175915Y-74705D01*
G01X-160393Y-78531D01*
G01X-144407Y-78531D01*
G01X-128885Y-74705D01*
G01X-122017Y-71100D01*
G01X-28214Y-71100D01*
G01X-28214Y-71100D01*
G01X-26287Y-86970D01*
G01X-20618Y-101918D01*
G01X-11537Y-115075D01*
G01X429Y-125676D01*
G01X14585Y-133105D01*
G01X30107Y-136931D01*
G01X46093Y-136931D01*
G01X61615Y-133105D01*
G01X75771Y-125676D01*
G01X87737Y-115075D01*
G01X96818Y-101918D01*
G01X102487Y-86970D01*
G01X104414Y-71100D01*
G01X102487Y-55230D01*
G01X96818Y-40283D01*
G01X87737Y-27126D01*
G01X78171Y-18652D01*
G01X556254Y-18652D01*
G01X559502Y-34007D01*
G01X566269Y-48169D01*
G01X576174Y-60344D01*
G01X588663Y-69850D01*
G01X576174Y-79356D01*
G01X566269Y-91531D01*
G01X559502Y-105693D01*
G01X556254Y-121048D01*
G01X556705Y-136737D01*
G01X560830Y-151881D01*
G01X568400Y-165630D01*
G01X578988Y-177216D01*
G01X592003Y-185988D01*
G01X606715Y-191457D01*
G01X622300Y-193314D01*
G01X622300Y-193314D01*
G01X637885Y-191457D01*
G01X652597Y-185988D01*
G01X665612Y-177216D01*
G01X676200Y-165630D01*
G01X683770Y-151881D01*
G01X687895Y-136737D01*
G01X688336Y-121422D01*
G01X1978417Y-121422D01*
G01X1980624Y-136482D01*
G01X1986207Y-150642D01*
G01X1994871Y-163156D01*
G01X2006160Y-173365D01*
G01X2006160Y-173365D01*
G01X2019480Y-180731D01*
G01X2034129Y-184866D01*
G01X2049334Y-185552D01*
G01X2064295Y-182753D01*
G01X2078224Y-176616D01*
G01X2090387Y-167465D01*
G01X2100143Y-155782D01*
G01X2106978Y-142182D01*
G01X2110532Y-127382D01*
G01X2110618Y-112162D01*
G01X2107231Y-97323D01*
G01X2100550Y-83646D01*
G01X2090927Y-71854D01*
G01X2105204Y-77130D01*
G01X2120308Y-79011D01*
G01X2135443Y-77400D01*
G01X2149812Y-72379D01*
G01X2162658Y-64215D01*
G01X2173304Y-53337D01*
G01X2181189Y-40318D01*
G01X2185898Y-25844D01*
G01X2187183Y-10677D01*
G01X2184976Y4382D01*
G01X2179393Y18542D01*
G01X2170729Y31056D01*
G01X2159440Y41265D01*
G01X2146120Y48631D01*
G01X2131471Y52766D01*
G01X2116266Y53452D01*
G01X2101305Y50653D01*
G01X2087376Y44516D01*
G01X2075213Y35365D01*
G01X2065457Y23682D01*
G01X2058622Y10082D01*
G01X2055068Y-4718D01*
G01X2054982Y-19938D01*
G01X2058369Y-34777D01*
G01X2065050Y-48453D01*
G01X2074673Y-60246D01*
G01X2060396Y-54970D01*
G01X2045292Y-53088D01*
G01X2030157Y-54700D01*
G01X2015788Y-59720D01*
G01X2002942Y-67885D01*
G01X1992296Y-78763D01*
G01X1984411Y-91782D01*
G01X1979702Y-106256D01*
G01X1978417Y-121422D01*
G01X688336Y-121422D01*
G01X688346Y-121048D01*
G01X685098Y-105693D01*
G01X678331Y-91531D01*
G01X668426Y-79356D01*
G01X655937Y-69850D01*
G01X668426Y-60344D01*
G01X678331Y-48169D01*
G01X685098Y-34007D01*
G01X688346Y-18652D01*
G01X687895Y-2963D01*
G01X683770Y12181D01*
G01X676200Y25930D01*
G01X665612Y37516D01*
G01X652597Y46288D01*
G01X637885Y51757D01*
G01X622300Y53614D01*
G01X606715Y51757D01*
G01X592003Y46288D01*
G01X578988Y37516D01*
G01X568400Y25930D01*
G01X560830Y12181D01*
G01X556705Y-2963D01*
G01X556254Y-18652D01*
G01X78171Y-18652D01*
G01X75771Y-16525D01*
G01X61615Y-9095D01*
G01X46093Y-5270D01*
G01X30107Y-5270D01*
G01X14585Y-9095D01*
G01X429Y-16525D01*
G01X-11537Y-27126D01*
G01X-20618Y-40283D01*
G01X-26287Y-55230D01*
G01X-28214Y-71100D01*
G01X-122017Y-71100D01*
G01X-114729Y-67275D01*
G01X-102763Y-56674D01*
G01X-93682Y-43518D01*
G01X-88013Y-28570D01*
G01X-86086Y-12700D01*
G01X-88013Y3170D01*
G01X-93682Y18118D01*
G01X-102763Y31274D01*
G01X-114729Y41875D01*
G01X-128885Y49305D01*
G01X-144407Y53131D01*
G01X-160393Y53131D01*
G01X-175915Y49305D01*
G01X-190071Y41875D01*
G01X-202037Y31274D01*
G01X-211118Y18118D01*
G01X-216787Y3170D01*
G01X-218714Y-12700D01*
G01X-218714Y-12700D01*
G01X-2373123Y-12700D01*
G01X-2353261Y15636D01*
G01X-2288876Y100673D01*
G01X-2225898Y177800D01*
G01X-929914Y177800D01*
G01X-927987Y161930D01*
G01X-922318Y146982D01*
G01X-913237Y133826D01*
G01X-901271Y123225D01*
G01X-887115Y115795D01*
G01X-871593Y111969D01*
G01X-855607Y111969D01*
G01X-840085Y115795D01*
G01X-825929Y123225D01*
G01X-813963Y133826D01*
G01X-809908Y139700D01*
G01X-548829Y139700D01*
G01X-546902Y123830D01*
G01X-541233Y108882D01*
G01X-532151Y95726D01*
G01X-520185Y85125D01*
G01X-506030Y77695D01*
G01X-490508Y73869D01*
G01X-474521Y73869D01*
G01X-458999Y77695D01*
G01X-444844Y85125D01*
G01X-432878Y95726D01*
G01X-423796Y108882D01*
G01X-418128Y123830D01*
G01X-416201Y139700D01*
G01X-418128Y155570D01*
G01X-423796Y170518D01*
G01X-432878Y183674D01*
G01X-444844Y194275D01*
G01X-458999Y201705D01*
G01X-474521Y205531D01*
G01X-490508Y205531D01*
G01X-506030Y201705D01*
G01X-520185Y194275D01*
G01X-532151Y183674D01*
G01X-541233Y170518D01*
G01X-546902Y155570D01*
G01X-548829Y139700D01*
G01X-548829Y139700D01*
G01X-809908Y139700D01*
G01X-804882Y146982D01*
G01X-799213Y161930D01*
G01X-797286Y177800D01*
G01X-799213Y193670D01*
G01X-804882Y208618D01*
G01X-813963Y221774D01*
G01X-821668Y228600D01*
G01X555986Y228600D01*
G01X557913Y212730D01*
G01X563582Y197782D01*
G01X572663Y184626D01*
G01X584629Y174025D01*
G01X598785Y166595D01*
G01X614307Y162769D01*
G01X630293Y162769D01*
G01X645815Y166595D01*
G01X659971Y174025D01*
G01X671937Y184626D01*
G01X681018Y197782D01*
G01X686687Y212730D01*
G01X688614Y228600D01*
G01X686687Y244470D01*
G01X681018Y259418D01*
G01X671937Y272574D01*
G01X659971Y283175D01*
G01X645815Y290605D01*
G01X630293Y294431D01*
G01X614307Y294431D01*
G01X598785Y290605D01*
G01X584629Y283175D01*
G01X572663Y272574D01*
G01X563582Y259418D01*
G01X557913Y244470D01*
G01X555986Y228600D01*
G01X555986Y228600D01*
G01X-821668Y228600D01*
G01X-825929Y232375D01*
G01X-840085Y239805D01*
G01X-855607Y243631D01*
G01X-871593Y243631D01*
G01X-887115Y239805D01*
G01X-901271Y232375D01*
G01X-913237Y221774D01*
G01X-922318Y208618D01*
G01X-927987Y193670D01*
G01X-929914Y177800D01*
G01X-929914Y177800D01*
G01X-2225898Y177800D01*
G01X-2221415Y183290D01*
G01X-2150970Y263377D01*
G01X-2077634Y340827D01*
G01X-2001506Y415534D01*
G01X-1966559Y447399D01*
G01X-1425151Y447399D01*
G01X-1424083Y432307D01*
G01X-1419623Y417849D01*
G01X-1412001Y404778D01*
G01X-1401615Y393776D01*
G01X-1389006Y385414D01*
G01X-1374829Y380127D01*
G01X-1386893Y370589D01*
G01X-1396436Y358528D01*
G01X-1402944Y344593D01*
G01X-1406067Y329534D01*
G01X-1405637Y314160D01*
G01X-1401677Y299299D01*
G01X-1394400Y285750D01*
G01X-1394400Y285750D01*
G01X-1401912Y271598D01*
G01X-1405810Y256056D01*
G01X-1405867Y240034D01*
G01X-1402080Y224465D01*
G01X-1394669Y210260D01*
G01X-1384067Y198246D01*
G01X-1370893Y189126D01*
G01X-1355916Y183432D01*
G01X-1340011Y181497D01*
G01X-1324106Y183432D01*
G01X-1309129Y189126D01*
G01X-1295955Y198246D01*
G01X-1285353Y210260D01*
G01X-1277942Y224465D01*
G01X-1274154Y240034D01*
G01X-1274211Y256056D01*
G01X-1278110Y271598D01*
G01X-1285622Y285750D01*
G01X-1278111Y299900D01*
G01X-1274212Y315438D01*
G01X-1274153Y331457D01*
G01X-1277938Y347023D01*
G01X-1285344Y361228D01*
G01X-1295941Y373242D01*
G01X-1309110Y382364D01*
G01X-1324082Y388062D01*
G01X-1316923Y393700D01*
G01X35286Y393700D01*
G01X35286Y393700D01*
G01X37213Y377830D01*
G01X42882Y362882D01*
G01X51963Y349726D01*
G01X63929Y339125D01*
G01X78085Y331695D01*
G01X93607Y327869D01*
G01X109593Y327869D01*
G01X125115Y331695D01*
G01X139271Y339125D01*
G01X151237Y349726D01*
G01X160318Y362882D01*
G01X165987Y377830D01*
G01X167914Y393700D01*
G01X165987Y409570D01*
G01X160318Y424518D01*
G01X151237Y437674D01*
G01X139271Y448275D01*
G01X125115Y455705D01*
G01X109593Y459531D01*
G01X93607Y459531D01*
G01X78085Y455705D01*
G01X63929Y448275D01*
G01X51963Y437674D01*
G01X42882Y424518D01*
G01X37213Y409570D01*
G01X35286Y393700D01*
G01X-1316923Y393700D01*
G01X-1312195Y397423D01*
G01X-1302740Y409235D01*
G01X-1296208Y422883D01*
G01X-1292940Y437656D01*
G01X-1293106Y452786D01*
G01X-1296696Y467484D01*
G01X-1303525Y480985D01*
G01X-1313237Y492588D01*
G01X-1325326Y501687D01*
G01X-1339162Y507809D01*
G01X-1354026Y510635D01*
G01X-1369144Y510018D01*
G01X-1383729Y505991D01*
G01X-1397021Y498762D01*
G01X-1408328Y488709D01*
G01X-1417062Y476354D01*
G01X-1422769Y462341D01*
G01X-1425151Y447399D01*
G01X-1966559Y447399D01*
G01X-1922690Y487399D01*
G01X-1841291Y556324D01*
G01X-1757418Y622218D01*
G01X-1748160Y628957D01*
G01X1115062Y628957D01*
G01X1118336Y613594D01*
G01X1125132Y599431D01*
G01X1135068Y587265D01*
G01X1147587Y577777D01*
G01X1161987Y571500D01*
G01X1147587Y565223D01*
G01X1135068Y555735D01*
G01X1125132Y543569D01*
G01X1118336Y529406D01*
G01X1115062Y514043D01*
G01X1115493Y498340D01*
G01X1119606Y483180D01*
G01X1127169Y469412D01*
G01X1137758Y457810D01*
G01X1150780Y449023D01*
G01X1165502Y443546D01*
G01X1181100Y441686D01*
G01X1181100Y441686D01*
G01X1196698Y443546D01*
G01X1211420Y449023D01*
G01X1224442Y457810D01*
G01X1235031Y469412D01*
G01X1242594Y483180D01*
G01X1246707Y498340D01*
G01X1247138Y514043D01*
G01X1243864Y529406D01*
G01X1237068Y543569D01*
G01X1227132Y555735D01*
G01X1214613Y565223D01*
G01X1200213Y571500D01*
G01X1214613Y577777D01*
G01X1227132Y587265D01*
G01X1237068Y599431D01*
G01X1243864Y613594D01*
G01X1247138Y628957D01*
G01X1246707Y644660D01*
G01X1242594Y659820D01*
G01X1235031Y673588D01*
G01X1224442Y685190D01*
G01X1211420Y693977D01*
G01X1196698Y699454D01*
G01X1181100Y701314D01*
G01X1165502Y699454D01*
G01X1150780Y693977D01*
G01X1137758Y685190D01*
G01X1127169Y673588D01*
G01X1119606Y659820D01*
G01X1115493Y644660D01*
G01X1115062Y628957D01*
G01X-1748160Y628957D01*
G01X-1671184Y684990D01*
G01X-1450846Y839289D01*
G01X-1210403Y839289D01*
G01X-1208477Y823419D01*
G01X-1202808Y808472D01*
G01X-1193726Y795315D01*
G01X-1181760Y784714D01*
G01X-1167605Y777285D01*
G01X-1152083Y773459D01*
G01X-1136096Y773459D01*
G01X-1120574Y777285D01*
G01X-1106419Y784714D01*
G01X-1094453Y795315D01*
G01X-1085371Y808472D01*
G01X-1083730Y812800D01*
G01X1444986Y812800D01*
G01X1446913Y796930D01*
G01X1452582Y781982D01*
G01X1461663Y768826D01*
G01X1473629Y758225D01*
G01X1487785Y750795D01*
G01X1503307Y746969D01*
G01X1519293Y746969D01*
G01X1534815Y750795D01*
G01X1548971Y758225D01*
G01X1560937Y768826D01*
G01X1570018Y781982D01*
G01X1575687Y796930D01*
G01X1577614Y812800D01*
G01X1838686Y812800D01*
G01X1840613Y796930D01*
G01X1846282Y781982D01*
G01X1855363Y768826D01*
G01X1867329Y758225D01*
G01X1881485Y750795D01*
G01X1897007Y746969D01*
G01X1912993Y746969D01*
G01X1928515Y750795D01*
G01X1942671Y758225D01*
G01X1954637Y768826D01*
G01X1963718Y781982D01*
G01X1969387Y796930D01*
G01X1971314Y812800D01*
G01X1969387Y828670D01*
G01X1963718Y843618D01*
G01X1954637Y856774D01*
G01X1942671Y867375D01*
G01X1928515Y874805D01*
G01X1912993Y878631D01*
G01X1897007Y878631D01*
G01X1881485Y874805D01*
G01X1867329Y867375D01*
G01X1855363Y856774D01*
G01X1846282Y843618D01*
G01X1840613Y828670D01*
G01X1838686Y812800D01*
G01X1838686Y812800D01*
G01X1577614Y812800D01*
G01X1577614Y812800D01*
G01X1575687Y828670D01*
G01X1570018Y843618D01*
G01X1560937Y856774D01*
G01X1548971Y867375D01*
G01X1534815Y874805D01*
G01X1519293Y878631D01*
G01X1503307Y878631D01*
G01X1487785Y874805D01*
G01X1473629Y867375D01*
G01X1461663Y856774D01*
G01X1452582Y843618D01*
G01X1446913Y828670D01*
G01X1444986Y812800D01*
G01X1444986Y812800D01*
G01X-1083730Y812800D01*
G01X-1079702Y823419D01*
G01X-1077775Y839289D01*
G01X-1079702Y855159D01*
G01X-1085371Y870107D01*
G01X-1094453Y883264D01*
G01X-1106419Y893865D01*
G01X-1120574Y901294D01*
G01X-1136096Y905120D01*
G01X-1152083Y905120D01*
G01X-1167605Y901294D01*
G01X-1181760Y893865D01*
G01X-1193726Y883264D01*
G01X-1202808Y870107D01*
G01X-1208477Y855159D01*
G01X-1210403Y839289D01*
G01X-1210403Y839289D01*
G01X-1450846Y839289D01*
G01X-1043375Y1124635D01*
G01X-1041722Y1125793D01*
G01X-999018Y1155700D01*
G01X-451014Y1155700D01*
G01X-449178Y1134721D01*
G01X-443728Y1114379D01*
G01X-434828Y1095293D01*
G01X-422749Y1078042D01*
G01X-407858Y1063151D01*
G01X-390607Y1051072D01*
G01X-371521Y1042172D01*
G01X-351179Y1036722D01*
G01X-330200Y1034886D01*
G01X-309221Y1036722D01*
G01X-288879Y1042172D01*
G01X-269793Y1051072D01*
G01X-252542Y1063151D01*
G01X-237651Y1078042D01*
G01X-225572Y1095293D01*
G01X-216672Y1114379D01*
G01X-211222Y1134721D01*
G01X-209386Y1155700D01*
G01X-209386Y1155700D01*
G01X-197014Y1155700D01*
G01X-195178Y1134721D01*
G01X-189728Y1114379D01*
G01X-180828Y1095293D01*
G01X-168749Y1078042D01*
G01X-153858Y1063151D01*
G01X-136607Y1051072D01*
G01X-117521Y1042172D01*
G01X-97179Y1036722D01*
G01X-76200Y1034886D01*
G01X-55221Y1036722D01*
G01X-34879Y1042172D01*
G01X-15793Y1051072D01*
G01X1458Y1063151D01*
G01X16349Y1078042D01*
G01X28428Y1095293D01*
G01X37328Y1114379D01*
G01X42778Y1134721D01*
G01X44614Y1155700D01*
G01X56986Y1155700D01*
G01X58822Y1134721D01*
G01X64272Y1114379D01*
G01X73172Y1095293D01*
G01X85251Y1078042D01*
G01X100142Y1063151D01*
G01X117393Y1051072D01*
G01X136479Y1042172D01*
G01X156821Y1036722D01*
G01X177800Y1034886D01*
G01X198779Y1036722D01*
G01X219121Y1042172D01*
G01X238207Y1051072D01*
G01X255458Y1063151D01*
G01X270349Y1078042D01*
G01X282428Y1095293D01*
G01X291328Y1114379D01*
G01X296778Y1134721D01*
G01X298614Y1155700D01*
G01X298614Y1155700D01*
G01X296778Y1176679D01*
G01X291328Y1197021D01*
G01X282428Y1216107D01*
G01X270349Y1233358D01*
G01X255458Y1248249D01*
G01X238207Y1260328D01*
G01X219121Y1269228D01*
G01X198779Y1274678D01*
G01X177800Y1276514D01*
G01X156821Y1274678D01*
G01X136479Y1269228D01*
G01X117393Y1260328D01*
G01X100142Y1248249D01*
G01X85251Y1233358D01*
G01X73172Y1216107D01*
G01X64272Y1197021D01*
G01X58822Y1176679D01*
G01X56986Y1155700D01*
G01X44614Y1155700D01*
G01X44614Y1155700D01*
G01X42778Y1176679D01*
G01X37328Y1197021D01*
G01X28428Y1216107D01*
G01X16349Y1233358D01*
G01X1458Y1248249D01*
G01X-15793Y1260328D01*
G01X-34879Y1269228D01*
G01X-55221Y1274678D01*
G01X-76200Y1276514D01*
G01X-97179Y1274678D01*
G01X-117521Y1269228D01*
G01X-136607Y1260328D01*
G01X-153858Y1248249D01*
G01X-168749Y1233358D01*
G01X-180828Y1216107D01*
G01X-189728Y1197021D01*
G01X-195178Y1176679D01*
G01X-197014Y1155700D01*
G01X-209386Y1155700D01*
G01X-211222Y1176679D01*
G01X-216672Y1197021D01*
G01X-225572Y1216107D01*
G01X-237651Y1233358D01*
G01X-252542Y1248249D01*
G01X-269793Y1260328D01*
G01X-288879Y1269228D01*
G01X-309221Y1274678D01*
G01X-330200Y1276514D01*
G01X-351179Y1274678D01*
G01X-371521Y1269228D01*
G01X-390607Y1260328D01*
G01X-407858Y1248249D01*
G01X-422749Y1233358D01*
G01X-434828Y1216107D01*
G01X-443728Y1197021D01*
G01X-449178Y1176679D01*
G01X-451014Y1155700D01*
G01X-999018Y1155700D01*
G01X-963628Y1180484D01*
G01X-961549Y1181941D01*
G01X-636330Y1409700D01*
G01X-451014Y1409700D01*
G01X-449178Y1388721D01*
G01X-443728Y1368379D01*
G01X-434828Y1349293D01*
G01X-422749Y1332042D01*
G01X-407858Y1317151D01*
G01X-390607Y1305072D01*
G01X-371521Y1296172D01*
G01X-351179Y1290722D01*
G01X-330200Y1288886D01*
G01X-309221Y1290722D01*
G01X-288879Y1296172D01*
G01X-269793Y1305072D01*
G01X-252542Y1317151D01*
G01X-237651Y1332042D01*
G01X-225572Y1349293D01*
G01X-216672Y1368379D01*
G01X-211222Y1388721D01*
G01X-209386Y1409700D01*
G01X-209386Y1409700D01*
G01X-197014Y1409700D01*
G01X-195178Y1388721D01*
G01X-189728Y1368379D01*
G01X-180828Y1349293D01*
G01X-168749Y1332042D01*
G01X-153858Y1317151D01*
G01X-136607Y1305072D01*
G01X-117521Y1296172D01*
G01X-97179Y1290722D01*
G01X-76200Y1288886D01*
G01X-55221Y1290722D01*
G01X-34879Y1296172D01*
G01X-15793Y1305072D01*
G01X1458Y1317151D01*
G01X9007Y1324700D01*
G01X56986Y1324700D01*
G01X58739Y1313633D01*
G01X63826Y1303649D01*
G01X71749Y1295726D01*
G01X81733Y1290639D01*
G01X92800Y1288886D01*
G01X262800Y1288886D01*
G01X273867Y1290639D01*
G01X283851Y1295726D01*
G01X291774Y1303649D01*
G01X296861Y1313633D01*
G01X298614Y1324700D01*
G01X298614Y1397000D01*
G01X685886Y1397000D01*
G01X687898Y1375510D01*
G01X693861Y1354767D01*
G01X703570Y1335491D01*
G01X716687Y1318351D01*
G01X732757Y1303942D01*
G01X751222Y1292766D01*
G01X771439Y1285210D01*
G01X792707Y1281536D01*
G01X814288Y1281872D01*
G01X835432Y1286207D01*
G01X855404Y1294390D01*
G01X873511Y1306137D01*
G01X889124Y1321039D01*
G01X901700Y1338580D01*
G01X914276Y1321039D01*
G01X929889Y1306137D01*
G01X947996Y1294390D01*
G01X967968Y1286207D01*
G01X989112Y1281872D01*
G01X1010693Y1281536D01*
G01X1031961Y1285210D01*
G01X1052178Y1292766D01*
G01X1070643Y1303942D01*
G01X1086713Y1318351D01*
G01X1099830Y1335491D01*
G01X1109539Y1354767D01*
G01X1114562Y1372239D01*
G01X2441315Y1372239D01*
G01X2443167Y1349885D01*
G01X2448674Y1328140D01*
G01X2457684Y1307599D01*
G01X2469953Y1288820D01*
G01X2485145Y1272317D01*
G01X2502846Y1258540D01*
G01X2522573Y1247864D01*
G01X2543789Y1240581D01*
G01X2565914Y1236889D01*
G01X2588345Y1236889D01*
G01X2610470Y1240581D01*
G01X2631685Y1247864D01*
G01X2651412Y1258540D01*
G01X2669114Y1272317D01*
G01X2684306Y1288820D01*
G01X2696574Y1307599D01*
G01X2705584Y1328140D01*
G01X2711091Y1349885D01*
G01X2712943Y1372239D01*
G01X2711091Y1394593D01*
G01X2705584Y1416338D01*
G01X2696574Y1436879D01*
G01X2684306Y1455658D01*
G01X2669114Y1472161D01*
G01X2651412Y1485938D01*
G01X2631685Y1496614D01*
G01X2610470Y1503897D01*
G01X2588345Y1507589D01*
G01X2565914Y1507589D01*
G01X2543789Y1503897D01*
G01X2522573Y1496614D01*
G01X2502846Y1485938D01*
G01X2485145Y1472161D01*
G01X2469953Y1455658D01*
G01X2457684Y1436879D01*
G01X2448674Y1416338D01*
G01X2443167Y1394593D01*
G01X2441315Y1372239D01*
G01X2441315Y1372239D01*
G01X1114562Y1372239D01*
G01X1115502Y1375510D01*
G01X1117514Y1397000D01*
G01X1115502Y1418490D01*
G01X1109539Y1439233D01*
G01X1099830Y1458509D01*
G01X1086713Y1475649D01*
G01X1070643Y1490058D01*
G01X1052178Y1501234D01*
G01X1031961Y1508790D01*
G01X1010693Y1512464D01*
G01X989112Y1512128D01*
G01X967968Y1507793D01*
G01X947996Y1499610D01*
G01X929889Y1487863D01*
G01X914276Y1472961D01*
G01X901700Y1455420D01*
G01X889124Y1472961D01*
G01X873511Y1487863D01*
G01X855404Y1499610D01*
G01X835432Y1507793D01*
G01X814288Y1512128D01*
G01X792707Y1512464D01*
G01X771439Y1508790D01*
G01X751222Y1501234D01*
G01X732757Y1490058D01*
G01X716687Y1475649D01*
G01X703570Y1458509D01*
G01X693861Y1439233D01*
G01X687898Y1418490D01*
G01X685886Y1397000D01*
G01X685886Y1397000D01*
G01X298614Y1397000D01*
G01X298614Y1494700D01*
G01X296861Y1505767D01*
G01X291774Y1515751D01*
G01X283851Y1523674D01*
G01X273867Y1528761D01*
G01X262800Y1530514D01*
G01X92800Y1530514D01*
G01X92800Y1530514D01*
G01X81733Y1528761D01*
G01X71749Y1523674D01*
G01X63826Y1515751D01*
G01X58739Y1505767D01*
G01X56986Y1494700D01*
G01X56986Y1324700D01*
G01X9007Y1324700D01*
G01X16349Y1332042D01*
G01X28428Y1349293D01*
G01X37328Y1368379D01*
G01X42778Y1388721D01*
G01X44614Y1409700D01*
G01X44614Y1409700D01*
G01X42778Y1430679D01*
G01X37328Y1451021D01*
G01X28428Y1470107D01*
G01X16349Y1487358D01*
G01X1458Y1502249D01*
G01X-15793Y1514328D01*
G01X-34879Y1523228D01*
G01X-55221Y1528678D01*
G01X-76200Y1530514D01*
G01X-97179Y1528678D01*
G01X-117521Y1523228D01*
G01X-136607Y1514328D01*
G01X-153858Y1502249D01*
G01X-168749Y1487358D01*
G01X-180828Y1470107D01*
G01X-189728Y1451021D01*
G01X-195178Y1430679D01*
G01X-197014Y1409700D01*
G01X-209386Y1409700D01*
G01X-211222Y1430679D01*
G01X-216672Y1451021D01*
G01X-225572Y1470107D01*
G01X-237651Y1487358D01*
G01X-252542Y1502249D01*
G01X-269793Y1514328D01*
G01X-288879Y1523228D01*
G01X-309221Y1528678D01*
G01X-330200Y1530514D01*
G01X-351179Y1528678D01*
G01X-371521Y1523228D01*
G01X-390607Y1514328D01*
G01X-407858Y1502249D01*
G01X-422749Y1487358D01*
G01X-434828Y1470107D01*
G01X-443728Y1451021D01*
G01X-449178Y1430679D01*
G01X-451014Y1409700D01*
G01X-636330Y1409700D01*
G01X-462983Y1531099D01*
G01X1647596Y1531099D01*
G01X1649372Y1515341D01*
G01X1654609Y1500374D01*
G01X1663046Y1486947D01*
G01X1674259Y1475734D01*
G01X1687686Y1467297D01*
G01X1702654Y1462060D01*
G01X1718412Y1460284D01*
G01X1734169Y1462060D01*
G01X1749137Y1467297D01*
G01X1762564Y1475734D01*
G01X1773777Y1486947D01*
G01X1782214Y1500374D01*
G01X1787451Y1515341D01*
G01X1789227Y1531099D01*
G01X1789227Y1531099D01*
G01X1817599Y1531099D01*
G01X1819374Y1515341D01*
G01X1824612Y1500374D01*
G01X1833048Y1486947D01*
G01X1844261Y1475734D01*
G01X1857688Y1467297D01*
G01X1872656Y1462060D01*
G01X1888414Y1460284D01*
G01X1904172Y1462060D01*
G01X1919139Y1467297D01*
G01X1932566Y1475734D01*
G01X1943779Y1486947D01*
G01X1952216Y1500374D01*
G01X1957454Y1515341D01*
G01X1959229Y1531099D01*
G01X1957454Y1546857D01*
G01X1952216Y1561825D01*
G01X1943779Y1575252D01*
G01X1932566Y1586465D01*
G01X1919139Y1594902D01*
G01X1904172Y1600139D01*
G01X1888414Y1601915D01*
G01X1872656Y1600139D01*
G01X1857688Y1594902D01*
G01X1844261Y1586465D01*
G01X1833048Y1575252D01*
G01X1824612Y1561825D01*
G01X1819374Y1546857D01*
G01X1817599Y1531099D01*
G01X1817599Y1531099D01*
G01X1789227Y1531099D01*
G01X1787451Y1546857D01*
G01X1782214Y1561825D01*
G01X1773777Y1575252D01*
G01X1762564Y1586465D01*
G01X1749137Y1594902D01*
G01X1734169Y1600139D01*
G01X1718412Y1601915D01*
G01X1702654Y1600139D01*
G01X1687686Y1594902D01*
G01X1674259Y1586465D01*
G01X1663046Y1575252D01*
G01X1654609Y1561825D01*
G01X1649372Y1546857D01*
G01X1647596Y1531099D01*
G01X1647596Y1531099D01*
G01X-462983Y1531099D01*
G01X-453564Y1537696D01*
G01X-416725Y1563495D01*
G01X-407385Y1570020D01*
G01X-400604Y1574620D01*
G01X-394100Y1578887D01*
G01X-387815Y1582879D01*
G01X-381732Y1586622D01*
G01X-375756Y1590186D01*
G01X-369913Y1593567D01*
G01X-364092Y1596833D01*
G01X-358323Y1599975D01*
G01X-352497Y1603050D01*
G01X-346576Y1606079D01*
G01X-340546Y1609065D01*
G01X-334331Y1612041D01*
G01X-327864Y1615030D01*
G01X-321120Y1618032D01*
G01X-314053Y1621054D01*
G01X-306583Y1624114D01*
G01X-298956Y1627097D01*
G01X-291289Y1629957D01*
G01X-283587Y1632691D01*
G01X-275840Y1635302D01*
G01X-268058Y1637789D01*
G01X-260253Y1640146D01*
G01X-252422Y1642376D01*
G01X-244551Y1644483D01*
G01X-236643Y1646467D01*
G01X-228721Y1648320D01*
G01X-220759Y1650051D01*
G01X-212780Y1651653D01*
G01X-204789Y1653126D01*
G01X-196755Y1654476D01*
G01X-188719Y1655695D01*
G01X-180668Y1656787D01*
G01X-172567Y1657755D01*
G01X-164480Y1658592D01*
G01X-156368Y1659301D01*
G01X-148302Y1659877D01*
G01X-140029Y1660335D01*
G01X-131947Y1660657D01*
G01X-123945Y1660847D01*
G01X2389866Y1660582D01*
G01X2434645Y1658642D01*
G01X2479083Y1652805D01*
G01X2522843Y1643116D01*
G01X2565592Y1629648D01*
G01X2607004Y1612504D01*
G01X2646763Y1591814D01*
G01X2684567Y1567736D01*
G01X2720127Y1540454D01*
G01X2753173Y1510175D01*
G01X2783453Y1477130D01*
G01X2810737Y1441571D01*
G01X2834816Y1403768D01*
G01X2855507Y1364010D01*
G01X2872653Y1322599D01*
G01X2886122Y1279850D01*
G01X2895813Y1236090D01*
G01X2901652Y1191652D01*
G01X2903593Y1146874D01*
G01X2903593Y1144027D01*
G01X2903599Y1128014D01*
G01X2379500Y1128014D01*
G01X2365067Y1126412D01*
G01X2351337Y1121684D01*
G01X2338978Y1114060D01*
G01X2336347Y1125457D01*
G01X2331755Y1136214D01*
G01X2325344Y1145997D01*
G01X2333171Y1158581D01*
G01X2338008Y1172589D01*
G01X2339614Y1187321D01*
G01X2337907Y1202042D01*
G01X2332974Y1216017D01*
G01X2325061Y1228547D01*
G01X2332993Y1241116D01*
G01X2337927Y1255137D01*
G01X2339614Y1269904D01*
G01X2337970Y1284676D01*
G01X2333077Y1298711D01*
G01X2325181Y1311303D01*
G01X2314678Y1321821D01*
G01X2302097Y1329735D01*
G01X2288070Y1334648D01*
G01X2273300Y1336314D01*
G01X2258530Y1334648D01*
G01X2244503Y1329735D01*
G01X2231922Y1321821D01*
G01X2221419Y1311303D01*
G01X2213523Y1298711D01*
G01X2208630Y1284676D01*
G01X2206986Y1269904D01*
G01X2208673Y1255137D01*
G01X2213607Y1241116D01*
G01X2221539Y1228547D01*
G01X2213626Y1216017D01*
G01X2208693Y1202042D01*
G01X2206986Y1187321D01*
G01X2208592Y1172589D01*
G01X2213429Y1158581D01*
G01X2221256Y1145997D01*
G01X2212946Y1132377D01*
G01X2208130Y1117167D01*
G01X2207087Y1101248D01*
G01X2209875Y1085539D01*
G01X2216335Y1070951D01*
G01X2226091Y1058328D01*
G01X2238581Y1048401D01*
G01X2253079Y1041744D01*
G01X2268749Y1038742D01*
G01X2284681Y1039570D01*
G01X2299955Y1044179D01*
G01X2313686Y1052302D01*
G01X2313686Y-820900D01*
G01X2315336Y-835545D01*
G01X2320204Y-849456D01*
G01X2328045Y-861934D01*
G01X2338466Y-872355D01*
G01X2350944Y-880196D01*
G01X2364855Y-885064D01*
G01X2379500Y-886714D01*
G01X2903844Y-886714D01*
G01X2903863Y-1121682D01*
G01X2903854Y-1381295D01*
G01X2893259Y-1360559D01*
G01X2879277Y-1341937D01*
G01X2862319Y-1325977D01*
G01X2842884Y-1313149D01*
G01X2821544Y-1303830D01*
G01X2798925Y-1298293D01*
G01X2775693Y-1296701D01*
G01X2752530Y-1299101D01*
G01X2730118Y-1305423D01*
G01X2709116Y-1315481D01*
G01X2690140Y-1328978D01*
G01X2673749Y-1345519D01*
G01X2660424Y-1364617D01*
G01X2650558Y-1385710D01*
G01X2644440Y-1408179D01*
G01X2642251Y-1431362D01*
G01X2631967Y-1421211D01*
G01X2619728Y-1413528D01*
G01X2606115Y-1408679D01*
G01X2591776Y-1406893D01*
G01X2586747Y-1393013D01*
G01X2578773Y-1380589D01*
G01X2568247Y-1370238D01*
G01X2555692Y-1362471D01*
G01X2541730Y-1357675D01*
G01X2527053Y-1356086D01*
G01X2512388Y-1357784D01*
G01X2498462Y-1362685D01*
G01X2485966Y-1370544D01*
G01X2475517Y-1380974D01*
G01X2467636Y-1393457D01*
G01X2462711Y-1407374D01*
G01X2460987Y-1422036D01*
G01X2462550Y-1436716D01*
G01X2467321Y-1450686D01*
G01X2475065Y-1463255D01*
G01X2485398Y-1473799D01*
G01X2497808Y-1481795D01*
G01X2511679Y-1486848D01*
G01X2526324Y-1488707D01*
G01X2531289Y-1502458D01*
G01X2539146Y-1514787D01*
G01X2549514Y-1525095D01*
G01X2561889Y-1532880D01*
G01X2575668Y-1537765D01*
G01X2590183Y-1539511D01*
G01X2604728Y-1538035D01*
G01X2618597Y-1533407D01*
G01X2631114Y-1525853D01*
G01X2641671Y-1515740D01*
G01X2649756Y-1503559D01*
G01X2654976Y-1489903D01*
G01X2666124Y-1509409D01*
G01X2680336Y-1526810D01*
G01X2697221Y-1541630D01*
G01X2716319Y-1553463D01*
G01X2737106Y-1561986D01*
G01X2759014Y-1566966D01*
G01X2781443Y-1568266D01*
G01X2803779Y-1565851D01*
G01X2825412Y-1559786D01*
G01X2845749Y-1550238D01*
G01X2864234Y-1537468D01*
G01X2880360Y-1521826D01*
G01X2893687Y-1503739D01*
G01X2903850Y-1483702D01*
G01X2903846Y-1596588D01*
G01X2902237Y-1610870D01*
G01X2897490Y-1624435D01*
G01X2889843Y-1636604D01*
G01X2879681Y-1646767D01*
G01X2867512Y-1654414D01*
G01X2853947Y-1659162D01*
G01X2839665Y-1660772D01*
G01X1136725Y-1660915D01*
G01X1122441Y-1659307D01*
G01X1108874Y-1654561D01*
G01X1096702Y-1646914D01*
G01X1086538Y-1636751D01*
G01X1078890Y-1624580D01*
G01X1074143Y-1611013D01*
G01X1072533Y-1596730D01*
G01X1072515Y-1436300D01*
G01X1251287Y-1436300D01*
G01X1251287Y-1586300D01*
G01X1253039Y-1597367D01*
G01X1258126Y-1607351D01*
G01X1266050Y-1615274D01*
G01X1276033Y-1620361D01*
G01X1287101Y-1622114D01*
G01X1437100Y-1622114D01*
G01X1448167Y-1620361D01*
G01X1458151Y-1615274D01*
G01X1466074Y-1607351D01*
G01X1471161Y-1597367D01*
G01X1472914Y-1586300D01*
G01X1472914Y-1577069D01*
G01X1486724Y-1592529D01*
G01X1503171Y-1605146D01*
G01X1521680Y-1614479D01*
G01X1541604Y-1620202D01*
G01X1562245Y-1622114D01*
G01X1582881Y-1620148D01*
G01X1602790Y-1614373D01*
G01X1621274Y-1604992D01*
G01X1637689Y-1592331D01*
G01X1651458Y-1576836D01*
G01X1662100Y-1559047D01*
G01X1672247Y-1576155D01*
G01X1685289Y-1591174D01*
G01X1700806Y-1603619D01*
G01X1718298Y-1613089D01*
G01X1737201Y-1619280D01*
G01X1756906Y-1621992D01*
G01X1776779Y-1621137D01*
G01X1796179Y-1616743D01*
G01X1814480Y-1608952D01*
G01X1831094Y-1598015D01*
G01X1845485Y-1584283D01*
G01X1857190Y-1568200D01*
G01X1865830Y-1550283D01*
G01X1871128Y-1531111D01*
G01X1872913Y-1511300D01*
G01X1871128Y-1491489D01*
G01X1865830Y-1472317D01*
G01X1857190Y-1454400D01*
G01X1845485Y-1438317D01*
G01X1831094Y-1424585D01*
G01X1814480Y-1413648D01*
G01X1796179Y-1405857D01*
G01X1776785Y-1401464D01*
G01X2054837Y-1401464D01*
G01X2055436Y-1417811D01*
G01X2060020Y-1433514D01*
G01X2068307Y-1447617D01*
G01X2079795Y-1459262D01*
G01X2068307Y-1470908D01*
G01X2060020Y-1485011D01*
G01X2055436Y-1500713D01*
G01X2054837Y-1517060D01*
G01X2058257Y-1533057D01*
G01X2065488Y-1547729D01*
G01X2076092Y-1560185D01*
G01X2089422Y-1569667D01*
G01X2104667Y-1575597D01*
G01X2120900Y-1577614D01*
G01X2120900Y-1577614D01*
G01X2137133Y-1575597D01*
G01X2152378Y-1569667D01*
G01X2165708Y-1560185D01*
G01X2176312Y-1547729D01*
G01X2183543Y-1533057D01*
G01X2186963Y-1517060D01*
G01X2186364Y-1500713D01*
G01X2181780Y-1485011D01*
G01X2173493Y-1470908D01*
G01X2162005Y-1459262D01*
G01X2173493Y-1447617D01*
G01X2181780Y-1433514D01*
G01X2186364Y-1417811D01*
G01X2186963Y-1401464D01*
G01X2183543Y-1385468D01*
G01X2176312Y-1370795D01*
G01X2165708Y-1358339D01*
G01X2152378Y-1348858D01*
G01X2137133Y-1342928D01*
G01X2120900Y-1340910D01*
G01X2104667Y-1342928D01*
G01X2089422Y-1348858D01*
G01X2076092Y-1358339D01*
G01X2065488Y-1370795D01*
G01X2058257Y-1385468D01*
G01X2054837Y-1401464D01*
G01X1776785Y-1401464D01*
G01X1776779Y-1401463D01*
G01X1756906Y-1400608D01*
G01X1737201Y-1403320D01*
G01X1718298Y-1409511D01*
G01X1700806Y-1418981D01*
G01X1685289Y-1431426D01*
G01X1672247Y-1446445D01*
G01X1662100Y-1463553D01*
G01X1651458Y-1445764D01*
G01X1637689Y-1430269D01*
G01X1621274Y-1417608D01*
G01X1602790Y-1408227D01*
G01X1582881Y-1402452D01*
G01X1562245Y-1400486D01*
G01X1541604Y-1402398D01*
G01X1521680Y-1408121D01*
G01X1503171Y-1417454D01*
G01X1486724Y-1430071D01*
G01X1472914Y-1445531D01*
G01X1472914Y-1436300D01*
G01X1472914Y-1436300D01*
G01X1471161Y-1425233D01*
G01X1466074Y-1415249D01*
G01X1458151Y-1407326D01*
G01X1448167Y-1402239D01*
G01X1437100Y-1400486D01*
G01X1405892Y-1400486D01*
G01X1410826Y-1386465D01*
G01X1412514Y-1371697D01*
G01X1410870Y-1356925D01*
G01X1405977Y-1342889D01*
G01X1398080Y-1330297D01*
G01X1387578Y-1319779D01*
G01X1374996Y-1311864D01*
G01X1360968Y-1306951D01*
G01X1346197Y-1305286D01*
G01X1331427Y-1306952D01*
G01X1317399Y-1311867D01*
G01X1304818Y-1319782D01*
G01X1294316Y-1330301D01*
G01X1286421Y-1342894D01*
G01X1281529Y-1356930D01*
G01X1279886Y-1371703D01*
G01X1281575Y-1386470D01*
G01X1286510Y-1400491D01*
G01X1275585Y-1402388D01*
G01X1265764Y-1407536D01*
G01X1257988Y-1415441D01*
G01X1253003Y-1425345D01*
G01X1251287Y-1436300D01*
G01X1072515Y-1436300D01*
G01X1072488Y-1206500D01*
G01X1279886Y-1206500D01*
G01X1281813Y-1222370D01*
G01X1287482Y-1237318D01*
G01X1296563Y-1250474D01*
G01X1308529Y-1261075D01*
G01X1322685Y-1268505D01*
G01X1338207Y-1272331D01*
G01X1354193Y-1272331D01*
G01X1369715Y-1268505D01*
G01X1383871Y-1261075D01*
G01X1395837Y-1250474D01*
G01X1404918Y-1237318D01*
G01X1410587Y-1222370D01*
G01X1412514Y-1206500D01*
G01X1410587Y-1190630D01*
G01X1404918Y-1175682D01*
G01X1395837Y-1162526D01*
G01X1383871Y-1151925D01*
G01X1369715Y-1144495D01*
G01X1354193Y-1140669D01*
G01X1338207Y-1140669D01*
G01X1322685Y-1144495D01*
G01X1308529Y-1151925D01*
G01X1296563Y-1162526D01*
G01X1287482Y-1175682D01*
G01X1281813Y-1190630D01*
G01X1279886Y-1206500D01*
G01X1279886Y-1206500D01*
G01X1072488Y-1206500D01*
G01X1072472Y-1066800D01*
G01X1787886Y-1066800D01*
G01X1789813Y-1082670D01*
G01X1795482Y-1097618D01*
G01X1804563Y-1110774D01*
G01X1816529Y-1121375D01*
G01X1830685Y-1128805D01*
G01X1846207Y-1132631D01*
G01X1862193Y-1132631D01*
G01X1877715Y-1128805D01*
G01X1891871Y-1121375D01*
G01X1903837Y-1110774D01*
G01X1912918Y-1097618D01*
G01X1918587Y-1082670D01*
G01X1920514Y-1066800D01*
G01X1918587Y-1050930D01*
G01X1912918Y-1035982D01*
G01X1903837Y-1022826D01*
G01X1891871Y-1012225D01*
G01X1877715Y-1004795D01*
G01X1871649Y-1003300D01*
G01X2173986Y-1003300D01*
G01X2173986Y-1320072D01*
G01X2175381Y-1325279D01*
G01X2179193Y-1329090D01*
G01X2184400Y-1330486D01*
G01X2527300Y-1330486D01*
G01X2532507Y-1329090D01*
G01X2536319Y-1325279D01*
G01X2537714Y-1320072D01*
G01X2537714Y-1003300D01*
G01X2536319Y-998093D01*
G01X2532507Y-994281D01*
G01X2527300Y-992886D01*
G01X2184400Y-992886D01*
G01X2184400Y-992886D01*
G01X2179193Y-994281D01*
G01X2175381Y-998093D01*
G01X2173986Y-1003300D01*
G01X1871649Y-1003300D01*
G01X1862193Y-1000969D01*
G01X1846207Y-1000969D01*
G01X1830685Y-1004795D01*
G01X1816529Y-1012225D01*
G01X1804563Y-1022826D01*
G01X1795482Y-1035982D01*
G01X1789813Y-1050930D01*
G01X1787886Y-1066800D01*
G01X1787886Y-1066800D01*
G01X1072472Y-1066800D01*
G01X1072471Y-1056765D01*
G01X1070798Y-1035519D01*
G01X1065823Y-1014797D01*
G01X1057667Y-995108D01*
G01X1054539Y-990004D01*
G01X1177690Y-990004D01*
G01X1179617Y-1005874D01*
G01X1185286Y-1020822D01*
G01X1194367Y-1033978D01*
G01X1206333Y-1044579D01*
G01X1220489Y-1052009D01*
G01X1236011Y-1055834D01*
G01X1251997Y-1055834D01*
G01X1267519Y-1052009D01*
G01X1281675Y-1044579D01*
G01X1293641Y-1033978D01*
G01X1302722Y-1020822D01*
G01X1308391Y-1005874D01*
G01X1310318Y-990004D01*
G01X1308848Y-977900D01*
G01X1406886Y-977900D01*
G01X1408813Y-993770D01*
G01X1414482Y-1008718D01*
G01X1423563Y-1021874D01*
G01X1435529Y-1032475D01*
G01X1449685Y-1039905D01*
G01X1465207Y-1043731D01*
G01X1481193Y-1043731D01*
G01X1496715Y-1039905D01*
G01X1510871Y-1032475D01*
G01X1522837Y-1021874D01*
G01X1531918Y-1008718D01*
G01X1537587Y-993770D01*
G01X1539514Y-977900D01*
G01X1551847Y-977900D01*
G01X1553773Y-993770D01*
G01X1559442Y-1008718D01*
G01X1568524Y-1021874D01*
G01X1580490Y-1032475D01*
G01X1594645Y-1039905D01*
G01X1610167Y-1043731D01*
G01X1626154Y-1043731D01*
G01X1641676Y-1039905D01*
G01X1655831Y-1032475D01*
G01X1667797Y-1021874D01*
G01X1676879Y-1008718D01*
G01X1682548Y-993770D01*
G01X1684475Y-977900D01*
G01X1682548Y-962030D01*
G01X1676879Y-947082D01*
G01X1667797Y-933926D01*
G01X1655831Y-923325D01*
G01X1641676Y-915895D01*
G01X1626154Y-912069D01*
G01X1610167Y-912069D01*
G01X1594645Y-915895D01*
G01X1580490Y-923325D01*
G01X1568524Y-933926D01*
G01X1559442Y-947082D01*
G01X1553773Y-962030D01*
G01X1551847Y-977900D01*
G01X1551847Y-977900D01*
G01X1539514Y-977900D01*
G01X1539514Y-977900D01*
G01X1537587Y-962030D01*
G01X1531918Y-947082D01*
G01X1522837Y-933926D01*
G01X1510871Y-923325D01*
G01X1496715Y-915895D01*
G01X1481193Y-912069D01*
G01X1465207Y-912069D01*
G01X1449685Y-915895D01*
G01X1435529Y-923325D01*
G01X1423563Y-933926D01*
G01X1414482Y-947082D01*
G01X1408813Y-962030D01*
G01X1406886Y-977900D01*
G01X1406886Y-977900D01*
G01X1308848Y-977900D01*
G01X1308391Y-974134D01*
G01X1302722Y-959186D01*
G01X1293641Y-946030D01*
G01X1281675Y-935428D01*
G01X1267519Y-927999D01*
G01X1251997Y-924173D01*
G01X1236011Y-924173D01*
G01X1220489Y-927999D01*
G01X1206333Y-935428D01*
G01X1194367Y-946030D01*
G01X1185286Y-959186D01*
G01X1179617Y-974134D01*
G01X1177690Y-990004D01*
G01X1177690Y-990004D01*
G01X1054539Y-990004D01*
G01X1046531Y-976937D01*
G01X1032690Y-960732D01*
G01X1016485Y-946892D01*
G01X998314Y-935757D01*
G01X978625Y-927602D01*
G01X957902Y-922627D01*
G01X936656Y-920955D01*
G01X-645857Y-920955D01*
G01X-638549Y-909283D01*
G01X-632990Y-896684D01*
G01X-629294Y-883419D01*
G01X-620067Y-896053D01*
G01X-608138Y-906174D01*
G01X-594169Y-913219D01*
G01X-578939Y-916796D01*
G01X-563294Y-916704D01*
G01X-548107Y-912951D01*
G01X-534221Y-905744D01*
G01X-522410Y-895484D01*
G01X-513332Y-882743D01*
G01X-507490Y-868230D01*
G01X-505212Y-852752D01*
G01X-506623Y-837171D01*
G01X-511644Y-822355D01*
G01X-519997Y-809127D01*
G01X-531217Y-798223D01*
G01X-544678Y-790252D01*
G01X-559633Y-785656D01*
G01X-575248Y-784692D01*
G01X-590654Y-787412D01*
G01X-604994Y-793666D01*
G01X-617470Y-803106D01*
G01X-627388Y-815205D01*
G01X-627388Y-804403D01*
G01X-629229Y-785710D01*
G01X-634681Y-767736D01*
G01X-637747Y-762000D01*
G01X-79014Y-762000D01*
G01X-77087Y-777870D01*
G01X-71418Y-792818D01*
G01X-62337Y-805974D01*
G01X-50371Y-816575D01*
G01X-36215Y-824005D01*
G01X-20693Y-827831D01*
G01X-4707Y-827831D01*
G01X10815Y-824005D01*
G01X24971Y-816575D01*
G01X36937Y-805974D01*
G01X46018Y-792818D01*
G01X51687Y-777870D01*
G01X53614Y-762000D01*
G01X51687Y-746130D01*
G01X46018Y-731182D01*
G01X36937Y-718026D01*
G01X24971Y-707425D01*
G01X10815Y-699995D01*
G01X4749Y-698500D01*
G01X60686Y-698500D01*
G01X62613Y-714370D01*
G01X68282Y-729318D01*
G01X77363Y-742474D01*
G01X89329Y-753075D01*
G01X103485Y-760505D01*
G01X119007Y-764331D01*
G01X134993Y-764331D01*
G01X144449Y-762000D01*
G01X276586Y-762000D01*
G01X278513Y-777870D01*
G01X284182Y-792818D01*
G01X293263Y-805974D01*
G01X305229Y-816575D01*
G01X319385Y-824005D01*
G01X334907Y-827831D01*
G01X350893Y-827831D01*
G01X366415Y-824005D01*
G01X380571Y-816575D01*
G01X392537Y-805974D01*
G01X401618Y-792818D01*
G01X407287Y-777870D01*
G01X409214Y-762000D01*
G01X407287Y-746130D01*
G01X401618Y-731182D01*
G01X392537Y-718026D01*
G01X380571Y-707425D01*
G01X366415Y-699995D01*
G01X350893Y-696169D01*
G01X334907Y-696169D01*
G01X319385Y-699995D01*
G01X305229Y-707425D01*
G01X293263Y-718026D01*
G01X284182Y-731182D01*
G01X278513Y-746130D01*
G01X276586Y-762000D01*
G01X276586Y-762000D01*
G01X144449Y-762000D01*
G01X150515Y-760505D01*
G01X164671Y-753075D01*
G01X176637Y-742474D01*
G01X185718Y-729318D01*
G01X191387Y-714370D01*
G01X193314Y-698500D01*
G01X191387Y-682630D01*
G01X185718Y-667682D01*
G01X176637Y-654526D01*
G01X164671Y-643925D01*
G01X150515Y-636495D01*
G01X134993Y-632669D01*
G01X119007Y-632669D01*
G01X103485Y-636495D01*
G01X89329Y-643925D01*
G01X77363Y-654526D01*
G01X68282Y-667682D01*
G01X62613Y-682630D01*
G01X60686Y-698500D01*
G01X60686Y-698500D01*
G01X4749Y-698500D01*
G01X-4707Y-696169D01*
G01X-20693Y-696169D01*
G01X-36215Y-699995D01*
G01X-50371Y-707425D01*
G01X-62337Y-718026D01*
G01X-71418Y-731182D01*
G01X-77087Y-746130D01*
G01X-79014Y-762000D01*
G01X-79014Y-762000D01*
G01X-637747Y-762000D01*
G01X-643535Y-751171D01*
G01X-655451Y-736652D01*
G01X-669970Y-724736D01*
G01X-686535Y-715882D01*
G01X-704509Y-710430D01*
G01X-723201Y-708589D01*
G01X-741894Y-710430D01*
G01X-759868Y-715882D01*
G01X-776433Y-724736D01*
G01X-790952Y-736652D01*
G01X-802868Y-751171D01*
G01X-811722Y-767736D01*
G01X-817174Y-785710D01*
G01X-819015Y-804403D01*
G01X-819015Y-864403D01*
G01X-817824Y-879463D01*
G01X-814281Y-894148D01*
G01X-808473Y-908095D01*
G01X-800546Y-920955D01*
G01X-1510854Y-920955D01*
G01X-1502927Y-908095D01*
G01X-1497119Y-894148D01*
G01X-1493576Y-879463D01*
G01X-1492385Y-864403D01*
G01X-1492385Y-804403D01*
G01X-1494226Y-785710D01*
G01X-1499678Y-767736D01*
G01X-1502744Y-762000D01*
G01X-1323614Y-762000D01*
G01X-1321687Y-777870D01*
G01X-1316018Y-792818D01*
G01X-1306937Y-805974D01*
G01X-1294971Y-816575D01*
G01X-1280815Y-824005D01*
G01X-1265293Y-827831D01*
G01X-1249307Y-827831D01*
G01X-1233785Y-824005D01*
G01X-1219629Y-816575D01*
G01X-1207663Y-805974D01*
G01X-1198582Y-792818D01*
G01X-1195404Y-784440D01*
G01X-1018354Y-784440D01*
G01X-1016427Y-800310D01*
G01X-1010758Y-815257D01*
G01X-1001677Y-828414D01*
G01X-989710Y-839015D01*
G01X-975555Y-846444D01*
G01X-960033Y-850270D01*
G01X-944046Y-850270D01*
G01X-928524Y-846444D01*
G01X-914369Y-839015D01*
G01X-902403Y-828414D01*
G01X-893322Y-815257D01*
G01X-887653Y-800310D01*
G01X-885726Y-784440D01*
G01X-887653Y-768570D01*
G01X-893322Y-753622D01*
G01X-902403Y-740465D01*
G01X-914369Y-729864D01*
G01X-928524Y-722435D01*
G01X-944046Y-718609D01*
G01X-960033Y-718609D01*
G01X-975555Y-722435D01*
G01X-989710Y-729864D01*
G01X-1001677Y-740465D01*
G01X-1010758Y-753622D01*
G01X-1016427Y-768570D01*
G01X-1018354Y-784440D01*
G01X-1018354Y-784440D01*
G01X-1195404Y-784440D01*
G01X-1192913Y-777870D01*
G01X-1190986Y-762000D01*
G01X-1192913Y-746130D01*
G01X-1198582Y-731182D01*
G01X-1207663Y-718026D01*
G01X-1219629Y-707425D01*
G01X-1233785Y-699995D01*
G01X-1249307Y-696169D01*
G01X-1265293Y-696169D01*
G01X-1280815Y-699995D01*
G01X-1294971Y-707425D01*
G01X-1306937Y-718026D01*
G01X-1316018Y-731182D01*
G01X-1321687Y-746130D01*
G01X-1323614Y-762000D01*
G01X-1323614Y-762000D01*
G01X-1502744Y-762000D01*
G01X-1508532Y-751171D01*
G01X-1520448Y-736652D01*
G01X-1534967Y-724736D01*
G01X-1551532Y-715882D01*
G01X-1569506Y-710430D01*
G01X-1588198Y-708589D01*
G01X-1606891Y-710430D01*
G01X-1624865Y-715882D01*
G01X-1641430Y-724736D01*
G01X-1655949Y-736652D01*
G01X-1667865Y-751171D01*
G01X-1676719Y-767736D01*
G01X-1682171Y-785710D01*
G01X-1684012Y-804403D01*
G01X-1684012Y-864403D01*
G01X-1682821Y-879463D01*
G01X-1679278Y-894148D01*
G01X-1673470Y-908095D01*
G01X-1665543Y-920955D01*
G01X-1714795Y-920955D01*
G01X-1736041Y-922627D01*
G01X-1756764Y-927602D01*
G01X-1776454Y-935758D01*
G01X-1794625Y-946893D01*
G01X-1810830Y-960734D01*
G01X-1824671Y-976939D01*
G01X-1835807Y-995110D01*
G01X-1843962Y-1014800D01*
G01X-1848937Y-1035523D01*
G01X-1850609Y-1056769D01*
G01X-1850609Y-1496556D01*
G01X-1852219Y-1510839D01*
G01X-1856966Y-1524406D01*
G01X-1864613Y-1536576D01*
G01X-1874776Y-1546739D01*
G01X-1886946Y-1554386D01*
G01X-1900513Y-1559133D01*
G01X-1914796Y-1560742D01*
G01X-2408575Y-1560712D01*
G01X-2401437Y-1546549D01*
G01X-2397867Y-1531095D01*
G01X-2398068Y-1515236D01*
G01X-2402029Y-1499878D01*
G01X-2409523Y-1485900D01*
G01X-2401962Y-1471749D01*
G01X-2398020Y-1456197D01*
G01X-2397928Y-1440153D01*
G01X-2401693Y-1424557D01*
G01X-2409093Y-1410321D01*
G01X-2419695Y-1398279D01*
G01X-2432879Y-1389136D01*
G01X-2447874Y-1383427D01*
G01X-2463800Y-1381486D01*
G01X-2479726Y-1383427D01*
G01X-2494721Y-1389136D01*
G01X-2507905Y-1398279D01*
G01X-2518507Y-1410321D01*
G01X-2525907Y-1424557D01*
G01X-2529672Y-1440153D01*
G01X-2529580Y-1456197D01*
G01X-2525638Y-1471749D01*
G01X-2518077Y-1485900D01*
G01X-2525571Y-1499877D01*
G01X-2529532Y-1515233D01*
G01X-2529734Y-1531091D01*
G01X-2526165Y-1546543D01*
G01X-2519029Y-1560706D01*
G01X-2725510Y-1560693D01*
G01X-2705256Y-1549968D01*
G01X-2687094Y-1535990D01*
G01X-2671541Y-1519156D01*
G01X-2659039Y-1499948D01*
G01X-2649946Y-1478910D01*
G01X-2644519Y-1456644D01*
G01X-2642914Y-1433782D01*
G01X-2645176Y-1410975D01*
G01X-2651241Y-1388874D01*
G01X-2660935Y-1368107D01*
G01X-2673983Y-1349265D01*
G37*
G54D10*
G01X-2673983Y-1349265D02*
G03X-2891342Y-1359837I-104731J-86469D01*
G02X-1671184Y684990I2887808J-336718D01*
G01X-1043375Y1124635D01*
G01X-1041722Y1125793D01*
G01X-963628Y1180484D01*
G01X-961549Y1181941D01*
G01X-453564Y1537696D01*
G01X-416725Y1563495D01*
G01X-407385Y1570020D01*
G01X-400604Y1574620D01*
G01X-394100Y1578887D01*
G01X-387815Y1582879D01*
G01X-381732Y1586622D01*
G01X-375756Y1590186D01*
G01X-369913Y1593567D01*
G01X-364092Y1596833D01*
G01X-358323Y1599975D01*
G01X-352497Y1603050D01*
G01X-346576Y1606079D01*
G01X-340546Y1609065D01*
G01X-334331Y1612041D01*
G01X-327864Y1615030D01*
G01X-321120Y1618032D01*
G01X-314053Y1621054D01*
G01X-306583Y1624114D01*
G01X-298956Y1627097D01*
G01X-291289Y1629957D01*
G01X-283587Y1632691D01*
G01X-275840Y1635302D01*
G01X-268058Y1637789D01*
G01X-260253Y1640146D01*
G01X-252422Y1642376D01*
G01X-244551Y1644483D01*
G01X-236643Y1646467D01*
G01X-228721Y1648320D01*
G01X-220759Y1650051D01*
G01X-212780Y1651653D01*
G01X-204789Y1653126D01*
G01X-196755Y1654476D01*
G01X-188719Y1655695D01*
G01X-180668Y1656787D01*
G01X-172567Y1657755D01*
G01X-164480Y1658592D01*
G01X-156368Y1659301D01*
G01X-148302Y1659877D01*
G01X-140029Y1660335D01*
G01X-131947Y1660657D01*
G01X-123945Y1660847D01*
G01X2389866Y1660582D01*
G02X2903593Y1146874I184J-513543D01*
G01X2903593Y1144027D01*
G01X2903599Y1128014D01*
G01X2379500Y1128014D01*
G03X2338978Y1114060I0J-65814D01*
G03X2325344Y1145997I-65678J-9160D01*
G03X2325061Y1228547I-52044J41097D01*
G03X2273300Y1336314I-51761J41453D01*
G03X2221539Y1228547I0J-66314D01*
G03X2221256Y1145997I51761J-41453D01*
G03X2226091Y1058328I52044J-41097D01*
G03X2313686Y1052302I47209J46572D01*
G01X2313686Y-820900D01*
G03X2379500Y-886714I65814J0D01*
G01X2903844Y-886714D01*
G01X2903863Y-1121682D01*
G01X2903854Y-1381295D01*
G03X2642251Y-1431362I-125794J-51199D01*
G03X2591776Y-1406893I-51451J-41838D01*
G03X2475517Y-1380974I-64476J-15507D01*
G03X2526324Y-1488707I51783J-41426D01*
G03X2590183Y-1539511I64476J15507D01*
G03X2654976Y-1489903I617J66311D01*
G03X2903850Y-1483702I123084J57409D01*
G01X2903846Y-1596588D01*
G02X2839665Y-1660772I-64186J2D01*
G01X1136725Y-1660915D01*
G02X1072533Y-1596730I-5J64186D01*
G01X1072471Y-1056765D01*
G03X936656Y-920955I-135814J-4D01*
G01X-645857Y-920955D01*
G03X-629294Y-883419I-77344J56552D01*
G03X-505212Y-852752I57794J32519D01*
G03X-627388Y-815205I-66288J1852D01*
G01X-627388Y-804403D01*
G03X-819015Y-804403I-95814J0D01*
G01X-819015Y-864403D01*
G03X-800546Y-920955I95814J0D01*
G01X-1510854Y-920955D01*
G03X-1492385Y-864403I-77344J56552D01*
G01X-1492385Y-804403D01*
G03X-1684012Y-804403I-95814J0D01*
G01X-1684012Y-864403D01*
G03X-1665543Y-920955I95814J0D01*
G01X-1714795Y-920955D01*
G03X-1850609Y-1056769I0J-135814D01*
G01X-1850609Y-1496556D01*
G02X-1914796Y-1560742I-64186J0D01*
G01X-2408575Y-1560712D01*
G03X-2409523Y-1485900I-55225J36712D01*
G03X-2463800Y-1381486I-54277J38100D01*
G03X-2518077Y-1485900I0J-66314D01*
G03X-2519029Y-1560706I54277J-38100D01*
G01X-2725510Y-1560693D01*
G03X-2673983Y-1349265I-53205J124959D01*
G01X-2463800Y-498114D02*
G03X-2409523Y-393700I0J66314D01*
G03X-2409523Y-317500I-54277J38100D01*
G03X-2463800Y-213086I-54277J38100D01*
G03X-2518077Y-317500I0J-66314D01*
G03X-2518077Y-393700I54277J-38100D01*
G03X-2463800Y-498114I54277J-38100D01*
G01X-2138533Y-619393D02*
G03X-2181586Y-505246I-45867J47893D01*
G03X-2293767Y-457303I-66314J50D01*
G03X-2250714Y-571450I45867J-47893D01*
G03X-2138533Y-619393I66314J-50D01*
G01X-2314214Y-266700D02*
G03X-2181586Y-266700I66314J0D01*
G03X-2314214Y-266700I-66314J0D01*
G01X-2033950Y-989736D02*
G03X-1901322Y-989736I66314J0D01*
G03X-2033950Y-989736I-66314J0D01*
G01X-1497385Y-369388D02*
G03X-1679012Y-369388I-90814J0D01*
G01X-1679012Y-459388D01*
G03X-1506999Y-500055I90814J0D01*
G03X-1374367Y-474759I62311J33648D01*
G03X-1497385Y-419101I-70321J8352D01*
G01X-1497385Y-369388D01*
G01X-1394400Y285750D02*
G03X-1340011Y181497I54389J-37939D01*
G03X-1285622Y285750I0J66314D01*
G03X-1324082Y388062I-54389J37939D01*
G03X-1369144Y510018I-34818J56438D01*
G03X-1374829Y380127I10244J-65518D01*
G03X-1394400Y285750I34818J-56438D01*
G01X-1336314Y-533400D02*
G03X-1214197Y-569228I66314J0D01*
G03X-1092081Y-533400I55803J35828D01*
G03X-1214197Y-497572I-66314J0D01*
G03X-1336314Y-533400I-55803J-35828D01*
G01X-1323614Y-762000D02*
G03X-1190986Y-762000I66314J0D01*
G03X-1323614Y-762000I-66314J0D01*
G01X-1210403Y839289D02*
G03X-1077775Y839289I66314J0D01*
G03X-1210403Y839289I-66314J0D01*
G01X-1018354Y-784440D02*
G03X-885726Y-784440I66314J0D01*
G03X-1018354Y-784440I-66314J0D01*
G01X-937006Y-474764D02*
G03X-804389Y-500080I70320J8357D01*
G03X-632388Y-459388I81187J40692D01*
G01X-632388Y-369388D01*
G03X-814015Y-369388I-90814J0D01*
G01X-814015Y-419073D01*
G03X-937006Y-474764I-52671J-47335D01*
G01X-929914Y177800D02*
G03X-797286Y177800I66314J0D01*
G03X-929914Y177800I-66314J0D01*
G01X-548829Y139700D02*
G03X-416201Y139700I66314J0D01*
G03X-548829Y139700I-66314J0D01*
G01X-209386Y1155700D02*
G03X-451014Y1155700I-120814J0D01*
G03X-209386Y1155700I120814J0D01*
G01X-209386Y1409700D02*
G03X-451014Y1409700I-120814J0D01*
G03X-209386Y1409700I120814J0D01*
G01X-338437Y-476250D02*
G03X-304800Y-599714I33637J-57150D01*
G03X-271163Y-476250I0J66314D01*
G03X-262175Y-368300I-33637J57150D01*
G03X-304800Y-251186I-42625J50800D01*
G03X-347425Y-368300I0J-66314D01*
G03X-338437Y-476250I42625J-50800D01*
G01X-218714Y-12700D02*
G03X-86086Y-12700I66314J0D01*
G03X-218714Y-12700I-66314J0D01*
G01X44614Y1155700D02*
G03X-197014Y1155700I-120814J0D01*
G03X44614Y1155700I120814J0D01*
G01X44614Y1409700D02*
G03X-197014Y1409700I-120814J0D01*
G03X44614Y1409700I120814J0D01*
G01X-117114Y-279400D02*
G03X15514Y-279400I66314J0D01*
G03X-117114Y-279400I-66314J0D01*
G01X-79014Y-762000D02*
G03X53614Y-762000I66314J0D01*
G03X-79014Y-762000I-66314J0D01*
G01X-28214Y-71100D02*
G03X104414Y-71100I66314J0D01*
G03X-28214Y-71100I-66314J0D01*
G01X35286Y393700D02*
G03X167914Y393700I66314J0D01*
G03X35286Y393700I-66314J0D01*
G01X92800Y1530514D02*
G03X56986Y1494700I0J-35814D01*
G01X56986Y1324700D01*
G03X92800Y1288886I35814J0D01*
G01X262800Y1288886D01*
G03X298614Y1324700I0J35814D01*
G01X298614Y1494700D01*
G03X262800Y1530514I-35814J0D01*
G01X92800Y1530514D01*
G01X298614Y1155700D02*
G03X56986Y1155700I-120814J0D01*
G03X298614Y1155700I120814J0D01*
G01X60686Y-482600D02*
G03X193314Y-482600I66314J0D01*
G03X60686Y-482600I-66314J0D01*
G01X60686Y-698500D02*
G03X193314Y-698500I66314J0D01*
G03X60686Y-698500I-66314J0D01*
G01X276586Y-762000D02*
G03X409214Y-762000I66314J0D01*
G03X276586Y-762000I-66314J0D01*
G01X555986Y228600D02*
G03X688614Y228600I66314J0D01*
G03X555986Y228600I-66314J0D01*
G01X622300Y-193314D02*
G03X655937Y-69850I0J66314D01*
G03X622300Y53614I-33637J57150D01*
G03X588663Y-69850I0J-66314D01*
G03X622300Y-193314I33637J-57150D01*
G01X685886Y1397000D02*
G03X901700Y1338580I115814J0D01*
G03X1117514Y1397000I100000J58420D01*
G03X901700Y1455420I-115814J0D01*
G03X685886Y1397000I-100000J-58420D01*
G01X809986Y-571500D02*
G03X942614Y-571500I66314J0D01*
G03X809986Y-571500I-66314J0D01*
G01X979966Y-229617D02*
G03X1112594Y-229617I66314J0D01*
G03X979966Y-229617I-66314J0D01*
G01X1181100Y441686D02*
G03X1200213Y571500I0J66314D01*
G03X1181100Y701314I-19113J63500D01*
G03X1161987Y571500I0J-66314D01*
G03X1181100Y441686I19113J-63500D01*
G01X1177690Y-990004D02*
G03X1310318Y-990004I66314J0D01*
G03X1177690Y-990004I-66314J0D01*
G01X1196086Y-228600D02*
G03X1328714Y-228600I66314J0D01*
G03X1196086Y-228600I-66314J0D01*
G01X1472914Y-1436300D02*
G03X1437100Y-1400486I-35814J0D01*
G01X1405892Y-1400486D01*
G03X1346197Y-1305286I-59692J28886D01*
G03X1286510Y-1400491I3J-66314D01*
G03X1251287Y-1436300I590J-35809D01*
G01X1251287Y-1586300D01*
G03X1287101Y-1622114I35814J0D01*
G01X1437100Y-1622114D01*
G03X1472914Y-1586300I0J35814D01*
G01X1472914Y-1577069D01*
G03X1662100Y-1559047I89186J65769D01*
G03X1872913Y-1511300I100000J47747D01*
G03X1662100Y-1463553I-110814J0D01*
G03X1472914Y-1445531I-100000J-47747D01*
G01X1472914Y-1436300D01*
G01X1279886Y-1206500D02*
G03X1412514Y-1206500I66314J0D01*
G03X1279886Y-1206500I-66314J0D01*
G01X1404776Y-279400D02*
G03X1537404Y-279400I66314J0D01*
G03X1404776Y-279400I-66314J0D01*
G01X1406886Y-977900D02*
G03X1539514Y-977900I66314J0D01*
G03X1406886Y-977900I-66314J0D01*
G01X1444986Y812800D02*
G03X1577614Y812800I66314J0D01*
G03X1444986Y812800I-66314J0D01*
G01X1533886Y-317500D02*
G03X1644650Y-366711I66314J0D01*
G03X1755414Y-317500I44450J49211D01*
G03X1644650Y-268289I-66314J0D01*
G03X1533886Y-317500I-44450J-49211D01*
G01X1551847Y-977900D02*
G03X1684475Y-977900I66314J0D01*
G03X1551847Y-977900I-66314J0D01*
G01X1647596Y1531099D02*
G03X1789227Y1531099I70815J0D01*
G03X1647596Y1531099I-70815J0D01*
G01X1787886Y-1066800D02*
G03X1920514Y-1066800I66314J0D01*
G03X1787886Y-1066800I-66314J0D01*
G01X1817599Y1531099D02*
G03X1959229Y1531099I70815J0D01*
G03X1817599Y1531099I-70815J0D01*
G01X1838686Y812800D02*
G03X1971314Y812800I66314J0D01*
G03X1838686Y812800I-66314J0D01*
G01X1902178Y-381000D02*
G03X2034806Y-381000I66314J0D01*
G03X1902178Y-381000I-66314J0D01*
G01X2006160Y-173365D02*
G03X2090927Y-71854I38540J53965D01*
G03X2159440Y41265I29973J59154D01*
G03X2074673Y-60246I-38540J-53965D01*
G03X2006160Y-173365I-29973J-59154D01*
G01X2120900Y-1577614D02*
G03X2162005Y-1459262I0J66314D01*
G03X2120900Y-1340910I-41105J52038D01*
G03X2079795Y-1459262I0J-66314D01*
G03X2120900Y-1577614I41105J-52038D01*
G01X2184400Y-992886D02*
G03X2173986Y-1003300I0J-10414D01*
G01X2173986Y-1320072D01*
G03X2184400Y-1330486I10414J0D01*
G01X2527300Y-1330486D01*
G03X2537714Y-1320072I0J10414D01*
G01X2537714Y-1003300D01*
G03X2527300Y-992886I-10414J0D01*
G01X2184400Y-992886D01*
G01X2441315Y1372239D02*
G03X2712943Y1372239I135814J0D01*
G03X2441315Y1372239I-135814J0D01*
G54D11*
G01X-1588198Y-414388D02*
G01X-1668852Y-414388D01*
G01X-1588198Y-414388D02*
G01X-1507545Y-414388D01*
G01X-1588198Y-414388D02*
G01X-1588198Y-288734D01*
G01X-1588198Y-414388D02*
G01X-1588198Y-540042D01*
G01X-1588198Y-834403D02*
G01X-1673852Y-834403D01*
G01X-1588198Y-834403D02*
G01X-1502545Y-834403D01*
G01X-1588198Y-834403D02*
G01X-1588198Y-718749D01*
G01X-723201Y-834403D02*
G01X-808855Y-834403D01*
G01X-723201Y-834403D02*
G01X-723201Y-718749D01*
G01X-723201Y-414388D02*
G01X-803855Y-414388D01*
G01X-723201Y-414388D02*
G01X-642548Y-414388D01*
G01X-723201Y-414388D02*
G01X-723201Y-288734D01*
G01X-723201Y-414388D02*
G01X-723201Y-540042D01*
G01X-330200Y1409700D02*
G01X-219546Y1409700D01*
G01X-330200Y1409700D02*
G01X-440854Y1409700D01*
G01X-330200Y1409700D02*
G01X-330200Y1299046D01*
G01X-330200Y1409700D02*
G01X-330200Y1520354D01*
G01X-330200Y1155700D02*
G01X-219546Y1155700D01*
G01X-330200Y1155700D02*
G01X-440854Y1155700D01*
G01X-330200Y1155700D02*
G01X-330200Y1045046D01*
G01X-330200Y1155700D02*
G01X-330200Y1266354D01*
G01X801700Y1397000D02*
G01X696046Y1397000D01*
G01X801700Y1397000D02*
G01X801700Y1502654D01*
G01X801700Y1397000D02*
G01X801700Y1291346D01*
G04 Copper End*

G04 Pad Start*
G54D12*
G01X177800Y1409700D03*
G54D13*
G01X177800Y1155700D03*
G01X-76200Y1409700D03*
G01X-76200Y1155700D03*
G01X-330200Y1409700D03*
G01X-330200Y1155700D03*
G54D14*
G01X1762100Y-1511300D03*
G01X1562100Y-1511300D03*
G54D16*
G01X1362100Y-1511300D03*
G54D17*
G01X1001700Y1397000D03*
G01X801700Y1397000D03*
G54D18*
G01X-1588198Y-414388D03*
G01X-723201Y-414388D03*
G54D19*
G01X-1588198Y-834403D03*
G01X-723201Y-834403D03*
G04 Pad End*

G04 Via Start*
G54D20*
G01X-1144089Y839289D03*
G01X-1358900Y444500D03*
G01X1511300Y812800D03*
G01X1905000Y812800D03*
G01X127000Y-698500D03*
G01X127000Y-482600D03*
G01X1181100Y635000D03*
G01X1181100Y508000D03*
G01X342900Y-762000D03*
G01X-1158395Y-533400D03*
G01X-1270000Y-533400D03*
G01X-1340011Y247811D03*
G01X-1340011Y323689D03*
G01X-482515Y139700D03*
G01X-304800Y-317500D03*
G01X-2184400Y-571500D03*
G01X101600Y393700D03*
G01X2273300Y1270000D03*
G01X2273300Y1104900D03*
G01X2273300Y1187093D03*
G01X1471090Y-279400D03*
G01X-50800Y-279400D03*
G01X-304800Y-419100D03*
G01X-304800Y-533400D03*
G01X-2247900Y-505196D03*
G01X622300Y-12700D03*
G01X2120900Y-12700D03*
G01X38100Y-71100D03*
G01X622300Y-127000D03*
G01X2044700Y-119400D03*
G01X1854200Y-535102D03*
G01X863600Y812800D03*
G01X1308100Y292100D03*
G01X2145106Y1026998D03*
G01X-152400Y101600D03*
G01X-2336800Y-965200D03*
G01X-813664Y-215900D03*
G01X2120900Y-1511300D03*
G01X2590800Y-1473200D03*
G01X2120900Y-1407225D03*
G01X2527300Y-1422400D03*
G01X-152400Y-12700D03*
G01X-952040Y-784440D03*
G01X-1967636Y-989736D03*
G01X-1257300Y-762000D03*
G01X-12700Y-762000D03*
G01X-571500Y-850900D03*
G01X-863600Y177800D03*
G01X-2463800Y-279400D03*
G01X-2463800Y-431800D03*
G01X-2463800Y-355600D03*
G01X-2463800Y-1524000D03*
G01X-2463800Y-1447800D03*
G01X-2679700Y-768198D03*
G01X-2679700Y-1200302D03*
G01X2324100Y-1197508D03*
G01X2324100Y-1088492D03*
G01X2184400Y-965200D03*
G01X1968492Y-381000D03*
G01X1244004Y-990004D03*
G01X876300Y-571500D03*
G01X1473200Y-977900D03*
G01X-2247900Y-266700D03*
G01X1206500Y-1346200D03*
G01X1181452Y-577359D03*
G01X1618161Y-977900D03*
G01X1854200Y-1066800D03*
G01X1346200Y-1206500D03*
G01X1346200Y-1371600D03*
G01X622300Y228600D03*
G01X190500Y698500D03*
G01X1046280Y-229617D03*
G01X1262400Y-228600D03*
G01X-1451101Y-215897D03*
G01X-1475702Y-359397D03*
G01X-835698Y-359396D03*
G01X1600200Y-317500D03*
G01X1689100Y-317500D03*
G04 Via End*

M02*

