G04 Layer: InnerLayer1*
G04 EasyEDA Pro v3.2.58, 2026-03-15 17:59:32*
G04 Gerber Generator version 0.3*
G04 Scale: 100 percent, Rotated: No, Reflected: No*
G04 Dimensions in millimeters*
G04 Leading zeros omitted, absolute positions, 4 integers and 5 decimals*
G04 Generated by one-click*
%FSLAX45Y45*%
%MOMM*%
%ADD10C,0.2032*%
%ADD11C,0.254*%
%ADD12R,1.7X1.7*%
%ADD13C,1.7*%
%ADD14C,1.5*%
%ADD15R,1.5017X1.5*%
%ADD16R,1.5X1.5*%
%ADD17C,1.6*%
%ADD18O,1.1X2.0*%
%ADD19O,1.2X1.8*%
%ADD20C,0.61*%
%ADD21C,0.762*%
G75*


G04 Copper Start*
G36*
G01X-2673983Y-1349265D02*
G01X-2690014Y-1332886D01*
G01X-2708570Y-1319436D01*
G01X-2729124Y-1309297D01*
G01X-2751090Y-1302759D01*
G01X-2773843Y-1300008D01*
G01X-2796734Y-1301121D01*
G01X-2819112Y-1306068D01*
G01X-2840340Y-1314707D01*
G01X-2859813Y-1326792D01*
G01X-2876977Y-1341980D01*
G01X-2891342Y-1359837D01*
G01X-2877048Y-1254138D01*
G01X-2858886Y-1149035D01*
G01X-2836882Y-1044668D01*
G01X-2811064Y-941179D01*
G01X-2781467Y-838707D01*
G01X-2748132Y-737389D01*
G01X-2711102Y-637362D01*
G01X-2670429Y-538760D01*
G01X-2626166Y-441717D01*
G01X-2578373Y-346363D01*
G01X-2527115Y-252826D01*
G01X-2472461Y-161232D01*
G01X-2414483Y-71704D01*
G01X-2353261Y15636D01*
G01X-2288876Y100673D01*
G01X-2221415Y183290D01*
G01X-2150970Y263377D01*
G01X-2077634Y340827D01*
G01X-2001506Y415534D01*
G01X-1922690Y487399D01*
G01X-1841291Y556324D01*
G01X-1757418Y622218D01*
G01X-1671184Y684990D01*
G01X-1237366Y988786D01*
G01X-2300165Y-74013D01*
G01X-2309357Y-85213D01*
G01X-2316188Y-97992D01*
G01X-2320394Y-111858D01*
G01X-2321814Y-126278D01*
G01X-2321814Y-266700D01*
G01X-2319961Y-283147D01*
G01X-2314494Y-298770D01*
G01X-2305688Y-312785D01*
G01X-2293985Y-324488D01*
G01X-2279970Y-333294D01*
G01X-2264347Y-338761D01*
G01X-2247900Y-340614D01*
G01X-2231453Y-338761D01*
G01X-2215830Y-333294D01*
G01X-2201815Y-324488D01*
G01X-2190112Y-312785D01*
G01X-2181306Y-298770D01*
G01X-2175839Y-283147D01*
G01X-2173986Y-266700D01*
G01X-2173986Y-156894D01*
G01X-1204703Y812390D01*
G01X-1197111Y799461D01*
G01X-1186809Y788568D01*
G01X-1174323Y780268D01*
G01X-1160292Y774985D01*
G01X-1145433Y772989D01*
G01X-1130505Y774382D01*
G01X-1116271Y779092D01*
G01X-1103459Y786880D01*
G01X-1092725Y797346D01*
G01X-1084615Y809957D01*
G01X-1083594Y812800D01*
G01X1444986Y812800D01*
G01X1446913Y796930D01*
G01X1452582Y781982D01*
G01X1461663Y768826D01*
G01X1473629Y758225D01*
G01X1487785Y750795D01*
G01X1503307Y746969D01*
G01X1519293Y746969D01*
G01X1534815Y750795D01*
G01X1548971Y758225D01*
G01X1560937Y768826D01*
G01X1570018Y781982D01*
G01X1575687Y796930D01*
G01X1577614Y812800D01*
G01X1838686Y812800D01*
G01X1840613Y796930D01*
G01X1846282Y781982D01*
G01X1855363Y768826D01*
G01X1867329Y758225D01*
G01X1881485Y750795D01*
G01X1897007Y746969D01*
G01X1912993Y746969D01*
G01X1928515Y750795D01*
G01X1942671Y758225D01*
G01X1954637Y768826D01*
G01X1963718Y781982D01*
G01X1969387Y796930D01*
G01X1971314Y812800D01*
G01X1969387Y828670D01*
G01X1963718Y843618D01*
G01X1954637Y856774D01*
G01X1942671Y867375D01*
G01X1928515Y874805D01*
G01X1912993Y878631D01*
G01X1897007Y878631D01*
G01X1881485Y874805D01*
G01X1867329Y867375D01*
G01X1855363Y856774D01*
G01X1846282Y843618D01*
G01X1840613Y828670D01*
G01X1838686Y812800D01*
G01X1838686Y812800D01*
G01X1577614Y812800D01*
G01X1577614Y812800D01*
G01X1575687Y828670D01*
G01X1570018Y843618D01*
G01X1560937Y856774D01*
G01X1548971Y867375D01*
G01X1534815Y874805D01*
G01X1519293Y878631D01*
G01X1503307Y878631D01*
G01X1487785Y874805D01*
G01X1473629Y867375D01*
G01X1461663Y856774D01*
G01X1452582Y843618D01*
G01X1446913Y828670D01*
G01X1444986Y812800D01*
G01X1444986Y812800D01*
G01X-1083594Y812800D01*
G01X-1079546Y824067D01*
G01X-1077776Y838955D01*
G01X-1079396Y853860D01*
G01X-1084322Y868020D01*
G01X-1092304Y880712D01*
G01X-1102932Y891286D01*
G01X-139700Y891286D01*
G01X-125280Y892706D01*
G01X-111414Y896912D01*
G01X-98636Y903743D01*
G01X-87435Y912935D01*
G01X-11235Y989135D01*
G01X-2043Y1000336D01*
G01X4788Y1013114D01*
G01X8994Y1026980D01*
G01X10414Y1041400D01*
G01X10414Y1048923D01*
G01X10797Y1054583D01*
G01X11765Y1059774D01*
G01X13399Y1065506D01*
G01X15574Y1071404D01*
G01X18099Y1077128D01*
G01X20598Y1082080D01*
G01X25779Y1090922D01*
G01X35874Y1110584D01*
G01X42217Y1131756D01*
G01X44598Y1153729D01*
G01X44449Y1155700D01*
G01X56986Y1155700D01*
G01X58822Y1134721D01*
G01X64272Y1114379D01*
G01X73172Y1095293D01*
G01X85251Y1078042D01*
G01X100142Y1063151D01*
G01X117393Y1051072D01*
G01X136479Y1042172D01*
G01X156821Y1036722D01*
G01X177800Y1034886D01*
G01X198779Y1036722D01*
G01X219121Y1042172D01*
G01X238207Y1051072D01*
G01X255458Y1063151D01*
G01X270349Y1078042D01*
G01X282428Y1095293D01*
G01X291328Y1114379D01*
G01X296778Y1134721D01*
G01X298614Y1155700D01*
G01X298614Y1155700D01*
G01X296778Y1176679D01*
G01X291328Y1197021D01*
G01X282428Y1216107D01*
G01X270349Y1233358D01*
G01X255458Y1248249D01*
G01X238207Y1260328D01*
G01X219121Y1269228D01*
G01X198779Y1274678D01*
G01X177800Y1276514D01*
G01X156821Y1274678D01*
G01X136479Y1269228D01*
G01X117393Y1260328D01*
G01X100142Y1248249D01*
G01X85251Y1233358D01*
G01X73172Y1216107D01*
G01X64272Y1197021D01*
G01X58822Y1176679D01*
G01X56986Y1155700D01*
G01X44449Y1155700D01*
G01X42936Y1175768D01*
G01X37286Y1197135D01*
G01X27839Y1217116D01*
G01X14910Y1235041D01*
G01X12461Y1238045D01*
G01X9677Y1241938D01*
G01X6590Y1246847D01*
G01X3605Y1252339D01*
G01X1047Y1258000D01*
G01X-827Y1263369D01*
G01X-1870Y1267937D01*
G01X-2286Y1272914D01*
G01X-2286Y1292486D01*
G01X-1870Y1297463D01*
G01X-827Y1302031D01*
G01X1047Y1307400D01*
G01X3605Y1313061D01*
G01X6590Y1318553D01*
G01X9677Y1323462D01*
G01X10563Y1324700D01*
G01X56986Y1324700D01*
G01X58739Y1313633D01*
G01X63826Y1303649D01*
G01X71749Y1295726D01*
G01X81733Y1290639D01*
G01X92800Y1288886D01*
G01X262800Y1288886D01*
G01X273867Y1290639D01*
G01X283851Y1295726D01*
G01X291774Y1303649D01*
G01X296861Y1313633D01*
G01X298614Y1324700D01*
G01X298614Y1397000D01*
G01X685886Y1397000D01*
G01X687898Y1375510D01*
G01X693861Y1354767D01*
G01X703570Y1335491D01*
G01X716687Y1318351D01*
G01X732757Y1303942D01*
G01X751222Y1292766D01*
G01X771439Y1285210D01*
G01X792707Y1281536D01*
G01X814288Y1281872D01*
G01X835432Y1286207D01*
G01X855404Y1294390D01*
G01X873511Y1306137D01*
G01X889124Y1321039D01*
G01X901700Y1338580D01*
G01X914276Y1321039D01*
G01X929889Y1306137D01*
G01X947996Y1294390D01*
G01X967968Y1286207D01*
G01X989112Y1281872D01*
G01X1010693Y1281536D01*
G01X1031961Y1285210D01*
G01X1052178Y1292766D01*
G01X1070643Y1303942D01*
G01X1086713Y1318351D01*
G01X1099830Y1335491D01*
G01X1109539Y1354767D01*
G01X1114562Y1372239D01*
G01X2441315Y1372239D01*
G01X2443167Y1349885D01*
G01X2448674Y1328140D01*
G01X2457684Y1307599D01*
G01X2469953Y1288820D01*
G01X2485145Y1272317D01*
G01X2502846Y1258540D01*
G01X2522573Y1247864D01*
G01X2543789Y1240581D01*
G01X2565914Y1236889D01*
G01X2588345Y1236889D01*
G01X2610470Y1240581D01*
G01X2631685Y1247864D01*
G01X2651412Y1258540D01*
G01X2669114Y1272317D01*
G01X2684306Y1288820D01*
G01X2696574Y1307599D01*
G01X2705584Y1328140D01*
G01X2711091Y1349885D01*
G01X2712943Y1372239D01*
G01X2711091Y1394593D01*
G01X2705584Y1416338D01*
G01X2696574Y1436879D01*
G01X2684306Y1455658D01*
G01X2669114Y1472161D01*
G01X2651412Y1485938D01*
G01X2631685Y1496614D01*
G01X2610470Y1503897D01*
G01X2588345Y1507589D01*
G01X2565914Y1507589D01*
G01X2543789Y1503897D01*
G01X2522573Y1496614D01*
G01X2502846Y1485938D01*
G01X2485145Y1472161D01*
G01X2469953Y1455658D01*
G01X2457684Y1436879D01*
G01X2448674Y1416338D01*
G01X2443167Y1394593D01*
G01X2441315Y1372239D01*
G01X2441315Y1372239D01*
G01X1114562Y1372239D01*
G01X1115502Y1375510D01*
G01X1117514Y1397000D01*
G01X1115502Y1418490D01*
G01X1109539Y1439233D01*
G01X1099830Y1458509D01*
G01X1086713Y1475649D01*
G01X1070643Y1490058D01*
G01X1052178Y1501234D01*
G01X1031961Y1508790D01*
G01X1010693Y1512464D01*
G01X989112Y1512128D01*
G01X967968Y1507793D01*
G01X947996Y1499610D01*
G01X929889Y1487863D01*
G01X914276Y1472961D01*
G01X901700Y1455420D01*
G01X889124Y1472961D01*
G01X873511Y1487863D01*
G01X855404Y1499610D01*
G01X835432Y1507793D01*
G01X814288Y1512128D01*
G01X792707Y1512464D01*
G01X771439Y1508790D01*
G01X751222Y1501234D01*
G01X732757Y1490058D01*
G01X716687Y1475649D01*
G01X703570Y1458509D01*
G01X693861Y1439233D01*
G01X687898Y1418490D01*
G01X685886Y1397000D01*
G01X685886Y1397000D01*
G01X298614Y1397000D01*
G01X298614Y1494700D01*
G01X296861Y1505767D01*
G01X291774Y1515751D01*
G01X283851Y1523674D01*
G01X273867Y1528761D01*
G01X262800Y1530514D01*
G01X92800Y1530514D01*
G01X92800Y1530514D01*
G01X81733Y1528761D01*
G01X71749Y1523674D01*
G01X63826Y1515751D01*
G01X58739Y1505767D01*
G01X56986Y1494700D01*
G01X56986Y1324700D01*
G01X10563Y1324700D01*
G01X12461Y1327355D01*
G01X14910Y1330359D01*
G01X27391Y1347532D01*
G01X36673Y1366623D01*
G01X42471Y1387045D01*
G01X44604Y1408167D01*
G01X43007Y1429336D01*
G01X37730Y1449898D01*
G01X28935Y1469220D01*
G01X16894Y1486703D01*
G01X1978Y1501809D01*
G01X-15351Y1514071D01*
G01X-34559Y1523111D01*
G01X-55053Y1528649D01*
G01X-76200Y1530514D01*
G01X-97347Y1528649D01*
G01X-117841Y1523111D01*
G01X-137049Y1514071D01*
G01X-154378Y1501809D01*
G01X-169294Y1486703D01*
G01X-181335Y1469220D01*
G01X-190130Y1449898D01*
G01X-195407Y1429336D01*
G01X-197004Y1408167D01*
G01X-194871Y1387045D01*
G01X-189073Y1366623D01*
G01X-179791Y1347532D01*
G01X-167310Y1330359D01*
G01X-164861Y1327355D01*
G01X-162077Y1323462D01*
G01X-158990Y1318553D01*
G01X-156005Y1313061D01*
G01X-153447Y1307400D01*
G01X-151573Y1302031D01*
G01X-150530Y1297463D01*
G01X-150114Y1292486D01*
G01X-150114Y1272914D01*
G01X-150530Y1267937D01*
G01X-151573Y1263369D01*
G01X-153447Y1258000D01*
G01X-156005Y1252339D01*
G01X-158990Y1246847D01*
G01X-162077Y1241938D01*
G01X-164861Y1238045D01*
G01X-167310Y1235041D01*
G01X-179788Y1217874D01*
G01X-189069Y1198788D01*
G01X-194867Y1178372D01*
G01X-197004Y1157257D01*
G01X-195412Y1136094D01*
G01X-190142Y1115536D01*
G01X-181356Y1096217D01*
G01X-169325Y1078734D01*
G01X-154420Y1063626D01*
G01X-151921Y1061362D01*
G01X-150018Y1059412D01*
G01X-170316Y1039114D01*
G01X-298519Y1039114D01*
G01X-278184Y1046657D01*
G01X-259525Y1057715D01*
G01X-243145Y1071930D01*
G01X-229569Y1088846D01*
G01X-219238Y1107916D01*
G01X-212482Y1128526D01*
G01X-209520Y1150012D01*
G01X-210448Y1171681D01*
G01X-215235Y1192835D01*
G01X-223727Y1212792D01*
G01X-235651Y1230910D01*
G01X-250622Y1246603D01*
G01X-268158Y1259367D01*
G01X-287693Y1268789D01*
G01X-308599Y1274567D01*
G01X-330200Y1276514D01*
G01X-351801Y1274567D01*
G01X-372707Y1268789D01*
G01X-392242Y1259367D01*
G01X-409778Y1246603D01*
G01X-424749Y1230910D01*
G01X-436673Y1212792D01*
G01X-445165Y1192835D01*
G01X-449952Y1171681D01*
G01X-450880Y1150012D01*
G01X-447918Y1128526D01*
G01X-441162Y1107916D01*
G01X-430831Y1088846D01*
G01X-417255Y1071930D01*
G01X-400875Y1057715D01*
G01X-382216Y1046657D01*
G01X-361881Y1039114D01*
G01X-1156422Y1039114D01*
G01X-1166480Y1038426D01*
G01X-1043375Y1124635D01*
G01X-1041722Y1125793D01*
G01X-963628Y1180484D01*
G01X-961549Y1181941D01*
G01X-636330Y1409700D01*
G01X-451014Y1409700D01*
G01X-449178Y1388721D01*
G01X-443728Y1368379D01*
G01X-434828Y1349293D01*
G01X-422749Y1332042D01*
G01X-407858Y1317151D01*
G01X-390607Y1305072D01*
G01X-371521Y1296172D01*
G01X-351179Y1290722D01*
G01X-330200Y1288886D01*
G01X-309221Y1290722D01*
G01X-288879Y1296172D01*
G01X-269793Y1305072D01*
G01X-252542Y1317151D01*
G01X-237651Y1332042D01*
G01X-225572Y1349293D01*
G01X-216672Y1368379D01*
G01X-211222Y1388721D01*
G01X-209386Y1409700D01*
G01X-209386Y1409700D01*
G01X-211222Y1430679D01*
G01X-216672Y1451021D01*
G01X-225572Y1470107D01*
G01X-237651Y1487358D01*
G01X-252542Y1502249D01*
G01X-269793Y1514328D01*
G01X-288879Y1523228D01*
G01X-309221Y1528678D01*
G01X-330200Y1530514D01*
G01X-351179Y1528678D01*
G01X-371521Y1523228D01*
G01X-390607Y1514328D01*
G01X-407858Y1502249D01*
G01X-422749Y1487358D01*
G01X-434828Y1470107D01*
G01X-443728Y1451021D01*
G01X-449178Y1430679D01*
G01X-451014Y1409700D01*
G01X-636330Y1409700D01*
G01X-462983Y1531099D01*
G01X1647596Y1531099D01*
G01X1649372Y1515341D01*
G01X1654609Y1500374D01*
G01X1663046Y1486947D01*
G01X1674259Y1475734D01*
G01X1687686Y1467297D01*
G01X1702654Y1462060D01*
G01X1718412Y1460284D01*
G01X1734169Y1462060D01*
G01X1749137Y1467297D01*
G01X1762564Y1475734D01*
G01X1773777Y1486947D01*
G01X1782214Y1500374D01*
G01X1787451Y1515341D01*
G01X1789227Y1531099D01*
G01X1789227Y1531099D01*
G01X1817599Y1531099D01*
G01X1819374Y1515341D01*
G01X1824612Y1500374D01*
G01X1833048Y1486947D01*
G01X1844261Y1475734D01*
G01X1857688Y1467297D01*
G01X1872656Y1462060D01*
G01X1888414Y1460284D01*
G01X1904172Y1462060D01*
G01X1919139Y1467297D01*
G01X1932566Y1475734D01*
G01X1943779Y1486947D01*
G01X1952216Y1500374D01*
G01X1957454Y1515341D01*
G01X1959229Y1531099D01*
G01X1957454Y1546857D01*
G01X1952216Y1561825D01*
G01X1943779Y1575252D01*
G01X1932566Y1586465D01*
G01X1919139Y1594902D01*
G01X1904172Y1600139D01*
G01X1888414Y1601915D01*
G01X1872656Y1600139D01*
G01X1857688Y1594902D01*
G01X1844261Y1586465D01*
G01X1833048Y1575252D01*
G01X1824612Y1561825D01*
G01X1819374Y1546857D01*
G01X1817599Y1531099D01*
G01X1817599Y1531099D01*
G01X1789227Y1531099D01*
G01X1787451Y1546857D01*
G01X1782214Y1561825D01*
G01X1773777Y1575252D01*
G01X1762564Y1586465D01*
G01X1749137Y1594902D01*
G01X1734169Y1600139D01*
G01X1718412Y1601915D01*
G01X1702654Y1600139D01*
G01X1687686Y1594902D01*
G01X1674259Y1586465D01*
G01X1663046Y1575252D01*
G01X1654609Y1561825D01*
G01X1649372Y1546857D01*
G01X1647596Y1531099D01*
G01X1647596Y1531099D01*
G01X-462983Y1531099D01*
G01X-453564Y1537696D01*
G01X-416725Y1563495D01*
G01X-407385Y1570020D01*
G01X-400604Y1574620D01*
G01X-394100Y1578887D01*
G01X-387815Y1582879D01*
G01X-381732Y1586622D01*
G01X-375756Y1590186D01*
G01X-369913Y1593567D01*
G01X-364092Y1596833D01*
G01X-358323Y1599975D01*
G01X-352497Y1603050D01*
G01X-346576Y1606079D01*
G01X-340546Y1609065D01*
G01X-334331Y1612041D01*
G01X-327864Y1615030D01*
G01X-321120Y1618032D01*
G01X-314053Y1621054D01*
G01X-306583Y1624114D01*
G01X-298956Y1627097D01*
G01X-291289Y1629957D01*
G01X-283587Y1632691D01*
G01X-275840Y1635302D01*
G01X-268058Y1637789D01*
G01X-260253Y1640146D01*
G01X-252422Y1642376D01*
G01X-244551Y1644483D01*
G01X-236643Y1646467D01*
G01X-228721Y1648320D01*
G01X-220759Y1650051D01*
G01X-212780Y1651653D01*
G01X-204789Y1653126D01*
G01X-196755Y1654476D01*
G01X-188719Y1655695D01*
G01X-180668Y1656787D01*
G01X-172567Y1657755D01*
G01X-164480Y1658592D01*
G01X-156368Y1659301D01*
G01X-148302Y1659877D01*
G01X-140029Y1660335D01*
G01X-131947Y1660657D01*
G01X-123945Y1660847D01*
G01X2389866Y1660582D01*
G01X2434645Y1658642D01*
G01X2479083Y1652805D01*
G01X2522843Y1643116D01*
G01X2565592Y1629648D01*
G01X2607004Y1612504D01*
G01X2646763Y1591814D01*
G01X2684567Y1567736D01*
G01X2720127Y1540454D01*
G01X2753173Y1510175D01*
G01X2783453Y1477130D01*
G01X2810737Y1441571D01*
G01X2834816Y1403768D01*
G01X2855507Y1364010D01*
G01X2872653Y1322599D01*
G01X2886122Y1279850D01*
G01X2895813Y1236090D01*
G01X2901652Y1191652D01*
G01X2903593Y1146874D01*
G01X2903593Y1144027D01*
G01X2903599Y1128014D01*
G01X2379500Y1128014D01*
G01X2367807Y1126967D01*
G01X2356486Y1123859D01*
G01X2345897Y1118789D01*
G01X2342498Y1130878D01*
G01X2337102Y1142218D01*
G01X2329864Y1152480D01*
G01X2336568Y1167226D01*
G01X2339497Y1183158D01*
G01X2338476Y1199324D01*
G01X2333567Y1214761D01*
G01X2325061Y1228547D01*
G01X2332993Y1241116D01*
G01X2337927Y1255137D01*
G01X2339614Y1269904D01*
G01X2337970Y1284676D01*
G01X2333077Y1298711D01*
G01X2325181Y1311303D01*
G01X2314678Y1321821D01*
G01X2302097Y1329735D01*
G01X2288070Y1334648D01*
G01X2273300Y1336314D01*
G01X2258530Y1334648D01*
G01X2244503Y1329735D01*
G01X2231922Y1321821D01*
G01X2221419Y1311303D01*
G01X2213523Y1298711D01*
G01X2208630Y1284676D01*
G01X2206986Y1269904D01*
G01X2208673Y1255137D01*
G01X2213607Y1241116D01*
G01X2221539Y1228547D01*
G01X2213033Y1214761D01*
G01X2208124Y1199324D01*
G01X2207103Y1183158D01*
G01X2210032Y1167226D01*
G01X2216736Y1152480D01*
G01X2207275Y1138126D01*
G01X2201385Y1121975D01*
G01X2199386Y1104900D01*
G01X2199386Y614816D01*
G01X2052184Y467614D01*
G01X1233698Y467614D01*
G01X1241834Y481375D01*
G01X1246441Y496683D01*
G01X1247251Y512648D01*
G01X1244216Y528344D01*
G01X1237514Y542857D01*
G01X1227533Y555345D01*
G01X1214854Y565081D01*
G01X1200213Y571500D01*
G01X1214613Y577777D01*
G01X1227132Y587265D01*
G01X1237068Y599431D01*
G01X1243864Y613594D01*
G01X1247138Y628957D01*
G01X1246707Y644660D01*
G01X1242594Y659820D01*
G01X1235031Y673588D01*
G01X1224442Y685190D01*
G01X1211420Y693977D01*
G01X1196698Y699454D01*
G01X1181100Y701314D01*
G01X1165502Y699454D01*
G01X1150780Y693977D01*
G01X1137758Y685190D01*
G01X1127169Y673588D01*
G01X1119606Y659820D01*
G01X1115493Y644660D01*
G01X1115062Y628957D01*
G01X1118336Y613594D01*
G01X1125132Y599431D01*
G01X1135068Y587265D01*
G01X1147587Y577777D01*
G01X1161987Y571500D01*
G01X1147346Y565081D01*
G01X1134667Y555345D01*
G01X1124686Y542857D01*
G01X1117984Y528344D01*
G01X1114949Y512648D01*
G01X1115759Y496683D01*
G01X1120366Y481375D01*
G01X1128502Y467614D01*
G01X-647700Y467614D01*
G01X-662120Y466194D01*
G01X-675986Y461988D01*
G01X-688764Y455157D01*
G01X-699965Y445965D01*
G01X-915865Y230065D01*
G01X-926185Y217125D01*
G01X-933366Y202212D01*
G01X-937049Y186076D01*
G01X-937049Y169524D01*
G01X-933366Y153388D01*
G01X-926185Y138475D01*
G01X-915865Y125535D01*
G01X-902925Y115215D01*
G01X-888012Y108034D01*
G01X-871876Y104351D01*
G01X-855324Y104351D01*
G01X-839188Y108034D01*
G01X-824275Y115215D01*
G01X-811335Y125535D01*
G01X-617084Y319786D01*
G01X-124702Y319786D01*
G01X-124566Y49253D01*
G01X-124655Y47531D01*
G01X-138774Y52199D01*
G01X-153579Y53604D01*
G01X-168324Y51674D01*
G01X-182269Y46507D01*
G01X-194711Y38362D01*
G01X-205026Y27650D01*
G01X-212694Y14908D01*
G01X-217330Y778D01*
G01X-218701Y-14030D01*
G01X-216737Y-28771D01*
G01X-211538Y-42703D01*
G01X-203366Y-55127D01*
G01X-201780Y-57283D01*
G01X-200914Y-58856D01*
G01X-200914Y-602205D01*
G01X-258895Y-660186D01*
G01X-327056Y-660186D01*
G01X-252535Y-585665D01*
G01X-242311Y-572876D01*
G01X-235153Y-558150D01*
G01X-231413Y-542209D01*
G01X-231274Y-525835D01*
G01X-234744Y-509833D01*
G01X-241651Y-494988D01*
G01X-251657Y-482028D01*
G01X-264271Y-471588D01*
G01X-253012Y-460520D01*
G01X-244689Y-447103D01*
G01X-239773Y-432100D01*
G01X-238543Y-416359D01*
G01X-241068Y-400774D01*
G01X-247207Y-386228D01*
G01X-256610Y-373545D01*
G01X-246176Y-362517D01*
G01X-238216Y-349591D01*
G01X-233064Y-335311D01*
G01X-230938Y-320279D01*
G01X-231928Y-305130D01*
G01X-235993Y-290503D01*
G01X-242959Y-277015D01*
G01X-252535Y-265235D01*
G01X-408601Y-109169D01*
G01X-408601Y139700D01*
G01X-410454Y156147D01*
G01X-415920Y171770D01*
G01X-424726Y185785D01*
G01X-436430Y197488D01*
G01X-450445Y206294D01*
G01X-466067Y211761D01*
G01X-482515Y213614D01*
G01X-498962Y211761D01*
G01X-514585Y206294D01*
G01X-528599Y197488D01*
G01X-540303Y185785D01*
G01X-549109Y171770D01*
G01X-554575Y156147D01*
G01X-556429Y139700D01*
G01X-556429Y-139785D01*
G01X-555008Y-154205D01*
G01X-550802Y-168071D01*
G01X-543972Y-180850D01*
G01X-534780Y-192050D01*
G01X-357065Y-369765D01*
G01X-352990Y-373545D01*
G01X-362393Y-386228D01*
G01X-368532Y-400774D01*
G01X-371057Y-416359D01*
G01X-369827Y-432100D01*
G01X-364911Y-447103D01*
G01X-356588Y-460520D01*
G01X-345329Y-471588D01*
G01X-357065Y-481135D01*
G01X-449716Y-573786D01*
G01X-1105797Y-573786D01*
G01X-1097816Y-560378D01*
G01X-1093190Y-545476D01*
G01X-1092173Y-529905D01*
G01X-1094823Y-514529D01*
G01X-1100992Y-500196D01*
G01X-1110340Y-487703D01*
G01X-1122348Y-477739D01*
G01X-1136352Y-470857D01*
G01X-1151576Y-467437D01*
G01X-1167178Y-467670D01*
G01X-1182294Y-471542D01*
G01X-1196086Y-478839D01*
G01X-1196086Y-458527D01*
G01X-937061Y-458527D01*
G01X-937006Y-474764D01*
G01X-937006Y-474764D01*
G01X-933254Y-490562D01*
G01X-926003Y-505090D01*
G01X-915632Y-517585D01*
G01X-902688Y-527388D01*
G01X-887852Y-533986D01*
G01X-871902Y-537030D01*
G01X-855678Y-536362D01*
G01X-840033Y-532016D01*
G01X-825790Y-524220D01*
G01X-813696Y-513385D01*
G01X-804389Y-500080D01*
G01X-794353Y-515820D01*
G01X-781311Y-529176D01*
G01X-765814Y-539584D01*
G01X-748516Y-546602D01*
G01X-730149Y-549936D01*
G01X-711488Y-549443D01*
G01X-693322Y-545146D01*
G01X-676418Y-537225D01*
G01X-661492Y-526014D01*
G01X-649172Y-511989D01*
G01X-639981Y-495741D01*
G01X-634306Y-477957D01*
G01X-632388Y-459388D01*
G01X-632388Y-369388D01*
G01X-634372Y-350507D01*
G01X-640239Y-332451D01*
G01X-649732Y-316009D01*
G01X-662435Y-301901D01*
G01X-677795Y-290741D01*
G01X-695138Y-283019D01*
G01X-713709Y-279072D01*
G01X-732694Y-279072D01*
G01X-751265Y-283019D01*
G01X-768608Y-290741D01*
G01X-783968Y-301901D01*
G01X-796671Y-316009D01*
G01X-806164Y-332451D01*
G01X-812031Y-350507D01*
G01X-814015Y-369388D01*
G01X-814015Y-419073D01*
G01X-826182Y-408320D01*
G01X-840478Y-400620D01*
G01X-856152Y-396380D01*
G01X-872380Y-395822D01*
G01X-888308Y-398974D01*
G01X-903100Y-405672D01*
G01X-915977Y-415563D01*
G01X-926263Y-428127D01*
G01X-933416Y-442704D01*
G01X-937061Y-458527D01*
G01X-1196086Y-458527D01*
G01X-1196086Y177800D01*
G01X-1197506Y192220D01*
G01X-1201712Y206086D01*
G01X-1208543Y218864D01*
G01X-1217735Y230065D01*
G01X-1281036Y293366D01*
G01X-1275751Y307313D01*
G01X-1273716Y322089D01*
G01X-1275035Y336946D01*
G01X-1279641Y351132D01*
G01X-1287301Y363929D01*
G01X-1297628Y374692D01*
G01X-1310098Y382874D01*
G01X-1324082Y388062D01*
G01X-1312195Y397423D01*
G01X-1302740Y409235D01*
G01X-1296208Y422883D01*
G01X-1292940Y437656D01*
G01X-1293106Y452786D01*
G01X-1296696Y467484D01*
G01X-1303525Y480985D01*
G01X-1313237Y492588D01*
G01X-1325326Y501687D01*
G01X-1339162Y507809D01*
G01X-1354026Y510635D01*
G01X-1369144Y510018D01*
G01X-1383729Y505991D01*
G01X-1397021Y498762D01*
G01X-1408328Y488709D01*
G01X-1417062Y476354D01*
G01X-1422769Y462341D01*
G01X-1425151Y447399D01*
G01X-1424083Y432307D01*
G01X-1419623Y417849D01*
G01X-1412001Y404778D01*
G01X-1401615Y393776D01*
G01X-1389006Y385414D01*
G01X-1374829Y380127D01*
G01X-1386055Y371413D01*
G01X-1395166Y360506D01*
G01X-1401744Y347908D01*
G01X-1405487Y334199D01*
G01X-1406222Y320006D01*
G01X-1403917Y305983D01*
G01X-1398677Y292773D01*
G01X-1406621Y279848D01*
G01X-1411759Y265573D01*
G01X-1413874Y250550D01*
G01X-1412877Y235412D01*
G01X-1408811Y220796D01*
G01X-1401846Y207318D01*
G01X-1392276Y195546D01*
G01X-1343914Y147184D01*
G01X-1343914Y-533400D01*
G01X-1342546Y-547554D01*
G01X-1338493Y-561184D01*
G01X-1331905Y-573786D01*
G01X-2077584Y-573786D01*
G01X-2121512Y-529858D01*
G01X-2132135Y-516430D01*
G01X-2195635Y-452930D01*
G01X-2208575Y-442611D01*
G01X-2223488Y-435429D01*
G01X-2239624Y-431746D01*
G01X-2256176Y-431746D01*
G01X-2272312Y-435429D01*
G01X-2287225Y-442611D01*
G01X-2300165Y-452930D01*
G01X-2310485Y-465871D01*
G01X-2317666Y-480783D01*
G01X-2321349Y-496920D01*
G01X-2321349Y-513471D01*
G01X-2317666Y-529608D01*
G01X-2310485Y-544520D01*
G01X-2300165Y-557461D01*
G01X-2247288Y-610338D01*
G01X-2236665Y-623765D01*
G01X-2160465Y-699965D01*
G01X-2149264Y-709157D01*
G01X-2136486Y-715988D01*
G01X-2122620Y-720194D01*
G01X-2108200Y-721614D01*
G01X-1996723Y-721614D01*
G01X-2001941Y-726832D01*
G01X-2009651Y-736879D01*
G01X-2014497Y-748580D01*
G01X-2016150Y-761136D01*
G01X-2016150Y-943581D01*
G01X-2017016Y-945153D01*
G01X-2018602Y-947309D01*
G01X-2026828Y-959838D01*
G01X-2032030Y-973895D01*
G01X-2033943Y-988760D01*
G01X-2032469Y-1003676D01*
G01X-2027683Y-1017879D01*
G01X-2019829Y-1030645D01*
G01X-2009309Y-1041321D01*
G01X-1996660Y-1049362D01*
G01X-1982529Y-1054357D01*
G01X-1967636Y-1056050D01*
G01X-1952744Y-1054357D01*
G01X-1938613Y-1049362D01*
G01X-1925964Y-1041321D01*
G01X-1915444Y-1030645D01*
G01X-1907590Y-1017879D01*
G01X-1902804Y-1003676D01*
G01X-1901330Y-988760D01*
G01X-1903242Y-973895D01*
G01X-1908445Y-959838D01*
G01X-1916671Y-947309D01*
G01X-1918257Y-945153D01*
G01X-1919122Y-943581D01*
G01X-1919122Y-781232D01*
G01X-1895105Y-757214D01*
G01X-1671586Y-757214D01*
G01X-1678421Y-772151D01*
G01X-1682604Y-788036D01*
G01X-1684012Y-804403D01*
G01X-1684012Y-864403D01*
G01X-1682821Y-879463D01*
G01X-1679278Y-894148D01*
G01X-1673470Y-908095D01*
G01X-1665543Y-920955D01*
G01X-1714795Y-920955D01*
G01X-1736041Y-922627D01*
G01X-1756764Y-927602D01*
G01X-1776454Y-935758D01*
G01X-1794625Y-946893D01*
G01X-1810830Y-960734D01*
G01X-1824671Y-976939D01*
G01X-1835807Y-995110D01*
G01X-1843962Y-1014800D01*
G01X-1848937Y-1035523D01*
G01X-1850609Y-1056769D01*
G01X-1850609Y-1496556D01*
G01X-1852219Y-1510839D01*
G01X-1856966Y-1524406D01*
G01X-1864613Y-1536576D01*
G01X-1874776Y-1546739D01*
G01X-1886946Y-1554386D01*
G01X-1900513Y-1559133D01*
G01X-1914796Y-1560742D01*
G01X-2399648Y-1560713D01*
G01X-2394280Y-1549104D01*
G01X-2390993Y-1536743D01*
G01X-2389886Y-1524000D01*
G01X-2389886Y-431800D01*
G01X-2391647Y-415762D01*
G01X-2396846Y-400489D01*
G01X-2405235Y-386707D01*
G01X-2399857Y-373173D01*
G01X-2399253Y-369388D01*
G01X-1679012Y-369388D01*
G01X-1679012Y-459388D01*
G01X-1677093Y-477959D01*
G01X-1671417Y-495745D01*
G01X-1662224Y-511994D01*
G01X-1649902Y-526020D01*
G01X-1634973Y-537230D01*
G01X-1618066Y-545150D01*
G01X-1599898Y-549445D01*
G01X-1581234Y-549935D01*
G01X-1562866Y-546597D01*
G01X-1545567Y-539574D01*
G01X-1530071Y-529162D01*
G01X-1517031Y-515801D01*
G01X-1506999Y-500055D01*
G01X-1497695Y-513366D01*
G01X-1485603Y-524207D01*
G01X-1471359Y-532009D01*
G01X-1455712Y-536359D01*
G01X-1439485Y-537031D01*
G01X-1423532Y-533989D01*
G01X-1408692Y-527392D01*
G01X-1395745Y-517587D01*
G01X-1385373Y-505091D01*
G01X-1378119Y-490560D01*
G01X-1374367Y-474759D01*
G01X-1374314Y-458519D01*
G01X-1377962Y-442693D01*
G01X-1385119Y-428115D01*
G01X-1395410Y-415551D01*
G01X-1408292Y-405662D01*
G01X-1423088Y-398967D01*
G01X-1439021Y-395819D01*
G01X-1455251Y-396384D01*
G01X-1470926Y-400632D01*
G01X-1485221Y-408340D01*
G01X-1497385Y-419101D01*
G01X-1497385Y-369388D01*
G01X-1497385Y-369388D01*
G01X-1499369Y-350507D01*
G01X-1505236Y-332451D01*
G01X-1514729Y-316009D01*
G01X-1527432Y-301901D01*
G01X-1542792Y-290741D01*
G01X-1560135Y-283019D01*
G01X-1578706Y-279072D01*
G01X-1597691Y-279072D01*
G01X-1616262Y-283019D01*
G01X-1633605Y-290741D01*
G01X-1648965Y-301901D01*
G01X-1661668Y-316009D01*
G01X-1671161Y-332451D01*
G01X-1677028Y-350507D01*
G01X-1679012Y-369388D01*
G01X-2399253Y-369388D01*
G01X-2397563Y-358791D01*
G01X-2398464Y-344255D01*
G01X-2402516Y-330267D01*
G01X-2409523Y-317500D01*
G01X-2401962Y-303349D01*
G01X-2398020Y-287797D01*
G01X-2397928Y-271753D01*
G01X-2401693Y-256157D01*
G01X-2409093Y-241921D01*
G01X-2419695Y-229879D01*
G01X-2432879Y-220736D01*
G01X-2447874Y-215027D01*
G01X-2463800Y-213086D01*
G01X-2479726Y-215027D01*
G01X-2494721Y-220736D01*
G01X-2507905Y-229879D01*
G01X-2518507Y-241921D01*
G01X-2525907Y-256157D01*
G01X-2529672Y-271753D01*
G01X-2529580Y-287797D01*
G01X-2525638Y-303349D01*
G01X-2518077Y-317500D01*
G01X-2525084Y-330267D01*
G01X-2529136Y-344255D01*
G01X-2530037Y-358791D01*
G01X-2527743Y-373173D01*
G01X-2522365Y-386707D01*
G01X-2530754Y-400489D01*
G01X-2535953Y-415762D01*
G01X-2537714Y-431800D01*
G01X-2537714Y-1524000D01*
G01X-2536608Y-1536740D01*
G01X-2533322Y-1549098D01*
G01X-2527956Y-1560705D01*
G01X-2725510Y-1560693D01*
G01X-2705256Y-1549968D01*
G01X-2687094Y-1535990D01*
G01X-2671541Y-1519156D01*
G01X-2659039Y-1499948D01*
G01X-2649946Y-1478910D01*
G01X-2644519Y-1456644D01*
G01X-2642914Y-1433782D01*
G01X-2645176Y-1410975D01*
G01X-2651241Y-1388874D01*
G01X-2660935Y-1368107D01*
G01X-2673983Y-1349265D01*
G37*
G36*
G01X-800546Y-920955D02*
G01X-1510854Y-920955D01*
G01X-1502927Y-908095D01*
G01X-1497119Y-894148D01*
G01X-1493576Y-879463D01*
G01X-1492385Y-864403D01*
G01X-1492385Y-804403D01*
G01X-1493793Y-788036D01*
G01X-1497976Y-772151D01*
G01X-1504811Y-757214D01*
G01X-1330695Y-757214D01*
G01X-1324241Y-763668D01*
G01X-1323742Y-765391D01*
G01X-1323339Y-768037D01*
G01X-1320190Y-783033D01*
G01X-1313684Y-796906D01*
G01X-1304168Y-808915D01*
G01X-1292149Y-818419D01*
G01X-1278270Y-824911D01*
G01X-1263271Y-828045D01*
G01X-1247953Y-827652D01*
G01X-1233135Y-823754D01*
G01X-1219607Y-816560D01*
G01X-1208091Y-806452D01*
G01X-1199202Y-793971D01*
G01X-1193415Y-779784D01*
G01X-1191039Y-764646D01*
G01X-1192200Y-749368D01*
G01X-1196837Y-734764D01*
G01X-1204702Y-721614D01*
G01X-973265Y-721614D01*
G01X-987514Y-728411D01*
G01X-999752Y-738384D01*
G01X-1009286Y-750968D01*
G01X-1015576Y-765448D01*
G01X-1018265Y-781004D01*
G01X-1017200Y-796756D01*
G01X-1012442Y-811809D01*
G01X-1004261Y-825311D01*
G01X-993120Y-836497D01*
G01X-979651Y-844732D01*
G01X-964617Y-849550D01*
G01X-948870Y-850678D01*
G01X-933303Y-848052D01*
G01X-918797Y-841820D01*
G01X-906176Y-832336D01*
G01X-896154Y-820138D01*
G01X-889300Y-805916D01*
G01X-886001Y-790477D01*
G01X-885598Y-787831D01*
G01X-885098Y-786107D01*
G01X-856205Y-757214D01*
G01X-806589Y-757214D01*
G01X-813424Y-772151D01*
G01X-817607Y-788036D01*
G01X-819015Y-804403D01*
G01X-819015Y-864403D01*
G01X-817824Y-879463D01*
G01X-814281Y-894148D01*
G01X-808473Y-908095D01*
G01X-800546Y-920955D01*
G37*
G36*
G01X936656Y-920955D02*
G01X-645857Y-920955D01*
G01X-638549Y-909283D01*
G01X-632990Y-896684D01*
G01X-629294Y-883419D01*
G01X-620067Y-896053D01*
G01X-608138Y-906174D01*
G01X-594169Y-913219D01*
G01X-578939Y-916796D01*
G01X-563294Y-916704D01*
G01X-548107Y-912951D01*
G01X-534221Y-905744D01*
G01X-522410Y-895484D01*
G01X-513332Y-882743D01*
G01X-507490Y-868230D01*
G01X-505212Y-852752D01*
G01X-506623Y-837171D01*
G01X-511644Y-822355D01*
G01X-519997Y-809127D01*
G01X-531217Y-798223D01*
G01X-544678Y-790252D01*
G01X-559633Y-785656D01*
G01X-575248Y-784692D01*
G01X-590654Y-787412D01*
G01X-604994Y-793666D01*
G01X-617470Y-803106D01*
G01X-627388Y-815205D01*
G01X-627388Y-804403D01*
G01X-628796Y-788036D01*
G01X-632979Y-772151D01*
G01X-639814Y-757214D01*
G01X-238800Y-757214D01*
G01X-226244Y-755561D01*
G01X-214543Y-750714D01*
G01X-204495Y-743004D01*
G01X-118095Y-656605D01*
G01X-110386Y-646557D01*
G01X-105539Y-634856D01*
G01X-103886Y-622300D01*
G01X-103886Y-330831D01*
G01X-92946Y-340121D01*
G01X-80417Y-347121D01*
G01X-66772Y-351568D01*
G01X-52524Y-353294D01*
G01X-57285Y-361874D01*
G01X-60222Y-371238D01*
G01X-61214Y-381000D01*
G01X-61214Y-715844D01*
G01X-62080Y-717417D01*
G01X-63666Y-719573D01*
G01X-71892Y-732102D01*
G01X-77094Y-746158D01*
G01X-79007Y-761024D01*
G01X-77532Y-775939D01*
G01X-72746Y-790143D01*
G01X-64892Y-802909D01*
G01X-54372Y-813585D01*
G01X-41724Y-821625D01*
G01X-27592Y-826620D01*
G01X-12700Y-828314D01*
G01X2192Y-826620D01*
G01X16324Y-821625D01*
G01X28972Y-813585D01*
G01X39492Y-802909D01*
G01X47346Y-790143D01*
G01X52132Y-775939D01*
G01X53607Y-761024D01*
G01X51694Y-746158D01*
G01X46492Y-732102D01*
G01X38266Y-719573D01*
G01X36680Y-717417D01*
G01X35814Y-715844D01*
G01X35814Y-698500D01*
G01X60686Y-698500D01*
G01X62613Y-714370D01*
G01X68282Y-729318D01*
G01X77363Y-742474D01*
G01X89329Y-753075D01*
G01X103485Y-760505D01*
G01X119007Y-764331D01*
G01X134993Y-764331D01*
G01X144449Y-762000D01*
G01X276586Y-762000D01*
G01X278513Y-777870D01*
G01X284182Y-792818D01*
G01X293263Y-805974D01*
G01X305229Y-816575D01*
G01X319385Y-824005D01*
G01X334907Y-827831D01*
G01X350893Y-827831D01*
G01X366415Y-824005D01*
G01X380571Y-816575D01*
G01X392537Y-805974D01*
G01X401618Y-792818D01*
G01X407287Y-777870D01*
G01X409214Y-762000D01*
G01X407287Y-746130D01*
G01X401618Y-731182D01*
G01X392537Y-718026D01*
G01X380571Y-707425D01*
G01X366415Y-699995D01*
G01X350893Y-696169D01*
G01X334907Y-696169D01*
G01X319385Y-699995D01*
G01X305229Y-707425D01*
G01X293263Y-718026D01*
G01X284182Y-731182D01*
G01X278513Y-746130D01*
G01X276586Y-762000D01*
G01X276586Y-762000D01*
G01X144449Y-762000D01*
G01X150515Y-760505D01*
G01X164671Y-753075D01*
G01X176637Y-742474D01*
G01X185718Y-729318D01*
G01X191387Y-714370D01*
G01X193314Y-698500D01*
G01X191387Y-682630D01*
G01X185718Y-667682D01*
G01X176637Y-654526D01*
G01X164671Y-643925D01*
G01X150515Y-636495D01*
G01X134993Y-632669D01*
G01X119007Y-632669D01*
G01X103485Y-636495D01*
G01X89329Y-643925D01*
G01X77363Y-654526D01*
G01X68282Y-667682D01*
G01X62613Y-682630D01*
G01X60686Y-698500D01*
G01X60686Y-698500D01*
G01X35814Y-698500D01*
G01X35814Y-571500D01*
G01X809986Y-571500D01*
G01X811913Y-587370D01*
G01X817582Y-602318D01*
G01X826663Y-615474D01*
G01X838629Y-626075D01*
G01X852785Y-633505D01*
G01X868307Y-637331D01*
G01X884293Y-637331D01*
G01X899815Y-633505D01*
G01X913971Y-626075D01*
G01X925937Y-615474D01*
G01X935018Y-602318D01*
G01X940687Y-587370D01*
G01X942614Y-571500D01*
G01X940687Y-555630D01*
G01X935018Y-540682D01*
G01X925937Y-527526D01*
G01X913971Y-516925D01*
G01X899815Y-509495D01*
G01X884293Y-505669D01*
G01X868307Y-505669D01*
G01X852785Y-509495D01*
G01X838629Y-516925D01*
G01X826663Y-527526D01*
G01X817582Y-540682D01*
G01X811913Y-555630D01*
G01X809986Y-571500D01*
G01X809986Y-571500D01*
G01X35814Y-571500D01*
G01X35814Y-482600D01*
G01X60686Y-482600D01*
G01X62613Y-498470D01*
G01X68282Y-513418D01*
G01X77363Y-526574D01*
G01X89329Y-537175D01*
G01X103485Y-544605D01*
G01X119007Y-548431D01*
G01X134993Y-548431D01*
G01X150515Y-544605D01*
G01X164671Y-537175D01*
G01X176637Y-526574D01*
G01X185718Y-513418D01*
G01X191387Y-498470D01*
G01X193314Y-482600D01*
G01X191387Y-466730D01*
G01X185718Y-451782D01*
G01X176637Y-438626D01*
G01X164671Y-428025D01*
G01X150515Y-420595D01*
G01X134993Y-416769D01*
G01X119007Y-416769D01*
G01X103485Y-420595D01*
G01X89329Y-428025D01*
G01X77363Y-438626D01*
G01X68282Y-451782D01*
G01X62613Y-466730D01*
G01X60686Y-482600D01*
G01X60686Y-482600D01*
G01X35814Y-482600D01*
G01X35814Y-401095D01*
G01X72405Y-364505D01*
G01X80114Y-354457D01*
G01X84961Y-342756D01*
G01X86614Y-330200D01*
G01X86614Y-229617D01*
G01X979966Y-229617D01*
G01X981893Y-245487D01*
G01X987562Y-260434D01*
G01X996643Y-273591D01*
G01X1008609Y-284192D01*
G01X1022765Y-291621D01*
G01X1038287Y-295447D01*
G01X1054273Y-295447D01*
G01X1069795Y-291621D01*
G01X1083951Y-284192D01*
G01X1095917Y-273591D01*
G01X1104998Y-260434D01*
G01X1110667Y-245487D01*
G01X1112594Y-229617D01*
G01X1110667Y-213747D01*
G01X1104998Y-198799D01*
G01X1095917Y-185642D01*
G01X1083951Y-175041D01*
G01X1069795Y-167612D01*
G01X1054273Y-163786D01*
G01X1038287Y-163786D01*
G01X1022765Y-167612D01*
G01X1008609Y-175041D01*
G01X996643Y-185642D01*
G01X987562Y-198799D01*
G01X981893Y-213747D01*
G01X979966Y-229617D01*
G01X979966Y-229617D01*
G01X86614Y-229617D01*
G01X86614Y-117256D01*
G01X87480Y-115683D01*
G01X89066Y-113527D01*
G01X96721Y-102103D01*
G01X101855Y-89346D01*
G01X104247Y-75803D01*
G01X103795Y-62059D01*
G01X100517Y-48703D01*
G01X94556Y-36311D01*
G01X86166Y-25415D01*
G01X78249Y-18652D01*
G01X556254Y-18652D01*
G01X559502Y-34007D01*
G01X566269Y-48169D01*
G01X576174Y-60344D01*
G01X588663Y-69850D01*
G01X576174Y-79356D01*
G01X566269Y-91531D01*
G01X559502Y-105693D01*
G01X556254Y-121048D01*
G01X556705Y-136737D01*
G01X560830Y-151881D01*
G01X568400Y-165630D01*
G01X578988Y-177216D01*
G01X592003Y-185988D01*
G01X606715Y-191457D01*
G01X622300Y-193314D01*
G01X622300Y-193314D01*
G01X637885Y-191457D01*
G01X652597Y-185988D01*
G01X665612Y-177216D01*
G01X676200Y-165630D01*
G01X683770Y-151881D01*
G01X687895Y-136737D01*
G01X688346Y-121048D01*
G01X685098Y-105693D01*
G01X678331Y-91531D01*
G01X668426Y-79356D01*
G01X655937Y-69850D01*
G01X668426Y-60344D01*
G01X678331Y-48169D01*
G01X685098Y-34007D01*
G01X688346Y-18652D01*
G01X687895Y-2963D01*
G01X683770Y12181D01*
G01X676200Y25930D01*
G01X665612Y37516D01*
G01X652597Y46288D01*
G01X637885Y51757D01*
G01X622300Y53614D01*
G01X606715Y51757D01*
G01X592003Y46288D01*
G01X578988Y37516D01*
G01X568400Y25930D01*
G01X560830Y12181D01*
G01X556705Y-2963D01*
G01X556254Y-18652D01*
G01X78249Y-18652D01*
G01X75710Y-16483D01*
G01X63636Y-9900D01*
G01X50464Y-5949D01*
G01X36760Y-4800D01*
G01X23114Y-6502D01*
G01X23114Y40015D01*
G01X23264Y44765D01*
G01X23129Y312299D01*
G01X30616Y319786D01*
G01X1338324Y319786D01*
G01X1355784Y290899D01*
G01X1370339Y260445D01*
G01X1381850Y228715D01*
G01X1390207Y196012D01*
G01X1305354Y280865D01*
G01X1294153Y290057D01*
G01X1281374Y296888D01*
G01X1267509Y301094D01*
G01X1253089Y302514D01*
G01X622300Y302514D01*
G01X605853Y300661D01*
G01X590230Y295194D01*
G01X576215Y286388D01*
G01X564512Y274685D01*
G01X555706Y260670D01*
G01X550239Y245047D01*
G01X548386Y228600D01*
G01X550239Y212153D01*
G01X555706Y196530D01*
G01X564512Y182515D01*
G01X576215Y170812D01*
G01X590230Y162006D01*
G01X605853Y156539D01*
G01X622300Y154686D01*
G01X1222472Y154686D01*
G01X1272286Y104872D01*
G01X1272286Y-163027D01*
G01X1256034Y-162592D01*
G01X1240165Y-166125D01*
G01X1225633Y-173412D01*
G01X1213310Y-184016D01*
G01X1203937Y-197300D01*
G01X1198079Y-212465D01*
G01X1196086Y-228600D01*
G01X1198079Y-244735D01*
G01X1203937Y-259900D01*
G01X1213310Y-273184D01*
G01X1225633Y-283788D01*
G01X1240165Y-291075D01*
G01X1256034Y-294608D01*
G01X1272286Y-294173D01*
G01X1272286Y-930023D01*
G01X1258289Y-925247D01*
G01X1243581Y-923691D01*
G01X1228895Y-925434D01*
G01X1214960Y-930389D01*
G01X1202469Y-938308D01*
G01X1192045Y-948799D01*
G01X1184205Y-961340D01*
G01X1179339Y-975306D01*
G01X1177690Y-990004D01*
G01X1179339Y-1004701D01*
G01X1184205Y-1018668D01*
G01X1192045Y-1031208D01*
G01X1202469Y-1041699D01*
G01X1214960Y-1049619D01*
G01X1228895Y-1054574D01*
G01X1243581Y-1056317D01*
G01X1258289Y-1054761D01*
G01X1272286Y-1049984D01*
G01X1272286Y-1371600D01*
G01X1273884Y-1386884D01*
G01X1278607Y-1401508D01*
G01X1267706Y-1406192D01*
G01X1258933Y-1414182D01*
G01X1253252Y-1424599D01*
G01X1251287Y-1436300D01*
G01X1251287Y-1586300D01*
G01X1253039Y-1597367D01*
G01X1258126Y-1607351D01*
G01X1266050Y-1615274D01*
G01X1276033Y-1620361D01*
G01X1287101Y-1622114D01*
G01X1437100Y-1622114D01*
G01X1448167Y-1620361D01*
G01X1458151Y-1615274D01*
G01X1466074Y-1607351D01*
G01X1471161Y-1597367D01*
G01X1472914Y-1586300D01*
G01X1472914Y-1577069D01*
G01X1486724Y-1592529D01*
G01X1503171Y-1605146D01*
G01X1521680Y-1614479D01*
G01X1541604Y-1620202D01*
G01X1562245Y-1622114D01*
G01X1582881Y-1620148D01*
G01X1602790Y-1614373D01*
G01X1621274Y-1604992D01*
G01X1637689Y-1592331D01*
G01X1651458Y-1576836D01*
G01X1662100Y-1559047D01*
G01X1672247Y-1576155D01*
G01X1685289Y-1591174D01*
G01X1700806Y-1603619D01*
G01X1718298Y-1613089D01*
G01X1737201Y-1619280D01*
G01X1756906Y-1621992D01*
G01X1776779Y-1621137D01*
G01X1796179Y-1616743D01*
G01X1814480Y-1608952D01*
G01X1831094Y-1598015D01*
G01X1845485Y-1584283D01*
G01X1857190Y-1568200D01*
G01X1865830Y-1550283D01*
G01X1871128Y-1531111D01*
G01X1872913Y-1511300D01*
G01X1871128Y-1491489D01*
G01X1865830Y-1472317D01*
G01X1857190Y-1454400D01*
G01X1845485Y-1438317D01*
G01X1831094Y-1424585D01*
G01X1814480Y-1413648D01*
G01X1796179Y-1405857D01*
G01X1776779Y-1401463D01*
G01X1756906Y-1400608D01*
G01X1737201Y-1403320D01*
G01X1718298Y-1409511D01*
G01X1700806Y-1418981D01*
G01X1685289Y-1431426D01*
G01X1672247Y-1446445D01*
G01X1662100Y-1463553D01*
G01X1651458Y-1445764D01*
G01X1637689Y-1430269D01*
G01X1621274Y-1417608D01*
G01X1602790Y-1408227D01*
G01X1582881Y-1402452D01*
G01X1562245Y-1400486D01*
G01X1541604Y-1402398D01*
G01X1521680Y-1408121D01*
G01X1503171Y-1417454D01*
G01X1486724Y-1430071D01*
G01X1472914Y-1445531D01*
G01X1472914Y-1436300D01*
G01X1471161Y-1425233D01*
G01X1466074Y-1415249D01*
G01X1458151Y-1407326D01*
G01X1448167Y-1402239D01*
G01X1437100Y-1400486D01*
G01X1414236Y-1400486D01*
G01X1418630Y-1386339D01*
G01X1420114Y-1371600D01*
G01X1420114Y-1029331D01*
G01X1420935Y-1030165D01*
G01X1640543Y-1249773D01*
G01X1651744Y-1258966D01*
G01X1664523Y-1265796D01*
G01X1678388Y-1270002D01*
G01X1692808Y-1271422D01*
G01X2173986Y-1271422D01*
G01X2173986Y-1320072D01*
G01X2175381Y-1325279D01*
G01X2179193Y-1329090D01*
G01X2184400Y-1330486D01*
G01X2527300Y-1330486D01*
G01X2532507Y-1329090D01*
G01X2536319Y-1325279D01*
G01X2537714Y-1320072D01*
G01X2537714Y-1003300D01*
G01X2536319Y-998093D01*
G01X2532507Y-994281D01*
G01X2527300Y-992886D01*
G01X2184400Y-992886D01*
G01X2179193Y-994281D01*
G01X2175381Y-998093D01*
G01X2173986Y-1003300D01*
G01X2173986Y-1123594D01*
G01X1888434Y-1123594D01*
G01X1898967Y-1115723D01*
G01X1907741Y-1105928D01*
G01X1914408Y-1094594D01*
G01X1918709Y-1082167D01*
G01X1920473Y-1069136D01*
G01X2002797Y-986812D01*
G01X2010507Y-976765D01*
G01X2015353Y-965064D01*
G01X2017006Y-952508D01*
G01X2017006Y-426210D01*
G01X2026105Y-413839D01*
G01X2032113Y-399706D01*
G01X2034710Y-384571D01*
G01X2033756Y-369244D01*
G01X2029302Y-354547D01*
G01X2021587Y-341269D01*
G01X2011024Y-330122D01*
G01X1998181Y-321703D01*
G01X1983746Y-316464D01*
G01X1968492Y-314686D01*
G01X1953239Y-316464D01*
G01X1938804Y-321703D01*
G01X1925960Y-330122D01*
G01X1915398Y-341269D01*
G01X1907683Y-354547D01*
G01X1903229Y-369244D01*
G01X1902275Y-384571D01*
G01X1904871Y-399706D01*
G01X1910880Y-413839D01*
G01X1919978Y-426210D01*
G01X1919978Y-932412D01*
G01X1851864Y-1000527D01*
G01X1837865Y-1002529D01*
G01X1824608Y-1007455D01*
G01X1812698Y-1015078D01*
G01X1802675Y-1025055D01*
G01X1794995Y-1036929D01*
G01X1790007Y-1050162D01*
G01X1787939Y-1064152D01*
G01X1788884Y-1078262D01*
G01X1792799Y-1091850D01*
G01X1799507Y-1104300D01*
G01X1808702Y-1115044D01*
G01X1819966Y-1123594D01*
G01X1723425Y-1123594D01*
G01X1640255Y-1040425D01*
G01X1653595Y-1033953D01*
G01X1665164Y-1024679D01*
G01X1674383Y-1013066D01*
G01X1680791Y-999695D01*
G01X1684068Y-985235D01*
G01X1684050Y-970408D01*
G01X1680738Y-955955D01*
G01X1674298Y-942600D01*
G01X1665052Y-931009D01*
G01X1653461Y-921762D01*
G01X1640106Y-915322D01*
G01X1625653Y-912011D01*
G01X1610826Y-911993D01*
G01X1596365Y-915270D01*
G01X1582995Y-921678D01*
G01X1571382Y-930897D01*
G01X1562108Y-942465D01*
G01X1555636Y-955805D01*
G01X1547114Y-947284D01*
G01X1547114Y-357242D01*
G01X1557956Y-368618D01*
G01X1571171Y-377123D01*
G01X1586016Y-382279D01*
G01X1601658Y-383798D01*
G01X1617218Y-381593D01*
G01X1631822Y-375789D01*
G01X1644650Y-366711D01*
G01X1657071Y-375566D01*
G01X1671187Y-381349D01*
G01X1686250Y-383753D01*
G01X1701465Y-382651D01*
G01X1716025Y-378102D01*
G01X1729160Y-370346D01*
G01X1740176Y-359794D01*
G01X1748489Y-347004D01*
G01X1753660Y-332653D01*
G01X1755414Y-317500D01*
G01X1753660Y-302347D01*
G01X1748489Y-287996D01*
G01X1740176Y-275206D01*
G01X1729160Y-264654D01*
G01X1716025Y-256898D01*
G01X1701465Y-252349D01*
G01X1686250Y-251247D01*
G01X1671187Y-253651D01*
G01X1657071Y-259434D01*
G01X1644650Y-268289D01*
G01X1631803Y-259201D01*
G01X1617177Y-253396D01*
G01X1601594Y-251201D01*
G01X1585933Y-252739D01*
G01X1571075Y-257924D01*
G01X1557858Y-266464D01*
G01X1547025Y-277878D01*
G01X1545004Y-263975D01*
G01X1545004Y-121422D01*
G01X1978417Y-121422D01*
G01X1980624Y-136482D01*
G01X1986207Y-150642D01*
G01X1994871Y-163156D01*
G01X2006160Y-173365D01*
G01X2006160Y-173365D01*
G01X2019480Y-180731D01*
G01X2034129Y-184866D01*
G01X2049334Y-185552D01*
G01X2064295Y-182753D01*
G01X2078224Y-176616D01*
G01X2090387Y-167465D01*
G01X2100143Y-155782D01*
G01X2106978Y-142182D01*
G01X2110532Y-127382D01*
G01X2110618Y-112162D01*
G01X2107231Y-97323D01*
G01X2100550Y-83646D01*
G01X2090927Y-71854D01*
G01X2105204Y-77130D01*
G01X2120308Y-79011D01*
G01X2135443Y-77400D01*
G01X2149812Y-72379D01*
G01X2162658Y-64215D01*
G01X2173304Y-53337D01*
G01X2181189Y-40318D01*
G01X2185898Y-25844D01*
G01X2187183Y-10677D01*
G01X2184976Y4382D01*
G01X2179393Y18542D01*
G01X2170729Y31056D01*
G01X2159440Y41265D01*
G01X2146120Y48631D01*
G01X2131471Y52766D01*
G01X2116266Y53452D01*
G01X2101305Y50653D01*
G01X2087376Y44516D01*
G01X2075213Y35365D01*
G01X2065457Y23682D01*
G01X2058622Y10082D01*
G01X2055068Y-4718D01*
G01X2054982Y-19938D01*
G01X2058369Y-34777D01*
G01X2065050Y-48453D01*
G01X2074673Y-60246D01*
G01X2060396Y-54970D01*
G01X2045292Y-53088D01*
G01X2030157Y-54700D01*
G01X2015788Y-59720D01*
G01X2002942Y-67885D01*
G01X1992296Y-78763D01*
G01X1984411Y-91782D01*
G01X1979702Y-106256D01*
G01X1978417Y-121422D01*
G01X1545004Y-121422D01*
G01X1545004Y127000D01*
G01X1546686Y161036D01*
G01X1551716Y194740D01*
G01X1560045Y227784D01*
G01X1571591Y259846D01*
G01X1586243Y290613D01*
G01X1603856Y319786D01*
G01X2082800Y319786D01*
G01X2097220Y321206D01*
G01X2111086Y325412D01*
G01X2123864Y332243D01*
G01X2135065Y341435D01*
G01X2313686Y520056D01*
G01X2313686Y-820900D01*
G01X2315336Y-835545D01*
G01X2320204Y-849456D01*
G01X2328045Y-861934D01*
G01X2338466Y-872355D01*
G01X2350944Y-880196D01*
G01X2364855Y-885064D01*
G01X2379500Y-886714D01*
G01X2903844Y-886714D01*
G01X2903863Y-1121682D01*
G01X2903854Y-1381295D01*
G01X2893259Y-1360559D01*
G01X2879277Y-1341937D01*
G01X2862319Y-1325977D01*
G01X2842884Y-1313149D01*
G01X2821544Y-1303830D01*
G01X2798925Y-1298293D01*
G01X2775693Y-1296701D01*
G01X2752530Y-1299101D01*
G01X2730118Y-1305423D01*
G01X2709116Y-1315481D01*
G01X2690140Y-1328978D01*
G01X2673749Y-1345519D01*
G01X2660424Y-1364617D01*
G01X2650558Y-1385710D01*
G01X2644440Y-1408179D01*
G01X2642251Y-1431362D01*
G01X2631967Y-1421211D01*
G01X2619728Y-1413528D01*
G01X2606115Y-1408679D01*
G01X2591776Y-1406893D01*
G01X2586678Y-1392873D01*
G01X2578574Y-1380347D01*
G01X2567876Y-1369949D01*
G01X2555125Y-1362206D01*
G01X2540965Y-1357509D01*
G01X2526113Y-1356097D01*
G01X2511322Y-1358040D01*
G01X2497339Y-1363240D01*
G01X2484873Y-1371434D01*
G01X2482717Y-1373020D01*
G01X2481144Y-1373886D01*
G01X2445795Y-1373886D01*
G01X2434605Y-1362695D01*
G01X2424557Y-1354986D01*
G01X2412856Y-1350139D01*
G01X2400300Y-1348486D01*
G01X2155412Y-1348461D01*
G01X2152673Y-1347862D01*
G01X2148695Y-1346735D01*
G01X2144707Y-1345331D01*
G01X2129531Y-1341474D01*
G01X2113873Y-1341284D01*
G01X2098607Y-1344770D01*
G01X2084584Y-1351739D01*
G01X2072586Y-1361801D01*
G01X2063282Y-1374396D01*
G01X2057190Y-1388822D01*
G01X2054652Y-1404274D01*
G01X2055807Y-1419890D01*
G01X2060591Y-1434801D01*
G01X2068739Y-1448173D01*
G01X2079795Y-1459262D01*
G01X2068307Y-1470908D01*
G01X2060020Y-1485011D01*
G01X2055436Y-1500713D01*
G01X2054837Y-1517060D01*
G01X2058257Y-1533057D01*
G01X2065488Y-1547729D01*
G01X2076092Y-1560185D01*
G01X2089422Y-1569667D01*
G01X2104667Y-1575597D01*
G01X2120900Y-1577614D01*
G01X2137133Y-1575597D01*
G01X2152378Y-1569667D01*
G01X2165708Y-1560185D01*
G01X2176312Y-1547729D01*
G01X2183543Y-1533057D01*
G01X2186963Y-1517060D01*
G01X2186364Y-1500713D01*
G01X2181780Y-1485011D01*
G01X2173493Y-1470908D01*
G01X2162005Y-1459262D01*
G01X2169018Y-1452856D01*
G01X2175043Y-1445514D01*
G01X2380205Y-1445514D01*
G01X2391395Y-1456705D01*
G01X2401443Y-1464414D01*
G01X2413144Y-1469261D01*
G01X2425700Y-1470914D01*
G01X2481144Y-1470914D01*
G01X2482717Y-1471780D01*
G01X2484873Y-1473366D01*
G01X2497402Y-1481592D01*
G01X2511459Y-1486794D01*
G01X2526324Y-1488707D01*
G01X2531289Y-1502458D01*
G01X2539146Y-1514787D01*
G01X2549514Y-1525095D01*
G01X2561889Y-1532880D01*
G01X2575668Y-1537765D01*
G01X2590183Y-1539511D01*
G01X2604728Y-1538035D01*
G01X2618597Y-1533407D01*
G01X2631114Y-1525853D01*
G01X2641671Y-1515740D01*
G01X2649756Y-1503559D01*
G01X2654976Y-1489903D01*
G01X2666124Y-1509409D01*
G01X2680336Y-1526810D01*
G01X2697221Y-1541630D01*
G01X2716319Y-1553463D01*
G01X2737106Y-1561986D01*
G01X2759014Y-1566966D01*
G01X2781443Y-1568266D01*
G01X2803779Y-1565851D01*
G01X2825412Y-1559786D01*
G01X2845749Y-1550238D01*
G01X2864234Y-1537468D01*
G01X2880360Y-1521826D01*
G01X2893687Y-1503739D01*
G01X2903850Y-1483702D01*
G01X2903846Y-1596588D01*
G01X2902237Y-1610870D01*
G01X2897490Y-1624435D01*
G01X2889843Y-1636604D01*
G01X2879681Y-1646767D01*
G01X2867512Y-1654414D01*
G01X2853947Y-1659162D01*
G01X2839665Y-1660772D01*
G01X1136725Y-1660915D01*
G01X1122441Y-1659307D01*
G01X1108874Y-1654561D01*
G01X1096702Y-1646914D01*
G01X1086538Y-1636751D01*
G01X1078890Y-1624580D01*
G01X1074143Y-1611013D01*
G01X1072533Y-1596730D01*
G01X1072471Y-1056765D01*
G01X1070798Y-1035519D01*
G01X1065823Y-1014797D01*
G01X1057667Y-995108D01*
G01X1046531Y-976937D01*
G01X1032690Y-960732D01*
G01X1016485Y-946892D01*
G01X998314Y-935757D01*
G01X978625Y-927602D01*
G01X957902Y-922627D01*
G01X936656Y-920955D01*
G37*
G54D10*
G01X-2673983Y-1349265D02*
G03X-2891342Y-1359837I-104731J-86469D01*
G02X-1671184Y684990I2887808J-336718D01*
G01X-1237366Y988786D01*
G01X-2300165Y-74013D01*
G03X-2321814Y-126278I52265J-52265D01*
G01X-2321814Y-266700D01*
G03X-2173986Y-266700I73914J0D01*
G01X-2173986Y-156894D01*
G01X-1204703Y812390D01*
G03X-1103459Y786880I60613J26900D01*
G03X-1102932Y891286I-40630J52410D01*
G01X-139700Y891286D01*
G03X-87435Y912935I0J73914D01*
G01X-11235Y989135D01*
G03X10414Y1041400I-52265J52265D01*
G01X10414Y1048923D01*
G01X10797Y1054583D01*
G01X11765Y1059774D01*
G01X13399Y1065506D01*
G01X15574Y1071404D01*
G01X18099Y1077128D01*
G01X20598Y1082080D01*
G01X25779Y1090922D01*
G03X14910Y1235041I-101979J64778D01*
G01X12461Y1238045D01*
G01X9677Y1241938D01*
G01X6590Y1246847D01*
G01X3605Y1252339D01*
G01X1047Y1258000D01*
G01X-827Y1263369D01*
G01X-1870Y1267937D01*
G01X-2286Y1272914D01*
G01X-2286Y1292486D01*
G01X-1870Y1297463D01*
G01X-827Y1302031D01*
G01X1047Y1307400D01*
G01X3605Y1313061D01*
G01X6590Y1318553D01*
G01X9677Y1323462D01*
G01X12461Y1327355D01*
G01X14910Y1330359D01*
G03X-76200Y1530514I-91110J79341D01*
G03X-167310Y1330359I0J-120814D01*
G01X-164861Y1327355D01*
G01X-162077Y1323462D01*
G01X-158990Y1318553D01*
G01X-156005Y1313061D01*
G01X-153447Y1307400D01*
G01X-151573Y1302031D01*
G01X-150530Y1297463D01*
G01X-150114Y1292486D01*
G01X-150114Y1272914D01*
G01X-150530Y1267937D01*
G01X-151573Y1263369D01*
G01X-153447Y1258000D01*
G01X-156005Y1252339D01*
G01X-158990Y1246847D01*
G01X-162077Y1241938D01*
G01X-164861Y1238045D01*
G01X-167310Y1235041D01*
G03X-154420Y1063626I91110J-79341D01*
G01X-151921Y1061362D01*
G01X-150018Y1059412D01*
G01X-170316Y1039114D01*
G01X-298519Y1039114D01*
G03X-330200Y1276514I-31681J116586D01*
G03X-361881Y1039114I0J-120814D01*
G01X-1156422Y1039114D01*
G03X-1166480Y1038426I0J-73914D01*
G01X-1043375Y1124635D01*
G01X-1041722Y1125793D01*
G01X-963628Y1180484D01*
G01X-961549Y1181941D01*
G01X-453564Y1537696D01*
G01X-416725Y1563495D01*
G01X-407385Y1570020D01*
G01X-400604Y1574620D01*
G01X-394100Y1578887D01*
G01X-387815Y1582879D01*
G01X-381732Y1586622D01*
G01X-375756Y1590186D01*
G01X-369913Y1593567D01*
G01X-364092Y1596833D01*
G01X-358323Y1599975D01*
G01X-352497Y1603050D01*
G01X-346576Y1606079D01*
G01X-340546Y1609065D01*
G01X-334331Y1612041D01*
G01X-327864Y1615030D01*
G01X-321120Y1618032D01*
G01X-314053Y1621054D01*
G01X-306583Y1624114D01*
G01X-298956Y1627097D01*
G01X-291289Y1629957D01*
G01X-283587Y1632691D01*
G01X-275840Y1635302D01*
G01X-268058Y1637789D01*
G01X-260253Y1640146D01*
G01X-252422Y1642376D01*
G01X-244551Y1644483D01*
G01X-236643Y1646467D01*
G01X-228721Y1648320D01*
G01X-220759Y1650051D01*
G01X-212780Y1651653D01*
G01X-204789Y1653126D01*
G01X-196755Y1654476D01*
G01X-188719Y1655695D01*
G01X-180668Y1656787D01*
G01X-172567Y1657755D01*
G01X-164480Y1658592D01*
G01X-156368Y1659301D01*
G01X-148302Y1659877D01*
G01X-140029Y1660335D01*
G01X-131947Y1660657D01*
G01X-123945Y1660847D01*
G01X2389866Y1660582D01*
G02X2903593Y1146874I184J-513543D01*
G01X2903593Y1144027D01*
G01X2903599Y1128014D01*
G01X2379500Y1128014D01*
G03X2345897Y1118789I0J-65814D01*
G03X2329864Y1152480I-72597J-13889D01*
G03X2325061Y1228547I-56564J34614D01*
G03X2273300Y1336314I-51761J41453D01*
G03X2221539Y1228547I0J-66314D01*
G03X2216736Y1152480I51761J-41453D01*
G03X2199386Y1104900I56564J-47580D01*
G01X2199386Y614816D01*
G01X2052184Y467614D01*
G01X1233698Y467614D01*
G03X1200213Y571500I-52598J40386D01*
G03X1181100Y701314I-19113J63500D01*
G03X1161987Y571500I0J-66314D01*
G03X1128502Y467614I19113J-63500D01*
G01X-647700Y467614D01*
G03X-699965Y445965I0J-73914D01*
G01X-915865Y230065D01*
G03X-811335Y125535I52265J-52265D01*
G01X-617084Y319786D01*
G01X-124702Y319786D01*
G01X-124566Y49253D01*
G01X-124655Y47531D01*
G03X-205026Y27650I-27745J-60231D01*
G03X-203366Y-55127I52626J-40350D01*
G01X-201780Y-57283D01*
G01X-200914Y-58856D01*
G01X-200914Y-602205D01*
G01X-258895Y-660186D01*
G01X-327056Y-660186D01*
G01X-252535Y-585665D01*
G03X-264271Y-471588I-52265J52265D01*
G03X-256610Y-373545I-40529J52488D01*
G03X-252535Y-265235I-48190J56045D01*
G01X-408601Y-109169D01*
G01X-408601Y139700D01*
G03X-556429Y139700I-73914J0D01*
G01X-556429Y-139785D01*
G03X-534780Y-192050I73914J0D01*
G01X-357065Y-369765D01*
G03X-352990Y-373545I52265J52265D01*
G03X-345329Y-471588I48190J-45555D01*
G03X-357065Y-481135I40529J-61812D01*
G01X-449716Y-573786D01*
G01X-1105797Y-573786D01*
G03X-1110340Y-487703I-52598J40386D01*
G03X-1196086Y-478839I-48055J-45697D01*
G01X-1196086Y177800D01*
G03X-1217735Y230065I-73914J0D01*
G01X-1281036Y293366D01*
G03X-1324082Y388062I-58975J30323D01*
G03X-1369144Y510018I-34818J56438D01*
G03X-1374829Y380127I10244J-65518D01*
G03X-1398677Y292773I34818J-56438D01*
G03X-1392276Y195546I58666J-44962D01*
G01X-1343914Y147184D01*
G01X-1343914Y-533400D01*
G03X-1331905Y-573786I73914J0D01*
G01X-2077584Y-573786D01*
G01X-2121512Y-529858D01*
G03X-2132135Y-516430I-62888J-38838D01*
G01X-2195635Y-452930D01*
G03X-2300165Y-557461I-52265J-52265D01*
G01X-2247288Y-610338D01*
G03X-2236665Y-623765I62888J38838D01*
G01X-2160465Y-699965D01*
G03X-2108200Y-721614I52265J52265D01*
G01X-1996723Y-721614D01*
G01X-2001941Y-726832D01*
G03X-2016150Y-761136I34305J-34305D01*
G01X-2016150Y-943581D01*
G01X-2017016Y-945153D01*
G01X-2018602Y-947309D01*
G03X-1967636Y-1056050I50966J-42427D01*
G03X-1916671Y-947309I0J66314D01*
G01X-1918257Y-945153D01*
G01X-1919122Y-943581D01*
G01X-1919122Y-781232D01*
G01X-1895105Y-757214D01*
G01X-1671586Y-757214D01*
G03X-1684012Y-804403I83388J-47189D01*
G01X-1684012Y-864403D01*
G03X-1665543Y-920955I95814J0D01*
G01X-1714795Y-920955D01*
G03X-1850609Y-1056769I0J-135814D01*
G01X-1850609Y-1496556D01*
G02X-1914796Y-1560742I-64186J0D01*
G01X-2399648Y-1560713D01*
G03X-2389886Y-1524000I-64152J36713D01*
G01X-2389886Y-431800D01*
G03X-2405235Y-386707I-73914J0D01*
G03X-2409523Y-317500I-58565J31107D01*
G03X-2463800Y-213086I-54277J38100D01*
G03X-2518077Y-317500I0J-66314D01*
G03X-2522365Y-386707I54277J-38100D01*
G03X-2537714Y-431800I58565J-45093D01*
G01X-2537714Y-1524000D01*
G03X-2527956Y-1560705I73914J0D01*
G01X-2725510Y-1560693D01*
G03X-2673983Y-1349265I-53205J124959D01*
G01X-1497385Y-369388D02*
G03X-1679012Y-369388I-90814J0D01*
G01X-1679012Y-459388D01*
G03X-1506999Y-500055I90814J0D01*
G03X-1374367Y-474759I62311J33648D01*
G03X-1497385Y-419101I-70321J8352D01*
G01X-1497385Y-369388D01*
G01X-937006Y-474764D02*
G03X-804389Y-500080I70320J8357D01*
G03X-632388Y-459388I81187J40692D01*
G01X-632388Y-369388D01*
G03X-814015Y-369388I-90814J0D01*
G01X-814015Y-419073D01*
G03X-937006Y-474764I-52671J-47335D01*
G01X-209386Y1409700D02*
G03X-451014Y1409700I-120814J0D01*
G03X-209386Y1409700I120814J0D01*
G01X92800Y1530514D02*
G03X56986Y1494700I0J-35814D01*
G01X56986Y1324700D01*
G03X92800Y1288886I35814J0D01*
G01X262800Y1288886D01*
G03X298614Y1324700I0J35814D01*
G01X298614Y1494700D01*
G03X262800Y1530514I-35814J0D01*
G01X92800Y1530514D01*
G01X298614Y1155700D02*
G03X56986Y1155700I-120814J0D01*
G03X298614Y1155700I120814J0D01*
G01X685886Y1397000D02*
G03X901700Y1338580I115814J0D01*
G03X1117514Y1397000I100000J58420D01*
G03X901700Y1455420I-115814J0D01*
G03X685886Y1397000I-100000J-58420D01*
G01X1444986Y812800D02*
G03X1577614Y812800I66314J0D01*
G03X1444986Y812800I-66314J0D01*
G01X1647596Y1531099D02*
G03X1789227Y1531099I70815J0D01*
G03X1647596Y1531099I-70815J0D01*
G01X1817599Y1531099D02*
G03X1959229Y1531099I70815J0D01*
G03X1817599Y1531099I-70815J0D01*
G01X1838686Y812800D02*
G03X1971314Y812800I66314J0D01*
G03X1838686Y812800I-66314J0D01*
G01X2441315Y1372239D02*
G03X2712943Y1372239I135814J0D01*
G03X2441315Y1372239I-135814J0D01*
G01X-800546Y-920955D02*
G01X-1510854Y-920955D01*
G03X-1492385Y-864403I-77344J56552D01*
G01X-1492385Y-804403D01*
G03X-1504811Y-757214I-95814J0D01*
G01X-1330695Y-757214D01*
G01X-1324241Y-763668D01*
G01X-1323742Y-765391D01*
G01X-1323339Y-768037D01*
G03X-1233135Y-823754I66039J6037D01*
G03X-1204702Y-721614I-24165J61754D01*
G01X-973265Y-721614D01*
G03X-993120Y-836497I21225J-62826D01*
G03X-886001Y-790477I41080J52057D01*
G01X-885598Y-787831D01*
G01X-885098Y-786107D01*
G01X-856205Y-757214D01*
G01X-806589Y-757214D01*
G03X-819015Y-804403I83388J-47189D01*
G01X-819015Y-864403D01*
G03X-800546Y-920955I95814J0D01*
G01X936656Y-920955D02*
G01X-645857Y-920955D01*
G03X-629294Y-883419I-77344J56552D01*
G03X-505212Y-852752I57794J32519D01*
G03X-627388Y-815205I-66288J1852D01*
G01X-627388Y-804403D01*
G03X-639814Y-757214I-95814J0D01*
G01X-238800Y-757214D01*
G03X-204495Y-743004I0J48514D01*
G01X-118095Y-656605D01*
G03X-103886Y-622300I-34305J34305D01*
G01X-103886Y-330831D01*
G03X-52524Y-353294I53086J51431D01*
G03X-61214Y-381000I39824J-27706D01*
G01X-61214Y-715844D01*
G01X-62080Y-717417D01*
G01X-63666Y-719573D01*
G03X-12700Y-828314I50966J-42427D01*
G03X38266Y-719573I0J66314D01*
G01X36680Y-717417D01*
G01X35814Y-715844D01*
G01X35814Y-401095D01*
G01X72405Y-364505D01*
G03X86614Y-330200I-34305J34305D01*
G01X86614Y-117256D01*
G01X87480Y-115683D01*
G01X89066Y-113527D01*
G03X94556Y-36311I-50966J42427D01*
G03X23114Y-6502I-56456J-34789D01*
G01X23114Y40015D01*
G03X23264Y44765I-73764J4712D01*
G01X23129Y312299D01*
G01X30616Y319786D01*
G01X1338324Y319786D01*
G02X1390207Y196012I-286334J-192786D01*
G01X1305354Y280865D01*
G03X1253089Y302514I-52265J-52265D01*
G01X622300Y302514D01*
G03X622300Y154686I0J-73914D01*
G01X1222472Y154686D01*
G01X1272286Y104872D01*
G01X1272286Y-163027D01*
G03X1196086Y-228600I-9886J-65573D01*
G03X1272286Y-294173I66314J0D01*
G01X1272286Y-930023D01*
G03X1177690Y-990004I-28282J-59981D01*
G03X1272286Y-1049984I66314J0D01*
G01X1272286Y-1371600D01*
G03X1278607Y-1401508I73914J0D01*
G03X1251287Y-1436300I8493J-34792D01*
G01X1251287Y-1586300D01*
G03X1287101Y-1622114I35814J0D01*
G01X1437100Y-1622114D01*
G03X1472914Y-1586300I0J35814D01*
G01X1472914Y-1577069D01*
G03X1662100Y-1559047I89186J65769D01*
G03X1872913Y-1511300I100000J47747D01*
G03X1662100Y-1463553I-110814J0D01*
G03X1472914Y-1445531I-100000J-47747D01*
G01X1472914Y-1436300D01*
G03X1437100Y-1400486I-35814J0D01*
G01X1414236Y-1400486D01*
G03X1420114Y-1371600I-68036J28886D01*
G01X1420114Y-1029331D01*
G01X1420935Y-1030165D01*
G01X1640543Y-1249773D01*
G03X1692808Y-1271422I52265J52265D01*
G01X2173986Y-1271422D01*
G01X2173986Y-1320072D01*
G03X2184400Y-1330486I10414J0D01*
G01X2527300Y-1330486D01*
G03X2537714Y-1320072I0J10414D01*
G01X2537714Y-1003300D01*
G03X2527300Y-992886I-10414J0D01*
G01X2184400Y-992886D01*
G03X2173986Y-1003300I0J-10414D01*
G01X2173986Y-1123594D01*
G01X1888434Y-1123594D01*
G03X1920473Y-1069136I-34234J56794D01*
G01X2002797Y-986812D01*
G03X2017006Y-952508I-34305J34305D01*
G01X2017006Y-426210D01*
G03X1968492Y-314686I-48514J45210D01*
G03X1919978Y-426210I0J-66314D01*
G01X1919978Y-932412D01*
G01X1851864Y-1000527D01*
G03X1790007Y-1050162I2336J-66273D01*
G03X1819966Y-1123594I64193J-16638D01*
G01X1723425Y-1123594D01*
G01X1640255Y-1040425D01*
G03X1665052Y-931009I-22095J62525D01*
G03X1555636Y-955805I-46891J-46891D01*
G01X1547114Y-947284D01*
G01X1547114Y-357242D01*
G03X1644650Y-366711I53086J39742D01*
G03X1755414Y-317500I44450J49211D01*
G03X1644650Y-268289I-66314J0D01*
G03X1547025Y-277878I-44450J-49211D01*
G03X1545004Y-263975I-73825J-3632D01*
G01X1545004Y127000D01*
G02X1603856Y319786I345186J0D01*
G01X2082800Y319786D01*
G03X2135065Y341435I0J73914D01*
G01X2313686Y520056D01*
G01X2313686Y-820900D01*
G03X2379500Y-886714I65814J0D01*
G01X2903844Y-886714D01*
G01X2903863Y-1121682D01*
G01X2903854Y-1381295D01*
G03X2642251Y-1431362I-125794J-51199D01*
G03X2591776Y-1406893I-51451J-41838D01*
G03X2484873Y-1371434I-64476J-15507D01*
G01X2482717Y-1373020D01*
G01X2481144Y-1373886D01*
G01X2445795Y-1373886D01*
G01X2434605Y-1362695D01*
G03X2400300Y-1348486I-34305J-34305D01*
G01X2155412Y-1348461D01*
G01X2152673Y-1347862D01*
G01X2148695Y-1346735D01*
G01X2144707Y-1345331D01*
G03X2063282Y-1374396I-23807J-61893D01*
G03X2079795Y-1459262I57618J-32828D01*
G03X2120900Y-1577614I41105J-52038D01*
G03X2162005Y-1459262I0J66314D01*
G03X2175043Y-1445514I-41105J52038D01*
G01X2380205Y-1445514D01*
G01X2391395Y-1456705D01*
G03X2425700Y-1470914I34305J34305D01*
G01X2481144Y-1470914D01*
G01X2482717Y-1471780D01*
G01X2484873Y-1473366D01*
G03X2526324Y-1488707I42427J50966D01*
G03X2590183Y-1539511I64476J15507D01*
G03X2654976Y-1489903I617J66311D01*
G03X2903850Y-1483702I123084J57409D01*
G01X2903846Y-1596588D01*
G02X2839665Y-1660772I-64186J2D01*
G01X1136725Y-1660915D01*
G02X1072533Y-1596730I-5J64186D01*
G01X1072471Y-1056765D01*
G03X936656Y-920955I-135814J-4D01*
G01X60686Y-698500D02*
G03X193314Y-698500I66314J0D01*
G03X60686Y-698500I-66314J0D01*
G01X60686Y-482600D02*
G03X193314Y-482600I66314J0D01*
G03X60686Y-482600I-66314J0D01*
G01X276586Y-762000D02*
G03X409214Y-762000I66314J0D01*
G03X276586Y-762000I-66314J0D01*
G01X622300Y-193314D02*
G03X655937Y-69850I0J66314D01*
G03X622300Y53614I-33637J57150D01*
G03X588663Y-69850I0J-66314D01*
G03X622300Y-193314I33637J-57150D01*
G01X809986Y-571500D02*
G03X942614Y-571500I66314J0D01*
G03X809986Y-571500I-66314J0D01*
G01X979966Y-229617D02*
G03X1112594Y-229617I66314J0D01*
G03X979966Y-229617I-66314J0D01*
G01X2006160Y-173365D02*
G03X2090927Y-71854I38540J53965D01*
G03X2159440Y41265I29973J59154D01*
G03X2074673Y-60246I-38540J-53965D01*
G03X2006160Y-173365I-29973J-59154D01*
G54D11*
G01X-1588198Y-414388D02*
G01X-1668852Y-414388D01*
G01X-1588198Y-414388D02*
G01X-1507545Y-414388D01*
G01X-1588198Y-414388D02*
G01X-1588198Y-288734D01*
G01X-1588198Y-414388D02*
G01X-1588198Y-540042D01*
G01X-1588198Y-834403D02*
G01X-1673852Y-834403D01*
G01X-1588198Y-834403D02*
G01X-1502545Y-834403D01*
G01X-723201Y-834403D02*
G01X-808855Y-834403D01*
G01X-723201Y-414388D02*
G01X-803855Y-414388D01*
G01X-723201Y-414388D02*
G01X-642548Y-414388D01*
G01X-723201Y-414388D02*
G01X-723201Y-288734D01*
G01X-723201Y-414388D02*
G01X-723201Y-540042D01*
G01X-330200Y1409700D02*
G01X-219546Y1409700D01*
G01X-330200Y1409700D02*
G01X-440854Y1409700D01*
G01X-330200Y1409700D02*
G01X-330200Y1299046D01*
G01X-330200Y1409700D02*
G01X-330200Y1520354D01*
G01X-330200Y1155700D02*
G01X-219546Y1155700D01*
G01X-330200Y1155700D02*
G01X-440854Y1155700D01*
G01X-330200Y1155700D02*
G01X-330200Y1266354D01*
G01X801700Y1397000D02*
G01X696046Y1397000D01*
G01X801700Y1397000D02*
G01X801700Y1502654D01*
G01X801700Y1397000D02*
G01X801700Y1291346D01*
G04 Copper End*

G04 TearDrop Start*
G36*
G01X-38100Y1293978D02*
G01X-114300Y1293978D01*
G01X-115051Y1302969D01*
G01X-117102Y1311949D01*
G01X-120156Y1320700D01*
G01X-123911Y1329008D01*
G01X-128067Y1336656D01*
G01X-132326Y1343428D01*
G01X-136387Y1349107D01*
G01X-139950Y1353478D01*
G01X-12450Y1353478D01*
G01X-16013Y1349107D01*
G01X-20074Y1343428D01*
G01X-24333Y1336656D01*
G01X-28489Y1329008D01*
G01X-32244Y1320700D01*
G01X-35298Y1311949D01*
G01X-37349Y1302969D01*
G01X-38100Y1293978D01*
G37*
G36*
G01X-114300Y1271422D02*
G01X-38100Y1271422D01*
G01X-37349Y1262431D01*
G01X-35298Y1253451D01*
G01X-32244Y1244700D01*
G01X-28489Y1236392D01*
G01X-24333Y1228744D01*
G01X-20074Y1221972D01*
G01X-16013Y1216293D01*
G01X-12450Y1211922D01*
G01X-139950Y1211922D01*
G01X-136387Y1216293D01*
G01X-132326Y1221972D01*
G01X-128067Y1228744D01*
G01X-123911Y1236392D01*
G01X-120156Y1244700D01*
G01X-117102Y1253451D01*
G01X-115051Y1262431D01*
G01X-114300Y1271422D01*
G37*
G36*
G01X-25400Y1050134D02*
G01X-101600Y1041400D01*
G01X-101832Y1045114D01*
G01X-102497Y1048860D01*
G01X-104935Y1056350D01*
G01X-108538Y1063668D01*
G01X-112930Y1070611D01*
G01X-117732Y1076977D01*
G01X-122568Y1082563D01*
G01X-127061Y1087166D01*
G01X-130834Y1090584D01*
G01X-4766Y1109634D01*
G01X-10869Y1099218D01*
G01X-14294Y1092432D01*
G01X-17643Y1084840D01*
G01X-20671Y1076628D01*
G01X-23136Y1067983D01*
G01X-24793Y1059090D01*
G01X-25400Y1050134D01*
G37*
G36*
G01X50800Y-112624D02*
G01X25400Y-112624D01*
G01X24525Y-108030D01*
G01X22220Y-102273D01*
G01X18961Y-96354D01*
G01X15225Y-91274D01*
G01X60975Y-91274D01*
G01X57239Y-96354D01*
G01X53980Y-102273D01*
G01X51675Y-108030D01*
G01X50800Y-112624D01*
G37*
G36*
G01X2153588Y-1384300D02*
G01X2168925Y-1409700D01*
G01X2166063Y-1409977D01*
G01X2163005Y-1410758D01*
G01X2156807Y-1413548D01*
G01X2151330Y-1417492D01*
G01X2149175Y-1419716D01*
G01X2147575Y-1422013D01*
G01X2132238Y-1378910D01*
G01X2137859Y-1380889D01*
G01X2143957Y-1382616D01*
G01X2149534Y-1383837D01*
G01X2153588Y-1384300D01*
G37*
G36*
G01X2485776Y-1435100D02*
G01X2485776Y-1409700D01*
G01X2490371Y-1408825D01*
G01X2496128Y-1406520D01*
G01X2502047Y-1403261D01*
G01X2507126Y-1399525D01*
G01X2507126Y-1445275D01*
G01X2502047Y-1441539D01*
G01X2496128Y-1438280D01*
G01X2490371Y-1435975D01*
G01X2485776Y-1435100D01*
G37*
G36*
G01X-139700Y-54224D02*
G01X-165100Y-54224D01*
G01X-165975Y-49629D01*
G01X-168280Y-43872D01*
G01X-171539Y-37953D01*
G01X-175275Y-32874D01*
G01X-129525Y-32874D01*
G01X-133261Y-37953D01*
G01X-136520Y-43872D01*
G01X-138825Y-49629D01*
G01X-139700Y-54224D01*
G37*
G36*
G01X-931658Y-746098D02*
G01X-913698Y-764058D01*
G01X-916328Y-767925D01*
G01X-918769Y-773626D01*
G01X-920649Y-780116D01*
G01X-921600Y-786350D01*
G01X-953950Y-754000D01*
G01X-947716Y-753049D01*
G01X-941226Y-751169D01*
G01X-935525Y-748728D01*
G01X-931658Y-746098D01*
G37*
G36*
G01X-1980336Y-948212D02*
G01X-1954936Y-948212D01*
G01X-1954062Y-952807D01*
G01X-1951757Y-958564D01*
G01X-1948497Y-964483D01*
G01X-1944761Y-969562D01*
G01X-1990511Y-969562D01*
G01X-1986775Y-964483D01*
G01X-1983516Y-958564D01*
G01X-1981211Y-952807D01*
G01X-1980336Y-948212D01*
G37*
G36*
G01X-1295642Y-741618D02*
G01X-1277682Y-723658D01*
G01X-1273815Y-726288D01*
G01X-1268114Y-728729D01*
G01X-1261624Y-730610D01*
G01X-1255390Y-731560D01*
G01X-1287740Y-763910D01*
G01X-1288690Y-757676D01*
G01X-1290571Y-751186D01*
G01X-1293012Y-745485D01*
G01X-1295642Y-741618D01*
G37*
G36*
G01X-25400Y-720476D02*
G01X0Y-720476D01*
G01X875Y-725071D01*
G01X3180Y-730828D01*
G01X6439Y-736747D01*
G01X10175Y-741826D01*
G01X-35575Y-741826D01*
G01X-31839Y-736747D01*
G01X-28580Y-730828D01*
G01X-26275Y-725071D01*
G01X-25400Y-720476D01*
G37*
G36*
G01X1432990Y127000D02*
G03X1356790Y355600I-381000J0D01*
G01X1471090Y393700D01*
G01X1585390Y355600D01*
G03X1509190Y127000I304800J-228600D01*
G01X1432990Y127000D01*
G37*
G04 TearDrop End*

G04 Pad Start*
G54D12*
G01X177800Y1409700D03*
G54D13*
G01X177800Y1155700D03*
G01X-76200Y1409700D03*
G01X-76200Y1155700D03*
G01X-330200Y1409700D03*
G01X-330200Y1155700D03*
G54D14*
G01X1762100Y-1511300D03*
G01X1562100Y-1511300D03*
G54D16*
G01X1362100Y-1511300D03*
G54D17*
G01X1001700Y1397000D03*
G01X801700Y1397000D03*
G54D18*
G01X-1588198Y-414388D03*
G01X-723201Y-414388D03*
G54D19*
G01X-1588198Y-834403D03*
G01X-723201Y-834403D03*
G04 Pad End*

G04 Via Start*
G54D20*
G01X-1144089Y839289D03*
G01X-1358900Y444500D03*
G01X1511300Y812800D03*
G01X1905000Y812800D03*
G01X127000Y-698500D03*
G01X127000Y-482600D03*
G01X1181100Y635000D03*
G01X1181100Y508000D03*
G01X342900Y-762000D03*
G01X-1158395Y-533400D03*
G01X-1270000Y-533400D03*
G01X-1340011Y247811D03*
G01X-1340011Y323689D03*
G01X-482515Y139700D03*
G01X-304800Y-317500D03*
G01X-2184400Y-571500D03*
G01X101600Y393700D03*
G01X2273300Y1270000D03*
G01X2273300Y1104900D03*
G01X2273300Y1187093D03*
G01X1471090Y-279400D03*
G01X-50800Y-279400D03*
G01X-304800Y-419100D03*
G01X-304800Y-533400D03*
G01X-2247900Y-505196D03*
G01X622300Y-12700D03*
G01X2120900Y-12700D03*
G01X38100Y-71100D03*
G01X622300Y-127000D03*
G01X2044700Y-119400D03*
G01X1854200Y-535102D03*
G01X863600Y812800D03*
G01X1308100Y292100D03*
G01X2145106Y1026998D03*
G01X-152400Y101600D03*
G01X-2336800Y-965200D03*
G01X-813664Y-215900D03*
G01X2120900Y-1511300D03*
G01X2590800Y-1473200D03*
G01X2120900Y-1407225D03*
G01X2527300Y-1422400D03*
G01X-152400Y-12700D03*
G01X-952040Y-784440D03*
G01X-1967636Y-989736D03*
G01X-1257300Y-762000D03*
G01X-12700Y-762000D03*
G01X-571500Y-850900D03*
G01X-863600Y177800D03*
G01X-2463800Y-279400D03*
G01X-2463800Y-431800D03*
G01X-2463800Y-355600D03*
G01X-2463800Y-1524000D03*
G01X-2463800Y-1447800D03*
G01X-2679700Y-768198D03*
G01X-2679700Y-1200302D03*
G01X2324100Y-1197508D03*
G01X2324100Y-1088492D03*
G01X2184400Y-965200D03*
G01X1968492Y-381000D03*
G01X1244004Y-990004D03*
G01X876300Y-571500D03*
G01X1473200Y-977900D03*
G01X-2247900Y-266700D03*
G01X1206500Y-1346200D03*
G01X1181452Y-577359D03*
G01X1618161Y-977900D03*
G01X1854200Y-1066800D03*
G01X1346200Y-1206500D03*
G01X1346200Y-1371600D03*
G01X622300Y228600D03*
G01X190500Y698500D03*
G01X1046280Y-229617D03*
G01X1262400Y-228600D03*
G01X-1451101Y-215897D03*
G01X-1475702Y-359397D03*
G01X-835698Y-359396D03*
G01X1600200Y-317500D03*
G01X1689100Y-317500D03*
G04 Via End*

G04 Track Start*
G54D21*
G01X-1270000Y-533400D02*
G01X-1270000Y177800D01*
G01X-1340011Y247811D01*
G01X2082800Y393700D02*
G01X2273300Y584200D01*
G01X2273300Y1104900D01*
G01X1471090Y393700D02*
G01X1471090Y-279400D01*
G01X101600Y393700D02*
G01X1471090Y393700D01*
G01X2082800Y393700D01*
G01X-482515Y139700D02*
G01X-482515Y-139785D01*
G01X-304800Y-317500D01*
G01X-139700Y965200D02*
G01X-63500Y1041400D01*
G01X-63500Y1143000D01*
G01X-76200Y1155700D01*
G01X-76200Y1409700D02*
G01X-76200Y1155700D01*
G01X-2247900Y-126278D02*
G01X-1156422Y965200D01*
G01X-139700Y965200D01*
G54D11*
G01X2425700Y-1422400D02*
G01X2527300Y-1422400D01*
G01X2120900Y-1407225D02*
G01X2131125Y-1397000D01*
G01X2400300Y-1397000D01*
G01X2425700Y-1422400D01*
G54D21*
G01X-2184400Y-571500D02*
G01X-2184400Y-568696D01*
G01X-2247900Y-505196D01*
G01X-2108200Y-647700D02*
G01X-2184400Y-571500D01*
G01X-304800Y-533400D02*
G01X-419100Y-647700D01*
G01X-2108200Y-647700D01*
G54D11*
G01X-876300Y-708700D02*
G01X-952040Y-784440D01*
G01X-1967636Y-989736D02*
G01X-1967636Y-761136D01*
G01X-1915200Y-708700D01*
G01X-1310600Y-708700D02*
G01X-1257300Y-762000D01*
G01X-1915200Y-708700D02*
G01X-1310600Y-708700D01*
G01X-152400Y-622300D02*
G01X-238800Y-708700D01*
G01X-876300Y-708700D01*
G01X-152400Y-12700D02*
G01X-152400Y-622300D01*
G01X-12700Y-381000D02*
G01X-12700Y-762000D01*
G54D21*
G01X-50800Y342900D02*
G01X0Y393700D01*
G01X101600Y393700D01*
G54D11*
G01X38100Y-66000D02*
G01X38100Y-330200D01*
G01X-12700Y-381000D01*
G54D21*
G01X-50800Y44577D02*
G01X-50800Y-279400D01*
G01X-647700Y393700D02*
G01X-863600Y177800D01*
G01X0Y393700D02*
G01X-647700Y393700D01*
G01X-50800Y342900D02*
G01X-50650Y44727D01*
G01X-2463800Y-1447800D02*
G01X-2463800Y-1524000D01*
G01X-2463800Y-431800D02*
G01X-2463800Y-1447800D01*
G01X2324100Y-1197508D02*
G01X1692808Y-1197508D01*
G01X1473200Y-977900D01*
G01X1473200Y-281510D01*
G01X1471090Y-279400D01*
G01X-2247900Y-266700D02*
G01X-2247900Y-126278D01*
G54D11*
G01X1968492Y-381000D02*
G01X1968492Y-952508D01*
G01X1854200Y-1066800D01*
G54D21*
G01X1253089Y228600D02*
G01X622300Y228600D01*
G01X1346200Y-1206500D02*
G01X1346200Y135489D01*
G01X1253089Y228600D01*
G01X1346200Y-1371600D02*
G01X1346200Y-1206500D01*
G04 Track End*

M02*

