G04 Layer: BottomLayer*
G04 EasyEDA Pro v3.2.58, 2026-03-15 17:59:32*
G04 Gerber Generator version 0.3*
G04 Scale: 100 percent, Rotated: No, Reflected: No*
G04 Dimensions in millimeters*
G04 Leading zeros omitted, absolute positions, 4 integers and 5 decimals*
G04 Generated by one-click*
%FSLAX45Y45*%
%MOMM*%
%AMPolygonMacro1*4,1,7,-0.52499,0.65001,0.52499,0.65001,0.52499,-0.65001,-0.12497,-0.65001,-0.12497,0.0,-0.52497,0.0,-0.52499,0.00003,-0.52499,0.65001,0*%
%AMPolygonMacro2*4,1,7,-0.52499,0.65001,0.52499,0.65001,0.52499,0.00003,0.52497,0.0,0.12497,0.0,0.12497,-0.65001,-0.52499,-0.65001,-0.52499,0.65001,0*%
%ADD10C,0.2032*%
%ADD11C,0.254*%
%ADD12R,0.9X0.8*%
%ADD13R,0.8X0.9*%
%ADD14R,1.7X1.7*%
%ADD15C,1.7*%
%ADD16R,1.4X2.12001*%
%ADD17R,1.4X2.4*%
%ADD18R,1.25001X0.7*%
%ADD19R,0.8145X0.86401*%
%ADD20R,0.80648X0.86401*%
%ADD21R,0.86401X0.80648*%
%ADD22PolygonMacro1*%
%ADD23PolygonMacro2*%
%ADD24R,0.6X1.2*%
%ADD25R,1.2X0.6*%
%ADD26R,2.4X3.29999*%
%ADD27R,0.8X0.8*%
%ADD28R,1.1X0.55001*%
%ADD29O,0.55999X1.74501*%
%ADD30C,1.5*%
%ADD31R,1.5X1.5*%
%ADD32R,0.54X0.79009*%
%ADD33C,0.18001*%
%ADD34C,1.6*%
%ADD35R,0.8X3.19999*%
%ADD36O,1.1X2.0*%
%ADD37O,1.2X1.8*%
%ADD38C,0.5*%
%ADD39O,0.28001X0.8*%
%ADD40O,0.8X0.28001*%
%ADD41R,2.69999X2.69999*%
%ADD42C,0.61*%
%ADD43C,0.762*%
%ADD44C,0.381*%
%ADD45C,0.508*%
G75*


G04 Copper Start*
G36*
G01X-2673983Y-1349265D02*
G01X-2690014Y-1332886D01*
G01X-2708570Y-1319436D01*
G01X-2729124Y-1309297D01*
G01X-2751090Y-1302759D01*
G01X-2773843Y-1300008D01*
G01X-2796734Y-1301121D01*
G01X-2819112Y-1306068D01*
G01X-2840340Y-1314707D01*
G01X-2859813Y-1326792D01*
G01X-2876977Y-1341980D01*
G01X-2891342Y-1359837D01*
G01X-2878011Y-1260441D01*
G01X-2861260Y-1161563D01*
G01X-2841109Y-1063322D01*
G01X-2817582Y-965835D01*
G01X-2790706Y-869217D01*
G01X-2760514Y-773583D01*
G01X-2760514Y-808198D01*
G01X-2758569Y-819838D01*
G01X-2752947Y-830214D01*
G01X-2744257Y-838200D01*
G01X-2752947Y-846186D01*
G01X-2758569Y-856562D01*
G01X-2760514Y-868202D01*
G01X-2760514Y-948202D01*
G01X-2758761Y-959269D01*
G01X-2753674Y-969253D01*
G01X-2745751Y-977176D01*
G01X-2735767Y-982263D01*
G01X-2724700Y-984016D01*
G01X-2634700Y-984016D01*
G01X-2627244Y-983232D01*
G01X-2618560Y-987748D01*
G01X-2618612Y-988301D01*
G01X-2626433Y-985451D01*
G01X-2634700Y-984484D01*
G01X-2724700Y-984484D01*
G01X-2735767Y-986237D01*
G01X-2745751Y-991324D01*
G01X-2753674Y-999247D01*
G01X-2758761Y-1009231D01*
G01X-2760514Y-1020298D01*
G01X-2760514Y-1100298D01*
G01X-2758569Y-1111938D01*
G01X-2752947Y-1122314D01*
G01X-2744257Y-1130300D01*
G01X-2752947Y-1138286D01*
G01X-2758569Y-1148662D01*
G01X-2760514Y-1160302D01*
G01X-2760514Y-1240302D01*
G01X-2758761Y-1251369D01*
G01X-2753674Y-1261353D01*
G01X-2745751Y-1269276D01*
G01X-2735767Y-1274363D01*
G01X-2724700Y-1276116D01*
G01X-2639314Y-1276116D01*
G01X-2639314Y-1397000D01*
G01X-2637661Y-1409556D01*
G01X-2632814Y-1421257D01*
G01X-2625105Y-1431305D01*
G01X-2571226Y-1485184D01*
G01X-2558171Y-1499750D01*
G01X-2546784Y-1515653D01*
G01X-2537200Y-1532705D01*
G01X-2533988Y-1547170D01*
G01X-2527956Y-1560705D01*
G01X-2725510Y-1560693D01*
G01X-2705256Y-1549968D01*
G01X-2687094Y-1535990D01*
G01X-2671541Y-1519156D01*
G01X-2659039Y-1499948D01*
G01X-2649946Y-1478910D01*
G01X-2644519Y-1456644D01*
G01X-2642914Y-1433782D01*
G01X-2645176Y-1410975D01*
G01X-2651241Y-1388874D01*
G01X-2660935Y-1368107D01*
G01X-2673983Y-1349265D01*
G37*
G36*
G01X-2724700Y-692384D02*
G01X-2732286Y-693196D01*
G01X-2694692Y-596336D01*
G01X-2653662Y-500881D01*
G01X-2609247Y-406953D01*
G01X-2561505Y-314672D01*
G01X-2510495Y-224155D01*
G01X-2456284Y-135519D01*
G01X-2398941Y-48877D01*
G01X-2338538Y35661D01*
G01X-2275153Y117987D01*
G01X-2208867Y197995D01*
G01X-2139765Y275584D01*
G01X-2067934Y350655D01*
G01X-1993467Y423110D01*
G01X-1916459Y492859D01*
G01X-1837007Y559812D01*
G01X-1755214Y623883D01*
G01X-1671184Y684990D01*
G01X-1671184Y684990D01*
G01X-1586776Y744100D01*
G01X-1586776Y674947D01*
G01X-1585023Y663879D01*
G01X-1579936Y653896D01*
G01X-1572013Y645972D01*
G01X-1562029Y640885D01*
G01X-1550962Y639133D01*
G01X-1470962Y639133D01*
G01X-1459391Y641053D01*
G01X-1449061Y646610D01*
G01X-1441080Y655206D01*
G01X-1436305Y665920D01*
G01X-1434481Y666321D01*
G01X-1428061Y664614D01*
G01X-1422485Y661004D01*
G01X-1415341Y656012D01*
G01X-1407203Y652893D01*
G01X-1398552Y651833D01*
G01X-1318552Y651833D01*
G01X-1306981Y653753D01*
G01X-1296651Y659310D01*
G01X-1288670Y667906D01*
G01X-1283894Y678620D01*
G01X-1280452Y679133D01*
G01X-1271562Y679133D01*
G01X-1269276Y678909D01*
G01X-1269276Y674947D01*
G01X-1267523Y663879D01*
G01X-1262436Y653896D01*
G01X-1254513Y645972D01*
G01X-1244529Y640885D01*
G01X-1233462Y639133D01*
G01X-1153462Y639133D01*
G01X-1141891Y641053D01*
G01X-1131561Y646610D01*
G01X-1123580Y655206D01*
G01X-1118805Y665920D01*
G01X-1115362Y666433D01*
G01X-1106452Y666433D01*
G01X-1098866Y665029D01*
G01X-1092285Y661004D01*
G01X-1085141Y656012D01*
G01X-1077003Y652893D01*
G01X-1068352Y651833D01*
G01X-988352Y651833D01*
G01X-976781Y653753D01*
G01X-966451Y659310D01*
G01X-958470Y667906D01*
G01X-953694Y678620D01*
G01X-950252Y679133D01*
G01X-947730Y679133D01*
G01X-935892Y677851D01*
G01X-924603Y674066D01*
G01X-922294Y673100D01*
G01X-931695Y667810D01*
G01X-939093Y659960D01*
G01X-943819Y650264D01*
G01X-945444Y639600D01*
G01X-945444Y616268D01*
G01X-950938Y616268D01*
G01X-954380Y616780D01*
G01X-959156Y627494D01*
G01X-967136Y636090D01*
G01X-977467Y641647D01*
G01X-989038Y643567D01*
G01X-1069038Y643567D01*
G01X-1080105Y641815D01*
G01X-1090089Y636728D01*
G01X-1098012Y628804D01*
G01X-1103099Y618821D01*
G01X-1104852Y607753D01*
G01X-1104852Y603791D01*
G01X-1107138Y603568D01*
G01X-1116048Y603568D01*
G01X-1119490Y604080D01*
G01X-1124266Y614794D01*
G01X-1132247Y623390D01*
G01X-1142577Y628947D01*
G01X-1154148Y630867D01*
G01X-1234148Y630867D01*
G01X-1245215Y629115D01*
G01X-1255199Y624028D01*
G01X-1263122Y616104D01*
G01X-1268209Y606121D01*
G01X-1269962Y595053D01*
G01X-1269962Y515054D01*
G01X-1269038Y506970D01*
G01X-1266313Y499304D01*
G01X-1261928Y492451D01*
G01X-1273957Y488039D01*
G01X-1285043Y481617D01*
G01X-1294853Y473377D01*
G01X-1297846Y470384D01*
G01X-1302283Y479026D01*
G01X-1307934Y486927D01*
G01X-1309520Y489083D01*
G01X-1310349Y490588D01*
G01X-1309843Y493194D01*
G01X-1299260Y498030D01*
G01X-1290785Y506003D01*
G01X-1285314Y516272D01*
G01X-1283424Y527754D01*
G01X-1283424Y607753D01*
G01X-1285177Y618821D01*
G01X-1290264Y628804D01*
G01X-1298187Y636728D01*
G01X-1308171Y641815D01*
G01X-1319238Y643567D01*
G01X-1399238Y643567D01*
G01X-1410305Y641815D01*
G01X-1420289Y636728D01*
G01X-1428212Y628804D01*
G01X-1433299Y618821D01*
G01X-1435052Y607753D01*
G01X-1435052Y603791D01*
G01X-1435443Y603720D01*
G01X-1436990Y604080D01*
G01X-1441766Y614794D01*
G01X-1449747Y623390D01*
G01X-1460077Y628947D01*
G01X-1471648Y630867D01*
G01X-1551648Y630867D01*
G01X-1562715Y629115D01*
G01X-1572699Y624028D01*
G01X-1580622Y616104D01*
G01X-1585709Y606121D01*
G01X-1587462Y595053D01*
G01X-1587462Y515054D01*
G01X-1585709Y503986D01*
G01X-1580622Y494003D01*
G01X-1572699Y486079D01*
G01X-1562715Y480992D01*
G01X-1551648Y479240D01*
G01X-1471648Y479240D01*
G01X-1460077Y481160D01*
G01X-1449747Y486717D01*
G01X-1441766Y495313D01*
G01X-1436990Y506027D01*
G01X-1435167Y506428D01*
G01X-1428747Y504721D01*
G01X-1423171Y501111D01*
G01X-1416032Y496121D01*
G01X-1407899Y493003D01*
G01X-1407451Y490588D01*
G01X-1408280Y489083D01*
G01X-1409866Y486927D01*
G01X-1418285Y474013D01*
G01X-1423495Y459503D01*
G01X-1425213Y444183D01*
G01X-1423348Y428879D01*
G01X-1418000Y414420D01*
G01X-1409457Y401587D01*
G01X-1398182Y391073D01*
G01X-1384784Y383446D01*
G01X-1392276Y375954D01*
G01X-1401468Y364754D01*
G01X-1408298Y351975D01*
G01X-1412505Y338109D01*
G01X-1413925Y323689D01*
G01X-1413925Y247811D01*
G01X-1412072Y231363D01*
G01X-1406605Y215741D01*
G01X-1397799Y201726D01*
G01X-1386095Y190022D01*
G01X-1372081Y181217D01*
G01X-1356458Y175750D01*
G01X-1340011Y173897D01*
G01X-1323563Y175750D01*
G01X-1307941Y181217D01*
G01X-1293926Y190022D01*
G01X-1282222Y201726D01*
G01X-1273417Y215741D01*
G01X-1267950Y231363D01*
G01X-1266097Y247811D01*
G01X-1266097Y293073D01*
G01X-1262993Y296176D01*
G01X-1262993Y241107D01*
G01X-1261241Y230040D01*
G01X-1256154Y220056D01*
G01X-1248230Y212133D01*
G01X-1238247Y207046D01*
G01X-1227179Y205293D01*
G01X-1137180Y205293D01*
G01X-1125577Y207224D01*
G01X-1115226Y212811D01*
G01X-1107243Y221449D01*
G01X-1104682Y212818D01*
G01X-1100050Y205099D01*
G01X-1093639Y198778D01*
G01X-1099578Y194033D01*
G01X-1104382Y188141D01*
G01X-1112367Y196831D01*
G01X-1122744Y202453D01*
G01X-1134384Y204398D01*
G01X-1214384Y204398D01*
G01X-1225451Y202645D01*
G01X-1235435Y197558D01*
G01X-1243358Y189635D01*
G01X-1248445Y179651D01*
G01X-1250198Y168584D01*
G01X-1250198Y78584D01*
G01X-1248445Y67517D01*
G01X-1243358Y57533D01*
G01X-1235435Y49610D01*
G01X-1225451Y44523D01*
G01X-1214384Y42770D01*
G01X-1134384Y42770D01*
G01X-1122744Y44714D01*
G01X-1112367Y50337D01*
G01X-1104382Y59026D01*
G01X-1096396Y50337D01*
G01X-1086020Y44714D01*
G01X-1074379Y42770D01*
G01X-1026016Y42770D01*
G01X-1031440Y32534D01*
G01X-1033314Y21102D01*
G01X-1033314Y-58898D01*
G01X-1031369Y-70538D01*
G01X-1025747Y-80914D01*
G01X-1017057Y-88900D01*
G01X-1025747Y-96886D01*
G01X-1031369Y-107262D01*
G01X-1033314Y-118902D01*
G01X-1033314Y-198902D01*
G01X-1031561Y-209969D01*
G01X-1026474Y-219953D01*
G01X-1018551Y-227876D01*
G01X-1008567Y-232963D01*
G01X-997500Y-234716D01*
G01X-907500Y-234716D01*
G01X-896626Y-233025D01*
G01X-886778Y-228113D01*
G01X-878887Y-220441D01*
G01X-878887Y-252684D01*
G01X-877134Y-263751D01*
G01X-872047Y-273735D01*
G01X-864124Y-281658D01*
G01X-854140Y-286745D01*
G01X-843073Y-288498D01*
G01X-764480Y-288498D01*
G01X-778523Y-297370D01*
G01X-790715Y-308650D01*
G01X-800648Y-321962D01*
G01X-807990Y-336861D01*
G01X-812496Y-352848D01*
G01X-814015Y-369388D01*
G01X-814015Y-419073D01*
G01X-826182Y-408320D01*
G01X-840478Y-400620D01*
G01X-856152Y-396380D01*
G01X-872380Y-395822D01*
G01X-888308Y-398974D01*
G01X-903100Y-405672D01*
G01X-915977Y-415563D01*
G01X-926263Y-428127D01*
G01X-933416Y-442704D01*
G01X-937061Y-458527D01*
G01X-937006Y-474764D01*
G01X-933254Y-490562D01*
G01X-926003Y-505090D01*
G01X-915632Y-517585D01*
G01X-902688Y-527388D01*
G01X-887852Y-533986D01*
G01X-871902Y-537030D01*
G01X-855678Y-536362D01*
G01X-840033Y-532016D01*
G01X-825790Y-524220D01*
G01X-813696Y-513385D01*
G01X-804389Y-500080D01*
G01X-794340Y-515837D01*
G01X-781278Y-529204D01*
G01X-765757Y-539614D01*
G01X-748433Y-546626D01*
G01X-730041Y-549944D01*
G01X-711359Y-549427D01*
G01X-693179Y-545096D01*
G01X-676270Y-537135D01*
G01X-661349Y-525882D01*
G01X-649047Y-511813D01*
G01X-639886Y-495523D01*
G01X-613244Y-522165D01*
G01X-603196Y-529875D01*
G01X-591496Y-534722D01*
G01X-578939Y-536375D01*
G01X-564893Y-536375D01*
G01X-562607Y-536598D01*
G01X-562607Y-577200D01*
G01X-560855Y-588267D01*
G01X-555768Y-598251D01*
G01X-547844Y-606174D01*
G01X-537861Y-611261D01*
G01X-526793Y-613014D01*
G01X-386794Y-613014D01*
G01X-375999Y-611348D01*
G01X-366208Y-606506D01*
G01X-358331Y-598938D01*
G01X-353103Y-589347D01*
G01X-339187Y-598828D01*
G01X-323487Y-604913D01*
G01X-306818Y-607286D01*
G01X-290043Y-605826D01*
G01X-274035Y-600607D01*
G01X-259622Y-591900D01*
G01X-247555Y-580158D01*
G01X-238458Y-565989D01*
G01X-232804Y-550128D01*
G01X-230886Y-533400D01*
G01X-230886Y-447323D01*
G01X-186744Y-491465D01*
G01X-178012Y-498402D01*
G01X-167926Y-503162D01*
G01X-157020Y-505494D01*
G01X-157020Y-577200D01*
G01X-155267Y-588267D01*
G01X-150180Y-598251D01*
G01X-142257Y-606174D01*
G01X-132273Y-611261D01*
G01X-121206Y-613014D01*
G01X18793Y-613014D01*
G01X29861Y-611261D01*
G01X39844Y-606174D01*
G01X47768Y-598251D01*
G01X52855Y-588267D01*
G01X54607Y-577200D01*
G01X54607Y-337200D01*
G01X52855Y-326133D01*
G01X47768Y-316149D01*
G01X39844Y-308226D01*
G01X29861Y-303139D01*
G01X18793Y-301386D01*
G01X11763Y-301386D01*
G01X15187Y-285978D01*
G01X14872Y-270196D01*
G01X10837Y-254936D01*
G01X3309Y-241062D01*
G01X-7284Y-229361D01*
G01X-20343Y-220494D01*
G01X-35128Y-214965D01*
G01X-50800Y-213086D01*
G01X-66472Y-214965D01*
G01X-81257Y-220494D01*
G01X-94316Y-229361D01*
G01X-104909Y-241062D01*
G01X-112437Y-254936D01*
G01X-116472Y-270196D01*
G01X-116787Y-285978D01*
G01X-113363Y-301386D01*
G01X-121206Y-301386D01*
G01X-132273Y-303139D01*
G01X-142257Y-308226D01*
G01X-150180Y-316149D01*
G01X-155267Y-326133D01*
G01X-157020Y-337200D01*
G01X-157020Y-383971D01*
G01X-195286Y-345705D01*
G01X-195286Y-291433D01*
G01X-196939Y-278876D01*
G01X-201786Y-267176D01*
G01X-209496Y-257128D01*
G01X-230214Y-236409D01*
G01X-215181Y-236409D01*
G01X-204114Y-234656D01*
G01X-194130Y-229569D01*
G01X-186207Y-221646D01*
G01X-181120Y-211662D01*
G01X-179367Y-200595D01*
G01X-179367Y-110595D01*
G01X-181120Y-99528D01*
G01X-186207Y-89544D01*
G01X-194130Y-81621D01*
G01X-204114Y-76534D01*
G01X-215181Y-74781D01*
G01X-295181Y-74781D01*
G01X-304275Y-75955D01*
G01X-312774Y-79400D01*
G01X-320119Y-84890D01*
G01X-320406Y-73045D01*
G01X-320406Y-73045D01*
G01X-320119Y-61201D01*
G01X-320119Y-61201D01*
G01X-312774Y-66690D01*
G01X-304275Y-70135D01*
G01X-295181Y-71309D01*
G01X-215181Y-71309D01*
G01X-204025Y-69527D01*
G01X-193980Y-64359D01*
G01X-181188Y-72440D01*
G01X-166897Y-77410D01*
G01X-151852Y-79012D01*
G01X-136836Y-77162D01*
G01X-122629Y-71956D01*
G01X-109973Y-63666D01*
G01X-107817Y-62080D01*
G01X-106244Y-61214D01*
G01X-27473Y-61214D01*
G01X-28076Y-75372D01*
G01X-25658Y-89335D01*
G01X-20328Y-102465D01*
G01X-12329Y-114163D01*
G01X-2028Y-123895D01*
G01X10105Y-131216D01*
G01X23517Y-135791D01*
G01X37595Y-137412D01*
G01X51696Y-136005D01*
G01X65176Y-131635D01*
G01X77420Y-124500D01*
G01X87868Y-114926D01*
G01X88301Y-114514D01*
G01X503105Y-114514D01*
G01X549895Y-161305D01*
G01X557482Y-167494D01*
G01X566156Y-172034D01*
G01X575565Y-174739D01*
G01X576686Y-175450D01*
G01X579403Y-177571D01*
G01X591875Y-185923D01*
G01X605906Y-191256D01*
G01X620776Y-193297D01*
G01X635725Y-191941D01*
G01X649986Y-187258D01*
G01X649986Y-246605D01*
G01X308595Y-587995D01*
G01X300886Y-598043D01*
G01X296039Y-609744D01*
G01X294386Y-622300D01*
G01X294386Y-715844D01*
G01X293520Y-717417D01*
G01X291934Y-719573D01*
G01X283708Y-732102D01*
G01X278506Y-746158D01*
G01X276593Y-761024D01*
G01X278068Y-775939D01*
G01X282854Y-790143D01*
G01X290708Y-802909D01*
G01X301228Y-813585D01*
G01X313876Y-821625D01*
G01X328008Y-826620D01*
G01X342900Y-828314D01*
G01X357792Y-826620D01*
G01X371924Y-821625D01*
G01X384572Y-813585D01*
G01X395092Y-802909D01*
G01X402946Y-790143D01*
G01X407732Y-775939D01*
G01X409207Y-761024D01*
G01X407294Y-746158D01*
G01X402092Y-732102D01*
G01X393866Y-719573D01*
G01X392280Y-717417D01*
G01X391414Y-715844D01*
G01X391414Y-642395D01*
G01X732805Y-301005D01*
G01X740514Y-290957D01*
G01X745361Y-279256D01*
G01X747014Y-266700D01*
G01X747014Y322805D01*
G01X782095Y357886D01*
G01X1168400Y357886D01*
G01X1180956Y359539D01*
G01X1192657Y364386D01*
G01X1202705Y372095D01*
G01X1231280Y400670D01*
G01X1239171Y392994D01*
G01X1249021Y388078D01*
G01X1259900Y386386D01*
G01X1383485Y386386D01*
G01X1383485Y371401D01*
G01X1385138Y358844D01*
G01X1389985Y347144D01*
G01X1397695Y337096D01*
G01X1418756Y316035D01*
G01X1429831Y307749D01*
G01X1436544Y300053D01*
G01X1445156Y294565D01*
G01X1438895Y288305D01*
G01X1431186Y278257D01*
G01X1426339Y266556D01*
G01X1424686Y254000D01*
G01X1424686Y222855D01*
G01X1417336Y212243D01*
G01X1412271Y200369D01*
G01X1409700Y187719D01*
G01X1406265Y202948D01*
G01X1399235Y216888D01*
G01X1389031Y228704D01*
G01X1376262Y237688D01*
G01X1361695Y243303D01*
G01X1346200Y245213D01*
G01X1330705Y243303D01*
G01X1316138Y237688D01*
G01X1303369Y228704D01*
G01X1293165Y216888D01*
G01X1286135Y202948D01*
G01X1282700Y187719D01*
G01X1279265Y202948D01*
G01X1272235Y216888D01*
G01X1262031Y228704D01*
G01X1249262Y237688D01*
G01X1234695Y243303D01*
G01X1219200Y245213D01*
G01X1203705Y243303D01*
G01X1189138Y237688D01*
G01X1176369Y228704D01*
G01X1166165Y216888D01*
G01X1159135Y202948D01*
G01X1155700Y187719D01*
G01X1152265Y202948D01*
G01X1145235Y216888D01*
G01X1135031Y228704D01*
G01X1122262Y237688D01*
G01X1107695Y243303D01*
G01X1092200Y245213D01*
G01X1076705Y243303D01*
G01X1062138Y237688D01*
G01X1049369Y228704D01*
G01X1039165Y216888D01*
G01X1032135Y202948D01*
G01X1028700Y187719D01*
G01X1025503Y202272D01*
G01X1019019Y215688D01*
G01X1009601Y227233D01*
G01X997761Y236280D01*
G01X984147Y242335D01*
G01X969499Y245068D01*
G01X954617Y244329D01*
G01X940312Y240159D01*
G01X927364Y232786D01*
G01X916479Y222611D01*
G01X908250Y210189D01*
G01X903126Y196198D01*
G01X901386Y181399D01*
G01X901386Y62898D01*
G01X903126Y48100D01*
G01X908250Y34108D01*
G01X916479Y21686D01*
G01X927364Y11511D01*
G01X940312Y4138D01*
G01X954617Y-32D01*
G01X969499Y-771D01*
G01X984147Y1962D01*
G01X997761Y8017D01*
G01X1009601Y17064D01*
G01X1019019Y28610D01*
G01X1025503Y42025D01*
G01X1028700Y56578D01*
G01X1032135Y41349D01*
G01X1039165Y27409D01*
G01X1049369Y15593D01*
G01X1062138Y6609D01*
G01X1076705Y994D01*
G01X1092200Y-916D01*
G01X1107695Y994D01*
G01X1122262Y6609D01*
G01X1135031Y15593D01*
G01X1145235Y27409D01*
G01X1152265Y41349D01*
G01X1155700Y56578D01*
G01X1159135Y41349D01*
G01X1166165Y27409D01*
G01X1176369Y15593D01*
G01X1189138Y6609D01*
G01X1203705Y994D01*
G01X1219200Y-916D01*
G01X1234695Y994D01*
G01X1249262Y6609D01*
G01X1262031Y15593D01*
G01X1272235Y27409D01*
G01X1279265Y41349D01*
G01X1282700Y56578D01*
G01X1286135Y41349D01*
G01X1293165Y27409D01*
G01X1303369Y15593D01*
G01X1316138Y6609D01*
G01X1330705Y994D01*
G01X1346200Y-916D01*
G01X1361695Y994D01*
G01X1376262Y6609D01*
G01X1389031Y15593D01*
G01X1399235Y27409D01*
G01X1406265Y41349D01*
G01X1409700Y56578D01*
G01X1413135Y41349D01*
G01X1420165Y27409D01*
G01X1430369Y15593D01*
G01X1443138Y6609D01*
G01X1457705Y994D01*
G01X1473200Y-916D01*
G01X1488695Y994D01*
G01X1503262Y6609D01*
G01X1516031Y15593D01*
G01X1526235Y27409D01*
G01X1533265Y41349D01*
G01X1536700Y56578D01*
G01X1540135Y41349D01*
G01X1547165Y27409D01*
G01X1557369Y15593D01*
G01X1570138Y6609D01*
G01X1584705Y994D01*
G01X1600200Y-916D01*
G01X1615695Y994D01*
G01X1630262Y6609D01*
G01X1643031Y15593D01*
G01X1653235Y27409D01*
G01X1660265Y41349D01*
G01X1663700Y56578D01*
G01X1667138Y41340D01*
G01X1674175Y27394D01*
G01X1684390Y15575D01*
G01X1697170Y6592D01*
G01X1711750Y983D01*
G01X1727255Y-916D01*
G01X1742757Y1010D01*
G01X1757327Y6644D01*
G01X1770092Y15649D01*
G01X1780286Y27485D01*
G01X1780286Y-20184D01*
G01X1734684Y-65786D01*
G01X1536700Y-65786D01*
G01X1522280Y-67206D01*
G01X1508414Y-71412D01*
G01X1495636Y-78243D01*
G01X1484435Y-87435D01*
G01X1418825Y-153045D01*
G01X1409633Y-164246D01*
G01X1402802Y-177024D01*
G01X1398596Y-190890D01*
G01X1397176Y-205310D01*
G01X1397176Y-354710D01*
G01X1394714Y-351642D01*
G01X1394714Y-254000D01*
G01X1393061Y-241444D01*
G01X1388214Y-229743D01*
G01X1380505Y-219695D01*
G01X1355105Y-194295D01*
G01X1345057Y-186586D01*
G01X1333356Y-181739D01*
G01X1320800Y-180086D01*
G01X1307610Y-180086D01*
G01X1295577Y-171182D01*
G01X1281853Y-165203D01*
G01X1267138Y-162455D01*
G01X1252182Y-163078D01*
G01X1237746Y-167039D01*
G01X1224567Y-174137D01*
G01X1213315Y-184010D01*
G01X1204565Y-196155D01*
G01X1203721Y-195312D01*
G01X1193674Y-187602D01*
G01X1181973Y-182756D01*
G01X1169417Y-181103D01*
G01X1091490Y-181103D01*
G01X1079119Y-172004D01*
G01X1064986Y-165996D01*
G01X1049851Y-163399D01*
G01X1034524Y-164353D01*
G01X1019827Y-168807D01*
G01X1006549Y-176522D01*
G01X995402Y-187085D01*
G01X986983Y-199928D01*
G01X981744Y-214363D01*
G01X979966Y-229617D01*
G01X981744Y-244870D01*
G01X986983Y-259306D01*
G01X995402Y-272149D01*
G01X1006549Y-282711D01*
G01X1019827Y-290426D01*
G01X1034524Y-294880D01*
G01X1049851Y-295835D01*
G01X1064986Y-293238D01*
G01X1079119Y-287229D01*
G01X1091490Y-278131D01*
G01X1149322Y-278131D01*
G01X1170686Y-299495D01*
G01X1170686Y-351642D01*
G01X1163336Y-362254D01*
G01X1158271Y-374128D01*
G01X1155700Y-386778D01*
G01X1152265Y-371549D01*
G01X1145235Y-357609D01*
G01X1135031Y-345793D01*
G01X1122262Y-336809D01*
G01X1107695Y-331194D01*
G01X1092200Y-329284D01*
G01X1076705Y-331194D01*
G01X1062138Y-336809D01*
G01X1049369Y-345793D01*
G01X1039165Y-357609D01*
G01X1032135Y-371549D01*
G01X1028700Y-386778D01*
G01X1025503Y-372225D01*
G01X1019019Y-358810D01*
G01X1009601Y-347264D01*
G01X997761Y-338217D01*
G01X984147Y-332162D01*
G01X969499Y-329429D01*
G01X954617Y-330168D01*
G01X940312Y-334338D01*
G01X927364Y-341711D01*
G01X916479Y-351886D01*
G01X908250Y-364308D01*
G01X903126Y-378300D01*
G01X901386Y-393098D01*
G01X901386Y-510114D01*
G01X886222Y-505932D01*
G01X870500Y-505440D01*
G01X855105Y-508664D01*
G01X840901Y-515424D01*
G01X828690Y-525339D01*
G01X819157Y-537851D01*
G01X812839Y-552257D01*
G01X810092Y-567745D01*
G01X811070Y-583444D01*
G01X815719Y-598471D01*
G01X823776Y-611981D01*
G01X834788Y-623213D01*
G01X848135Y-631536D01*
G01X863068Y-636481D01*
G01X878745Y-637769D01*
G01X894284Y-635329D01*
G01X908812Y-629297D01*
G01X921510Y-620014D01*
G01X995905Y-620014D01*
G01X1018286Y-642395D01*
G01X1018286Y-948223D01*
G01X999806Y-936529D01*
G01X979688Y-927952D01*
G01X958455Y-922715D01*
G01X936656Y-920955D01*
G01X-645857Y-920955D01*
G01X-638549Y-909283D01*
G01X-632990Y-896684D01*
G01X-629294Y-883419D01*
G01X-620026Y-896097D01*
G01X-608037Y-906241D01*
G01X-593999Y-913281D01*
G01X-578698Y-916822D01*
G01X-562995Y-916666D01*
G01X-547768Y-912822D01*
G01X-533872Y-905505D01*
G01X-522086Y-895125D01*
G01X-513072Y-882265D01*
G01X-507335Y-867646D01*
G01X-505197Y-852088D01*
G01X-506777Y-836463D01*
G01X-511987Y-821647D01*
G01X-520534Y-808473D01*
G01X-522120Y-806317D01*
G01X-522986Y-804744D01*
G01X-522986Y-762000D01*
G01X-79014Y-762000D01*
G01X-77087Y-777870D01*
G01X-71418Y-792818D01*
G01X-62337Y-805974D01*
G01X-50371Y-816575D01*
G01X-36215Y-824005D01*
G01X-20693Y-827831D01*
G01X-4707Y-827831D01*
G01X10815Y-824005D01*
G01X24971Y-816575D01*
G01X36937Y-805974D01*
G01X46018Y-792818D01*
G01X51687Y-777870D01*
G01X53614Y-762000D01*
G01X51687Y-746130D01*
G01X46018Y-731182D01*
G01X36937Y-718026D01*
G01X24971Y-707425D01*
G01X10815Y-699995D01*
G01X788Y-697524D01*
G01X60693Y-697524D01*
G01X62168Y-712439D01*
G01X66954Y-726643D01*
G01X74808Y-739409D01*
G01X85328Y-750085D01*
G01X97976Y-758125D01*
G01X112108Y-763120D01*
G01X127000Y-764814D01*
G01X141892Y-763120D01*
G01X156024Y-758125D01*
G01X168672Y-750085D01*
G01X179192Y-739409D01*
G01X187046Y-726643D01*
G01X191832Y-712439D01*
G01X193307Y-697524D01*
G01X191394Y-682658D01*
G01X186192Y-668602D01*
G01X177966Y-656073D01*
G01X176380Y-653917D01*
G01X175514Y-652344D01*
G01X175514Y-528756D01*
G01X176380Y-527183D01*
G01X177966Y-525027D01*
G01X186192Y-512498D01*
G01X191394Y-498442D01*
G01X193307Y-483576D01*
G01X191832Y-468661D01*
G01X187046Y-454457D01*
G01X179192Y-441691D01*
G01X168672Y-431015D01*
G01X156024Y-422975D01*
G01X141892Y-417980D01*
G01X127000Y-416286D01*
G01X112108Y-417980D01*
G01X97976Y-422975D01*
G01X85328Y-431015D01*
G01X74808Y-441691D01*
G01X66954Y-454457D01*
G01X62168Y-468661D01*
G01X60693Y-483576D01*
G01X62606Y-498442D01*
G01X67808Y-512498D01*
G01X76034Y-525027D01*
G01X77620Y-527183D01*
G01X78486Y-528756D01*
G01X78486Y-652344D01*
G01X78486Y-652344D01*
G01X77620Y-653917D01*
G01X76034Y-656073D01*
G01X67808Y-668602D01*
G01X62606Y-682658D01*
G01X60693Y-697524D01*
G01X788Y-697524D01*
G01X-4707Y-696169D01*
G01X-20693Y-696169D01*
G01X-36215Y-699995D01*
G01X-50371Y-707425D01*
G01X-62337Y-718026D01*
G01X-71418Y-731182D01*
G01X-77087Y-746130D01*
G01X-79014Y-762000D01*
G01X-79014Y-762000D01*
G01X-522986Y-762000D01*
G01X-522986Y-761092D01*
G01X-524639Y-748535D01*
G01X-529486Y-736835D01*
G01X-537195Y-726787D01*
G01X-602741Y-661241D01*
G01X-612789Y-653531D01*
G01X-624490Y-648685D01*
G01X-637046Y-647032D01*
G01X-757696Y-647032D01*
G01X-770252Y-648685D01*
G01X-781953Y-653531D01*
G01X-792001Y-661241D01*
G01X-890498Y-759738D01*
G01X-896408Y-748347D01*
G01X-904403Y-738307D01*
G01X-914181Y-729994D01*
G01X-925378Y-723722D01*
G01X-929193Y-721913D01*
G01X-932800Y-719914D01*
G01X-935262Y-718328D01*
G01X-994395Y-659195D01*
G01X-1004443Y-651485D01*
G01X-1016144Y-646639D01*
G01X-1028700Y-644986D01*
G01X-1622297Y-644986D01*
G01X-1666587Y-600695D01*
G01X-1676635Y-592986D01*
G01X-1688335Y-588139D01*
G01X-1700892Y-586486D01*
G01X-1746484Y-586486D01*
G01X-1746484Y-501100D01*
G01X-1748237Y-490033D01*
G01X-1753324Y-480049D01*
G01X-1761247Y-472126D01*
G01X-1771231Y-467039D01*
G01X-1782298Y-465286D01*
G01X-1862298Y-465286D01*
G01X-1873938Y-467231D01*
G01X-1884314Y-472853D01*
G01X-1892300Y-481543D01*
G01X-1900286Y-472853D01*
G01X-1910662Y-467231D01*
G01X-1922302Y-465286D01*
G01X-2002302Y-465286D01*
G01X-2013369Y-467039D01*
G01X-2023353Y-472126D01*
G01X-2031276Y-480049D01*
G01X-2036363Y-490033D01*
G01X-2038116Y-501100D01*
G01X-2038116Y-547701D01*
G01X-2039424Y-556687D01*
G01X-2043237Y-564928D01*
G01X-2109394Y-631085D01*
G01X-2117104Y-641132D01*
G01X-2121950Y-652833D01*
G01X-2123603Y-665389D01*
G01X-2123603Y-792854D01*
G01X-2168968Y-792854D01*
G01X-2168968Y-741663D01*
G01X-2170654Y-728813D01*
G01X-2175598Y-716832D01*
G01X-2183465Y-706533D01*
G01X-2193723Y-698611D01*
G01X-2205676Y-693603D01*
G01X-2218517Y-691849D01*
G01X-2231376Y-693466D01*
G01X-2243383Y-698346D01*
G01X-2255374Y-693470D01*
G01X-2268217Y-691849D01*
G01X-2281044Y-693591D01*
G01X-2292989Y-698579D01*
G01X-2305044Y-693561D01*
G01X-2317988Y-691848D01*
G01X-2330933Y-693558D01*
G01X-2342989Y-698572D01*
G01X-2355045Y-693558D01*
G01X-2367990Y-691848D01*
G01X-2380934Y-693561D01*
G01X-2392989Y-698579D01*
G01X-2401876Y-694528D01*
G01X-2411382Y-692289D01*
G01X-2411382Y-498153D01*
G01X-2313839Y-498153D01*
G01X-2313679Y-513604D01*
G01X-2309947Y-528598D01*
G01X-2302847Y-542322D01*
G01X-2292764Y-554030D01*
G01X-2280245Y-563086D01*
G01X-2265970Y-569000D01*
G01X-2250714Y-571450D01*
G01X-2248926Y-586798D01*
G01X-2243634Y-601315D01*
G01X-2235126Y-614213D01*
G01X-2223865Y-624793D01*
G01X-2210461Y-632479D01*
G01X-2195642Y-636854D01*
G01X-2180212Y-637682D01*
G01X-2165010Y-634916D01*
G01X-2150861Y-628707D01*
G01X-2138533Y-619393D01*
G01X-2138533Y-619393D01*
G01X-2128694Y-607478D01*
G01X-2121881Y-593611D01*
G01X-2118461Y-578542D01*
G01X-2118621Y-563092D01*
G01X-2122353Y-548097D01*
G01X-2129453Y-534374D01*
G01X-2139536Y-522666D01*
G01X-2152055Y-513609D01*
G01X-2166330Y-507695D01*
G01X-2181586Y-505246D01*
G01X-2183374Y-489898D01*
G01X-2188666Y-475381D01*
G01X-2197174Y-462483D01*
G01X-2208435Y-451903D01*
G01X-2221839Y-444217D01*
G01X-2236658Y-439841D01*
G01X-2252088Y-439014D01*
G01X-2267290Y-441780D01*
G01X-2281439Y-447988D01*
G01X-2293767Y-457303D01*
G01X-2303606Y-469217D01*
G01X-2310419Y-483085D01*
G01X-2313839Y-498153D01*
G01X-2411382Y-498153D01*
G01X-2411382Y-477780D01*
G01X-2411224Y-472214D01*
G01X-2403919Y-460292D01*
G01X-2399276Y-447104D01*
G01X-2397501Y-433236D01*
G01X-2398674Y-419303D01*
G01X-2402742Y-405927D01*
G01X-2409523Y-393700D01*
G01X-2401907Y-379408D01*
G01X-2399404Y-369388D01*
G01X-1679012Y-369388D01*
G01X-1679012Y-459388D01*
G01X-1677093Y-477959D01*
G01X-1671417Y-495745D01*
G01X-1662224Y-511994D01*
G01X-1649902Y-526020D01*
G01X-1634973Y-537230D01*
G01X-1618066Y-545150D01*
G01X-1599898Y-549445D01*
G01X-1581234Y-549935D01*
G01X-1562866Y-546597D01*
G01X-1545567Y-539574D01*
G01X-1530071Y-529162D01*
G01X-1517031Y-515801D01*
G01X-1506999Y-500055D01*
G01X-1497695Y-513366D01*
G01X-1485603Y-524207D01*
G01X-1471359Y-532009D01*
G01X-1455712Y-536359D01*
G01X-1439485Y-537031D01*
G01X-1423532Y-533989D01*
G01X-1422208Y-533400D01*
G01X-1336314Y-533400D01*
G01X-1334511Y-548758D01*
G01X-1329201Y-563280D01*
G01X-1320671Y-576178D01*
G01X-1309387Y-586750D01*
G01X-1295961Y-594421D01*
G01X-1281123Y-598775D01*
G01X-1265680Y-599573D01*
G01X-1250473Y-596774D01*
G01X-1236327Y-590529D01*
G01X-1224012Y-581177D01*
G01X-1214197Y-569228D01*
G01X-1204383Y-581177D01*
G01X-1192068Y-590529D01*
G01X-1177922Y-596774D01*
G01X-1162715Y-599573D01*
G01X-1147272Y-598775D01*
G01X-1132434Y-594421D01*
G01X-1119008Y-586750D01*
G01X-1107724Y-576178D01*
G01X-1099194Y-563280D01*
G01X-1093884Y-548758D01*
G01X-1092081Y-533400D01*
G01X-1093884Y-518042D01*
G01X-1099194Y-503520D01*
G01X-1107724Y-490622D01*
G01X-1119008Y-480050D01*
G01X-1132434Y-472379D01*
G01X-1147272Y-468025D01*
G01X-1162715Y-467227D01*
G01X-1177922Y-470026D01*
G01X-1192068Y-476271D01*
G01X-1204383Y-485623D01*
G01X-1214197Y-497572D01*
G01X-1224012Y-485623D01*
G01X-1236327Y-476271D01*
G01X-1250473Y-470026D01*
G01X-1265680Y-467227D01*
G01X-1281123Y-468025D01*
G01X-1295961Y-472379D01*
G01X-1309387Y-480050D01*
G01X-1320671Y-490622D01*
G01X-1329201Y-503520D01*
G01X-1334511Y-518042D01*
G01X-1336314Y-533400D01*
G01X-1336314Y-533400D01*
G01X-1422208Y-533400D01*
G01X-1408692Y-527392D01*
G01X-1395745Y-517587D01*
G01X-1385373Y-505091D01*
G01X-1378119Y-490560D01*
G01X-1374367Y-474759D01*
G01X-1374314Y-458519D01*
G01X-1377962Y-442693D01*
G01X-1385119Y-428115D01*
G01X-1395410Y-415551D01*
G01X-1408292Y-405662D01*
G01X-1423088Y-398967D01*
G01X-1439021Y-395819D01*
G01X-1455251Y-396384D01*
G01X-1470926Y-400632D01*
G01X-1485221Y-408340D01*
G01X-1497385Y-419101D01*
G01X-1497385Y-369388D01*
G01X-1497385Y-369388D01*
G01X-1499369Y-350507D01*
G01X-1505236Y-332451D01*
G01X-1514729Y-316009D01*
G01X-1527432Y-301901D01*
G01X-1542792Y-290741D01*
G01X-1560135Y-283019D01*
G01X-1578706Y-279072D01*
G01X-1597691Y-279072D01*
G01X-1616262Y-283019D01*
G01X-1633605Y-290741D01*
G01X-1648965Y-301901D01*
G01X-1661668Y-316009D01*
G01X-1671161Y-332451D01*
G01X-1677028Y-350507D01*
G01X-1679012Y-369388D01*
G01X-2399404Y-369388D01*
G01X-2397982Y-363697D01*
G01X-2397982Y-347503D01*
G01X-2401907Y-331792D01*
G01X-2409523Y-317500D01*
G01X-2401962Y-303349D01*
G01X-2398020Y-287797D01*
G01X-2397928Y-271753D01*
G01X-2399148Y-266700D01*
G01X-2314214Y-266700D01*
G01X-2312287Y-282570D01*
G01X-2306618Y-297518D01*
G01X-2297537Y-310674D01*
G01X-2285571Y-321275D01*
G01X-2271415Y-328705D01*
G01X-2255893Y-332531D01*
G01X-2239907Y-332531D01*
G01X-2224385Y-328705D01*
G01X-2210229Y-321275D01*
G01X-2198263Y-310674D01*
G01X-2189182Y-297518D01*
G01X-2183513Y-282570D01*
G01X-2181586Y-266700D01*
G01X-2183513Y-250830D01*
G01X-2189182Y-235882D01*
G01X-2198263Y-222726D01*
G01X-2210229Y-212125D01*
G01X-2224385Y-204695D01*
G01X-2239907Y-200869D01*
G01X-2255893Y-200869D01*
G01X-2271415Y-204695D01*
G01X-2285571Y-212125D01*
G01X-2297537Y-222726D01*
G01X-2306618Y-235882D01*
G01X-2312287Y-250830D01*
G01X-2314214Y-266700D01*
G01X-2314214Y-266700D01*
G01X-2399148Y-266700D01*
G01X-2401693Y-256157D01*
G01X-2409093Y-241921D01*
G01X-2419695Y-229879D01*
G01X-2432879Y-220736D01*
G01X-2447874Y-215027D01*
G01X-2463800Y-213086D01*
G01X-2479726Y-215027D01*
G01X-2494721Y-220736D01*
G01X-2507905Y-229879D01*
G01X-2518507Y-241921D01*
G01X-2525907Y-256157D01*
G01X-2529672Y-271753D01*
G01X-2529580Y-287797D01*
G01X-2525638Y-303349D01*
G01X-2518077Y-317500D01*
G01X-2525693Y-331792D01*
G01X-2529618Y-347503D01*
G01X-2529618Y-363697D01*
G01X-2525693Y-379408D01*
G01X-2518077Y-393700D01*
G01X-2523690Y-403326D01*
G01X-2527612Y-413756D01*
G01X-2532240Y-426823D01*
G01X-2533810Y-440596D01*
G01X-2533810Y-767662D01*
G01X-2532438Y-780547D01*
G01X-2528386Y-792854D01*
G01X-2568988Y-792854D01*
G01X-2579595Y-793996D01*
G01X-2589716Y-797371D01*
G01X-2598886Y-802824D01*
G01X-2598886Y-728198D01*
G01X-2600639Y-717131D01*
G01X-2605726Y-707147D01*
G01X-2613649Y-699224D01*
G01X-2623633Y-694137D01*
G01X-2634700Y-692384D01*
G01X-2724700Y-692384D01*
G37*
G36*
G01X-2517797Y-1142470D02*
G01X-2517797Y-1193661D01*
G01X-2516176Y-1206264D01*
G01X-2511420Y-1218046D01*
G01X-2503837Y-1228243D01*
G01X-2493922Y-1236189D01*
G01X-2501597Y-1241853D01*
G01X-2507505Y-1249343D01*
G01X-2511226Y-1258126D01*
G01X-2512497Y-1267581D01*
G01X-2512497Y-1357580D01*
G01X-2511244Y-1366970D01*
G01X-2507573Y-1375703D01*
G01X-2501742Y-1383167D01*
G01X-2494157Y-1388842D01*
G01X-2505030Y-1395861D01*
G01X-2514333Y-1404858D01*
G01X-2542286Y-1376905D01*
G01X-2542286Y-1149198D01*
G01X-2542755Y-1142470D01*
G01X-2517797Y-1142470D01*
G37*
G36*
G01X-2362929Y-1243218D02*
G01X-2366681Y-1248023D01*
G01X-2370243Y-1243424D01*
G01X-2362929Y-1243218D01*
G37*
G36*
G01X-1956776Y-1055155D02*
G01X-1956781Y-1056769D01*
G01X-1956781Y-1166451D01*
G01X-2024516Y-1234186D01*
G01X-2189027Y-1234186D01*
G01X-2180304Y-1226231D01*
G01X-2173698Y-1216447D01*
G01X-2169580Y-1205383D01*
G01X-2168181Y-1193661D01*
G01X-2168181Y-1142470D01*
G01X-2116990Y-1142470D01*
G01X-2105682Y-1141169D01*
G01X-2070555Y-1141169D01*
G01X-2057999Y-1139516D01*
G01X-2046298Y-1134670D01*
G01X-2036251Y-1126960D01*
G01X-1965969Y-1056678D01*
G01X-1964245Y-1056178D01*
G01X-1961599Y-1055775D01*
G01X-1956776Y-1055155D01*
G37*
G36*
G01X-1714795Y-920955D02*
G01X-1727871Y-921586D01*
G01X-1740826Y-923473D01*
G01X-1740826Y-845800D01*
G01X-1740864Y-844150D01*
G01X-1742189Y-808821D01*
G01X-1740856Y-768558D01*
G01X-1740826Y-767100D01*
G01X-1740826Y-683514D01*
G01X-1720987Y-683514D01*
G01X-1676697Y-727804D01*
G01X-1668228Y-734562D01*
G01X-1658471Y-739272D01*
G01X-1669348Y-753460D01*
G01X-1677399Y-769423D01*
G01X-1682344Y-786603D01*
G01X-1684012Y-804403D01*
G01X-1684012Y-864403D01*
G01X-1682821Y-879463D01*
G01X-1679278Y-894148D01*
G01X-1673470Y-908095D01*
G01X-1665543Y-920955D01*
G01X-1714795Y-920955D01*
G37*
G36*
G01X-1470962Y790760D02*
G01X-1520145Y790760D01*
G01X-1043375Y1124635D01*
G01X-1041722Y1125793D01*
G01X-999018Y1155700D01*
G01X-451014Y1155700D01*
G01X-449178Y1134721D01*
G01X-443728Y1114379D01*
G01X-434828Y1095293D01*
G01X-422749Y1078042D01*
G01X-407858Y1063151D01*
G01X-390607Y1051072D01*
G01X-371521Y1042172D01*
G01X-351179Y1036722D01*
G01X-330200Y1034886D01*
G01X-309221Y1036722D01*
G01X-288879Y1042172D01*
G01X-269793Y1051072D01*
G01X-252542Y1063151D01*
G01X-237651Y1078042D01*
G01X-225572Y1095293D01*
G01X-216672Y1114379D01*
G01X-211222Y1134721D01*
G01X-209386Y1155700D01*
G01X-209386Y1155700D01*
G01X-197014Y1155700D01*
G01X-195178Y1134721D01*
G01X-189728Y1114379D01*
G01X-180828Y1095293D01*
G01X-168749Y1078042D01*
G01X-153858Y1063151D01*
G01X-136607Y1051072D01*
G01X-117521Y1042172D01*
G01X-97179Y1036722D01*
G01X-76200Y1034886D01*
G01X-55221Y1036722D01*
G01X-34879Y1042172D01*
G01X-15793Y1051072D01*
G01X1458Y1063151D01*
G01X16349Y1078042D01*
G01X28428Y1095293D01*
G01X37328Y1114379D01*
G01X42778Y1134721D01*
G01X44614Y1155700D01*
G01X56986Y1155700D01*
G01X58822Y1134721D01*
G01X64272Y1114379D01*
G01X73172Y1095293D01*
G01X85251Y1078042D01*
G01X100142Y1063151D01*
G01X117393Y1051072D01*
G01X136479Y1042172D01*
G01X156821Y1036722D01*
G01X177800Y1034886D01*
G01X198779Y1036722D01*
G01X219121Y1042172D01*
G01X238207Y1051072D01*
G01X255458Y1063151D01*
G01X270349Y1078042D01*
G01X282428Y1095293D01*
G01X291328Y1114379D01*
G01X296778Y1134721D01*
G01X298614Y1155700D01*
G01X298614Y1155700D01*
G01X296778Y1176679D01*
G01X291328Y1197021D01*
G01X282428Y1216107D01*
G01X270349Y1233358D01*
G01X255458Y1248249D01*
G01X238207Y1260328D01*
G01X219121Y1269228D01*
G01X198779Y1274678D01*
G01X177800Y1276514D01*
G01X156821Y1274678D01*
G01X136479Y1269228D01*
G01X117393Y1260328D01*
G01X100142Y1248249D01*
G01X85251Y1233358D01*
G01X73172Y1216107D01*
G01X64272Y1197021D01*
G01X58822Y1176679D01*
G01X56986Y1155700D01*
G01X44614Y1155700D01*
G01X44614Y1155700D01*
G01X42778Y1176679D01*
G01X37328Y1197021D01*
G01X28428Y1216107D01*
G01X16349Y1233358D01*
G01X1458Y1248249D01*
G01X-15793Y1260328D01*
G01X-34879Y1269228D01*
G01X-55221Y1274678D01*
G01X-76200Y1276514D01*
G01X-97179Y1274678D01*
G01X-117521Y1269228D01*
G01X-136607Y1260328D01*
G01X-153858Y1248249D01*
G01X-168749Y1233358D01*
G01X-180828Y1216107D01*
G01X-189728Y1197021D01*
G01X-195178Y1176679D01*
G01X-197014Y1155700D01*
G01X-209386Y1155700D01*
G01X-211222Y1176679D01*
G01X-216672Y1197021D01*
G01X-225572Y1216107D01*
G01X-237651Y1233358D01*
G01X-252542Y1248249D01*
G01X-269793Y1260328D01*
G01X-288879Y1269228D01*
G01X-309221Y1274678D01*
G01X-330200Y1276514D01*
G01X-351179Y1274678D01*
G01X-371521Y1269228D01*
G01X-390607Y1260328D01*
G01X-407858Y1248249D01*
G01X-422749Y1233358D01*
G01X-434828Y1216107D01*
G01X-443728Y1197021D01*
G01X-449178Y1176679D01*
G01X-451014Y1155700D01*
G01X-999018Y1155700D01*
G01X-963628Y1180484D01*
G01X-961549Y1181941D01*
G01X-636330Y1409700D01*
G01X-451014Y1409700D01*
G01X-449178Y1388721D01*
G01X-443728Y1368379D01*
G01X-434828Y1349293D01*
G01X-422749Y1332042D01*
G01X-407858Y1317151D01*
G01X-390607Y1305072D01*
G01X-371521Y1296172D01*
G01X-351179Y1290722D01*
G01X-330200Y1288886D01*
G01X-309221Y1290722D01*
G01X-288879Y1296172D01*
G01X-269793Y1305072D01*
G01X-252542Y1317151D01*
G01X-237651Y1332042D01*
G01X-225572Y1349293D01*
G01X-216672Y1368379D01*
G01X-211222Y1388721D01*
G01X-209386Y1409700D01*
G01X-209386Y1409700D01*
G01X-197014Y1409700D01*
G01X-195178Y1388721D01*
G01X-189728Y1368379D01*
G01X-180828Y1349293D01*
G01X-168749Y1332042D01*
G01X-153858Y1317151D01*
G01X-136607Y1305072D01*
G01X-117521Y1296172D01*
G01X-97179Y1290722D01*
G01X-76200Y1288886D01*
G01X-55221Y1290722D01*
G01X-34879Y1296172D01*
G01X-15793Y1305072D01*
G01X1458Y1317151D01*
G01X9007Y1324700D01*
G01X56986Y1324700D01*
G01X58739Y1313633D01*
G01X63826Y1303649D01*
G01X71749Y1295726D01*
G01X81733Y1290639D01*
G01X92800Y1288886D01*
G01X262800Y1288886D01*
G01X273867Y1290639D01*
G01X283851Y1295726D01*
G01X291774Y1303649D01*
G01X296861Y1313633D01*
G01X298614Y1324700D01*
G01X298614Y1494700D01*
G01X296861Y1505767D01*
G01X291774Y1515751D01*
G01X283851Y1523674D01*
G01X273867Y1528761D01*
G01X262800Y1530514D01*
G01X92800Y1530514D01*
G01X92800Y1530514D01*
G01X81733Y1528761D01*
G01X71749Y1523674D01*
G01X63826Y1515751D01*
G01X58739Y1505767D01*
G01X56986Y1494700D01*
G01X56986Y1324700D01*
G01X9007Y1324700D01*
G01X16349Y1332042D01*
G01X28428Y1349293D01*
G01X37328Y1368379D01*
G01X42778Y1388721D01*
G01X44614Y1409700D01*
G01X44614Y1409700D01*
G01X42778Y1430679D01*
G01X37328Y1451021D01*
G01X28428Y1470107D01*
G01X16349Y1487358D01*
G01X1458Y1502249D01*
G01X-15793Y1514328D01*
G01X-34879Y1523228D01*
G01X-55221Y1528678D01*
G01X-76200Y1530514D01*
G01X-97179Y1528678D01*
G01X-117521Y1523228D01*
G01X-136607Y1514328D01*
G01X-153858Y1502249D01*
G01X-168749Y1487358D01*
G01X-180828Y1470107D01*
G01X-189728Y1451021D01*
G01X-195178Y1430679D01*
G01X-197014Y1409700D01*
G01X-209386Y1409700D01*
G01X-211222Y1430679D01*
G01X-216672Y1451021D01*
G01X-225572Y1470107D01*
G01X-237651Y1487358D01*
G01X-252542Y1502249D01*
G01X-269793Y1514328D01*
G01X-288879Y1523228D01*
G01X-309221Y1528678D01*
G01X-330200Y1530514D01*
G01X-351179Y1528678D01*
G01X-371521Y1523228D01*
G01X-390607Y1514328D01*
G01X-407858Y1502249D01*
G01X-422749Y1487358D01*
G01X-434828Y1470107D01*
G01X-443728Y1451021D01*
G01X-449178Y1430679D01*
G01X-451014Y1409700D01*
G01X-636330Y1409700D01*
G01X-453564Y1537696D01*
G01X-416725Y1563495D01*
G01X-407385Y1570020D01*
G01X-400604Y1574620D01*
G01X-394100Y1578887D01*
G01X-387815Y1582879D01*
G01X-381732Y1586622D01*
G01X-375756Y1590186D01*
G01X-369913Y1593567D01*
G01X-364092Y1596833D01*
G01X-358323Y1599975D01*
G01X-352497Y1603050D01*
G01X-346576Y1606079D01*
G01X-340546Y1609065D01*
G01X-334331Y1612041D01*
G01X-327864Y1615030D01*
G01X-321120Y1618032D01*
G01X-314053Y1621054D01*
G01X-306583Y1624114D01*
G01X-298956Y1627097D01*
G01X-291289Y1629957D01*
G01X-283587Y1632691D01*
G01X-275840Y1635302D01*
G01X-268058Y1637789D01*
G01X-260253Y1640146D01*
G01X-252422Y1642376D01*
G01X-244551Y1644483D01*
G01X-236643Y1646467D01*
G01X-228721Y1648320D01*
G01X-220759Y1650051D01*
G01X-212780Y1651653D01*
G01X-204789Y1653126D01*
G01X-196755Y1654476D01*
G01X-188719Y1655695D01*
G01X-180668Y1656787D01*
G01X-172567Y1657755D01*
G01X-164480Y1658592D01*
G01X-156368Y1659301D01*
G01X-148302Y1659877D01*
G01X-140029Y1660335D01*
G01X-131947Y1660657D01*
G01X-123945Y1660847D01*
G01X1502593Y1660675D01*
G01X1502593Y1531092D01*
G01X1504346Y1520025D01*
G01X1509433Y1510041D01*
G01X1517356Y1502118D01*
G01X1527340Y1497031D01*
G01X1538407Y1495278D01*
G01X1592690Y1495278D01*
G01X1582576Y1490241D01*
G01X1574535Y1482305D01*
G01X1569366Y1472259D01*
G01X1567584Y1461102D01*
G01X1567584Y1341102D01*
G01X1569296Y1330162D01*
G01X1562124Y1322353D01*
G01X1557553Y1312786D01*
G01X1555984Y1302300D01*
G01X1555984Y1212300D01*
G01X1557905Y1200729D01*
G01X1563461Y1190399D01*
G01X1572057Y1182418D01*
G01X1582771Y1177642D01*
G01X1583284Y1174200D01*
G01X1583284Y857402D01*
G01X1584937Y844846D01*
G01X1589783Y833145D01*
G01X1597493Y823098D01*
G01X1642095Y778495D01*
G01X1652143Y770786D01*
G01X1663844Y765939D01*
G01X1676400Y764286D01*
G01X1795911Y764286D01*
G01X1785432Y760731D01*
G01X1776539Y754147D01*
G01X1770080Y745162D01*
G01X1766672Y734634D01*
G01X1763940Y734314D01*
G01X1473200Y734314D01*
G01X1460644Y732661D01*
G01X1448943Y727814D01*
G01X1438895Y720105D01*
G01X1400795Y682005D01*
G01X1393086Y671957D01*
G01X1388239Y660256D01*
G01X1386586Y647700D01*
G01X1386586Y615819D01*
G01X1384267Y607425D01*
G01X1383485Y598752D01*
G01X1383485Y528014D01*
G01X1259900Y528014D01*
G01X1252399Y527220D01*
G01X1245232Y524872D01*
G01X1240050Y538372D01*
G01X1232066Y550427D01*
G01X1230480Y552583D01*
G01X1229614Y554156D01*
G01X1229614Y588844D01*
G01X1230480Y590417D01*
G01X1232066Y592573D01*
G01X1239956Y604446D01*
G01X1245126Y617730D01*
G01X1247337Y631813D01*
G01X1246488Y646043D01*
G01X1242617Y659763D01*
G01X1235903Y672339D01*
G01X1226657Y683189D01*
G01X1215305Y691812D01*
G01X1202373Y697809D01*
G01X1188457Y700905D01*
G01X1174202Y700954D01*
G01X1160265Y697956D01*
G01X1226595Y764286D01*
G01X1465144Y764286D01*
G01X1466717Y763420D01*
G01X1468873Y761834D01*
G01X1481402Y753608D01*
G01X1495458Y748406D01*
G01X1510324Y746493D01*
G01X1525239Y747968D01*
G01X1539443Y752754D01*
G01X1552209Y760608D01*
G01X1562885Y771128D01*
G01X1570925Y783776D01*
G01X1575920Y797908D01*
G01X1577614Y812800D01*
G01X1575920Y827692D01*
G01X1570925Y841824D01*
G01X1562885Y854472D01*
G01X1552209Y864992D01*
G01X1539443Y872846D01*
G01X1525239Y877632D01*
G01X1510324Y879107D01*
G01X1495458Y877194D01*
G01X1481402Y871992D01*
G01X1468873Y863766D01*
G01X1466717Y862180D01*
G01X1465144Y861314D01*
G01X1206500Y861314D01*
G01X1193944Y859661D01*
G01X1182243Y854814D01*
G01X1172195Y847105D01*
G01X863357Y538266D01*
G01X857278Y547682D01*
G01X848587Y554757D01*
G01X838134Y558800D01*
G01X847256Y562107D01*
G01X855156Y567742D01*
G01X861253Y575291D01*
G01X865100Y584199D01*
G01X866414Y593813D01*
G01X866414Y674460D01*
G01X864661Y685527D01*
G01X859574Y695511D01*
G01X851651Y703434D01*
G01X841667Y708521D01*
G01X830600Y710274D01*
G01X744200Y710274D01*
G01X734311Y708882D01*
G01X725192Y704814D01*
G01X717550Y698386D01*
G01X711391Y703833D01*
G01X704152Y707732D01*
G01X696214Y709878D01*
G01X696214Y780215D01*
G01X701397Y794125D01*
G01X703056Y808877D01*
G01X701092Y823591D01*
G01X695621Y837390D01*
G01X686970Y849453D01*
G01X675654Y859061D01*
G01X662348Y865641D01*
G01X647844Y868802D01*
G01X633006Y868354D01*
G01X618719Y864325D01*
G01X605834Y856955D01*
G01X595118Y846682D01*
G01X587210Y834120D01*
G01X582581Y820015D01*
G01X581507Y805210D01*
G01X584052Y790585D01*
G01X590065Y777013D01*
G01X599186Y765302D01*
G01X599186Y709883D01*
G01X569835Y706535D01*
G01X540384Y704231D01*
G01X540384Y704231D01*
G01X528790Y704597D01*
G01X528790Y704597D01*
G01X527600Y704616D01*
G01X438109Y704616D01*
G01X415950Y706990D01*
G01X415950Y744200D01*
G01X416500Y800664D01*
G01X418147Y857107D01*
G01X418174Y858500D01*
G01X418174Y944900D01*
G01X417998Y948444D01*
G01X416999Y960169D01*
G01X487816Y1030986D01*
G01X709600Y1030986D01*
G01X724020Y1032406D01*
G01X737885Y1036612D01*
G01X750664Y1043443D01*
G01X761865Y1052635D01*
G01X976032Y1266803D01*
G01X979785Y1270047D01*
G01X983611Y1272600D01*
G01X988326Y1275103D01*
G01X993517Y1277327D01*
G01X998735Y1279128D01*
G01X1003485Y1280420D01*
G01X1007141Y1281150D01*
G01X1009998Y1281484D01*
G01X1031319Y1285038D01*
G01X1051608Y1292491D01*
G01X1070158Y1303585D01*
G01X1086324Y1317933D01*
G01X1099543Y1335035D01*
G01X1109353Y1354296D01*
G01X1115413Y1375044D01*
G01X1117513Y1396557D01*
G01X1115578Y1418085D01*
G01X1109677Y1438879D01*
G01X1100014Y1458214D01*
G01X1086927Y1475416D01*
G01X1070872Y1489888D01*
G01X1052406Y1501123D01*
G01X1032175Y1508732D01*
G01X1010882Y1512449D01*
G01X989269Y1512145D01*
G01X968089Y1507830D01*
G01X948080Y1499654D01*
G01X929939Y1487902D01*
G01X914297Y1472984D01*
G01X901700Y1455420D01*
G01X889418Y1472621D01*
G01X874214Y1487303D01*
G01X856595Y1498978D01*
G01X837148Y1507256D01*
G01X816520Y1511862D01*
G01X795398Y1512642D01*
G01X774487Y1509571D01*
G01X754482Y1502751D01*
G01X736049Y1492409D01*
G01X719803Y1478889D01*
G01X706285Y1462641D01*
G01X695944Y1444208D01*
G01X689126Y1424202D01*
G01X686057Y1403290D01*
G01X686840Y1382169D01*
G01X691448Y1361541D01*
G01X699728Y1342095D01*
G01X711405Y1324477D01*
G01X726088Y1309275D01*
G01X743291Y1296994D01*
G01X762438Y1288044D01*
G01X782893Y1282723D01*
G01X678984Y1178814D01*
G01X457200Y1178814D01*
G01X442780Y1177394D01*
G01X428914Y1173188D01*
G01X416136Y1166357D01*
G01X404935Y1157165D01*
G01X289771Y1042001D01*
G01X280579Y1030801D01*
G01X273749Y1018022D01*
G01X269543Y1004156D01*
G01X268122Y989736D01*
G01X266522Y953220D01*
G01X261868Y964182D01*
G01X253876Y973013D01*
G01X243431Y978734D01*
G01X231687Y980714D01*
G01X151040Y980714D01*
G01X141054Y979294D01*
G01X131860Y975146D01*
G01X124188Y968599D01*
G01X118645Y960172D01*
G01X115672Y950534D01*
G01X112940Y950214D01*
G01X110002Y950214D01*
G01X107516Y950479D01*
G01X104907Y960604D01*
G01X99484Y969545D01*
G01X91710Y976538D01*
G01X82247Y980987D01*
G01X71902Y982514D01*
G01X-8098Y982514D01*
G01X-19738Y980569D01*
G01X-30114Y974947D01*
G01X-38100Y966257D01*
G01X-46086Y974947D01*
G01X-56462Y980569D01*
G01X-68102Y982514D01*
G01X-148102Y982514D01*
G01X-159169Y980761D01*
G01X-169153Y975674D01*
G01X-177076Y967751D01*
G01X-182163Y957767D01*
G01X-183916Y946700D01*
G01X-183916Y856700D01*
G01X-182992Y848614D01*
G01X-355600Y848614D01*
G01X-368156Y846961D01*
G01X-379857Y842114D01*
G01X-389905Y834405D01*
G01X-420565Y803744D01*
G01X-428275Y793696D01*
G01X-433122Y781996D01*
G01X-434775Y769439D01*
G01X-434775Y746687D01*
G01X-438800Y746914D01*
G01X-678800Y746914D01*
G01X-688086Y745689D01*
G01X-688086Y825500D01*
G01X-689739Y838056D01*
G01X-694586Y849757D01*
G01X-702295Y859805D01*
G01X-720256Y877765D01*
G01X-730304Y885475D01*
G01X-742004Y890322D01*
G01X-754561Y891975D01*
G01X-1101974Y891975D01*
G01X-1102486Y892151D01*
G01X-1105424Y893481D01*
G01X-1108583Y895297D01*
G01X-1123316Y902266D01*
G01X-1139305Y905431D01*
G01X-1155582Y904600D01*
G01X-1171165Y899824D01*
G01X-1185112Y891392D01*
G01X-1196582Y879812D01*
G01X-1204880Y865785D01*
G01X-1209507Y850157D01*
G01X-1210182Y833873D01*
G01X-1206865Y817916D01*
G01X-1199755Y803249D01*
G01X-1189283Y790760D01*
G01X-1233462Y790760D01*
G01X-1242113Y789700D01*
G01X-1250251Y786581D01*
G01X-1257396Y781589D01*
G01X-1263977Y777564D01*
G01X-1271562Y776161D01*
G01X-1280452Y776161D01*
G01X-1283894Y776673D01*
G01X-1288670Y787387D01*
G01X-1296651Y795983D01*
G01X-1306981Y801540D01*
G01X-1318552Y803460D01*
G01X-1398552Y803460D01*
G01X-1409619Y801708D01*
G01X-1419603Y796621D01*
G01X-1427526Y788697D01*
G01X-1432613Y778714D01*
G01X-1434366Y767646D01*
G01X-1434366Y763684D01*
G01X-1434757Y763613D01*
G01X-1436305Y763973D01*
G01X-1441080Y774687D01*
G01X-1449061Y783283D01*
G01X-1459391Y788840D01*
G01X-1470962Y790760D01*
G37*
G36*
G01X-800546Y-920955D02*
G01X-1510854Y-920955D01*
G01X-1502927Y-908095D01*
G01X-1497119Y-894148D01*
G01X-1493576Y-879463D01*
G01X-1492385Y-864403D01*
G01X-1492385Y-804403D01*
G01X-1493886Y-787506D01*
G01X-1498344Y-771139D01*
G01X-1505618Y-755815D01*
G01X-1515480Y-742014D01*
G01X-1320531Y-742014D01*
G01X-1323386Y-756507D01*
G01X-1322963Y-771273D01*
G01X-1319281Y-785579D01*
G01X-1312523Y-798715D01*
G01X-1303025Y-810029D01*
G01X-1291259Y-818959D01*
G01X-1277807Y-825064D01*
G01X-1263337Y-828039D01*
G01X-1260691Y-828442D01*
G01X-1258968Y-828941D01*
G01X-1210765Y-877144D01*
G01X-1200717Y-884854D01*
G01X-1189017Y-889701D01*
G01X-1176460Y-891354D01*
G01X-927850Y-891354D01*
G01X-917241Y-890180D01*
G01X-907145Y-886714D01*
G01X-900350Y-886714D01*
G01X-887794Y-885061D01*
G01X-876093Y-880214D01*
G01X-866046Y-872505D01*
G01X-819015Y-825474D01*
G01X-819015Y-864403D01*
G01X-817824Y-879463D01*
G01X-814281Y-894148D01*
G01X-808473Y-908095D01*
G01X-800546Y-920955D01*
G37*
G36*
G01X-958566Y78584D02*
G01X-958566Y168584D01*
G01X-959842Y177800D01*
G01X-929914Y177800D01*
G01X-927987Y161930D01*
G01X-922318Y146982D01*
G01X-913237Y133826D01*
G01X-901271Y123225D01*
G01X-887115Y115795D01*
G01X-871593Y111969D01*
G01X-855607Y111969D01*
G01X-840085Y115795D01*
G01X-825929Y123225D01*
G01X-813963Y133826D01*
G01X-804882Y146982D01*
G01X-799213Y161930D01*
G01X-797286Y177800D01*
G01X-799213Y193670D01*
G01X-804882Y208618D01*
G01X-813963Y221774D01*
G01X-825929Y232375D01*
G01X-840085Y239805D01*
G01X-855607Y243631D01*
G01X-871593Y243631D01*
G01X-887115Y239805D01*
G01X-901271Y232375D01*
G01X-913237Y221774D01*
G01X-922318Y208618D01*
G01X-927987Y193670D01*
G01X-929914Y177800D01*
G01X-929914Y177800D01*
G01X-959842Y177800D01*
G01X-959913Y178317D01*
G01X-963856Y187317D01*
G01X-970096Y194908D01*
G01X-961719Y200460D01*
G01X-955215Y208122D01*
G01X-951096Y217289D01*
G01X-949686Y227240D01*
G01X-949686Y281686D01*
G01X-849630Y281686D01*
G01X-838035Y282601D01*
G01X-826728Y285324D01*
G01X-815988Y289786D01*
G01X-789630Y289786D01*
G01X-778563Y291539D01*
G01X-768579Y296626D01*
G01X-760656Y304549D01*
G01X-755569Y314533D01*
G01X-753816Y325600D01*
G01X-753816Y385600D01*
G01X-755441Y396264D01*
G01X-760167Y405960D01*
G01X-767565Y413810D01*
G01X-776966Y419100D01*
G01X-768884Y423407D01*
G01X-762159Y429623D01*
G01X-757230Y437341D01*
G01X-748239Y441937D01*
G01X-740395Y448295D01*
G01X-714614Y474077D01*
G01X-714614Y381100D01*
G01X-712861Y370033D01*
G01X-707774Y360049D01*
G01X-699851Y352126D01*
G01X-689867Y347039D01*
G01X-678800Y345286D01*
G01X-438800Y345286D01*
G01X-427733Y347039D01*
G01X-417749Y352126D01*
G01X-409826Y360049D01*
G01X-404739Y370033D01*
G01X-402986Y381100D01*
G01X-402986Y575677D01*
G01X-402605Y575295D01*
G01X-392557Y567586D01*
G01X-380856Y562739D01*
G01X-368300Y561086D01*
G01X-366070Y561086D01*
G01X-359955Y559763D01*
G01X-354934Y556030D01*
G01X-348397Y550183D01*
G01X-340634Y546100D01*
G01X-350035Y540810D01*
G01X-357433Y532960D01*
G01X-362159Y523264D01*
G01X-363784Y512600D01*
G01X-363784Y452600D01*
G01X-362159Y441936D01*
G01X-357433Y432240D01*
G01X-350035Y424390D01*
G01X-340634Y419100D01*
G01X-350035Y413810D01*
G01X-357433Y405960D01*
G01X-362159Y396264D01*
G01X-363784Y385600D01*
G01X-363784Y325600D01*
G01X-362258Y315258D01*
G01X-357811Y305797D01*
G01X-350821Y298023D01*
G01X-341884Y292599D01*
G01X-341884Y232546D01*
G01X-360816Y213614D01*
G01X-482515Y213614D01*
G01X-505024Y214446D01*
G01X-527410Y216936D01*
G01X-532681Y217326D01*
G01X-612681Y217326D01*
G01X-624321Y215382D01*
G01X-634698Y209759D01*
G01X-642683Y201070D01*
G01X-650669Y209759D01*
G01X-661046Y215382D01*
G01X-672686Y217326D01*
G01X-752686Y217326D01*
G01X-763753Y215573D01*
G01X-773737Y210486D01*
G01X-781660Y202563D01*
G01X-786747Y192579D01*
G01X-788500Y181512D01*
G01X-788500Y91512D01*
G01X-786747Y80445D01*
G01X-781660Y70461D01*
G01X-773737Y62538D01*
G01X-763753Y57451D01*
G01X-752686Y55698D01*
G01X-672686Y55698D01*
G01X-662571Y57156D01*
G01X-653280Y61412D01*
G01X-662098Y48436D01*
G01X-667978Y33891D01*
G01X-670657Y18432D01*
G01X-670012Y2757D01*
G01X-666074Y-12429D01*
G01X-659019Y-26442D01*
G01X-649165Y-38651D01*
G01X-638908Y-48908D01*
G01X-638908Y-62692D01*
G01X-637348Y-73146D01*
G01X-632805Y-82690D01*
G01X-637348Y-92233D01*
G01X-638908Y-102687D01*
G01X-638908Y-117983D01*
G01X-661008Y-95883D01*
G01X-671055Y-88173D01*
G01X-682756Y-83327D01*
G01X-695312Y-81674D01*
G01X-702004Y-80506D01*
G01X-698466Y-71910D01*
G01X-697259Y-62692D01*
G01X-697259Y-7691D01*
G01X-699012Y3376D01*
G01X-704099Y13360D01*
G01X-712022Y21283D01*
G01X-722006Y26370D01*
G01X-733073Y28123D01*
G01X-843073Y28123D01*
G01X-846266Y27980D01*
G01X-871138Y26550D01*
G01X-872133Y26742D01*
G01X-875107Y36378D01*
G01X-880650Y44803D01*
G01X-888323Y51349D01*
G01X-897515Y55496D01*
G01X-907500Y56916D01*
G01X-965864Y56916D01*
G01X-960439Y67152D01*
G01X-958566Y78584D01*
G37*
G36*
G01X-697259Y-252684D02*
G01X-697259Y-197683D01*
G01X-697269Y-196840D01*
G01X-683514Y-210595D01*
G01X-683514Y-287706D01*
G01X-696187Y-282686D01*
G01X-709469Y-279619D01*
G01X-702872Y-271934D01*
G01X-698691Y-262710D01*
G01X-697259Y-252684D01*
G37*
G36*
G01X-215705Y149665D02*
G01X-211126Y154686D01*
G01X-188375Y154686D01*
G01X-192218Y145781D01*
G01X-193531Y136172D01*
G01X-193531Y83034D01*
G01X-203760Y88449D01*
G01X-215181Y90319D01*
G01X-275051Y90319D01*
G01X-215705Y149665D01*
G37*
G36*
G01X31804Y820886D02*
G01X71902Y820886D01*
G01X82247Y822413D01*
G01X91710Y826862D01*
G01X99484Y833855D01*
G01X104907Y842796D01*
G01X107516Y852921D01*
G01X110002Y853186D01*
G01X112940Y853186D01*
G01X115672Y852866D01*
G01X118645Y843228D01*
G01X124188Y834801D01*
G01X131860Y828254D01*
G01X141054Y824106D01*
G01X151040Y822686D01*
G01X231687Y822686D01*
G01X243152Y824570D01*
G01X253410Y830026D01*
G01X261382Y838478D01*
G01X266229Y849037D01*
G01X267848Y784136D01*
G01X264539Y764332D01*
G01X257590Y745495D01*
G01X247247Y728286D01*
G01X233872Y713311D01*
G01X222931Y711430D01*
G01X213090Y706290D01*
G01X205297Y698382D01*
G01X200301Y688468D01*
G01X198580Y677501D01*
G01X198580Y465499D01*
G01X200333Y454432D01*
G01X205420Y444449D01*
G01X213343Y436525D01*
G01X223327Y431438D01*
G01X234394Y429685D01*
G01X374393Y429685D01*
G01X384881Y431255D01*
G01X394449Y435827D01*
G01X402258Y443001D01*
G01X405262Y433406D01*
G01X410814Y425025D01*
G01X418477Y418517D01*
G01X427646Y414395D01*
G01X437600Y412984D01*
G01X527600Y412984D01*
G01X538667Y414737D01*
G01X548651Y419824D01*
G01X556574Y427747D01*
G01X561661Y437731D01*
G01X563414Y448798D01*
G01X563414Y528798D01*
G01X562240Y537892D01*
G01X558795Y546390D01*
G01X553305Y553735D01*
G01X585959Y554429D01*
G01X578788Y548718D01*
G01X573301Y541375D01*
G01X569859Y532879D01*
G01X568686Y523787D01*
G01X568686Y443140D01*
G01X570087Y433219D01*
G01X574182Y424075D01*
G01X580649Y416423D01*
G01X588983Y410862D01*
G01X598532Y407827D01*
G01X598532Y403396D01*
G01X587688Y393251D01*
G01X579626Y380781D01*
G01X574827Y366728D01*
G01X573576Y351931D01*
G01X575949Y337272D01*
G01X581804Y323625D01*
G01X590791Y311804D01*
G01X602376Y302514D01*
G01X451851Y302514D01*
G01X444638Y307669D01*
G01X436380Y310893D01*
G01X427582Y311991D01*
G01X337583Y311991D01*
G01X328785Y310893D01*
G01X320527Y307669D01*
G01X313313Y302514D01*
G01X286751Y302514D01*
G01X279538Y307669D01*
G01X271280Y310893D01*
G01X262482Y311991D01*
G01X172483Y311991D01*
G01X163685Y310893D01*
G01X155427Y307669D01*
G01X148213Y302514D01*
G01X121651Y302514D01*
G01X114438Y307669D01*
G01X106180Y310893D01*
G01X97382Y311991D01*
G01X7383Y311991D01*
G01X-1415Y310893D01*
G01X-9673Y307669D01*
G01X-16887Y302514D01*
G01X-43449Y302514D01*
G01X-50662Y307669D01*
G01X-58920Y310893D01*
G01X-67718Y311991D01*
G01X-157717Y311991D01*
G01X-168553Y310312D01*
G01X-178373Y305434D01*
G01X-173746Y315049D01*
G01X-172156Y325600D01*
G01X-172156Y385600D01*
G01X-173390Y393700D01*
G01X35286Y393700D01*
G01X35286Y393700D01*
G01X37213Y377830D01*
G01X42882Y362882D01*
G01X51963Y349726D01*
G01X63929Y339125D01*
G01X78085Y331695D01*
G01X93607Y327869D01*
G01X109593Y327869D01*
G01X125115Y331695D01*
G01X139271Y339125D01*
G01X151237Y349726D01*
G01X160318Y362882D01*
G01X165987Y377830D01*
G01X167914Y393700D01*
G01X165987Y409570D01*
G01X160318Y424518D01*
G01X151237Y437674D01*
G01X139271Y448275D01*
G01X125115Y455705D01*
G01X109593Y459531D01*
G01X93607Y459531D01*
G01X78085Y455705D01*
G01X63929Y448275D01*
G01X51963Y437674D01*
G01X42882Y424518D01*
G01X37213Y409570D01*
G01X35286Y393700D01*
G01X-173390Y393700D01*
G01X-173781Y396264D01*
G01X-178507Y405960D01*
G01X-185905Y413810D01*
G01X-195306Y419100D01*
G01X-186667Y423811D01*
G01X-179636Y430695D01*
G01X-171193Y429685D01*
G01X-31194Y429685D01*
G01X-20127Y431438D01*
G01X-10143Y436525D01*
G01X-2220Y444449D01*
G01X2867Y454432D01*
G01X4620Y465499D01*
G01X4620Y677501D01*
G01X2867Y688568D01*
G01X-2220Y698551D01*
G01X-10143Y706475D01*
G01X-20127Y711562D01*
G01X-31194Y713315D01*
G01X-171193Y713315D01*
G01X-172156Y713302D01*
G01X-172156Y751586D01*
G01X-69698Y751586D01*
G01X-57141Y753239D01*
G01X-45441Y758086D01*
G01X-35393Y765795D01*
G01X14577Y815766D01*
G01X22818Y819579D01*
G01X31804Y820886D01*
G37*
G36*
G01X-31904Y56172D02*
G01X-31904Y136172D01*
G01X-33217Y145781D01*
G01X-37060Y154686D01*
G01X-23275Y154686D01*
G01X-27118Y145781D01*
G01X-28431Y136172D01*
G01X-28431Y56172D01*
G01X-26807Y45510D01*
G01X-22083Y35814D01*
G01X-38253Y35814D01*
G01X-33528Y45510D01*
G01X-31904Y56172D01*
G37*
G36*
G01X133196Y56172D02*
G01X133196Y136172D01*
G01X131883Y145781D01*
G01X128040Y154686D01*
G01X141825Y154686D01*
G01X137982Y145781D01*
G01X136669Y136172D01*
G01X136669Y56172D01*
G01X138293Y45510D01*
G01X143017Y35814D01*
G01X126847Y35814D01*
G01X131572Y45510D01*
G01X133196Y56172D01*
G37*
G36*
G01X298296Y56172D02*
G01X298296Y136172D01*
G01X296983Y145781D01*
G01X293140Y154686D01*
G01X306925Y154686D01*
G01X303082Y145781D01*
G01X301769Y136172D01*
G01X301769Y56172D01*
G01X303393Y45510D01*
G01X308117Y35814D01*
G01X291947Y35814D01*
G01X296672Y45510D01*
G01X298296Y56172D01*
G37*
G36*
G01X463396Y56172D02*
G01X463396Y136172D01*
G01X462083Y145781D01*
G01X458240Y154686D01*
G01X622300Y154686D01*
G01X636402Y156044D01*
G01X649986Y160067D01*
G01X649986Y47558D01*
G01X635845Y52216D01*
G01X621022Y53602D01*
G01X606263Y51646D01*
G01X592312Y46446D01*
G01X579873Y38266D01*
G01X577717Y36680D01*
G01X576144Y35814D01*
G01X457047Y35814D01*
G01X461772Y45510D01*
G01X463396Y56172D01*
G37*
G36*
G01X1072471Y-1056765D02*
G01X1070495Y-1033685D01*
G01X1080776Y-1037294D01*
G01X1091604Y-1038518D01*
G01X1136386Y-1038518D01*
G01X1132135Y-1047805D01*
G01X1130678Y-1057915D01*
G01X1130678Y-1377914D01*
G01X1132431Y-1388982D01*
G01X1137518Y-1398965D01*
G01X1145442Y-1406889D01*
G01X1155425Y-1411976D01*
G01X1166492Y-1413728D01*
G01X1246492Y-1413728D01*
G01X1255152Y-1412666D01*
G01X1263298Y-1409541D01*
G01X1256805Y-1417199D01*
G01X1252694Y-1426359D01*
G01X1251287Y-1436300D01*
G01X1251287Y-1586300D01*
G01X1253039Y-1597367D01*
G01X1258126Y-1607351D01*
G01X1266050Y-1615274D01*
G01X1276033Y-1620361D01*
G01X1287101Y-1622114D01*
G01X1437100Y-1622114D01*
G01X1448167Y-1620361D01*
G01X1458151Y-1615274D01*
G01X1466074Y-1607351D01*
G01X1471161Y-1597367D01*
G01X1472914Y-1586300D01*
G01X1472914Y-1577069D01*
G01X1486724Y-1592529D01*
G01X1503171Y-1605146D01*
G01X1521680Y-1614479D01*
G01X1541604Y-1620202D01*
G01X1562245Y-1622114D01*
G01X1582881Y-1620148D01*
G01X1602790Y-1614373D01*
G01X1621274Y-1604992D01*
G01X1637689Y-1592331D01*
G01X1651458Y-1576836D01*
G01X1662100Y-1559047D01*
G01X1672667Y-1576734D01*
G01X1686326Y-1592159D01*
G01X1702605Y-1604789D01*
G01X1720940Y-1614186D01*
G01X1740698Y-1620028D01*
G01X1761196Y-1622110D01*
G01X1781725Y-1620362D01*
G01X1801576Y-1614844D01*
G01X1820062Y-1605746D01*
G01X1836544Y-1593383D01*
G01X1850453Y-1578183D01*
G01X1861308Y-1560671D01*
G01X1868733Y-1541452D01*
G01X1872471Y-1521190D01*
G01X1872394Y-1500587D01*
G01X1868505Y-1480354D01*
G01X1860937Y-1461191D01*
G01X1849952Y-1443760D01*
G01X1835930Y-1428664D01*
G01X1819356Y-1416424D01*
G01X1800803Y-1407465D01*
G01X1780911Y-1402095D01*
G01X1786022Y-1394899D01*
G01X1789219Y-1386673D01*
G01X1790306Y-1377914D01*
G01X1790306Y-1084552D01*
G01X1795434Y-1097526D01*
G01X1803162Y-1109140D01*
G01X1813149Y-1118881D01*
G01X1824953Y-1126316D01*
G01X1838051Y-1131118D01*
G01X1851864Y-1133073D01*
G01X1892678Y-1173888D01*
G01X1892678Y-1377914D01*
G01X1894431Y-1388982D01*
G01X1899518Y-1398965D01*
G01X1907442Y-1406889D01*
G01X1917425Y-1411976D01*
G01X1928492Y-1413728D01*
G01X2008492Y-1413728D01*
G01X2019559Y-1411976D01*
G01X2029543Y-1406889D01*
G01X2037466Y-1398965D01*
G01X2042553Y-1388982D01*
G01X2044306Y-1377914D01*
G01X2044306Y-1299661D01*
G01X2092124Y-1347479D01*
G01X2079525Y-1355401D01*
G01X2069009Y-1365934D01*
G01X2061108Y-1378547D01*
G01X2056218Y-1392604D01*
G01X2054586Y-1407397D01*
G01X2056295Y-1422182D01*
G01X2061258Y-1436213D01*
G01X2069225Y-1448784D01*
G01X2079795Y-1459262D01*
G01X2069170Y-1469808D01*
G01X2061181Y-1482469D01*
G01X2056236Y-1496599D01*
G01X2054586Y-1511479D01*
G01X2056316Y-1526349D01*
G01X2061337Y-1540452D01*
G01X2069394Y-1553070D01*
G01X2080076Y-1563558D01*
G01X2092838Y-1571384D01*
G01X2107030Y-1576147D01*
G01X2121930Y-1577606D01*
G01X2136776Y-1575686D01*
G01X2150814Y-1570484D01*
G01X2163327Y-1562266D01*
G01X2165483Y-1560680D01*
G01X2167056Y-1559814D01*
G01X2552700Y-1559814D01*
G01X2565256Y-1558161D01*
G01X2576957Y-1553314D01*
G01X2587005Y-1545605D01*
G01X2592468Y-1540141D01*
G01X2594191Y-1539642D01*
G01X2596837Y-1539239D01*
G01X2612675Y-1535802D01*
G01X2627207Y-1528627D01*
G01X2639564Y-1518141D01*
G01X2649008Y-1504971D01*
G01X2654976Y-1489903D01*
G01X2666124Y-1509409D01*
G01X2680336Y-1526810D01*
G01X2697221Y-1541630D01*
G01X2716319Y-1553463D01*
G01X2737106Y-1561986D01*
G01X2759014Y-1566966D01*
G01X2781443Y-1568266D01*
G01X2803779Y-1565851D01*
G01X2825412Y-1559786D01*
G01X2845749Y-1550238D01*
G01X2864234Y-1537468D01*
G01X2880360Y-1521826D01*
G01X2893687Y-1503739D01*
G01X2903850Y-1483702D01*
G01X2903846Y-1596588D01*
G01X2902237Y-1610870D01*
G01X2897490Y-1624435D01*
G01X2889843Y-1636604D01*
G01X2879681Y-1646767D01*
G01X2867512Y-1654414D01*
G01X2853947Y-1659162D01*
G01X2839665Y-1660772D01*
G01X1136725Y-1660915D01*
G01X1122441Y-1659307D01*
G01X1108874Y-1654561D01*
G01X1096702Y-1646914D01*
G01X1086538Y-1636751D01*
G01X1078890Y-1624580D01*
G01X1074143Y-1611013D01*
G01X1072533Y-1596730D01*
G01X1072471Y-1056765D01*
G37*
G36*
G01X1088409Y-575300D02*
G01X1102373Y-574597D01*
G01X1115847Y-570870D01*
G01X1128187Y-564297D01*
G01X1138800Y-555196D01*
G01X1134368Y-562074D01*
G01X1131613Y-569778D01*
G01X1130678Y-577906D01*
G01X1130678Y-897905D01*
G01X1132431Y-908972D01*
G01X1137518Y-918956D01*
G01X1145442Y-926879D01*
G01X1155425Y-931966D01*
G01X1166492Y-933719D01*
G01X1208938Y-933719D01*
G01X1198794Y-941490D01*
G01X1115314Y-941490D01*
G01X1115314Y-622300D01*
G01X1113661Y-609744D01*
G01X1108814Y-598043D01*
G01X1101105Y-587995D01*
G01X1088409Y-575300D01*
G37*
G36*
G01X1155700Y-517919D02*
G01X1158237Y-530459D01*
G01X1163225Y-542241D01*
G01X1154965Y-543998D01*
G01X1147347Y-547639D01*
G01X1140793Y-552963D01*
G01X1148104Y-542372D01*
G01X1153141Y-530530D01*
G01X1155700Y-517919D01*
G37*
G36*
G01X1282306Y-897905D02*
G01X1282306Y-577906D01*
G01X1280824Y-567709D01*
G01X1276500Y-558356D01*
G01X1269692Y-550622D01*
G01X1276045Y-540597D01*
G01X1280431Y-529568D01*
G01X1282700Y-517919D01*
G01X1285793Y-532170D01*
G01X1292041Y-545347D01*
G01X1301117Y-556762D01*
G01X1312547Y-565818D01*
G01X1325735Y-572042D01*
G01X1339992Y-575110D01*
G01X1354573Y-574861D01*
G01X1368717Y-571308D01*
G01X1381685Y-564637D01*
G01X1392800Y-555196D01*
G01X1388368Y-562074D01*
G01X1385613Y-569778D01*
G01X1384678Y-577906D01*
G01X1384678Y-796791D01*
G01X1293935Y-887535D01*
G01X1287376Y-895046D01*
G01X1281887Y-903371D01*
G01X1282306Y-897905D01*
G37*
G36*
G01X1270295Y-1404674D02*
G01X1277338Y-1396112D01*
G01X1281426Y-1385807D01*
G01X1286510Y-1400491D01*
G01X1278155Y-1401621D01*
G01X1270295Y-1404674D01*
G37*
G36*
G01X1409700Y-517919D02*
G01X1412237Y-530459D01*
G01X1417225Y-542241D01*
G01X1408965Y-543998D01*
G01X1401347Y-547639D01*
G01X1394793Y-552963D01*
G01X1402104Y-542372D01*
G01X1407141Y-530530D01*
G01X1409700Y-517919D01*
G37*
G36*
G01X2379500Y-886714D02*
G01X2903844Y-886714D01*
G01X2903863Y-1121682D01*
G01X2903854Y-1381295D01*
G01X2893259Y-1360559D01*
G01X2879277Y-1341937D01*
G01X2862319Y-1325977D01*
G01X2842884Y-1313149D01*
G01X2821544Y-1303830D01*
G01X2798925Y-1298293D01*
G01X2775693Y-1296701D01*
G01X2752530Y-1299101D01*
G01X2730118Y-1305423D01*
G01X2709116Y-1315481D01*
G01X2690140Y-1328978D01*
G01X2673749Y-1345519D01*
G01X2660424Y-1364617D01*
G01X2650558Y-1385710D01*
G01X2644440Y-1408179D01*
G01X2642251Y-1431362D01*
G01X2631967Y-1421211D01*
G01X2619728Y-1413528D01*
G01X2606115Y-1408679D01*
G01X2591776Y-1406893D01*
G01X2586352Y-1392228D01*
G01X2577646Y-1379240D01*
G01X2566141Y-1368651D01*
G01X2552476Y-1361051D01*
G01X2537412Y-1356861D01*
G01X2521785Y-1356316D01*
G01X2506465Y-1359444D01*
G01X2536205Y-1329705D01*
G01X2543914Y-1319657D01*
G01X2548761Y-1307956D01*
G01X2550414Y-1295400D01*
G01X2550414Y-1193800D01*
G01X2548944Y-1181948D01*
G01X2544624Y-1170815D01*
G01X2537714Y-1161074D01*
G01X2537714Y-1003300D01*
G01X2536319Y-998093D01*
G01X2532507Y-994281D01*
G01X2527300Y-992886D01*
G01X2184400Y-992886D01*
G01X2179193Y-994281D01*
G01X2175381Y-998093D01*
G01X2173986Y-1003300D01*
G01X2173986Y-1241777D01*
G01X2169414Y-1237205D01*
G01X2169414Y-58856D01*
G01X2170280Y-57283D01*
G01X2171866Y-55127D01*
G01X2179755Y-43255D01*
G01X2184925Y-29971D01*
G01X2187137Y-15890D01*
G01X2186289Y-1660D01*
G01X2182419Y12059D01*
G01X2175706Y24634D01*
G01X2166462Y35484D01*
G01X2155112Y44108D01*
G01X2142181Y50107D01*
G01X2128267Y53204D01*
G01X2114012Y53255D01*
G01X2100076Y50260D01*
G01X2087102Y44355D01*
G01X2075690Y35814D01*
G01X1978567Y35814D01*
G01X1966010Y34161D01*
G01X1954310Y29314D01*
G01X1944262Y21605D01*
G01X1928114Y5456D01*
G01X1928114Y122149D01*
G01X1926968Y135113D01*
G01X1923566Y147675D01*
G01X1918014Y159446D01*
G01X1918014Y181399D01*
G01X1916274Y196198D01*
G01X1911150Y210189D01*
G01X1902921Y222611D01*
G01X1892036Y232786D01*
G01X1879088Y240159D01*
G01X1864783Y244329D01*
G01X1849901Y245068D01*
G01X1835253Y242335D01*
G01X1821639Y236280D01*
G01X1809799Y227233D01*
G01X1800381Y215688D01*
G01X1793897Y202272D01*
G01X1790700Y187719D01*
G01X1787265Y202948D01*
G01X1780235Y216888D01*
G01X1770031Y228704D01*
G01X1757262Y237688D01*
G01X1742695Y243303D01*
G01X1727200Y245213D01*
G01X1711705Y243303D01*
G01X1697138Y237688D01*
G01X1684369Y228704D01*
G01X1674165Y216888D01*
G01X1667135Y202948D01*
G01X1663700Y187719D01*
G01X1661129Y200369D01*
G01X1656064Y212243D01*
G01X1648714Y222855D01*
G01X1648714Y246605D01*
G01X1698005Y295895D01*
G01X1705969Y306390D01*
G01X1710817Y318641D01*
G01X1721075Y321350D01*
G01X1730089Y326946D01*
G01X1737068Y334938D01*
G01X1741399Y344624D01*
G01X1745000Y345186D01*
G01X1765300Y345186D01*
G01X1777856Y346839D01*
G01X1789557Y351686D01*
G01X1799605Y359395D01*
G01X1839295Y399086D01*
G01X1867501Y399086D01*
G01X1878568Y400839D01*
G01X1888552Y405926D01*
G01X1896475Y413849D01*
G01X1901562Y423833D01*
G01X1903315Y434900D01*
G01X1903315Y504900D01*
G01X1901562Y515967D01*
G01X1896475Y525951D01*
G01X1888552Y533874D01*
G01X1878568Y538961D01*
G01X1867501Y540714D01*
G01X1742714Y540714D01*
G01X1742714Y585560D01*
G01X1740961Y596627D01*
G01X1735874Y606611D01*
G01X1727951Y614534D01*
G01X1717967Y619621D01*
G01X1706900Y621374D01*
G01X1620500Y621374D01*
G01X1613172Y620616D01*
G01X1606154Y618375D01*
G01X1604205Y617565D01*
G01X1601871Y618734D01*
G01X1593651Y621924D01*
G01X1584900Y623010D01*
G01X1483614Y623010D01*
G01X1483614Y627605D01*
G01X1493295Y637286D01*
G01X1763940Y637286D01*
G01X1766672Y636966D01*
G01X1769645Y627328D01*
G01X1775188Y618901D01*
G01X1782860Y612354D01*
G01X1792054Y608206D01*
G01X1802040Y606786D01*
G01X1882687Y606786D01*
G01X1892301Y608100D01*
G01X1901209Y611947D01*
G01X1908758Y618044D01*
G01X1914393Y625944D01*
G01X1917700Y635066D01*
G01X1920086Y627830D01*
G01X1912868Y620012D01*
G01X1908266Y610418D01*
G01X1906685Y599896D01*
G01X1906685Y529896D01*
G01X1908438Y518829D01*
G01X1913525Y508845D01*
G01X1921448Y500922D01*
G01X1931432Y495835D01*
G01X1942499Y494082D01*
G01X2067500Y494082D01*
G01X2079306Y496084D01*
G01X2089792Y501865D01*
G01X2097786Y510780D01*
G01X2097786Y439195D01*
G01X2093317Y434726D01*
G01X2085812Y440683D01*
G01X2076996Y444436D01*
G01X2067500Y445718D01*
G01X1942499Y445718D01*
G01X1931432Y443965D01*
G01X1921448Y438878D01*
G01X1913525Y430955D01*
G01X1908438Y420971D01*
G01X1906685Y409904D01*
G01X1906685Y339904D01*
G01X1908438Y328837D01*
G01X1913525Y318853D01*
G01X1921448Y310930D01*
G01X1931432Y305843D01*
G01X1942499Y304090D01*
G01X2067500Y304090D01*
G01X2077885Y305629D01*
G01X2087378Y310113D01*
G01X2095163Y317157D01*
G01X2100570Y326156D01*
G01X2102104Y326390D01*
G01X2114660Y328043D01*
G01X2126361Y332890D01*
G01X2136409Y340599D01*
G01X2180605Y384795D01*
G01X2188314Y394843D01*
G01X2193161Y406544D01*
G01X2194814Y419100D01*
G01X2194814Y731339D01*
G01X2196638Y754515D01*
G01X2202065Y777120D01*
G01X2210961Y798598D01*
G01X2223108Y818419D01*
G01X2238206Y836097D01*
G01X2244105Y841995D01*
G01X2251814Y852043D01*
G01X2256661Y863744D01*
G01X2258314Y876300D01*
G01X2258314Y1040301D01*
G01X2272818Y1038588D01*
G01X2287346Y1040091D01*
G01X2301193Y1044737D01*
G01X2313686Y1052302D01*
G01X2313686Y-820900D01*
G01X2315336Y-835545D01*
G01X2320204Y-849456D01*
G01X2328045Y-861934D01*
G01X2338466Y-872355D01*
G01X2350944Y-880196D01*
G01X2364855Y-885064D01*
G01X2379500Y-886714D01*
G37*
G36*
G01X1679219Y1596095D02*
G01X1679219Y1660657D01*
G01X1927570Y1660631D01*
G01X1927573Y1596091D01*
G01X1928145Y1589719D01*
G01X1914204Y1597051D01*
G01X1898987Y1601121D01*
G01X1883247Y1601726D01*
G01X1867762Y1598836D01*
G01X1853299Y1592595D01*
G01X1840574Y1583312D01*
G01X1830216Y1571445D01*
G01X1822737Y1557582D01*
G01X1818507Y1542408D01*
G01X1817737Y1526675D01*
G01X1820463Y1511161D01*
G01X1826552Y1496634D01*
G01X1835701Y1483812D01*
G01X1847458Y1473329D01*
G01X1861242Y1465705D01*
G01X1876370Y1461316D01*
G01X1892094Y1460380D01*
G01X1907636Y1462943D01*
G01X1907588Y1461102D01*
G01X1907588Y1341102D01*
G01X1909164Y1330595D01*
G01X1913754Y1321012D01*
G01X1920952Y1313198D01*
G01X1919212Y1306955D01*
G01X1918626Y1300500D01*
G01X1918626Y1214100D01*
G01X1920379Y1203033D01*
G01X1925466Y1193049D01*
G01X1933389Y1185126D01*
G01X1943373Y1180039D01*
G01X1954440Y1178286D01*
G01X2035087Y1178286D01*
G01X2044701Y1179600D01*
G01X2053609Y1183447D01*
G01X2061158Y1189544D01*
G01X2066793Y1197444D01*
G01X2070100Y1206566D01*
G01X2073407Y1197444D01*
G01X2079042Y1189544D01*
G01X2086591Y1183447D01*
G01X2095499Y1179600D01*
G01X2105113Y1178286D01*
G01X2143735Y1178286D01*
G01X2152721Y1176978D01*
G01X2160962Y1173165D01*
G01X2161286Y1172841D01*
G01X2161286Y897008D01*
G01X2144427Y884507D01*
G01X2125971Y874515D01*
G01X2106289Y867231D01*
G01X2085774Y862801D01*
G01X2064839Y861314D01*
G01X1951156Y861314D01*
G01X1949583Y862180D01*
G01X1947427Y863766D01*
G01X1934607Y872138D01*
G01X1920209Y877346D01*
G01X1905000Y879114D01*
G01X1889791Y877346D01*
G01X1875393Y872138D01*
G01X1862573Y863766D01*
G01X1860417Y862180D01*
G01X1858844Y861314D01*
G01X1696495Y861314D01*
G01X1680312Y877498D01*
G01X1680312Y1174200D01*
G01X1680824Y1177642D01*
G01X1688996Y1180886D01*
G01X1696131Y1186022D01*
G01X1701800Y1192743D01*
G01X1709786Y1184053D01*
G01X1720162Y1178431D01*
G01X1731802Y1176486D01*
G01X1811802Y1176486D01*
G01X1822869Y1178239D01*
G01X1832853Y1183326D01*
G01X1840776Y1191249D01*
G01X1845863Y1201233D01*
G01X1847616Y1212300D01*
G01X1847616Y1302300D01*
G01X1845863Y1313367D01*
G01X1840776Y1323351D01*
G01X1832853Y1331274D01*
G01X1822869Y1336361D01*
G01X1811802Y1338114D01*
G01X1731802Y1338114D01*
G01X1720162Y1336169D01*
G01X1709786Y1330547D01*
G01X1701800Y1321857D01*
G01X1696732Y1328008D01*
G01X1698586Y1334439D01*
G01X1699212Y1341102D01*
G01X1699212Y1461102D01*
G01X1699164Y1462950D01*
G01X1714709Y1460381D01*
G01X1730437Y1461313D01*
G01X1745570Y1465699D01*
G01X1759359Y1473323D01*
G01X1771120Y1483807D01*
G01X1780273Y1496632D01*
G01X1786363Y1511163D01*
G01X1789089Y1526681D01*
G01X1788316Y1542418D01*
G01X1784083Y1557594D01*
G01X1776600Y1571459D01*
G01X1766235Y1583327D01*
G01X1753504Y1592608D01*
G01X1739035Y1598845D01*
G01X1723545Y1601728D01*
G01X1707801Y1601115D01*
G01X1692582Y1597036D01*
G01X1678642Y1589693D01*
G01X1679219Y1596095D01*
G37*
G36*
G01X1790306Y-897905D02*
G01X1790306Y-756101D01*
G01X1825005Y-721403D01*
G01X1832714Y-711355D01*
G01X1837561Y-699654D01*
G01X1839214Y-687098D01*
G01X1839214Y-573628D01*
G01X1852547Y-575391D01*
G01X1865953Y-574321D01*
G01X1878838Y-570465D01*
G01X1890628Y-563994D01*
G01X1900800Y-555196D01*
G01X1896368Y-562074D01*
G01X1893613Y-569778D01*
G01X1892678Y-577906D01*
G01X1892678Y-897905D01*
G01X1893198Y-903986D01*
G01X1789786Y-903986D01*
G01X1790306Y-897905D01*
G37*
G36*
G01X1998662Y-61214D02*
G01X2012889Y-61214D01*
G01X2000581Y-69892D01*
G01X1990548Y-81122D01*
G01X1983309Y-94327D01*
G01X1979235Y-108825D01*
G01X1978537Y-123868D01*
G01X1981251Y-138680D01*
G01X1987237Y-152498D01*
G01X1996186Y-164610D01*
G01X1996186Y-320745D01*
G01X1981543Y-315983D01*
G01X1966196Y-314726D01*
G01X1950974Y-317042D01*
G01X1936695Y-322806D01*
G01X1924132Y-331708D01*
G01X1913959Y-343268D01*
G01X1906727Y-356862D01*
G01X1896571Y-345381D01*
G01X1883969Y-336653D01*
G01X1869650Y-331183D01*
G01X1854439Y-329285D01*
G01X1839214Y-331069D01*
G01X1839214Y-220662D01*
G01X1998662Y-61214D01*
G37*
G36*
G01X1918014Y-511599D02*
G01X1918014Y-424005D01*
G01X1928404Y-433825D01*
G01X1940657Y-441189D01*
G01X1954203Y-445756D01*
G01X1968414Y-447314D01*
G01X1982629Y-445790D01*
G01X1996186Y-441255D01*
G01X1996186Y-542092D01*
G01X1928492Y-542092D01*
G01X1919051Y-543359D01*
G01X1910278Y-547070D01*
G01X1902793Y-552963D01*
G01X1911090Y-540507D01*
G01X1916259Y-526462D01*
G01X1918014Y-511599D01*
G37*
G36*
G01X1952077Y1562111D02*
G01X1963387Y1560279D01*
G01X1967573Y1560279D01*
G01X1967573Y1531092D01*
G01X1969355Y1519935D01*
G01X1974524Y1509889D01*
G01X1982565Y1501952D01*
G01X1992679Y1496916D01*
G01X1950432Y1496916D01*
G01X1956767Y1512587D01*
G01X1959206Y1529313D01*
G01X1957613Y1546141D01*
G01X1952077Y1562111D01*
G37*
G36*
G01X2104197Y1531092D02*
G01X2104197Y1660612D01*
G01X2389866Y1660582D01*
G01X2434645Y1658642D01*
G01X2479083Y1652805D01*
G01X2522843Y1643116D01*
G01X2565592Y1629648D01*
G01X2607004Y1612504D01*
G01X2646763Y1591814D01*
G01X2684567Y1567736D01*
G01X2720127Y1540454D01*
G01X2753173Y1510175D01*
G01X2783453Y1477130D01*
G01X2810737Y1441571D01*
G01X2834816Y1403768D01*
G01X2855507Y1364010D01*
G01X2872653Y1322599D01*
G01X2886122Y1279850D01*
G01X2895813Y1236090D01*
G01X2901652Y1191652D01*
G01X2903593Y1146874D01*
G01X2903593Y1144027D01*
G01X2903599Y1128014D01*
G01X2379500Y1128014D01*
G01X2365067Y1126412D01*
G01X2351337Y1121684D01*
G01X2338978Y1114060D01*
G01X2336347Y1125457D01*
G01X2331755Y1136214D01*
G01X2325344Y1145997D01*
G01X2333758Y1159846D01*
G01X2338561Y1175322D01*
G01X2339467Y1191501D01*
G01X2336423Y1207417D01*
G01X2329609Y1222119D01*
G01X2337129Y1232729D01*
G01X2342673Y1244493D01*
G01X2346070Y1257046D01*
G01X2347214Y1270000D01*
G01X2347214Y1371600D01*
G01X2347151Y1372239D01*
G01X2441315Y1372239D01*
G01X2443167Y1349885D01*
G01X2448674Y1328140D01*
G01X2457684Y1307599D01*
G01X2469953Y1288820D01*
G01X2485145Y1272317D01*
G01X2502846Y1258540D01*
G01X2522573Y1247864D01*
G01X2543789Y1240581D01*
G01X2565914Y1236889D01*
G01X2588345Y1236889D01*
G01X2610470Y1240581D01*
G01X2631685Y1247864D01*
G01X2651412Y1258540D01*
G01X2669114Y1272317D01*
G01X2684306Y1288820D01*
G01X2696574Y1307599D01*
G01X2705584Y1328140D01*
G01X2711091Y1349885D01*
G01X2712943Y1372239D01*
G01X2711091Y1394593D01*
G01X2705584Y1416338D01*
G01X2696574Y1436879D01*
G01X2684306Y1455658D01*
G01X2669114Y1472161D01*
G01X2651412Y1485938D01*
G01X2631685Y1496614D01*
G01X2610470Y1503897D01*
G01X2588345Y1507589D01*
G01X2565914Y1507589D01*
G01X2543789Y1503897D01*
G01X2522573Y1496614D01*
G01X2502846Y1485938D01*
G01X2485145Y1472161D01*
G01X2469953Y1455658D01*
G01X2457684Y1436879D01*
G01X2448674Y1416338D01*
G01X2443167Y1394593D01*
G01X2441315Y1372239D01*
G01X2441315Y1372239D01*
G01X2347151Y1372239D01*
G01X2345794Y1386020D01*
G01X2341588Y1399886D01*
G01X2334757Y1412664D01*
G01X2325565Y1423865D01*
G01X2300165Y1449265D01*
G01X2288964Y1458457D01*
G01X2276186Y1465288D01*
G01X2262320Y1469494D01*
G01X2247900Y1470914D01*
G01X2134464Y1470914D01*
G01X2117303Y1468894D01*
G01X2101079Y1462945D01*
G01X2086681Y1453392D01*
G01X2074894Y1440757D01*
G01X2066362Y1425731D01*
G01X2061552Y1409134D01*
G01X2039216Y1380552D01*
G01X2039216Y1461102D01*
G01X2037434Y1472259D01*
G01X2032265Y1482305D01*
G01X2024224Y1490241D01*
G01X2014110Y1495278D01*
G01X2068383Y1495278D01*
G01X2079450Y1497031D01*
G01X2089434Y1502118D01*
G01X2097357Y1510041D01*
G01X2102444Y1520025D01*
G01X2104197Y1531092D01*
G37*
G54D10*
G01X-2673983Y-1349265D02*
G03X-2891342Y-1359837I-104731J-86469D01*
G02X-2760514Y-773583I2887808J-336718D01*
G01X-2760514Y-808198D01*
G03X-2744257Y-838200I35814J0D01*
G03X-2760514Y-868202I19557J-30002D01*
G01X-2760514Y-948202D01*
G03X-2724700Y-984016I35814J0D01*
G01X-2634700Y-984016D01*
G03X-2627244Y-983232I0J35814D01*
G03X-2618560Y-987748I26612J40563D01*
G01X-2618612Y-988301D01*
G03X-2634700Y-984484I-16088J-31997D01*
G01X-2724700Y-984484D01*
G03X-2760514Y-1020298I0J-35814D01*
G01X-2760514Y-1100298D01*
G03X-2744257Y-1130300I35814J0D01*
G03X-2760514Y-1160302I19557J-30002D01*
G01X-2760514Y-1240302D01*
G03X-2724700Y-1276116I35814J0D01*
G01X-2639314Y-1276116D01*
G01X-2639314Y-1397000D01*
G03X-2625105Y-1431305I48514J0D01*
G01X-2571226Y-1485184D01*
G02X-2537200Y-1532705I-126565J-126565D01*
G03X-2527956Y-1560705I73400J8705D01*
G01X-2725510Y-1560693D01*
G03X-2673983Y-1349265I-53205J124959D01*
G01X-2724700Y-692384D02*
G03X-2732286Y-693196I0J-35814D01*
G02X-1671184Y684990I2728752J-1003359D01*
G01X-1586776Y744100D01*
G01X-1586776Y674947D01*
G03X-1550962Y639133I35814J0D01*
G01X-1470962Y639133D01*
G03X-1436305Y665920I0J35814D01*
G01X-1434481Y666321D01*
G02X-1422485Y661004I-2171J-21087D01*
G03X-1398552Y651833I23933J26643D01*
G01X-1318552Y651833D01*
G03X-1283894Y678620I0J35814D01*
G02X-1280452Y679133I3442J-11298D01*
G01X-1271562Y679133D01*
G01X-1269276Y678909D01*
G01X-1269276Y674947D01*
G03X-1233462Y639133I35814J0D01*
G01X-1153462Y639133D01*
G03X-1118805Y665920I0J35814D01*
G02X-1115362Y666433I3442J-11298D01*
G01X-1106452Y666433D01*
G02X-1092285Y661004I0J-21199D01*
G03X-1068352Y651833I23933J26643D01*
G01X-988352Y651833D01*
G03X-953694Y678620I0J35814D01*
G02X-950252Y679133I3442J-11298D01*
G01X-947730Y679133D01*
G02X-924603Y674066I0J-55319D01*
G01X-922294Y673100D01*
G03X-945444Y639600I12664J-33500D01*
G01X-945444Y616268D01*
G01X-950938Y616268D01*
G02X-954380Y616780I0J11811D01*
G03X-989038Y643567I-34658J-9027D01*
G01X-1069038Y643567D01*
G03X-1104852Y607753I0J-35814D01*
G01X-1104852Y603791D01*
G01X-1107138Y603568D01*
G01X-1116048Y603568D01*
G02X-1119490Y604080I0J11811D01*
G03X-1154148Y630867I-34658J-9027D01*
G01X-1234148Y630867D01*
G03X-1269962Y595053I0J-35814D01*
G01X-1269962Y515054D01*
G03X-1261928Y492451I35814J0D01*
G03X-1294853Y473377I19340J-71339D01*
G01X-1297846Y470384D01*
G03X-1307934Y486927I-61054J-25884D01*
G01X-1309520Y489083D01*
G01X-1310349Y490588D01*
G02X-1309843Y493194I11774J-935D01*
G03X-1283424Y527754I-9395J34560D01*
G01X-1283424Y607753D01*
G03X-1319238Y643567I-35814J0D01*
G01X-1399238Y643567D01*
G03X-1435052Y607753I0J-35814D01*
G01X-1435052Y603791D01*
G01X-1435443Y603720D01*
G01X-1436990Y604080D01*
G03X-1471648Y630867I-34658J-9027D01*
G01X-1551648Y630867D01*
G03X-1587462Y595053I0J-35814D01*
G01X-1587462Y515054D01*
G03X-1551648Y479240I35814J0D01*
G01X-1471648Y479240D01*
G03X-1436990Y506027I0J35814D01*
G01X-1435167Y506428D01*
G02X-1423171Y501111I-2171J-21087D01*
G03X-1407899Y493003I23933J26643D01*
G01X-1407451Y490588D01*
G01X-1408280Y489083D01*
G01X-1409866Y486927D01*
G03X-1384784Y383446I50966J-42427D01*
G01X-1392276Y375954D01*
G03X-1413925Y323689I52265J-52265D01*
G01X-1413925Y247811D01*
G03X-1266097Y247811I73914J0D01*
G01X-1266097Y293073D01*
G01X-1262993Y296176D01*
G01X-1262993Y241107D01*
G03X-1227179Y205293I35814J0D01*
G01X-1137180Y205293D01*
G03X-1107243Y221449I0J35814D01*
G03X-1093639Y198778I35343J5791D01*
G03X-1104382Y188141I19260J-30194D01*
G03X-1134384Y204398I-30002J-19557D01*
G01X-1214384Y204398D01*
G03X-1250198Y168584I0J-35814D01*
G01X-1250198Y78584D01*
G03X-1214384Y42770I35814J0D01*
G01X-1134384Y42770D01*
G03X-1104382Y59026I0J35814D01*
G03X-1074379Y42770I30002J19557D01*
G01X-1026016Y42770D01*
G03X-1033314Y21102I28516J-21667D01*
G01X-1033314Y-58898D01*
G03X-1017057Y-88900I35814J0D01*
G03X-1033314Y-118902I19557J-30002D01*
G01X-1033314Y-198902D01*
G03X-997500Y-234716I35814J0D01*
G01X-907500Y-234716D01*
G03X-878887Y-220441I0J35814D01*
G01X-878887Y-252684D01*
G03X-843073Y-288498I35814J0D01*
G01X-764480Y-288498D01*
G03X-814015Y-369388I41279J-80890D01*
G01X-814015Y-419073D01*
G03X-937006Y-474764I-52671J-47335D01*
G03X-804389Y-500080I70320J8357D01*
G03X-639886Y-495523I81187J40692D01*
G01X-613244Y-522165D01*
G03X-578939Y-536375I34305J34305D01*
G01X-564893Y-536375D01*
G01X-562607Y-536598D01*
G01X-562607Y-577200D01*
G03X-526793Y-613014I35814J0D01*
G01X-386794Y-613014D01*
G03X-353103Y-589347I0J35814D01*
G03X-230886Y-533400I48303J55947D01*
G01X-230886Y-447323D01*
G01X-186744Y-491465D01*
G03X-157020Y-505494I34344J34265D01*
G01X-157020Y-577200D01*
G03X-121206Y-613014I35814J0D01*
G01X18793Y-613014D01*
G03X54607Y-577200I0J35814D01*
G01X54607Y-337200D01*
G03X18793Y-301386I-35814J0D01*
G01X11763Y-301386D01*
G03X-50800Y-213086I-62563J21986D01*
G03X-113363Y-301386I0J-66314D01*
G01X-121206Y-301386D01*
G03X-157020Y-337200I0J-35814D01*
G01X-157020Y-383971D01*
G01X-195286Y-345705D01*
G01X-195286Y-291433D01*
G03X-209496Y-257128I-48514J0D01*
G01X-230214Y-236409D01*
G01X-215181Y-236409D01*
G03X-179367Y-200595I0J35814D01*
G01X-179367Y-110595D01*
G03X-215181Y-74781I-35814J0D01*
G01X-295181Y-74781D01*
G03X-320119Y-84890I0J-35814D01*
G01X-320406Y-73045D01*
G01X-320119Y-61201D01*
G03X-295181Y-71309I24938J25705D01*
G01X-215181Y-71309D01*
G03X-193980Y-64359I0J35814D01*
G03X-109973Y-63666I41580J51659D01*
G01X-107817Y-62080D01*
G01X-106244Y-61214D01*
G01X-27473Y-61214D01*
G03X10105Y-131216I65573J-9886D01*
G03X87868Y-114926I27995J60115D01*
G01X88301Y-114514D01*
G01X503105Y-114514D01*
G01X549895Y-161305D01*
G03X575565Y-174739I34305J34305D01*
G01X576686Y-175450D01*
G01X579403Y-177571D01*
G03X649986Y-187258I42897J50571D01*
G01X649986Y-246605D01*
G01X308595Y-587995D01*
G03X294386Y-622300I34305J-34305D01*
G01X294386Y-715844D01*
G01X293520Y-717417D01*
G01X291934Y-719573D01*
G03X342900Y-828314I50966J-42427D01*
G03X393866Y-719573I0J66314D01*
G01X392280Y-717417D01*
G01X391414Y-715844D01*
G01X391414Y-642395D01*
G01X732805Y-301005D01*
G03X747014Y-266700I-34305J34305D01*
G01X747014Y322805D01*
G01X782095Y357886D01*
G01X1168400Y357886D01*
G03X1202705Y372095I0J48514D01*
G01X1231280Y400670D01*
G03X1259900Y386386I28620J21530D01*
G01X1383485Y386386D01*
G01X1383485Y371401D01*
G03X1397695Y337096I48514J0D01*
G01X1418756Y316035D01*
G03X1429831Y307749I34305J34305D01*
G03X1445156Y294565I30069J19455D01*
G01X1438895Y288305D01*
G03X1424686Y254000I34305J-34305D01*
G01X1424686Y222855D01*
G03X1409700Y187719I48514J-41456D01*
G03X1282700Y187719I-63500J-6320D01*
G03X1155700Y187719I-63500J-6320D01*
G03X1028700Y187719I-63500J-6320D01*
G03X901386Y181399I-63500J-6320D01*
G01X901386Y62898D01*
G03X1028700Y56578I63814J0D01*
G03X1155700Y56578I63500J6320D01*
G03X1282700Y56578I63500J6320D01*
G03X1409700Y56578I63500J6320D01*
G03X1536700Y56578I63500J6320D01*
G03X1663700Y56578I63500J6320D01*
G03X1780286Y27485I63500J6320D01*
G01X1780286Y-20184D01*
G01X1734684Y-65786D01*
G01X1536700Y-65786D01*
G03X1484435Y-87435I0J-73914D01*
G01X1418825Y-153045D01*
G03X1397176Y-205310I52265J-52265D01*
G01X1397176Y-354710D01*
G03X1394714Y-351642I-50976J-38388D01*
G01X1394714Y-254000D01*
G03X1380505Y-219695I-48514J0D01*
G01X1355105Y-194295D01*
G03X1320800Y-180086I-34305J-34305D01*
G01X1307610Y-180086D01*
G03X1204565Y-196155I-45210J-48514D01*
G01X1203721Y-195312D01*
G03X1169417Y-181103I-34305J-34305D01*
G01X1091490Y-181103D01*
G03X979966Y-229617I-45210J-48514D01*
G03X1091490Y-278131I66314J0D01*
G01X1149322Y-278131D01*
G01X1170686Y-299495D01*
G01X1170686Y-351642D01*
G03X1155700Y-386778I48514J-41456D01*
G03X1028700Y-386778I-63500J-6320D01*
G03X901386Y-393098I-63500J-6320D01*
G01X901386Y-510114D01*
G03X811070Y-583444I-25086J-61386D01*
G03X921510Y-620014I65230J11944D01*
G01X995905Y-620014D01*
G01X1018286Y-642395D01*
G01X1018286Y-948223D01*
G03X936656Y-920955I-81629J-108546D01*
G01X-645857Y-920955D01*
G03X-629294Y-883419I-77344J56552D01*
G03X-533872Y-905505I57794J32519D01*
G03X-520534Y-808473I-37628J54605D01*
G01X-522120Y-806317D01*
G01X-522986Y-804744D01*
G01X-522986Y-761092D01*
G03X-537195Y-726787I-48514J0D01*
G01X-602741Y-661241D01*
G03X-637046Y-647032I-34305J-34305D01*
G01X-757696Y-647032D01*
G03X-792001Y-661241I0J-48514D01*
G01X-890498Y-759738D01*
G03X-925378Y-723722I-61542J-24701D01*
G01X-929193Y-721913D01*
G01X-932800Y-719914D01*
G01X-935262Y-718328D01*
G01X-994395Y-659195D01*
G03X-1028700Y-644986I-34305J-34305D01*
G01X-1622297Y-644986D01*
G01X-1666587Y-600695D01*
G03X-1700892Y-586486I-34305J-34305D01*
G01X-1746484Y-586486D01*
G01X-1746484Y-501100D01*
G03X-1782298Y-465286I-35814J0D01*
G01X-1862298Y-465286D01*
G03X-1892300Y-481543I0J-35814D01*
G03X-1922302Y-465286I-30002J-19557D01*
G01X-2002302Y-465286D01*
G03X-2038116Y-501100I0J-35814D01*
G01X-2038116Y-547701D01*
G02X-2043237Y-564928I-31538J0D01*
G01X-2109394Y-631085D01*
G03X-2123603Y-665389I34305J-34305D01*
G01X-2123603Y-792854D01*
G01X-2168968Y-792854D01*
G01X-2168968Y-741663D01*
G03X-2243383Y-698346I-49814J0D01*
G03X-2292989Y-698579I-24600J-43317D01*
G03X-2342989Y-698572I-25006J-43083D01*
G03X-2392989Y-698579I-24994J-43091D01*
G03X-2411382Y-692289I-25006J-43083D01*
G01X-2411382Y-477780D01*
G01X-2411224Y-472214D01*
G03X-2409523Y-393700I-52576J40414D01*
G03X-2409523Y-317500I-54277J38100D01*
G03X-2463800Y-213086I-54277J38100D01*
G03X-2518077Y-317500I0J-66314D01*
G03X-2518077Y-393700I54277J-38100D01*
G03X-2527612Y-413756I54277J-38100D01*
G03X-2533810Y-440596I55016J-26840D01*
G01X-2533810Y-767662D01*
G03X-2528386Y-792854I61214J0D01*
G01X-2568988Y-792854D01*
G03X-2598886Y-802824I0J-49814D01*
G01X-2598886Y-728198D01*
G03X-2634700Y-692384I-35814J0D01*
G01X-2724700Y-692384D01*
G01X-2314214Y-266700D02*
G03X-2181586Y-266700I66314J0D01*
G03X-2314214Y-266700I-66314J0D01*
G01X-2138533Y-619393D02*
G03X-2181586Y-505246I-45867J47893D01*
G03X-2293767Y-457303I-66314J50D01*
G03X-2250714Y-571450I45867J-47893D01*
G03X-2138533Y-619393I66314J-50D01*
G01X-1497385Y-369388D02*
G03X-1679012Y-369388I-90814J0D01*
G01X-1679012Y-459388D01*
G03X-1506999Y-500055I90814J0D01*
G03X-1374367Y-474759I62311J33648D01*
G03X-1497385Y-419101I-70321J8352D01*
G01X-1497385Y-369388D01*
G01X-1336314Y-533400D02*
G03X-1214197Y-569228I66314J0D01*
G03X-1092081Y-533400I55803J35828D01*
G03X-1214197Y-497572I-66314J0D01*
G03X-1336314Y-533400I-55803J-35828D01*
G01X-79014Y-762000D02*
G03X53614Y-762000I66314J0D01*
G03X-79014Y-762000I-66314J0D01*
G01X78486Y-652344D02*
G01X77620Y-653917D01*
G01X76034Y-656073D01*
G03X127000Y-764814I50966J-42427D01*
G03X177966Y-656073I0J66314D01*
G01X176380Y-653917D01*
G01X175514Y-652344D01*
G01X175514Y-528756D01*
G01X176380Y-527183D01*
G01X177966Y-525027D01*
G03X127000Y-416286I-50966J42427D01*
G03X76034Y-525027I0J-66314D01*
G01X77620Y-527183D01*
G01X78486Y-528756D01*
G01X78486Y-652344D01*
G01X-2517797Y-1142470D02*
G01X-2517797Y-1193661D01*
G03X-2493922Y-1236189I49814J0D01*
G03X-2512497Y-1267581I17239J-31392D01*
G01X-2512497Y-1357580D01*
G03X-2494157Y-1388842I35814J0D01*
G03X-2514333Y-1404858I30357J-58958D01*
G01X-2542286Y-1376905D01*
G01X-2542286Y-1149198D01*
G03X-2542755Y-1142470I-48514J0D01*
G01X-2517797Y-1142470D01*
G01X-2362929Y-1243218D02*
G03X-2366681Y-1248023I26251J-24362D01*
G03X-2370243Y-1243424I-30002J-19557D01*
G03X-2362929Y-1243218I2260J49763D01*
G01X-1956776Y-1055155D02*
G01X-1956781Y-1056769D01*
G01X-1956781Y-1166451D01*
G01X-2024516Y-1234186D01*
G01X-2189027Y-1234186D01*
G03X-2168181Y-1193661I-28969J40525D01*
G01X-2168181Y-1142470D01*
G01X-2116990Y-1142470D01*
G03X-2105682Y-1141169I0J49814D01*
G01X-2070555Y-1141169D01*
G03X-2036251Y-1126960I0J48514D01*
G01X-1965969Y-1056678D01*
G01X-1964245Y-1056178D01*
G01X-1961599Y-1055775D01*
G03X-1956776Y-1055155I-6037J66039D01*
G01X-1714795Y-920955D02*
G03X-1740826Y-923473I0J-135814D01*
G01X-1740826Y-845800D01*
G01X-1740864Y-844150D01*
G02X-1742189Y-808821I2056910J94850D01*
G02X-1740856Y-768558I2645655J-67481D01*
G01X-1740826Y-767100D01*
G01X-1740826Y-683514D01*
G01X-1720987Y-683514D01*
G01X-1676697Y-727804D01*
G03X-1658471Y-739272I34305J34305D01*
G03X-1684012Y-804403I70273J-65131D01*
G01X-1684012Y-864403D01*
G03X-1665543Y-920955I95814J0D01*
G01X-1714795Y-920955D01*
G01X-1470962Y790760D02*
G01X-1520145Y790760D01*
G01X-1043375Y1124635D01*
G01X-1041722Y1125793D01*
G01X-963628Y1180484D01*
G01X-961549Y1181941D01*
G01X-453564Y1537696D01*
G01X-416725Y1563495D01*
G01X-407385Y1570020D01*
G01X-400604Y1574620D01*
G01X-394100Y1578887D01*
G01X-387815Y1582879D01*
G01X-381732Y1586622D01*
G01X-375756Y1590186D01*
G01X-369913Y1593567D01*
G01X-364092Y1596833D01*
G01X-358323Y1599975D01*
G01X-352497Y1603050D01*
G01X-346576Y1606079D01*
G01X-340546Y1609065D01*
G01X-334331Y1612041D01*
G01X-327864Y1615030D01*
G01X-321120Y1618032D01*
G01X-314053Y1621054D01*
G01X-306583Y1624114D01*
G01X-298956Y1627097D01*
G01X-291289Y1629957D01*
G01X-283587Y1632691D01*
G01X-275840Y1635302D01*
G01X-268058Y1637789D01*
G01X-260253Y1640146D01*
G01X-252422Y1642376D01*
G01X-244551Y1644483D01*
G01X-236643Y1646467D01*
G01X-228721Y1648320D01*
G01X-220759Y1650051D01*
G01X-212780Y1651653D01*
G01X-204789Y1653126D01*
G01X-196755Y1654476D01*
G01X-188719Y1655695D01*
G01X-180668Y1656787D01*
G01X-172567Y1657755D01*
G01X-164480Y1658592D01*
G01X-156368Y1659301D01*
G01X-148302Y1659877D01*
G01X-140029Y1660335D01*
G01X-131947Y1660657D01*
G01X-123945Y1660847D01*
G01X1502593Y1660675D01*
G01X1502593Y1531092D01*
G03X1538407Y1495278I35814J0D01*
G01X1592690Y1495278D01*
G03X1567584Y1461102I10708J-34176D01*
G01X1567584Y1341102D01*
G03X1569296Y1330162I35814J0D01*
G03X1555984Y1302300I22502J-27862D01*
G01X1555984Y1212300D01*
G03X1582771Y1177642I35814J0D01*
G02X1583284Y1174200I-11298J-3442D01*
G01X1583284Y857402D01*
G03X1597493Y823098I48514J0D01*
G01X1642095Y778495D01*
G03X1676400Y764286I34305J34305D01*
G01X1795911Y764286D01*
G03X1766672Y734634I6129J-35286D01*
G02X1763940Y734314I-2732J11491D01*
G01X1473200Y734314D01*
G03X1438895Y720105I0J-48514D01*
G01X1400795Y682005D01*
G03X1386586Y647700I34305J-34305D01*
G01X1386586Y615819D01*
G03X1383485Y598752I45413J-17066D01*
G01X1383485Y528014D01*
G01X1259900Y528014D01*
G03X1245232Y524872I0J-35814D01*
G03X1232066Y550427I-64132J-16872D01*
G01X1230480Y552583D01*
G01X1229614Y554156D01*
G01X1229614Y588844D01*
G01X1230480Y590417D01*
G01X1232066Y592573D01*
G03X1235903Y672339I-50966J42427D01*
G03X1160265Y697956I-54803J-37339D01*
G01X1226595Y764286D01*
G01X1465144Y764286D01*
G01X1466717Y763420D01*
G01X1468873Y761834D01*
G03X1577614Y812800I42427J50966D01*
G03X1468873Y863766I-66314J0D01*
G01X1466717Y862180D01*
G01X1465144Y861314D01*
G01X1206500Y861314D01*
G03X1172195Y847105I0J-48514D01*
G01X863357Y538266D01*
G03X838134Y558800I-32757J-14479D01*
G03X866414Y593813I-7534J35013D01*
G01X866414Y674460D01*
G03X830600Y710274I-35814J0D01*
G01X744200Y710274D01*
G03X717550Y698386I0J-35814D01*
G03X696214Y709878I-26650J-23926D01*
G01X696214Y780215D01*
G03X633006Y868354I-53969J28031D01*
G03X599186Y765302I9239J-60108D01*
G01X599186Y709883D01*
G02X540384Y704231I-108987J825111D01*
G01X540384Y704231D01*
G01X528790Y704597D01*
G01X528790Y704597D01*
G01X527600Y704616D01*
G01X438109Y704616D01*
G02X415950Y706990I44491J519979D01*
G01X415950Y744200D01*
G02X418147Y857107I2902711J1D01*
G01X418174Y858500D01*
G01X418174Y944900D01*
G03X417998Y948444I-35814J0D01*
G02X416999Y960169I415249J41292D01*
G01X487816Y1030986D01*
G01X709600Y1030986D01*
G03X761865Y1052635I0J73914D01*
G01X976032Y1266803D01*
G01X979785Y1270047D01*
G01X983611Y1272600D01*
G01X988326Y1275103D01*
G01X993517Y1277327D01*
G01X998735Y1279128D01*
G01X1003485Y1280420D01*
G01X1007141Y1281150D01*
G01X1009998Y1281484D01*
G03X1100014Y1458214I-8298J115516D01*
G03X901700Y1455420I-98315J-61214D01*
G03X706285Y1462641I-100000J-58420D01*
G03X782893Y1282723I95415J-65641D01*
G01X678984Y1178814D01*
G01X457200Y1178814D01*
G03X404935Y1157165I0J-73914D01*
G01X289771Y1042001D01*
G03X268122Y989736I52265J-52265D01*
G02X266522Y953220I-417297J0D01*
G03X231687Y980714I-34834J-8320D01*
G01X151040Y980714D01*
G03X115672Y950534I0J-35814D01*
G02X112940Y950214I-2732J11491D01*
G01X110002Y950214D01*
G01X107516Y950479D01*
G03X71902Y982514I-35614J-3779D01*
G01X-8098Y982514D01*
G03X-38100Y966257I0J-35814D01*
G03X-68102Y982514I-30002J-19557D01*
G01X-148102Y982514D01*
G03X-183916Y946700I0J-35814D01*
G01X-183916Y856700D01*
G03X-182992Y848614I35814J0D01*
G01X-355600Y848614D01*
G03X-389905Y834405I0J-48514D01*
G01X-420565Y803744D01*
G03X-434775Y769439I34305J-34305D01*
G01X-434775Y746687D01*
G03X-438800Y746914I-4026J-35587D01*
G01X-678800Y746914D01*
G03X-688086Y745689I0J-35814D01*
G01X-688086Y825500D01*
G03X-702295Y859805I-48514J0D01*
G01X-720256Y877765D01*
G03X-754561Y891975I-34305J-34305D01*
G01X-1101974Y891975D01*
G01X-1102486Y892151D01*
G01X-1105424Y893481D01*
G01X-1108583Y895297D01*
G03X-1196582Y879812I-35506J-56008D01*
G03X-1189283Y790760I52492J-40523D01*
G01X-1233462Y790760D01*
G03X-1257396Y781589I0J-35814D01*
G02X-1271562Y776161I-14167J15770D01*
G01X-1280452Y776161D01*
G02X-1283894Y776673I0J11811D01*
G03X-1318552Y803460I-34658J-9027D01*
G01X-1398552Y803460D01*
G03X-1434366Y767646I0J-35814D01*
G01X-1434366Y763684D01*
G01X-1434757Y763613D01*
G01X-1436305Y763973D01*
G03X-1470962Y790760I-34658J-9027D01*
G01X-209386Y1409700D02*
G03X-451014Y1409700I-120814J0D01*
G03X-209386Y1409700I120814J0D01*
G01X-209386Y1155700D02*
G03X-451014Y1155700I-120814J0D01*
G03X-209386Y1155700I120814J0D01*
G01X44614Y1155700D02*
G03X-197014Y1155700I-120814J0D01*
G03X44614Y1155700I120814J0D01*
G01X44614Y1409700D02*
G03X-197014Y1409700I-120814J0D01*
G03X44614Y1409700I120814J0D01*
G01X92800Y1530514D02*
G03X56986Y1494700I0J-35814D01*
G01X56986Y1324700D01*
G03X92800Y1288886I35814J0D01*
G01X262800Y1288886D01*
G03X298614Y1324700I0J35814D01*
G01X298614Y1494700D01*
G03X262800Y1530514I-35814J0D01*
G01X92800Y1530514D01*
G01X298614Y1155700D02*
G03X56986Y1155700I-120814J0D01*
G03X298614Y1155700I120814J0D01*
G01X-800546Y-920955D02*
G01X-1510854Y-920955D01*
G03X-1492385Y-864403I-77344J56552D01*
G01X-1492385Y-804403D01*
G03X-1515480Y-742014I-95814J0D01*
G01X-1320531Y-742014D01*
G03X-1263337Y-828039I63231J-19986D01*
G01X-1260691Y-828442D01*
G01X-1258968Y-828941D01*
G01X-1210765Y-877144D01*
G03X-1176460Y-891354I34305J34305D01*
G01X-927850Y-891354D01*
G03X-907145Y-886714I0J48514D01*
G01X-900350Y-886714D01*
G03X-866046Y-872505I0J48514D01*
G01X-819015Y-825474D01*
G01X-819015Y-864403D01*
G03X-800546Y-920955I95814J0D01*
G01X-958566Y78584D02*
G01X-958566Y168584D01*
G03X-970096Y194908I-35814J0D01*
G03X-949686Y227240I-15404J32332D01*
G01X-949686Y281686D01*
G01X-849630Y281686D01*
G03X-815988Y289786I0J73914D01*
G01X-789630Y289786D01*
G03X-753816Y325600I0J35814D01*
G01X-753816Y385600D01*
G03X-776966Y419100I-35814J0D01*
G03X-757230Y437341I-12664J33500D01*
G03X-740395Y448295I-17470J45259D01*
G01X-714614Y474077D01*
G01X-714614Y381100D01*
G03X-678800Y345286I35814J0D01*
G01X-438800Y345286D01*
G03X-402986Y381100I0J35814D01*
G01X-402986Y575677D01*
G01X-402605Y575295D01*
G03X-368300Y561086I34305J34305D01*
G01X-366070Y561086D01*
G02X-354934Y556030I0J-14790D01*
G03X-340634Y546100I26964J23570D01*
G03X-363784Y512600I12664J-33500D01*
G01X-363784Y452600D01*
G03X-340634Y419100I35814J0D01*
G03X-363784Y385600I12664J-33500D01*
G01X-363784Y325600D01*
G03X-341884Y292599I35814J0D01*
G01X-341884Y232546D01*
G01X-360816Y213614D01*
G01X-482515Y213614D01*
G02X-527410Y216936I0J305015D01*
G03X-532681Y217326I-5271J-35424D01*
G01X-612681Y217326D01*
G03X-642683Y201070I0J-35814D01*
G03X-672686Y217326I-30002J-19557D01*
G01X-752686Y217326D01*
G03X-788500Y181512I0J-35814D01*
G01X-788500Y91512D01*
G03X-752686Y55698I35814J0D01*
G01X-672686Y55698D01*
G03X-653280Y61412I0J35814D01*
G03X-649165Y-38651I56380J-47797D01*
G01X-638908Y-48908D01*
G01X-638908Y-62692D01*
G03X-632805Y-82690I35814J0D01*
G03X-638908Y-102687I29711J-19997D01*
G01X-638908Y-117983D01*
G01X-661008Y-95883D01*
G03X-695312Y-81674I-34305J-34305D01*
G02X-702004Y-80506I0J19756D01*
G03X-697259Y-62692I-31069J17814D01*
G01X-697259Y-7691D01*
G03X-733073Y28123I-35814J0D01*
G01X-843073Y28123D01*
G03X-846266Y27980I0J-35814D01*
G02X-871138Y26550I-34907J389972D01*
G01X-872133Y26742D01*
G03X-907500Y56916I-35367J-5639D01*
G01X-965864Y56916D01*
G03X-958566Y78584I-28516J21667D01*
G01X-929914Y177800D02*
G03X-797286Y177800I66314J0D01*
G03X-929914Y177800I-66314J0D01*
G01X-697259Y-252684D02*
G01X-697259Y-197683D01*
G01X-697269Y-196840D01*
G01X-683514Y-210595D01*
G01X-683514Y-287706D01*
G03X-709469Y-279619I-39687J-81683D01*
G03X-697259Y-252684I-23604J26935D01*
G01X-642687Y71961D02*
G01X-642548Y71748D01*
G01X-643130Y71286D01*
G01X-642687Y71961D01*
G01X-215705Y149665D02*
G03X-211126Y154686I-52265J52265D01*
G01X-188375Y154686D01*
G03X-193531Y136172I30657J-18514D01*
G01X-193531Y83034D01*
G03X-215181Y90319I-21650J-28530D01*
G01X-275051Y90319D01*
G01X-215705Y149665D01*
G01X31804Y820886D02*
G01X71902Y820886D01*
G03X107516Y852921I0J35814D01*
G01X110002Y853186D01*
G01X112940Y853186D01*
G02X115672Y852866I0J-11811D01*
G03X151040Y822686I35368J5634D01*
G01X231687Y822686D01*
G03X266229Y849037I0J35814D01*
G02X267848Y784136I-2900817J-104836D01*
G02X233872Y713311I-106786J7665D01*
G03X198580Y677501I522J-35810D01*
G01X198580Y465499D01*
G03X234394Y429685I35814J0D01*
G01X374393Y429685D01*
G03X402258Y443001I0J35814D01*
G03X437600Y412984I35342J5797D01*
G01X527600Y412984D01*
G03X563414Y448798I0J35814D01*
G01X563414Y528798D01*
G03X553305Y553735I-35814J0D01*
G02X585959Y554429I88594J-3402135D01*
G03X568686Y523787I18541J-30641D01*
G01X568686Y443140D01*
G03X598532Y407827I35814J0D01*
G01X598532Y403396D01*
G03X573576Y351931I35814J-49150D01*
G03X602376Y302514I60770J2315D01*
G01X451851Y302514D01*
G03X427582Y311991I-24269J-26337D01*
G01X337583Y311991D01*
G03X313313Y302514I0J-35814D01*
G01X286751Y302514D01*
G03X262482Y311991I-24269J-26337D01*
G01X172483Y311991D01*
G03X148213Y302514I0J-35814D01*
G01X121651Y302514D01*
G03X97382Y311991I-24269J-26337D01*
G01X7383Y311991D01*
G03X-16887Y302514I0J-35814D01*
G01X-43449Y302514D01*
G03X-67718Y311991I-24269J-26337D01*
G01X-157717Y311991D01*
G03X-178373Y305434I0J-35814D01*
G03X-172156Y325600I-29597J20166D01*
G01X-172156Y385600D01*
G03X-195306Y419100I-35814J0D01*
G03X-179636Y430695I-12664J33500D01*
G03X-171193Y429685I8443J34805D01*
G01X-31194Y429685D01*
G03X4620Y465499I0J35814D01*
G01X4620Y677501D01*
G03X-31194Y713315I-35814J0D01*
G01X-171193Y713315D01*
G01X-172156Y713302D01*
G01X-172156Y751586D01*
G01X-69698Y751586D01*
G03X-35393Y765795I0J48514D01*
G01X14577Y815766D01*
G02X31804Y820886I17227J-26417D01*
G01X35286Y393700D02*
G03X167914Y393700I66314J0D01*
G03X35286Y393700I-66314J0D01*
G01X-31904Y56172D02*
G01X-31904Y136172D01*
G03X-37060Y154686I-35814J0D01*
G01X-23275Y154686D01*
G03X-28431Y136172I30657J-18514D01*
G01X-28431Y56172D01*
G03X-22083Y35814I35814J0D01*
G01X-38253Y35814D01*
G03X-31904Y56172I-29465J20358D01*
G01X133196Y56172D02*
G01X133196Y136172D01*
G03X128040Y154686I-35814J0D01*
G01X141825Y154686D01*
G03X136669Y136172I30657J-18514D01*
G01X136669Y56172D01*
G03X143017Y35814I35814J0D01*
G01X126847Y35814D01*
G03X133196Y56172I-29465J20358D01*
G01X298296Y56172D02*
G01X298296Y136172D01*
G03X293140Y154686I-35814J0D01*
G01X306925Y154686D01*
G03X301769Y136172I30657J-18514D01*
G01X301769Y56172D01*
G03X308117Y35814I35814J0D01*
G01X291947Y35814D01*
G03X298296Y56172I-29465J20358D01*
G01X463396Y56172D02*
G01X463396Y136172D01*
G03X458240Y154686I-35814J0D01*
G01X622300Y154686D01*
G03X649986Y160067I0J73914D01*
G01X649986Y47558D01*
G03X579873Y38266I-27686J-60258D01*
G01X577717Y36680D01*
G01X576144Y35814D01*
G01X457047Y35814D01*
G03X463396Y56172I-29465J20358D01*
G01X1072471Y-1056765D02*
G03X1070495Y-1033685I-135814J-4D01*
G03X1091604Y-1038518I21109J43681D01*
G01X1136386Y-1038518D01*
G03X1130678Y-1057915I30106J-19397D01*
G01X1130678Y-1377914D01*
G03X1166492Y-1413728I35814J0D01*
G01X1246492Y-1413728D01*
G03X1263298Y-1409541I0J35814D01*
G03X1251287Y-1436300I23803J-26759D01*
G01X1251287Y-1586300D01*
G03X1287101Y-1622114I35814J0D01*
G01X1437100Y-1622114D01*
G03X1472914Y-1586300I0J35814D01*
G01X1472914Y-1577069D01*
G03X1662100Y-1559047I89186J65769D01*
G03X1850453Y-1578183I100000J47747D01*
G03X1780911Y-1402095I-88354J66883D01*
G03X1790306Y-1377914I-26419J24180D01*
G01X1790306Y-1084552D01*
G03X1851864Y-1133073I63894J17752D01*
G01X1892678Y-1173888D01*
G01X1892678Y-1377914D01*
G03X1928492Y-1413728I35814J0D01*
G01X2008492Y-1413728D01*
G03X2044306Y-1377914I0J35814D01*
G01X2044306Y-1299661D01*
G01X2092124Y-1347479D01*
G03X2079795Y-1459262I28776J-59745D01*
G03X2069394Y-1553070I41105J-52038D01*
G03X2163327Y-1562266I51506J41770D01*
G01X2165483Y-1560680D01*
G01X2167056Y-1559814D01*
G01X2552700Y-1559814D01*
G03X2587005Y-1545605I0J48514D01*
G01X2592468Y-1540141D01*
G01X2594191Y-1539642D01*
G01X2596837Y-1539239D01*
G03X2654976Y-1489903I-6037J66039D01*
G03X2903850Y-1483702I123084J57409D01*
G01X2903846Y-1596588D01*
G02X2839665Y-1660772I-64186J2D01*
G01X1136725Y-1660915D01*
G02X1072533Y-1596730I-5J64186D01*
G01X1072471Y-1056765D01*
G01X1088409Y-575300D02*
G03X1138800Y-555196I3791J63701D01*
G03X1130678Y-577906I27693J-22710D01*
G01X1130678Y-897905D01*
G03X1166492Y-933719I35814J0D01*
G01X1208938Y-933719D01*
G03X1198794Y-941490I35066J-56285D01*
G01X1115314Y-941490D01*
G01X1115314Y-622300D01*
G03X1101105Y-587995I-48514J0D01*
G01X1088409Y-575300D01*
G01X1155700Y-517919D02*
G03X1163225Y-542241I63500J6320D01*
G03X1140793Y-552963I3268J-35665D01*
G03X1155700Y-517919I-48593J41363D01*
G01X1282306Y-897905D02*
G01X1282306Y-577906D01*
G03X1269692Y-550622I-35814J0D01*
G03X1282700Y-517919I-50492J39023D01*
G03X1392800Y-555196I63500J6320D01*
G03X1384678Y-577906I27693J-22710D01*
G01X1384678Y-796791D01*
G01X1293935Y-887535D01*
G03X1281887Y-903371I52265J-52265D01*
G03X1282306Y-897905I-35395J5465D01*
G01X1270295Y-1404674D02*
G03X1281426Y-1385807I-23803J26759D01*
G03X1286510Y-1400491I64774J14207D01*
G03X1270295Y-1404674I590J-35809D01*
G01X1409700Y-517919D02*
G03X1417225Y-542241I63500J6320D01*
G03X1394793Y-552963I3268J-35665D01*
G03X1409700Y-517919I-48593J41363D01*
G01X2379500Y-886714D02*
G01X2903844Y-886714D01*
G01X2903863Y-1121682D01*
G01X2903854Y-1381295D01*
G03X2642251Y-1431362I-125794J-51199D01*
G03X2591776Y-1406893I-51451J-41838D01*
G03X2506465Y-1359444I-64476J-15507D01*
G01X2536205Y-1329705D01*
G03X2550414Y-1295400I-34305J34305D01*
G01X2550414Y-1193800D01*
G03X2537714Y-1161074I-48514J0D01*
G01X2537714Y-1003300D01*
G03X2527300Y-992886I-10414J0D01*
G01X2184400Y-992886D01*
G03X2173986Y-1003300I0J-10414D01*
G01X2173986Y-1241777D01*
G01X2169414Y-1237205D01*
G01X2169414Y-58856D01*
G01X2170280Y-57283D01*
G01X2171866Y-55127D01*
G03X2166462Y35484I-50966J42427D01*
G03X2075690Y35814I-45562J-48184D01*
G01X1978567Y35814D01*
G03X1944262Y21605I0J-48514D01*
G01X1928114Y5456D01*
G01X1928114Y122149D01*
G03X1918014Y159446I-73914J0D01*
G01X1918014Y181399D01*
G03X1790700Y187719I-63814J0D01*
G03X1663700Y187719I-63500J-6320D01*
G03X1648714Y222855I-63500J-6320D01*
G01X1648714Y246605D01*
G01X1698005Y295895D01*
G03X1710817Y318641I-34305J34305D01*
G03X1741399Y344624I-3916J35599D01*
G02X1745000Y345186I3601J-11249D01*
G01X1765300Y345186D01*
G03X1799605Y359395I0J48514D01*
G01X1839295Y399086D01*
G01X1867501Y399086D01*
G03X1903315Y434900I0J35814D01*
G01X1903315Y504900D01*
G03X1867501Y540714I-35814J0D01*
G01X1742714Y540714D01*
G01X1742714Y585560D01*
G03X1706900Y621374I-35814J0D01*
G01X1620500Y621374D01*
G03X1606154Y618375I0J-35814D01*
G01X1604205Y617565D01*
G02X1601871Y618734I18795J40437D01*
G03X1584900Y623010I-16970J-31538D01*
G01X1483614Y623010D01*
G01X1483614Y627605D01*
G01X1493295Y637286D01*
G01X1763940Y637286D01*
G02X1766672Y636966I0J-11811D01*
G03X1802040Y606786I35368J5634D01*
G01X1882687Y606786D01*
G03X1917700Y635066I0J35814D01*
G03X1920086Y627830I35013J7534D01*
G03X1906685Y599896I22413J-27934D01*
G01X1906685Y529896D01*
G03X1942499Y494082I35814J0D01*
G01X2067500Y494082D01*
G03X2097786Y510780I0J35814D01*
G01X2097786Y439195D01*
G01X2093317Y434726D01*
G03X2067500Y445718I-25817J-24822D01*
G01X1942499Y445718D01*
G03X1906685Y409904I0J-35814D01*
G01X1906685Y339904D01*
G03X1942499Y304090I35814J0D01*
G01X2067500Y304090D01*
G03X2100570Y326156I0J35814D01*
G01X2102104Y326390D01*
G03X2136409Y340599I0J48514D01*
G01X2180605Y384795D01*
G03X2194814Y419100I-34305J34305D01*
G01X2194814Y731339D01*
G02X2238206Y836097I148149J0D01*
G01X2244105Y841995D01*
G03X2258314Y876300I-34305J34305D01*
G01X2258314Y1040301D01*
G03X2313686Y1052302I14986J64599D01*
G01X2313686Y-820900D01*
G03X2379500Y-886714I65814J0D01*
G01X1679219Y1596095D02*
G01X1679219Y1660657D01*
G01X1927570Y1660631D01*
G01X1927573Y1596091D01*
G03X1928145Y1589719I35814J1D01*
G03X1818507Y1542408I-39731J-58619D01*
G03X1907636Y1462943I69906J-11309D01*
G01X1907588Y1461102D01*
G01X1907588Y1341102D01*
G03X1920952Y1313198I35814J0D01*
G03X1918626Y1300500I33487J-12698D01*
G01X1918626Y1214100D01*
G03X1954440Y1178286I35814J0D01*
G01X2035087Y1178286D01*
G03X2070100Y1206566I0J35814D01*
G03X2105113Y1178286I35013J7534D01*
G01X2143735Y1178286D01*
G02X2160962Y1173165I0J-31538D01*
G01X2161286Y1172841D01*
G01X2161286Y897008D01*
G02X2064839Y861314I-96447J112455D01*
G01X1951156Y861314D01*
G01X1949583Y862180D01*
G01X1947427Y863766D01*
G03X1862573Y863766I-42427J-50966D01*
G01X1860417Y862180D01*
G01X1858844Y861314D01*
G01X1696495Y861314D01*
G01X1680312Y877498D01*
G01X1680312Y1174200D01*
G02X1680824Y1177642I11811J0D01*
G03X1701800Y1192743I-9027J34658D01*
G03X1731802Y1176486I30002J19557D01*
G01X1811802Y1176486D01*
G03X1847616Y1212300I0J35814D01*
G01X1847616Y1302300D01*
G03X1811802Y1338114I-35814J0D01*
G01X1731802Y1338114D01*
G03X1701800Y1321857I0J-35814D01*
G03X1696732Y1328008I-30002J-19557D01*
G03X1699212Y1341102I-33334J13094D01*
G01X1699212Y1461102D01*
G01X1699164Y1462950D01*
G03X1788316Y1542418I19248J68149D01*
G03X1678642Y1589693I-69905J-11319D01*
G03X1679219Y1596095I-35237J6402D01*
G01X1790306Y-897905D02*
G01X1790306Y-756101D01*
G01X1825005Y-721403D01*
G03X1839214Y-687098I-34305J34305D01*
G01X1839214Y-573628D01*
G03X1900800Y-555196I14986J62029D01*
G03X1892678Y-577906I27693J-22710D01*
G01X1892678Y-897905D01*
G03X1893198Y-903986I35814J0D01*
G01X1789786Y-903986D01*
G03X1790306Y-897905I-35294J6081D01*
G01X1998662Y-61214D02*
G01X2012889Y-61214D01*
G03X1996186Y-164610I31811J-58186D01*
G01X1996186Y-320745D01*
G03X1906727Y-356862I-27694J-60255D01*
G03X1839214Y-331069I-52527J-36236D01*
G01X1839214Y-220662D01*
G01X1998662Y-61214D01*
G01X1918014Y-511599D02*
G01X1918014Y-424005D01*
G03X1996186Y-441255I50479J43005D01*
G01X1996186Y-542092D01*
G01X1928492Y-542092D01*
G03X1902793Y-552963I0J-35814D01*
G03X1918014Y-511599I-48593J41363D01*
G01X1952077Y1562111D02*
G03X1963387Y1560279I11310J33981D01*
G01X1967573Y1560279D01*
G01X1967573Y1531092D01*
G03X1992679Y1496916I35814J0D01*
G01X1950432Y1496916D01*
G03X1952077Y1562111I-62018J34183D01*
G01X2104197Y1531092D02*
G01X2104197Y1660612D01*
G01X2389866Y1660582D01*
G02X2903593Y1146874I184J-513543D01*
G01X2903593Y1144027D01*
G01X2903599Y1128014D01*
G01X2379500Y1128014D01*
G03X2338978Y1114060I0J-65814D01*
G03X2325344Y1145997I-65678J-9160D01*
G03X2329609Y1222119I-52044J41097D01*
G03X2347214Y1270000I-56309J47881D01*
G01X2347214Y1371600D01*
G03X2325565Y1423865I-73914J0D01*
G01X2300165Y1449265D01*
G03X2247900Y1470914I-52265J-52265D01*
G01X2134464Y1470914D01*
G03X2061552Y1409134I0J-73914D01*
G02X2039216Y1380552I-285781J200317D01*
G01X2039216Y1461102D01*
G03X2014110Y1495278I-35814J0D01*
G01X2068383Y1495278D01*
G03X2104197Y1531092I0J35814D01*
G01X2441315Y1372239D02*
G03X2712943Y1372239I135814J0D01*
G03X2441315Y1372239I-135814J0D01*
G54D11*
G01X-2679700Y-1200302D02*
G01X-2679700Y-1265956D01*
G01X-2679700Y-1200302D02*
G01X-2750354Y-1200302D01*
G01X-2679700Y-768198D02*
G01X-2679700Y-702544D01*
G01X-2679700Y-768198D02*
G01X-2609046Y-768198D01*
G01X-2436683Y-1312581D02*
G01X-2502337Y-1312581D01*
G01X-2204782Y-767662D02*
G01X-2179128Y-767662D01*
G01X-2203995Y-1167661D02*
G01X-2178341Y-1167661D01*
G01X-1822298Y-546100D02*
G01X-1756644Y-546100D01*
G01X-1822298Y-546100D02*
G01X-1822298Y-475446D01*
G01X-1182179Y281107D02*
G01X-1182179Y215453D01*
G01X-1182179Y281107D02*
G01X-1252833Y281107D01*
G01X-1174384Y123584D02*
G01X-1240038Y123584D01*
G01X-1174384Y123584D02*
G01X-1174384Y194238D01*
G01X-1174384Y123584D02*
G01X-1174384Y52930D01*
G01X-788073Y-225184D02*
G01X-788073Y-278338D01*
G01X-788073Y-225184D02*
G01X-868727Y-225184D01*
G01X-788073Y-225184D02*
G01X-707419Y-225184D01*
G01X-712686Y136512D02*
G01X-778340Y136512D01*
G01X-712686Y136512D02*
G01X-712686Y207166D01*
G01X-712686Y136512D02*
G01X-712686Y65858D01*
G01X-558800Y546100D02*
G01X-558800Y736754D01*
G01X-558800Y546100D02*
G01X-558800Y355446D01*
G01X-558800Y546100D02*
G01X-413146Y546100D01*
G01X-255181Y9505D02*
G01X-255181Y-61149D01*
G01X-255181Y9505D02*
G01X-255181Y80159D01*
G01X-255181Y-155595D02*
G01X-189527Y-155595D01*
G01X-255181Y-155595D02*
G01X-255181Y-84941D01*
G01X-112718Y96172D02*
G01X-183371Y96172D01*
G01X-112718Y96172D02*
G01X-42064Y96172D01*
G01X-108102Y901700D02*
G01X-173756Y901700D01*
G01X-108102Y901700D02*
G01X-108102Y972354D01*
G01X52382Y96172D02*
G01X-18271Y96172D01*
G01X52382Y96172D02*
G01X123036Y96172D01*
G01X217482Y96172D02*
G01X146829Y96172D01*
G01X217482Y96172D02*
G01X288136Y96172D01*
G01X382582Y96172D02*
G01X311929Y96172D01*
G01X382582Y96172D02*
G01X453236Y96172D01*
G01X482600Y488798D02*
G01X482600Y423144D01*
G01X482600Y488798D02*
G01X553254Y488798D01*
G01X787400Y634136D02*
G01X787400Y700114D01*
G01X787400Y634136D02*
G01X856254Y634136D01*
G01X1206492Y-737906D02*
G01X1140838Y-737906D01*
G01X1206492Y-737906D02*
G01X1272146Y-737906D01*
G01X1206492Y-737906D02*
G01X1206492Y-923559D01*
G01X1206492Y-1217915D02*
G01X1140838Y-1217915D01*
G01X1206492Y-1217915D02*
G01X1206492Y-1403568D01*
G01X1771802Y1257300D02*
G01X1837456Y1257300D01*
G01X1771802Y1257300D02*
G01X1771802Y1186646D01*
G01X1771802Y1257300D02*
G01X1771802Y1327954D01*
G01X1854200Y-452349D02*
G01X1907854Y-452349D01*
G01X1854200Y-452349D02*
G01X1854200Y-565253D01*
G01X1854200Y-452349D02*
G01X1854200Y-339444D01*
G01X1973402Y1401102D02*
G01X1917748Y1401102D01*
G01X1973402Y1401102D02*
G01X2029056Y1401102D01*
G01X1973402Y1401102D02*
G01X1973402Y1486756D01*
G01X-1588198Y-414388D02*
G01X-1668852Y-414388D01*
G01X-1588198Y-414388D02*
G01X-1507545Y-414388D01*
G01X-1588198Y-414388D02*
G01X-1588198Y-288734D01*
G01X-1588198Y-414388D02*
G01X-1588198Y-540042D01*
G01X-1588198Y-834403D02*
G01X-1673852Y-834403D01*
G01X-1588198Y-834403D02*
G01X-1502545Y-834403D01*
G01X-723201Y-834403D02*
G01X-808855Y-834403D01*
G01X-723201Y-414388D02*
G01X-803855Y-414388D01*
G01X-723201Y-414388D02*
G01X-723201Y-540042D01*
G01X-330200Y1409700D02*
G01X-219546Y1409700D01*
G01X-330200Y1409700D02*
G01X-440854Y1409700D01*
G01X-330200Y1409700D02*
G01X-330200Y1299046D01*
G01X-330200Y1409700D02*
G01X-330200Y1520354D01*
G01X-330200Y1155700D02*
G01X-219546Y1155700D01*
G01X-330200Y1155700D02*
G01X-440854Y1155700D01*
G01X-330200Y1155700D02*
G01X-330200Y1045046D01*
G01X-330200Y1155700D02*
G01X-330200Y1266354D01*
G01X801700Y1397000D02*
G01X696046Y1397000D01*
G01X801700Y1397000D02*
G01X801700Y1502654D01*
G04 Copper End*

G04 TearDrop Start*
G36*
G01X641900Y666902D02*
G01X641900Y590702D01*
G03X527600Y588802I-0J-3439102D01*
G01X527600Y668802D01*
G01X527600Y668802D01*
G03X641900Y666902I114300J3437202D01*
G37*
G36*
G01X361696Y590702D02*
G01X361696Y666902D01*
G03X437600Y668802I0J1517174D01*
G01X437600Y588802D01*
G03X361696Y590702I-75904J-1515274D01*
G37*
G36*
G01X-8607Y843230D02*
G01X-21568Y866190D01*
G03X-8098Y906601I-53882J40411D01*
G01X31804Y856700D01*
G03X-8607Y843230I0J-67352D01*
G37*
G36*
G01X110002Y914400D02*
G01X110002Y889000D01*
G03X71902Y869950I0J-47625D01*
G01X71902Y933450D01*
G03X110002Y914400I38100J28575D01*
G37*
G36*
G01X-1041400Y206684D02*
G01X-1016000Y206684D01*
G03X-996950Y168584I47625J0D01*
G01X-1060450Y168584D01*
G03X-1041400Y206684I-28575J38100D01*
G37*
G36*
G01X-1031575Y459212D02*
G01X-1031575Y383012D01*
G03X-1137180Y381112I-0J-2935862D01*
G01X-1137180Y461112D01*
G03X-1031575Y459212I105604J2933963D01*
G37*
G36*
G01X-482515Y177800D02*
G01X-482515Y101600D01*
G03X-532681Y91512I0J-129785D01*
G01X-532681Y181512D01*
G03X-482515Y177800I50166J337117D01*
G37*
G36*
G01X-699986Y57525D02*
G01X-725386Y57525D01*
G03X-744436Y91512I-39844J0D01*
G01X-680936Y91512D01*
G03X-699986Y57525I20794J-33988D01*
G37*
G36*
G01X-869400Y-9393D02*
G01X-869400Y-34793D01*
G03X-907500Y-53843I0J-47625D01*
G01X-907500Y9657D01*
G03X-869400Y-9393I38100J28575D01*
G37*
G36*
G01X-885998Y-149398D02*
G01X-885998Y-174798D01*
G03X-907500Y-193848I0J-21660D01*
G01X-907500Y-130348D01*
G03X-885998Y-149398I21502J2610D01*
G37*
G36*
G01X-433286Y3705D02*
G01X-357086Y3705D01*
G03X-355186Y-110595I3439102J-0D01*
G01X-435186Y-110595D01*
G03X-433286Y3705I-3437202J114300D01*
G37*
G36*
G01X-348161Y-121739D02*
G01X-348161Y-147139D01*
G03X-355186Y-166189I22315J-19050D01*
G01X-355186Y-110595D01*
G03X-348161Y-121739I12351J0D01*
G37*
G36*
G01X-357086Y-149795D02*
G01X-433286Y-149795D01*
G03X-435186Y-35495I-3439102J0D01*
G01X-355186Y-35495D01*
G03X-357086Y-149795I3437202J-114300D01*
G37*
G36*
G01X1644498Y1174200D02*
G01X1619098Y1174200D01*
G03X1600048Y1212300I-47625J0D01*
G01X1663548Y1212300D01*
G03X1644498Y1174200I28575J-38100D01*
G37*
G36*
G01X1619098Y1340400D02*
G01X1644498Y1340400D01*
G03X1663548Y1302300I47625J0D01*
G01X1600048Y1302300D01*
G03X1619098Y1340400I-28575J38100D01*
G37*
G36*
G01X-2258578Y-1471178D02*
G01X-2334778Y-1471178D01*
G03X-2336678Y-1357580I-3396933J1D01*
G01X-2256678Y-1357580D01*
G03X-2258578Y-1471178I3395033J-113597D01*
G37*
G36*
G01X-2396173Y-1254110D02*
G01X-2383213Y-1277071D01*
G03X-2396683Y-1317482I53882J-40411D01*
G01X-2436584Y-1267581D01*
G03X-2396173Y-1254110I0J67352D01*
G37*
G36*
G01X-2621230Y-1100807D02*
G01X-2644190Y-1113768D01*
G03X-2684601Y-1100298I-40411J-53882D01*
G01X-2634700Y-1060396D01*
G03X-2621230Y-1100807I67352J0D01*
G37*
G36*
G01X-2596600Y-1029968D02*
G01X-2596600Y-1055368D01*
G03X-2634700Y-1074418I0J-47625D01*
G01X-2634700Y-1020298D01*
G03X-2596600Y-1029968I38100J70220D01*
G37*
G36*
G01X-2618978Y-906362D02*
G01X-2609612Y-951648D01*
G03X-2634700Y-948202I-14816J-14816D01*
G01X-2634700Y-868202D01*
G03X-2618978Y-906362I54169J0D01*
G37*
G36*
G01X-1996310Y-604570D02*
G01X-2015773Y-588112D01*
G03X-2002302Y-547701I-53882J40411D01*
G01X-1955899Y-591100D01*
G03X-1996310Y-604570I0J-67352D01*
G37*
G36*
G01X-181113Y473620D02*
G01X-191239Y499415D01*
G03X-171193Y533250I-56082J56082D01*
G01X-171193Y469750D01*
G03X-181113Y473620I-5809J-241D01*
G37*
G36*
G01X303936Y791801D02*
G01X380136Y791801D01*
G03X374393Y677501I1134558J-114300D01*
G01X246786Y677501D01*
G03X303936Y791801I-85725J114300D01*
G37*
G36*
G01X482600Y666902D02*
G01X482600Y590702D01*
G03X374393Y533552I0J-131013D01*
G01X374393Y677501D01*
G03X482600Y666902I108207J547094D01*
G37*
G36*
G01X-564893Y-500561D02*
G01X-564893Y-475161D01*
G03X-526793Y-456111I0J47625D01*
G01X-526793Y-519611D01*
G03X-564893Y-500561I-38100J-28575D01*
G37*
G36*
G01X-152400Y-469900D02*
G01X-152400Y-444500D01*
G03X-121206Y-425450I0J35064D01*
G01X-121206Y-488950D01*
G03X-152400Y-469900I-31194J-16014D01*
G37*
G36*
G01X-63500Y-299100D02*
G01X-38100Y-299100D01*
G03X-19050Y-337200I47625J0D01*
G01X-82550Y-337200D01*
G03X-63500Y-299100I-28575J38100D01*
G37*
G36*
G01X1623000Y577596D02*
G01X1623000Y552196D01*
G03X1584900Y533146I0J-47625D01*
G01X1584900Y587196D01*
G03X1623000Y577596I38100J70805D01*
G37*
G36*
G01X1536700Y304800D02*
G01X1511300Y304800D01*
G03X1492250Y327204I-22699J0D01*
G01X1555750Y327204D01*
G03X1536700Y304800I3649J-22404D01*
G37*
G36*
G01X1453061Y337639D02*
G01X1453061Y363039D01*
G03X1459899Y382089I-23114J19050D01*
G01X1459899Y327204D01*
G03X1453061Y337639I-11381J0D01*
G37*
G36*
G01X1221800Y444500D02*
G01X1221800Y469900D01*
G03X1259900Y488950I0J47625D01*
G01X1259900Y425450D01*
G03X1221800Y444500I-38100J-28575D01*
G37*
G36*
G01X1992300Y637996D02*
G01X2017700Y637996D01*
G03X2036750Y599896I47625J0D01*
G01X1973250Y599896D01*
G03X1992300Y637996I-28575J38100D01*
G37*
G36*
G01X2102104Y387604D02*
G01X2102104Y362204D01*
G03X2067500Y343154I0J-40953D01*
G01X2067500Y406654D01*
G03X2102104Y387604I34604J21903D01*
G37*
G36*
G01X1817700Y433400D02*
G01X1792300Y433400D01*
G03X1773250Y434900I-19050J-120228D01*
G01X1836750Y434900D01*
G03X1817700Y433400I0J-121728D01*
G37*
G36*
G01X303936Y989736D02*
G01X380136Y989736D01*
G03X382360Y944900I453111J0D01*
G01X301713Y944900D01*
G03X303936Y989736I-450888J44836D01*
G37*
G36*
G01X380136Y744200D02*
G01X303936Y744200D01*
G03X301713Y858500I-2938525J1D01*
G01X382360Y858500D01*
G03X380136Y744200I2936301J-114299D01*
G37*
G36*
G01X112940Y889000D02*
G01X112940Y914400D01*
G03X151040Y933450I0J47625D01*
G01X151040Y869950D01*
G03X112940Y889000I-38100J-28575D01*
G37*
G36*
G01X-944710Y388128D02*
G01X-998592Y334247D01*
G03X-1071900Y377913I-122811J-122811D01*
G01X-985500Y458560D01*
G03X-944710Y388128I152528J41307D01*
G37*
G36*
G01X-1182179Y383012D02*
G01X-1182179Y459212D01*
G01X-1182179Y459212D01*
G03X-1071900Y458560I110277J9332699D01*
G01X-1071900Y458560D01*
G01X-1071900Y377913D01*
G03X-1182179Y383012I-110279J-1189970D01*
G37*
G36*
G01X-1016000Y189140D02*
G01X-1041400Y189140D01*
G03X-1060450Y227240I-47625J0D01*
G01X-996950Y227240D01*
G03X-1016000Y189140I28575J-38100D01*
G37*
G36*
G01X490200Y590702D02*
G01X490200Y666902D01*
G03X604500Y674460I-0J868091D01*
G01X604500Y593813D01*
G03X490200Y590702I0J-2101796D01*
G37*
G36*
G01X729000Y496164D02*
G01X729000Y470764D01*
G03X690900Y451714I0J-47625D01*
G01X690900Y515214D01*
G03X729000Y496164I38100J28575D01*
G37*
G36*
G01X706100Y470764D02*
G01X706100Y496164D01*
G03X744200Y515214I0J47625D01*
G01X744200Y451714D01*
G03X706100Y470764I-38100J-28575D01*
G37*
G36*
G01X868700Y496164D02*
G01X868700Y470764D01*
G03X830600Y451714I0J-47625D01*
G01X830600Y515214D01*
G03X868700Y496164I38100J28575D01*
G37*
G36*
G01X774700Y712560D02*
G01X800100Y712560D01*
G03X819150Y674460I47625J0D01*
G01X755650Y674460D01*
G03X774700Y712560I-28575J38100D01*
G37*
G36*
G01X2031229Y1320706D02*
G01X2055293Y1290888D01*
G03X2035087Y1230272I80822J-60617D01*
G01X1970612Y1300500D01*
G03X2031229Y1320706I-0J101028D01*
G37*
G36*
G01X2199231Y1221466D02*
G01X2184147Y1200629D01*
G03X2143735Y1214100I-40411J-53882D01*
G01X2185760Y1261878D01*
G03X2199231Y1221466I67352J0D01*
G37*
G36*
G01X1582400Y552196D02*
G01X1582400Y577596D01*
G03X1620500Y585560I0J95116D01*
G01X1620500Y533146D01*
G03X1582400Y552196I-38100J-28575D01*
G37*
G36*
G01X1676400Y330200D02*
G01X1651000Y330200D01*
G03X1631950Y354240I-24693J0D01*
G01X1695450Y354240D01*
G03X1676400Y330200I5643J-24040D01*
G37*
G36*
G01X1745000Y406400D02*
G01X1745000Y381000D01*
G03X1706900Y361950I0J-47625D01*
G01X1706900Y425450D01*
G03X1745000Y406400I38100J28575D01*
G37*
G36*
G01X2017700Y604500D02*
G01X1992300Y604500D01*
G03X1973250Y642600I-47625J0D01*
G01X2033360Y642600D01*
G03X2017700Y604500I38516J-38100D01*
G37*
G36*
G01X1763940Y673100D02*
G01X1763940Y698500D01*
G03X1802040Y717550I0J47625D01*
G01X1802040Y654050D01*
G03X1763940Y673100I-38100J-28575D01*
G37*
G36*
G01X-1855064Y-749300D02*
G01X-1778864Y-749300D01*
G03X-1776640Y-845800I2094910J0D01*
G01X-1857287Y-845800D01*
G03X-1855064Y-749300I-2092686J96500D01*
G37*
G36*
G01X-1844276Y-1045483D02*
G01X-1914911Y-1007164D01*
G03X-1857287Y-845800I-775266J367821D01*
G01X-1776640Y-932200D01*
G03X-1844276Y-1045483I83046J-126417D01*
G37*
G36*
G01X-1954936Y-970300D02*
G01X-1980336Y-970300D01*
G03X-1999386Y-932200I-47625J0D01*
G01X-1935886Y-932200D01*
G03X-1954936Y-970300I28575J-38100D01*
G37*
G36*
G01X-1778864Y-876300D02*
G01X-1855064Y-876300D01*
G03X-1857287Y-767100I-2682329J-1D01*
G01X-1776640Y-767100D01*
G03X-1778864Y-876300I2680105J-109201D01*
G37*
G36*
G01X-1987522Y-787146D02*
G01X-2032620Y-796323D01*
G03X-2007960Y-767100I-160207J160207D01*
G01X-1953687Y-767100D01*
G03X-1987522Y-787146I22246J-76128D01*
G37*
G36*
G01X-1929790Y-667229D02*
G01X-1913842Y-687203D01*
G03X-1927313Y-727614I53882J-40411D01*
G01X-1970201Y-680700D01*
G03X-1929790Y-667229I0J67352D01*
G37*
G36*
G01X1644498Y1303002D02*
G01X1619098Y1303002D01*
G03X1603398Y1341102I-54080J0D01*
G01X1663398Y1341102D01*
G03X1644498Y1303002I28952J-38100D01*
G37*
G36*
G01X-774700Y495300D02*
G01X-774700Y469900D01*
G03X-789630Y452600I2558J-17300D01*
G01X-789630Y512600D01*
G03X-774700Y495300I17488J0D01*
G37*
G36*
G01X-947730Y714947D02*
G01X-947730Y740347D01*
G03X-909630Y759397I0J47625D01*
G01X-909630Y706600D01*
G03X-947730Y714947I-38100J-82787D01*
G37*
G36*
G01X-366070Y596900D02*
G01X-366070Y622300D01*
G03X-327970Y639600I0J50604D01*
G01X-327970Y579600D01*
G03X-366070Y596900I-38100J-33304D01*
G37*
G36*
G01X-190094Y495300D02*
G01X-190094Y469900D01*
G03X-207970Y452600I0J-17886D01*
G01X-207970Y512600D01*
G03X-190094Y495300I17877J586D01*
G37*
G36*
G01X-1432862Y727647D02*
G01X-1432862Y702247D01*
G03X-1470962Y683197I0J-47625D01*
G01X-1470962Y746697D01*
G03X-1432862Y727647I38100J28575D01*
G37*
G36*
G01X-1433548Y567754D02*
G01X-1433548Y542354D01*
G03X-1471648Y523304I0J-47625D01*
G01X-1471648Y586804D01*
G03X-1433548Y567754I38100J28575D01*
G37*
G36*
G01X-1437338Y542354D02*
G01X-1437338Y567754D01*
G03X-1399238Y586804I0J47625D01*
G01X-1399238Y527754D01*
G03X-1437338Y542354I-38100J-42413D01*
G37*
G36*
G01X-1346200Y489654D02*
G01X-1371600Y489654D01*
G03X-1390650Y527754I-47625J0D01*
G01X-1327150Y527754D01*
G03X-1346200Y489654I28575J-38100D01*
G37*
G36*
G01X-1436652Y702247D02*
G01X-1436652Y727647D01*
G03X-1398552Y746697I0J47625D01*
G01X-1398552Y687647D01*
G03X-1436652Y702247I-38100J-42413D01*
G37*
G36*
G01X-1280452Y740347D02*
G01X-1280452Y714947D01*
G03X-1318552Y695897I0J-47625D01*
G01X-1318552Y759397D01*
G03X-1280452Y740347I38100J28575D01*
G37*
G36*
G01X-1115362Y727647D02*
G01X-1115362Y702247D01*
G03X-1153462Y683197I0J-47625D01*
G01X-1153462Y746697D01*
G03X-1115362Y727647I38100J28575D01*
G37*
G36*
G01X-1271562Y714947D02*
G01X-1271562Y740347D01*
G03X-1233462Y754946I0J57013D01*
G01X-1233462Y695897D01*
G03X-1271562Y714947I-38100J-28575D01*
G37*
G36*
G01X-1116048Y567754D02*
G01X-1116048Y542354D01*
G03X-1154148Y523304I0J-47625D01*
G01X-1154148Y586804D01*
G03X-1116048Y567754I38100J28575D01*
G37*
G36*
G01X-1107138Y542354D02*
G01X-1107138Y567754D01*
G03X-1069038Y586804I0J47625D01*
G01X-1069038Y527754D01*
G03X-1107138Y542354I-38100J-42413D01*
G37*
G36*
G01X-950938Y580454D02*
G01X-950938Y555054D01*
G03X-989038Y536004I0J-47625D01*
G01X-989038Y599504D01*
G03X-950938Y580454I38100J28575D01*
G37*
G36*
G01X-1106452Y702247D02*
G01X-1106452Y727647D01*
G03X-1068352Y746697I0J47625D01*
G01X-1068352Y687647D01*
G03X-1106452Y702247I-38100J-42413D01*
G37*
G36*
G01X-950252Y740347D02*
G01X-950252Y714947D01*
G03X-988352Y695897I0J-47625D01*
G01X-988352Y759397D01*
G03X-950252Y740347I38100J28575D01*
G37*
G36*
G01X-881173Y-34793D02*
G01X-881173Y-9393D01*
G03X-843073Y-7691I0J427345D01*
G01X-843073Y-53843D01*
G03X-881173Y-34793I-38100J-28575D01*
G37*
G36*
G01X-854088Y-142888D02*
G01X-854088Y-117488D01*
G03X-843073Y-102687I-4436J14801D01*
G01X-843073Y-157688D01*
G03X-854088Y-142888I-15451J0D01*
G37*
G36*
G01X-695312Y-117488D02*
G01X-695312Y-142888D01*
G03X-733073Y-157688I0J-55570D01*
G01X-733073Y-102687D01*
G03X-695312Y-117488I37761J40770D01*
G37*
G36*
G01X-462437Y-256959D02*
G01X-516318Y-310841D01*
G03X-603094Y-252684I-190647J-190647D01*
G01X-493094Y-197683D01*
G03X-462437Y-256959I108465J18531D01*
G37*
G36*
G01X-586194Y-130188D02*
G01X-509994Y-130188D01*
G03X-493094Y-197683I143233J0D01*
G01X-603094Y-197683D01*
G03X-586194Y-130188I-126333J67495D01*
G37*
G36*
G01X-509994Y-225184D02*
G01X-586194Y-225184D01*
G03X-603094Y-157688I-143233J0D01*
G01X-493094Y-157688D01*
G03X-509994Y-225184I126333J-67495D01*
G37*
G36*
G01X951626Y1293045D02*
G01X897745Y1346926D01*
G01X903297Y1353349D01*
G01X908088Y1360527D01*
G01X912136Y1368151D01*
G01X915458Y1375907D01*
G01X918073Y1383483D01*
G01X919999Y1390567D01*
G01X921254Y1396847D01*
G01X921857Y1402010D01*
G01X1006710Y1317157D01*
G01X1001546Y1316555D01*
G01X995267Y1315299D01*
G01X988183Y1313373D01*
G01X980607Y1310758D01*
G01X972851Y1307436D01*
G01X965227Y1303389D01*
G01X958048Y1298598D01*
G01X951626Y1293045D01*
G37*
G36*
G01X-1105883Y856161D02*
G01X-1099627Y830761D01*
G01X-1102002Y830505D01*
G01X-1104712Y829783D01*
G01X-1110633Y827207D01*
G01X-1116388Y823564D01*
G01X-1120977Y819388D01*
G01X-1127233Y864708D01*
G01X-1121773Y861570D01*
G01X-1115728Y858832D01*
G01X-1110097Y856895D01*
G01X-1105883Y856161D01*
G37*
G36*
G01X-1371600Y486024D02*
G01X-1346200Y486024D01*
G01X-1345325Y481429D01*
G01X-1343020Y475672D01*
G01X-1339761Y469753D01*
G01X-1336025Y464674D01*
G01X-1381775Y464674D01*
G01X-1378039Y469753D01*
G01X-1374780Y475672D01*
G01X-1372475Y481429D01*
G01X-1371600Y486024D01*
G37*
G36*
G01X1469776Y800100D02*
G01X1469776Y825500D01*
G01X1474371Y826375D01*
G01X1480128Y828680D01*
G01X1486047Y831939D01*
G01X1491126Y835675D01*
G01X1491126Y789925D01*
G01X1486047Y793661D01*
G01X1480128Y796920D01*
G01X1474371Y799225D01*
G01X1469776Y800100D01*
G37*
G36*
G01X1863476Y800100D02*
G01X1863476Y825500D01*
G01X1868071Y826375D01*
G01X1873828Y828680D01*
G01X1879747Y831939D01*
G01X1884826Y835675D01*
G01X1884826Y789925D01*
G01X1879747Y793661D01*
G01X1873828Y796920D01*
G01X1868071Y799225D01*
G01X1863476Y800100D01*
G37*
G36*
G01X1946524Y825500D02*
G01X1946524Y800100D01*
G01X1941929Y799225D01*
G01X1936172Y796920D01*
G01X1930253Y793661D01*
G01X1925174Y789925D01*
G01X1925174Y835675D01*
G01X1930253Y831939D01*
G01X1936172Y828680D01*
G01X1941929Y826375D01*
G01X1946524Y825500D01*
G37*
G36*
G01X114300Y-656976D02*
G01X139700Y-656976D01*
G01X140575Y-661571D01*
G01X142880Y-667328D01*
G01X146139Y-673247D01*
G01X149875Y-678326D01*
G01X104125Y-678326D01*
G01X107861Y-673247D01*
G01X111120Y-667328D01*
G01X113425Y-661571D01*
G01X114300Y-656976D01*
G37*
G36*
G01X139700Y-524124D02*
G01X114300Y-524124D01*
G01X113425Y-519529D01*
G01X111120Y-513772D01*
G01X107861Y-507853D01*
G01X104125Y-502774D01*
G01X149875Y-502774D01*
G01X146139Y-507853D01*
G01X142880Y-513772D01*
G01X140575Y-519529D01*
G01X139700Y-524124D01*
G37*
G36*
G01X1193800Y593476D02*
G01X1168400Y593476D01*
G01X1167525Y598071D01*
G01X1165220Y603828D01*
G01X1161961Y609747D01*
G01X1158225Y614826D01*
G01X1203975Y614826D01*
G01X1200239Y609747D01*
G01X1196980Y603828D01*
G01X1194675Y598071D01*
G01X1193800Y593476D01*
G37*
G36*
G01X1168400Y549524D02*
G01X1193800Y549524D01*
G01X1194675Y544929D01*
G01X1196980Y539172D01*
G01X1200239Y533253D01*
G01X1203975Y528174D01*
G01X1158225Y528174D01*
G01X1161961Y533253D01*
G01X1165220Y539172D01*
G01X1167525Y544929D01*
G01X1168400Y549524D01*
G37*
G36*
G01X330200Y-720476D02*
G01X355600Y-720476D01*
G01X356475Y-725071D01*
G01X358780Y-730828D01*
G01X362039Y-736747D01*
G01X365775Y-741826D01*
G01X320025Y-741826D01*
G01X323761Y-736747D01*
G01X327020Y-730828D01*
G01X329325Y-725071D01*
G01X330200Y-720476D01*
G37*
G36*
G01X-38100Y-320924D02*
G01X-63500Y-320924D01*
G01X-64375Y-316329D01*
G01X-66680Y-310572D01*
G01X-69939Y-304653D01*
G01X-73675Y-299574D01*
G01X-27925Y-299574D01*
G01X-31661Y-304653D01*
G01X-34920Y-310572D01*
G01X-37225Y-316329D01*
G01X-38100Y-320924D01*
G37*
G36*
G01X2133600Y-54224D02*
G01X2108200Y-54224D01*
G01X2107325Y-49629D01*
G01X2105020Y-43872D01*
G01X2101761Y-37953D01*
G01X2098025Y-32874D01*
G01X2143775Y-32874D01*
G01X2140039Y-37953D01*
G01X2136780Y-43872D01*
G01X2134475Y-49629D01*
G01X2133600Y-54224D01*
G37*
G36*
G01X75515Y-53300D02*
G01X83165Y-78700D01*
G01X80719Y-78960D01*
G01X77959Y-79696D01*
G01X71999Y-82319D01*
G01X66284Y-86028D01*
G01X61815Y-90280D01*
G01X54165Y-45174D01*
G01X59688Y-48158D01*
G01X65755Y-50761D01*
G01X71364Y-52602D01*
G01X75515Y-53300D01*
G37*
G36*
G01X584200Y-139700D02*
G01X584200Y-114300D01*
G01X587537Y-113425D01*
G01X592198Y-111120D01*
G01X597341Y-107861D01*
G01X602126Y-104125D01*
G01X602126Y-149875D01*
G01X597341Y-146139D01*
G01X592198Y-142880D01*
G01X587537Y-140575D01*
G01X584200Y-139700D01*
G37*
G36*
G01X822076Y800100D02*
G01X822076Y825500D01*
G01X826671Y826375D01*
G01X832428Y828680D01*
G01X838347Y831939D01*
G01X843426Y835675D01*
G01X843426Y789925D01*
G01X838347Y793661D01*
G01X832428Y796920D01*
G01X826671Y799225D01*
G01X822076Y800100D01*
G37*
G36*
G01X2162424Y-1498600D02*
G01X2162424Y-1524000D01*
G01X2157829Y-1524875D01*
G01X2152072Y-1527180D01*
G01X2146153Y-1530439D01*
G01X2141074Y-1534175D01*
G01X2141074Y-1488425D01*
G01X2146153Y-1492161D01*
G01X2152072Y-1495420D01*
G01X2157829Y-1497725D01*
G01X2162424Y-1498600D01*
G37*
G36*
G01X2570418Y-1511542D02*
G01X2552458Y-1493582D01*
G01X2555088Y-1489715D01*
G01X2557529Y-1484014D01*
G01X2559410Y-1477524D01*
G01X2560360Y-1471290D01*
G01X2592710Y-1503640D01*
G01X2586476Y-1504590D01*
G01X2579986Y-1506471D01*
G01X2574285Y-1508912D01*
G01X2570418Y-1511542D01*
G37*
G36*
G01X-987793Y-752368D02*
G01X-959122Y-745117D01*
G01X-955927Y-747648D01*
G01X-951109Y-750714D01*
G01X-945557Y-753790D01*
G01X-940160Y-756348D01*
G01X-981396Y-776165D01*
G01X-980912Y-773403D01*
G01X-980869Y-770302D01*
G01X-981960Y-763638D01*
G01X-984368Y-757288D01*
G01X-985972Y-754579D01*
G01X-987793Y-752368D01*
G37*
G36*
G01X-1980336Y-948212D02*
G01X-1954936Y-948212D01*
G01X-1954062Y-952807D01*
G01X-1951757Y-958564D01*
G01X-1948497Y-964483D01*
G01X-1944761Y-969562D01*
G01X-1990511Y-969562D01*
G01X-1986775Y-964483D01*
G01X-1983516Y-958564D01*
G01X-1981211Y-952807D01*
G01X-1980336Y-948212D01*
G37*
G36*
G01X-1988018Y-1028078D02*
G01X-2005978Y-1010118D01*
G01X-2003348Y-1006251D01*
G01X-2000907Y-1000550D01*
G01X-1999027Y-994060D01*
G01X-1998077Y-987826D01*
G01X-1965726Y-1020177D01*
G01X-1971960Y-1021127D01*
G01X-1978450Y-1023007D01*
G01X-1984151Y-1025448D01*
G01X-1988018Y-1028078D01*
G37*
G36*
G01X-1218958Y-782382D02*
G01X-1236918Y-800342D01*
G01X-1240785Y-797712D01*
G01X-1246486Y-795271D01*
G01X-1252976Y-793390D01*
G01X-1259210Y-792440D01*
G01X-1226860Y-760090D01*
G01X-1225910Y-766324D01*
G01X-1224029Y-772814D01*
G01X-1221588Y-778515D01*
G01X-1218958Y-782382D01*
G37*
G36*
G01X-584200Y-809376D02*
G01X-558800Y-809376D01*
G01X-557925Y-813971D01*
G01X-555620Y-819728D01*
G01X-552361Y-825647D01*
G01X-548625Y-830726D01*
G01X-594375Y-830726D01*
G01X-590639Y-825647D01*
G01X-587380Y-819728D01*
G01X-585075Y-813971D01*
G01X-584200Y-809376D01*
G37*
G36*
G01X-2447196Y-477272D02*
G01X-2497996Y-469754D01*
G01X-2497523Y-466543D01*
G01X-2496298Y-463359D01*
G01X-2492750Y-457325D01*
G01X-2489672Y-452169D01*
G01X-2489035Y-450080D01*
G01X-2489384Y-448404D01*
G01X-2445135Y-455922D01*
G01X-2445710Y-456811D01*
G01X-2446172Y-458423D01*
G01X-2446801Y-463385D01*
G01X-2447196Y-477272D01*
G37*
G36*
G01X-2502142Y-1503618D02*
G01X-2484182Y-1485658D01*
G01X-2480315Y-1488288D01*
G01X-2474614Y-1490729D01*
G01X-2468124Y-1492610D01*
G01X-2461890Y-1493560D01*
G01X-2494240Y-1525910D01*
G01X-2495190Y-1519676D01*
G01X-2497071Y-1513186D01*
G01X-2499512Y-1507485D01*
G01X-2502142Y-1503618D01*
G37*
G36*
G01X2159000Y731339D02*
G02X2212882Y861421I183963J0D01*
G01X2194921Y879382D01*
G02X2064839Y825500I-130082J130082D01*
G01X2057400Y800100D01*
G02X2133600Y723900I0J-76200D01*
G01X2159000Y731339D01*
G37*
G36*
G01X2074813Y1310409D02*
G01X2047872Y1337349D01*
G03X2096366Y1396619I-272101J272102D01*
G01X2134083Y1358902D01*
G03X2074813Y1310409I212832J-320595D01*
G37*
G36*
G01X-2545901Y-1459859D02*
G01X-2527941Y-1441899D01*
G03X-2464181Y-1485902I151889J151889D01*
G01X-2501898Y-1523619D01*
G03X-2545901Y-1459859I-195892J-88130D01*
G37*
G04 TearDrop End*

G04 Pad Start*
G54D12*
G01X-112718Y236177D03*
G01X-112718Y96172D03*
G01X52382Y236177D03*
G01X52382Y96172D03*
G01X217482Y236177D03*
G01X217482Y96172D03*
G01X382582Y236177D03*
G01X382582Y96172D03*
G01X482600Y628802D03*
G01X482600Y488798D03*
G54D13*
G01X31902Y901700D03*
G01X-108102Y901700D03*
G01X-1034379Y123584D03*
G01X-1174384Y123584D03*
G54D12*
G01X-1182179Y421112D03*
G01X-1182179Y281107D03*
G54D13*
G01X-572681Y136512D03*
G01X-712686Y136512D03*
G54D12*
G01X-952500Y-18898D03*
G01X-952500Y-158902D03*
G54D13*
G01X-395186Y-155595D03*
G01X-255181Y-155595D03*
G01X-395186Y9505D03*
G01X-255181Y9505D03*
G01X1631798Y1257300D03*
G01X1771802Y1257300D03*
G01X-2296678Y-1312581D03*
G01X-2436683Y-1312581D03*
G54D12*
G01X-2679700Y-1060298D03*
G01X-2679700Y-1200302D03*
G01X-2679700Y-908202D03*
G01X-2679700Y-768198D03*
G54D13*
G01X-1962302Y-546100D03*
G01X-1822298Y-546100D03*
G54D14*
G01X177800Y1409700D03*
G54D15*
G01X177800Y1155700D03*
G01X-76200Y1409700D03*
G01X-76200Y1155700D03*
G01X-330200Y1409700D03*
G01X-330200Y1155700D03*
G54D16*
G01X-101194Y571500D03*
G01X304394Y571500D03*
G54D17*
G01X-456794Y-457200D03*
G01X-51206Y-457200D03*
G54D18*
G01X1522400Y552196D03*
G01X1522400Y362204D03*
G01X1322400Y457200D03*
G01X2005000Y564896D03*
G01X2005000Y374904D03*
G01X1805000Y469900D03*
G54D20*
G01X342036Y901700D03*
G01X191364Y901700D03*
G54D21*
G01X-1028700Y418236D03*
G01X-1028700Y267564D03*
G01X647700Y634136D03*
G01X647700Y483464D03*
G01X787400Y483464D03*
G01X787400Y634136D03*
G54D20*
G01X1994764Y1257300D03*
G01X2145436Y1257300D03*
G54D21*
G01X1663700Y545236D03*
G01X1663700Y394564D03*
G54D20*
G01X1993036Y685800D03*
G01X1842364Y685800D03*
G01X-1816964Y-889000D03*
G01X-1967636Y-889000D03*
G01X-1816964Y-723900D03*
G01X-1967636Y-723900D03*
G54D22*
G01X2015884Y1596093D03*
G54D23*
G01X1590906Y1596093D03*
G54D24*
G01X1633398Y1401102D03*
G01X1973402Y1401102D03*
G54D25*
G01X-849630Y355600D03*
G01X-849630Y482600D03*
G01X-849630Y609600D03*
G01X-849630Y736600D03*
G01X-267970Y736600D03*
G01X-267970Y609600D03*
G01X-267970Y482600D03*
G01X-267970Y355600D03*
G54D26*
G01X-558800Y546100D03*
G54D27*
G01X-1510962Y714947D03*
G01X-1511648Y555054D03*
G01X-1359238Y567754D03*
G01X-1358552Y727647D03*
G01X-1193462Y714947D03*
G01X-1194148Y555054D03*
G01X-1029038Y567754D03*
G01X-1028352Y727647D03*
G54D28*
G01X-788073Y-35192D03*
G01X-788073Y-130188D03*
G01X-788073Y-225184D03*
G01X-548094Y-225184D03*
G01X-548094Y-130188D03*
G01X-548094Y-35192D03*
G54D29*
G01X1854200Y-452349D03*
G01X1727200Y-452349D03*
G01X1600200Y-452349D03*
G01X1473200Y-452349D03*
G01X1346200Y-452349D03*
G01X1219200Y-452349D03*
G01X1092200Y-452349D03*
G01X965200Y-452349D03*
G01X1854200Y122149D03*
G01X1727200Y122149D03*
G01X1600200Y122149D03*
G01X1473200Y122149D03*
G01X1346200Y122149D03*
G01X1219200Y122149D03*
G01X1092200Y122149D03*
G01X965200Y122149D03*
G54D30*
G01X1762100Y-1511300D03*
G01X1562100Y-1511300D03*
G54D31*
G01X1362100Y-1511300D03*
G54D32*
G01X2324100Y-1197508D03*
G01X2324100Y-1088492D03*
G54D33*
G01X2458390Y-1173797D03*
G01X2418410Y-1173797D03*
G01X2458390Y-1213802D03*
G01X2418410Y-1213802D03*
G54D34*
G01X1001700Y1397000D03*
G01X801700Y1397000D03*
G54D35*
G01X1968492Y-1217915D03*
G01X1968492Y-737906D03*
G01X1714492Y-1217915D03*
G01X1714492Y-737906D03*
G01X1460492Y-1217915D03*
G01X1460492Y-737906D03*
G01X1206492Y-1217915D03*
G01X1206492Y-737906D03*
G54D36*
G01X-1588198Y-414388D03*
G01X-723201Y-414388D03*
G54D37*
G01X-1588198Y-834403D03*
G01X-723201Y-834403D03*
G54D38*
G01X642245Y808246D03*
G01X-2086654Y-1422153D03*
G01X634346Y354246D03*
G54D39*
G01X-2217996Y-1167661D03*
G01X-2267983Y-1167661D03*
G01X-2317995Y-1167661D03*
G01X-2367983Y-1167661D03*
G01X-2417995Y-1167661D03*
G01X-2467982Y-1167661D03*
G54D40*
G01X-2542989Y-1092655D03*
G01X-2542989Y-1042668D03*
G01X-2542989Y-992655D03*
G01X-2542989Y-942668D03*
G01X-2542989Y-892656D03*
G01X-2542989Y-842668D03*
G54D39*
G01X-2467982Y-767662D03*
G01X-2417995Y-767662D03*
G01X-2367983Y-767662D03*
G01X-2317995Y-767662D03*
G01X-2267983Y-767662D03*
G01X-2218783Y-767662D03*
G54D40*
G01X-2142989Y-842668D03*
G01X-2142989Y-892656D03*
G01X-2142989Y-942668D03*
G01X-2142989Y-992655D03*
G01X-2142989Y-1042668D03*
G01X-2142989Y-1092655D03*
G54D41*
G01X-2344234Y-967662D03*
G04 Pad End*

G04 Via Start*
G54D42*
G01X-1144089Y839289D03*
G01X-1358900Y444500D03*
G01X1511300Y812800D03*
G01X1905000Y812800D03*
G01X127000Y-698500D03*
G01X127000Y-482600D03*
G01X1181100Y635000D03*
G01X1181100Y508000D03*
G01X342900Y-762000D03*
G01X-1158395Y-533400D03*
G01X-1270000Y-533400D03*
G01X-1340011Y247811D03*
G01X-1340011Y323689D03*
G01X-482515Y139700D03*
G01X-304800Y-317500D03*
G01X-2184400Y-571500D03*
G01X101600Y393700D03*
G01X2273300Y1270000D03*
G01X2273300Y1104900D03*
G01X2273300Y1187093D03*
G01X1471090Y-279400D03*
G01X-50800Y-279400D03*
G01X-304800Y-419100D03*
G01X-304800Y-533400D03*
G01X-2247900Y-505196D03*
G01X622300Y-12700D03*
G01X2120900Y-12700D03*
G01X38100Y-71100D03*
G01X622300Y-127000D03*
G01X2044700Y-119400D03*
G01X1854200Y-535102D03*
G01X863600Y812800D03*
G01X1308100Y292100D03*
G01X2145106Y1026998D03*
G01X-152400Y101600D03*
G01X-2336800Y-965200D03*
G01X-813664Y-215900D03*
G01X2120900Y-1511300D03*
G01X2590800Y-1473200D03*
G01X2120900Y-1407225D03*
G01X2527300Y-1422400D03*
G01X-152400Y-12700D03*
G01X-952040Y-784440D03*
G01X-1967636Y-989736D03*
G01X-1257300Y-762000D03*
G01X-12700Y-762000D03*
G01X-571500Y-850900D03*
G01X-863600Y177800D03*
G01X-2463800Y-279400D03*
G01X-2463800Y-431800D03*
G01X-2463800Y-355600D03*
G01X-2463800Y-1524000D03*
G01X-2463800Y-1447800D03*
G01X-2679700Y-768198D03*
G01X-2679700Y-1200302D03*
G01X2324100Y-1197508D03*
G01X2324100Y-1088492D03*
G01X2184400Y-965200D03*
G01X1968492Y-381000D03*
G01X1244004Y-990004D03*
G01X876300Y-571500D03*
G01X1473200Y-977900D03*
G01X-2247900Y-266700D03*
G01X1206500Y-1346200D03*
G01X1181452Y-577359D03*
G01X1618161Y-977900D03*
G01X1854200Y-1066800D03*
G01X1346200Y-1206500D03*
G01X1346200Y-1371600D03*
G01X622300Y228600D03*
G01X190500Y698500D03*
G01X1046280Y-229617D03*
G01X1262400Y-228600D03*
G01X-1451101Y-215897D03*
G01X-1475702Y-359397D03*
G01X-835698Y-359396D03*
G01X1600200Y-317500D03*
G01X1689100Y-317500D03*
G04 Via End*

G04 Track Start*
G54D11*
G01X-934783Y-22093D02*
G01X-801172Y-22093D01*
G01X-788073Y-35192D01*
G01X-934783Y-162098D02*
G01X-885998Y-162098D01*
G01X-854088Y-130188D02*
G01X-788073Y-130188D01*
G01X-885998Y-162098D02*
G01X-854088Y-130188D01*
G01X-788073Y-130188D02*
G01X-695312Y-130188D01*
G01X-635000Y-190500D01*
G01X-500154Y-487861D02*
G01X-469494Y-457200D01*
G01X-635000Y-190500D02*
G01X-635000Y-431800D01*
G01X-578939Y-487861D01*
G01X-500154Y-487861D01*
G01X-1510962Y714947D02*
G01X-1371252Y714947D01*
G01X-1358552Y727647D01*
G01X-1206162Y727647D01*
G01X-1193462Y714947D01*
G01X-1041052Y714947D01*
G01X-1028352Y727647D01*
G01X-858583Y727647D01*
G01X-849630Y736600D01*
G01X-1511648Y555054D02*
G01X-1371938Y555054D01*
G01X-1359238Y567754D01*
G01X-849630Y609600D02*
G01X-891476Y567754D01*
G01X-1029038Y567754D01*
G01X-1194148Y555054D02*
G01X-1041738Y555054D01*
G01X-1029038Y567754D01*
G01X-849630Y482600D02*
G01X-774700Y482600D01*
G01X-736600Y520700D01*
G01X-736600Y825500D02*
G01X-754561Y843461D01*
G01X-736600Y520700D02*
G01X-736600Y825500D01*
G01X-754561Y843461D02*
G01X-1139918Y843461D01*
G01X-1144089Y839289D01*
G01X-1358900Y444500D02*
G01X-1358900Y567416D01*
G01X-1359238Y567754D01*
G54D43*
G01X482600Y628802D02*
G01X642366Y628802D01*
G01X647700Y634136D01*
G01X482600Y628802D02*
G01X361696Y628802D01*
G01X342036Y901700D02*
G01X342036Y609143D01*
G01X361696Y628802D02*
G01X342036Y609143D01*
G54D11*
G01X191364Y901700D02*
G01X31902Y901700D01*
G01X-267970Y609600D02*
G01X-368300Y609600D01*
G01X-386261Y627561D01*
G01X-386261Y769439D01*
G01X-355600Y800100D01*
G01X-69698Y800100D01*
G01X31902Y901700D01*
G01X-267970Y482600D02*
G01X-190094Y482600D01*
G01X-101194Y571500D01*
G01X-1034379Y123584D02*
G01X-1028700Y129263D01*
G01X-1028700Y267564D01*
G01X647700Y483464D02*
G01X787400Y483464D01*
G01X877164Y483464D01*
G01X1206500Y812800D02*
G01X1511300Y812800D01*
G01X877164Y483464D02*
G01X1206500Y812800D01*
G01X1805000Y469900D02*
G01X1805000Y433400D01*
G01X1765300Y393700D01*
G01X1664564Y393700D01*
G01X1663700Y394564D01*
G01X1663700Y330200D01*
G01X1600200Y266700D01*
G01X1600200Y122149D01*
G01X1473200Y122149D02*
G01X1473200Y254000D01*
G01X1524000Y304800D01*
G01X1524000Y373304D02*
G01X1522400Y374904D01*
G01X1522400Y564896D02*
G01X1644040Y564896D01*
G01X1663700Y545236D01*
G01X2005000Y564896D02*
G01X2005000Y673837D01*
G01X1993036Y685800D01*
G01X2005000Y374904D02*
G01X2102104Y374904D01*
G01X2146300Y419100D01*
G01X1842364Y685800D02*
G01X1473200Y685800D01*
G01X1435100Y647700D01*
G01X1435100Y601853D01*
G01X1431999Y598752D01*
G01X1453061Y350339D02*
G01X1510535Y350339D01*
G01X1522400Y362204D01*
G01X1524000Y304800D02*
G01X1524000Y373304D01*
G01X1431999Y371401D02*
G01X1453061Y350339D01*
G01X1431999Y371401D02*
G01X1431999Y598752D01*
G01X127000Y-698500D02*
G01X127000Y-482600D01*
G01X1181100Y635000D02*
G01X1181100Y508000D01*
G01X342900Y-762000D02*
G01X342900Y-622300D01*
G01X1219200Y457200D02*
G01X1322400Y457200D01*
G01X342900Y-622300D02*
G01X698500Y-266700D01*
G01X1168400Y406400D02*
G01X1219200Y457200D01*
G01X698500Y-266700D02*
G01X698500Y342900D01*
G01X762000Y406400D01*
G01X1168400Y406400D01*
G54D43*
G01X-1242588Y421112D02*
G01X-1182179Y421112D01*
G01X-1340011Y247811D02*
G01X-1340011Y323689D01*
G01X-1242588Y421112D01*
G01X-1182179Y421112D02*
G01X-1031575Y421112D01*
G01X-1028700Y418236D01*
G01X-971651Y361187D01*
G01X-963422Y361187D01*
G01X-957835Y355600D01*
G01X-849630Y355600D01*
G01X-267970Y280670D02*
G01X-215900Y228600D01*
G01X-267970Y355600D02*
G01X-267970Y280670D01*
G01X375006Y228600D02*
G01X382582Y236177D01*
G01X-548094Y-130188D02*
G01X-548094Y-225184D01*
G01X-267970Y280670D02*
G01X-267970Y201930D01*
G01X-330200Y139700D01*
G01X-569493Y139700D02*
G01X-572681Y136512D01*
G01X-330200Y139700D02*
G01X-482515Y139700D01*
G01X-569493Y139700D01*
G01X-489377Y-283900D02*
G01X-548094Y-225184D01*
G01X-548094Y-35192D02*
G01X-439882Y-35192D01*
G01X-395186Y9505D01*
G01X-395186Y-155595D01*
G01X-548094Y-35192D02*
G01X-596900Y13614D01*
G01X1471090Y-279400D02*
G01X1471090Y-450239D01*
G01X1473200Y-452349D01*
G01X1471090Y-279400D02*
G01X1471090Y-205310D01*
G01X1536700Y-139700D01*
G01X1765300Y-139700D01*
G01X1854200Y-50800D01*
G01X1854200Y122149D01*
G54D11*
G01X-51206Y-457200D02*
G01X-50800Y-456794D01*
G01X-50800Y-279400D01*
G54D43*
G01X-338400Y-283900D02*
G01X-304800Y-317500D01*
G01X-338400Y-283900D02*
G01X-489377Y-283900D01*
G01X-304800Y-317500D02*
G01X-304800Y-419100D01*
G01X-304800Y-533400D01*
G54D11*
G01X-51206Y-457200D02*
G01X-152400Y-457200D01*
G01X-243800Y-365800D01*
G01X-243800Y-291433D01*
G01X-348161Y-134439D02*
G01X-374030Y-134439D01*
G01X-395186Y-155595D01*
G01X-243800Y-291433D02*
G01X-323081Y-212152D01*
G01X-323081Y-159519D01*
G01X-348161Y-134439D01*
G01X2120900Y-12700D02*
G01X2120900Y-1257300D01*
G01X2184400Y-1320800D01*
G01X584200Y-127000D02*
G01X622300Y-127000D01*
G01X787400Y634136D02*
G01X787400Y787400D01*
G01X812800Y812800D01*
G01X863600Y812800D01*
G01X-712686Y136512D02*
G01X-712686Y57525D01*
G01X-688781Y33619D01*
G54D43*
G01X1001700Y1397000D02*
G01X709600Y1104900D01*
G01X342036Y989736D02*
G01X342036Y901700D01*
G01X709600Y1104900D02*
G01X457200Y1104900D01*
G01X342036Y989736D01*
G54D11*
G01X1631798Y1257300D02*
G01X1631798Y1399502D01*
G01X1633398Y1401102D01*
G01X1631798Y1257300D02*
G01X1631798Y857402D01*
G01X1676400Y812800D02*
G01X1905000Y812800D01*
G01X1631798Y857402D02*
G01X1676400Y812800D01*
G01X2145436Y1257300D02*
G01X2209800Y1192936D01*
G01X2146300Y419100D02*
G01X2146300Y812800D01*
G01X1905000Y812800D02*
G01X2146300Y812800D01*
G01X2209800Y1192936D02*
G01X2209800Y876300D01*
G01X2146300Y812800D01*
G54D43*
G01X2273300Y1270000D02*
G01X2273300Y1371600D01*
G01X2247900Y1397000D01*
G54D44*
G01X2134464Y1397000D02*
G01X1994764Y1257300D01*
G54D43*
G01X2134464Y1397000D02*
G01X2247900Y1397000D01*
G54D11*
G01X2552700Y-1511300D02*
G01X2590800Y-1473200D01*
G01X-2075089Y-860024D02*
G01X-2107721Y-892656D01*
G01X-2142989Y-892656D01*
G01X-1967636Y-749300D02*
G01X-2039489Y-821153D01*
G01X-2039489Y-974411D01*
G01X-2107746Y-1042668D01*
G01X-2142989Y-1042668D01*
G01X-2070555Y-1092655D02*
G01X-2142989Y-1092655D01*
G01X-1967636Y-989736D02*
G01X-2070555Y-1092655D01*
G01X-2542989Y-942668D02*
G01X-2600632Y-942668D01*
G01X-2635098Y-908202D02*
G01X-2679700Y-908202D01*
G01X-2600632Y-942668D02*
G01X-2635098Y-908202D01*
G01X-2542989Y-1042668D02*
G01X-2662070Y-1042668D01*
G01X-2679700Y-1060298D01*
G01X-1642392Y-693500D02*
G01X-1028700Y-693500D01*
G01X-952040Y-770160D01*
G01X-952040Y-784440D01*
G54D43*
G01X-1816964Y-749300D02*
G01X-1816964Y-876300D01*
G54D11*
G01X-1700892Y-635000D02*
G01X-1642392Y-693500D01*
G01X-1967636Y-749300D02*
G01X-1967636Y-723036D01*
G01X-1879600Y-635000D01*
G01X-1700892Y-635000D01*
G01X-1975002Y-565302D02*
G01X-2075089Y-665389D01*
G01X-2075089Y-860024D01*
G01X-1967636Y-889000D02*
G01X-1967636Y-989736D01*
G01X-1257300Y-762000D02*
G01X-1176460Y-842840D01*
G01X-927850Y-842840D01*
G01X-923210Y-838200D01*
G01X-900350Y-838200D01*
G01X-757696Y-695546D01*
G01X-637046Y-695546D01*
G01X-571500Y-850900D02*
G01X-571500Y-761092D01*
G01X-637046Y-695546D01*
G01X38100Y-66000D02*
G01X523200Y-66000D01*
G01X584200Y-127000D01*
G54D43*
G01X-2296678Y-1471178D02*
G01X-2296678Y-1312581D01*
G01X-2463800Y-1524000D02*
G01X-2349500Y-1524000D01*
G01X-2296678Y-1471178D01*
G01X-2296678Y-1312581D02*
G01X-2292198Y-1308100D01*
G01X-1993900Y-1308100D02*
G01X-1882867Y-1197067D01*
G01X-1816964Y-923315D02*
G01X-1816964Y-889000D01*
G01X-1882867Y-1197067D02*
G01X-1882867Y-1056769D01*
G02X-1816964Y-923315I168072J0D01*
G54D11*
G01X-2463800Y-1524000D02*
G01X-2590800Y-1397000D01*
G01X-2590800Y-1149198D02*
G01X-2679700Y-1060298D01*
G01X-2590800Y-1397000D02*
G01X-2590800Y-1149198D01*
G54D45*
G01X-2463800Y-431800D02*
G01X-2472596Y-440596D01*
G01X-2472596Y-767662D01*
G54D11*
G01X-2542989Y-892656D02*
G01X-2419240Y-892656D01*
G01X-2344234Y-967662D01*
G01X-2542989Y-992655D02*
G01X-2369227Y-992655D01*
G01X-2344234Y-967662D01*
G01X-2218783Y-767662D02*
G01X-2218783Y-842211D01*
G01X-2344234Y-967662D01*
G01X-2217996Y-1167661D02*
G01X-2217996Y-1093900D01*
G01X-2344234Y-967662D01*
G01X-2363783Y-1239681D02*
G01X-2245122Y-1239681D01*
G01X-2436683Y-1312581D02*
G01X-2363783Y-1239681D01*
G01X-2217996Y-1167661D02*
G01X-2217996Y-1212554D01*
G01X-2245122Y-1239681D01*
G01X2120900Y-1511300D02*
G01X2552700Y-1511300D01*
G01X2184400Y-1320800D02*
G01X2400300Y-1320800D01*
G01X2463800Y-1257300D02*
G01X2463800Y-1219200D01*
G01X2400300Y-1320800D02*
G01X2463800Y-1257300D01*
G01X2169654Y-1356400D02*
G01X2440900Y-1356400D01*
G01X2501900Y-1295400D01*
G01X2501900Y-1193800D01*
G01X2458390Y-1173797D02*
G01X2481898Y-1173797D01*
G01X2501900Y-1193800D01*
G01X2169654Y-1356400D02*
G01X2044700Y-1231446D01*
G01X2418410Y-1173797D02*
G01X2347811Y-1173797D01*
G01X2324100Y-1197508D01*
G01X2260600Y-1270000D02*
G01X2235200Y-1244600D01*
G01X2418410Y-1213802D02*
G01X2362213Y-1270000D01*
G01X2260600Y-1270000D01*
G01X2235200Y-1244600D02*
G01X2235200Y-1117600D01*
G01X2264308Y-1088492D02*
G01X2324100Y-1088492D01*
G01X2235200Y-1117600D02*
G01X2264308Y-1088492D01*
G01X2235200Y-1117600D02*
G01X2235200Y-1028700D01*
G01X2171700Y-965200D01*
G01X647700Y634136D02*
G01X647700Y802791D01*
G01X647700Y483464D02*
G01X647046Y482810D01*
G01X647046Y354246D01*
G01X-2095500Y-1333500D02*
G01X-2095500Y-1371600D01*
G01X-2082800Y-1384300D01*
G01X-2082800Y-1418299D01*
G01X-2086654Y-1422153D01*
G01X1739892Y-737906D02*
G01X1790700Y-687098D01*
G01X1714492Y-737906D02*
G01X1739892Y-737906D01*
G01X2120900Y-12700D02*
G01X1978567Y-12700D01*
G01X1790700Y-200567D01*
G01X1790700Y-687098D01*
G01X1714492Y-1217915D02*
G01X1714492Y-1028708D01*
G01X1752600Y-990600D01*
G01X2041784Y-990600D01*
G01X2044700Y-987684D01*
G01X2044700Y-1231446D02*
G01X2044700Y-987684D01*
G01X2044700Y-119400D01*
G01X1244004Y-990004D02*
G01X1091604Y-990004D01*
G01X1066800Y-965200D01*
G01X1066800Y-622300D01*
G54D43*
G01X-2292198Y-1308100D02*
G01X-1993900Y-1308100D01*
G54D11*
G01X1066800Y-622300D02*
G01X1016000Y-571500D01*
G01X876300Y-571500D01*
G01X1618161Y-977900D02*
G01X1643561Y-952500D01*
G01X1917700Y-952500D01*
G01X1968500Y-901700D01*
G01X1968500Y-737913D01*
G01X1854200Y-1066800D02*
G01X1968492Y-1181092D01*
G01X1968492Y-1217915D01*
G54D43*
G01X1460492Y-737906D02*
G01X1460492Y-825508D01*
G01X1346200Y-939800D01*
G01X1346200Y-1206500D01*
G01X622300Y228600D02*
G01X375006Y228600D01*
G01X-215900Y228600D02*
G01X375006Y228600D01*
G54D11*
G01X1046280Y-229617D02*
G01X1169417Y-229617D01*
G01X1219200Y-279400D01*
G01X1219200Y-452349D01*
G01X1262400Y-228600D02*
G01X1320800Y-228600D01*
G01X1346200Y-254000D01*
G01X1346200Y-452349D01*
G01X1600200Y-317500D02*
G01X1600200Y-452349D01*
G01X1689100Y-317500D02*
G01X1727200Y-355600D01*
G01X1727200Y-452349D01*
G01X622300Y-12700D02*
G01X-152400Y-12700D01*
G04 Track End*

M02*

