G04 Layer: BottomPasteMaskLayer*
G04 EasyEDA Pro v3.2.58, 2026-03-15 17:59:32*
G04 Gerber Generator version 0.3*
G04 Scale: 100 percent, Rotated: No, Reflected: No*
G04 Dimensions in millimeters*
G04 Leading zeros omitted, absolute positions, 4 integers and 5 decimals*
G04 Generated by one-click*
%FSLAX45Y45*%
%MOMM*%
%AMPolygonMacro1*4,1,7,-0.52497,0.0,-0.12497,0.0,-0.12497,-0.65001,0.52499,-0.65001,0.52499,0.65001,-0.52499,0.65001,-0.52499,0.00003,-0.52497,0.0,0*%
%AMPolygonMacro2*4,1,7,0.12497,-0.65001,0.12497,0.0,0.52497,0.0,0.52499,0.00003,0.52499,0.65001,-0.52499,0.65001,-0.52499,-0.65001,0.12497,-0.65001,0*%
%ADD10R,0.9X0.8*%
%ADD11R,0.8X0.9*%
%ADD12R,1.4X2.12001*%
%ADD13R,1.4X2.4*%
%ADD14R,1.25001X0.7*%
%ADD15PolygonMacro1*%
%ADD16C,0.4613*%
%ADD17PolygonMacro2*%
%ADD18R,0.6X1.2*%
%ADD19R,1.2X0.6*%
%ADD20R,2.4X3.29999*%
%ADD21R,0.8X0.8*%
%ADD22R,1.1X0.55001*%
%ADD23O,0.55999X1.74501*%
%ADD24C,0.18001*%
%ADD25R,0.8X3.19999*%
G75*


G04 PolygonModel Start*
G36*
G01X386202Y856701D02*
G01X391201Y861703D01*
G01X391201Y941702D01*
G01X386202Y946701D01*
G01X306202Y946701D01*
G01X301201Y941702D01*
G01X301201Y917499D01*
G01X338201Y917499D01*
G01X338201Y884499D01*
G01X301201Y884499D01*
G01X301201Y861703D01*
G01X306202Y856701D01*
G01X386202Y856701D01*
G37*
G36*
G01X147198Y946699D02*
G01X142199Y941697D01*
G01X142199Y861698D01*
G01X147198Y856699D01*
G01X227198Y856699D01*
G01X232199Y861698D01*
G01X232199Y885901D01*
G01X195199Y885901D01*
G01X195199Y918901D01*
G01X232199Y918901D01*
G01X232199Y941697D01*
G01X227198Y946699D01*
G01X147198Y946699D01*
G37*
G36*
G01X-983701Y462402D02*
G01X-988703Y467401D01*
G01X-1068702Y467401D01*
G01X-1073701Y462402D01*
G01X-1073701Y382402D01*
G01X-1068702Y377401D01*
G01X-1044499Y377401D01*
G01X-1044499Y414401D01*
G01X-1011499Y414401D01*
G01X-1011499Y377401D01*
G01X-988703Y377401D01*
G01X-983701Y382402D01*
G01X-983701Y462402D01*
G37*
G36*
G01X-1073699Y223398D02*
G01X-1068697Y218399D01*
G01X-988698Y218399D01*
G01X-983699Y223398D01*
G01X-983699Y303398D01*
G01X-988698Y308399D01*
G01X-1012901Y308399D01*
G01X-1012901Y271399D01*
G01X-1045901Y271399D01*
G01X-1045901Y308399D01*
G01X-1068697Y308399D01*
G01X-1073699Y303398D01*
G01X-1073699Y223398D01*
G37*
G36*
G01X692699Y678302D02*
G01X687697Y683301D01*
G01X607698Y683301D01*
G01X602699Y678302D01*
G01X602699Y598302D01*
G01X607698Y593301D01*
G01X631901Y593301D01*
G01X631901Y630301D01*
G01X664901Y630301D01*
G01X664901Y593301D01*
G01X687697Y593301D01*
G01X692699Y598302D01*
G01X692699Y678302D01*
G37*
G36*
G01X602701Y439298D02*
G01X607703Y434299D01*
G01X687702Y434299D01*
G01X692701Y439298D01*
G01X692701Y519298D01*
G01X687702Y524299D01*
G01X663499Y524299D01*
G01X663499Y487299D01*
G01X630499Y487299D01*
G01X630499Y524299D01*
G01X607703Y524299D01*
G01X602701Y519298D01*
G01X602701Y439298D01*
G37*
G36*
G01X742401Y439298D02*
G01X747403Y434299D01*
G01X827402Y434299D01*
G01X832401Y439298D01*
G01X832401Y519298D01*
G01X827402Y524299D01*
G01X803199Y524299D01*
G01X803199Y487299D01*
G01X770199Y487299D01*
G01X770199Y524299D01*
G01X747403Y524299D01*
G01X742401Y519298D01*
G01X742401Y439298D01*
G37*
G36*
G01X832399Y678302D02*
G01X827397Y683301D01*
G01X747398Y683301D01*
G01X742399Y678302D01*
G01X742399Y598302D01*
G01X747398Y593301D01*
G01X771601Y593301D01*
G01X771601Y630301D01*
G01X804601Y630301D01*
G01X804601Y593301D01*
G01X827397Y593301D01*
G01X832399Y598302D01*
G01X832399Y678302D01*
G37*
G36*
G01X1950598Y1302299D02*
G01X1945599Y1297297D01*
G01X1945599Y1217298D01*
G01X1950598Y1212299D01*
G01X2030598Y1212299D01*
G01X2035599Y1217298D01*
G01X2035599Y1241501D01*
G01X1998599Y1241501D01*
G01X1998599Y1274501D01*
G01X2035599Y1274501D01*
G01X2035599Y1297297D01*
G01X2030598Y1302299D01*
G01X1950598Y1302299D01*
G37*
G36*
G01X2189602Y1212301D02*
G01X2194601Y1217303D01*
G01X2194601Y1297302D01*
G01X2189602Y1302301D01*
G01X2109602Y1302301D01*
G01X2104601Y1297302D01*
G01X2104601Y1273099D01*
G01X2141601Y1273099D01*
G01X2141601Y1240099D01*
G01X2104601Y1240099D01*
G01X2104601Y1217303D01*
G01X2109602Y1212301D01*
G01X2189602Y1212301D01*
G37*
G36*
G01X1708699Y589402D02*
G01X1703697Y594401D01*
G01X1623698Y594401D01*
G01X1618699Y589402D01*
G01X1618699Y509402D01*
G01X1623698Y504401D01*
G01X1647901Y504401D01*
G01X1647901Y541401D01*
G01X1680901Y541401D01*
G01X1680901Y504401D01*
G01X1703697Y504401D01*
G01X1708699Y509402D01*
G01X1708699Y589402D01*
G37*
G36*
G01X1618701Y350398D02*
G01X1623703Y345399D01*
G01X1703702Y345399D01*
G01X1708701Y350398D01*
G01X1708701Y430398D01*
G01X1703702Y435399D01*
G01X1679499Y435399D01*
G01X1679499Y398399D01*
G01X1646499Y398399D01*
G01X1646499Y435399D01*
G01X1623703Y435399D01*
G01X1618701Y430398D01*
G01X1618701Y350398D01*
G37*
G36*
G01X2037202Y640801D02*
G01X2042201Y645803D01*
G01X2042201Y725802D01*
G01X2037202Y730801D01*
G01X1957202Y730801D01*
G01X1952201Y725802D01*
G01X1952201Y701599D01*
G01X1989201Y701599D01*
G01X1989201Y668599D01*
G01X1952201Y668599D01*
G01X1952201Y645803D01*
G01X1957202Y640801D01*
G01X2037202Y640801D01*
G37*
G36*
G01X1798198Y730799D02*
G01X1793199Y725797D01*
G01X1793199Y645798D01*
G01X1798198Y640799D01*
G01X1878198Y640799D01*
G01X1883199Y645798D01*
G01X1883199Y670001D01*
G01X1846199Y670001D01*
G01X1846199Y703001D01*
G01X1883199Y703001D01*
G01X1883199Y725797D01*
G01X1878198Y730799D01*
G01X1798198Y730799D01*
G37*
G36*
G01X-1772798Y-933999D02*
G01X-1767799Y-928997D01*
G01X-1767799Y-848998D01*
G01X-1772798Y-843999D01*
G01X-1852798Y-843999D01*
G01X-1857799Y-848998D01*
G01X-1857799Y-873201D01*
G01X-1820799Y-873201D01*
G01X-1820799Y-906201D01*
G01X-1857799Y-906201D01*
G01X-1857799Y-928997D01*
G01X-1852798Y-933999D01*
G01X-1772798Y-933999D01*
G37*
G36*
G01X-2011802Y-844001D02*
G01X-2016801Y-849003D01*
G01X-2016801Y-929002D01*
G01X-2011802Y-934001D01*
G01X-1931802Y-934001D01*
G01X-1926801Y-929002D01*
G01X-1926801Y-904799D01*
G01X-1963801Y-904799D01*
G01X-1963801Y-871799D01*
G01X-1926801Y-871799D01*
G01X-1926801Y-849003D01*
G01X-1931802Y-844001D01*
G01X-2011802Y-844001D01*
G37*
G36*
G01X-1772798Y-768899D02*
G01X-1767799Y-763897D01*
G01X-1767799Y-683898D01*
G01X-1772798Y-678899D01*
G01X-1852798Y-678899D01*
G01X-1857799Y-683898D01*
G01X-1857799Y-708101D01*
G01X-1820799Y-708101D01*
G01X-1820799Y-741101D01*
G01X-1857799Y-741101D01*
G01X-1857799Y-763897D01*
G01X-1852798Y-768899D01*
G01X-1772798Y-768899D01*
G37*
G36*
G01X-2011802Y-678901D02*
G01X-2016801Y-683903D01*
G01X-2016801Y-763902D01*
G01X-2011802Y-768901D01*
G01X-1931802Y-768901D01*
G01X-1926801Y-763902D01*
G01X-1926801Y-739699D01*
G01X-1963801Y-739699D01*
G01X-1963801Y-706699D01*
G01X-1926801Y-706699D01*
G01X-1926801Y-683903D01*
G01X-1931802Y-678901D01*
G01X-2011802Y-678901D01*
G37*
G36*
G01X2301598Y-1124996D02*
G01X2346599Y-1124996D01*
G01X2351598Y-1117999D01*
G01X2351598Y-1069998D01*
G01X2346599Y-1064997D01*
G01X2301598Y-1064997D01*
G01X2296599Y-1069998D01*
G01X2296599Y-1117999D01*
G01X2301598Y-1124996D01*
G37*
G36*
G01X2301598Y-1220998D02*
G01X2346599Y-1220998D01*
G01X2351598Y-1215997D01*
G01X2351598Y-1167999D01*
G01X2346599Y-1160998D01*
G01X2301598Y-1160998D01*
G01X2296599Y-1167999D01*
G01X2296599Y-1215997D01*
G01X2301598Y-1220998D01*
G37*
G36*
G01X-2116990Y-1106656D02*
G03X-2116990Y-1078655I0J14000D01*
G01X-2168989Y-1078655D01*
G03X-2168989Y-1106656I0J-14000D01*
G01X-2116990Y-1106656D01*
G37*
G36*
G01X-2116990Y-1056668D02*
G03X-2116990Y-1028667I0J14000D01*
G01X-2168989Y-1028667D01*
G03X-2168989Y-1056668I0J-14000D01*
G01X-2116990Y-1056668D01*
G37*
G36*
G01X-2116990Y-1006656D02*
G03X-2116990Y-978655I0J14000D01*
G01X-2168989Y-978655D01*
G03X-2168989Y-1006656I0J-14000D01*
G01X-2116990Y-1006656D01*
G37*
G36*
G01X-2116990Y-956669D02*
G03X-2116990Y-928668I0J14000D01*
G01X-2168989Y-928668D01*
G03X-2168989Y-956669I0J-14000D01*
G01X-2116990Y-956669D01*
G37*
G36*
G01X-2116990Y-906656D02*
G03X-2116990Y-878655I0J14000D01*
G01X-2168989Y-878655D01*
G03X-2168989Y-906656I0J-14000D01*
G01X-2116990Y-906656D01*
G37*
G36*
G01X-2116990Y-856669D02*
G03X-2116990Y-828668I0J14000D01*
G01X-2168989Y-828668D01*
G03X-2168989Y-856669I0J-14000D01*
G01X-2116990Y-856669D01*
G37*
G36*
G01X-2204782Y-741663D02*
G03X-2232783Y-741663I-14000J0D01*
G01X-2232783Y-793662D01*
G03X-2204782Y-793662I14000J0D01*
G01X-2204782Y-741663D01*
G37*
G36*
G01X-2253982Y-741663D02*
G03X-2281983Y-741663I-14000J0D01*
G01X-2281983Y-793662D01*
G03X-2253982Y-793662I14000J0D01*
G01X-2253982Y-741663D01*
G37*
G36*
G01X-2303995Y-741663D02*
G03X-2331996Y-741663I-14000J0D01*
G01X-2331996Y-793662D01*
G03X-2303995Y-793662I14000J0D01*
G01X-2303995Y-741663D01*
G37*
G36*
G01X-2353982Y-741663D02*
G03X-2381983Y-741663I-14000J0D01*
G01X-2381983Y-793662D01*
G03X-2353982Y-793662I14000J0D01*
G01X-2353982Y-741663D01*
G37*
G36*
G01X-2403995Y-741663D02*
G03X-2431996Y-741663I-14000J0D01*
G01X-2431996Y-793662D01*
G03X-2403995Y-793662I14000J0D01*
G01X-2403995Y-741663D01*
G37*
G36*
G01X-2453982Y-741663D02*
G03X-2481983Y-741663I-14000J0D01*
G01X-2481983Y-793662D01*
G03X-2453982Y-793662I14000J0D01*
G01X-2453982Y-741663D01*
G37*
G36*
G01X-2516989Y-856669D02*
G03X-2516989Y-828668I0J14000D01*
G01X-2568988Y-828668D01*
G03X-2568988Y-856669I0J-14000D01*
G01X-2516989Y-856669D01*
G37*
G36*
G01X-2516989Y-906656D02*
G03X-2516989Y-878655I0J14000D01*
G01X-2568988Y-878655D01*
G03X-2568988Y-906656I0J-14000D01*
G01X-2516989Y-906656D01*
G37*
G36*
G01X-2516989Y-956669D02*
G03X-2516989Y-928668I0J14000D01*
G01X-2568988Y-928668D01*
G03X-2568988Y-956669I0J-14000D01*
G01X-2516989Y-956669D01*
G37*
G36*
G01X-2516989Y-1006656D02*
G03X-2516989Y-978655I0J14000D01*
G01X-2568988Y-978655D01*
G03X-2568988Y-1006656I0J-14000D01*
G01X-2516989Y-1006656D01*
G37*
G36*
G01X-2516989Y-1056668D02*
G03X-2516989Y-1028667I0J14000D01*
G01X-2568988Y-1028667D01*
G03X-2568988Y-1056668I0J-14000D01*
G01X-2516989Y-1056668D01*
G37*
G36*
G01X-2516989Y-1106656D02*
G03X-2516989Y-1078655I0J14000D01*
G01X-2568988Y-1078655D01*
G03X-2568988Y-1106656I0J-14000D01*
G01X-2516989Y-1106656D01*
G37*
G36*
G01X-2453982Y-1141662D02*
G03X-2481983Y-1141662I-14000J0D01*
G01X-2481983Y-1193661D01*
G03X-2453982Y-1193661I14000J0D01*
G01X-2453982Y-1141662D01*
G37*
G36*
G01X-2403995Y-1141662D02*
G03X-2431996Y-1141662I-14000J0D01*
G01X-2431996Y-1193661D01*
G03X-2403995Y-1193661I14000J0D01*
G01X-2403995Y-1141662D01*
G37*
G36*
G01X-2353982Y-1141662D02*
G03X-2381983Y-1141662I-14000J0D01*
G01X-2381983Y-1193661D01*
G03X-2353982Y-1193661I14000J0D01*
G01X-2353982Y-1141662D01*
G37*
G36*
G01X-2303995Y-1141662D02*
G03X-2331996Y-1141662I-14000J0D01*
G01X-2331996Y-1193661D01*
G03X-2303995Y-1193661I14000J0D01*
G01X-2303995Y-1141662D01*
G37*
G36*
G01X-2253982Y-1141662D02*
G03X-2281983Y-1141662I-14000J0D01*
G01X-2281983Y-1193661D01*
G03X-2253982Y-1193661I14000J0D01*
G01X-2253982Y-1141662D01*
G37*
G36*
G01X-2203995Y-1141662D02*
G03X-2231996Y-1141662I-14000J0D01*
G01X-2231996Y-1193661D01*
G03X-2203995Y-1193661I14000J0D01*
G01X-2203995Y-1141662D01*
G37*
G36*
G01X-2236233Y-859661D02*
G01X-2452234Y-859661D01*
G01X-2452234Y-1075663D01*
G01X-2236233Y-1075663D01*
G01X-2236233Y-859661D01*
G37*

G04 Pad Start*
G54D10*
G01X-112718Y236177D03*
G01X-112718Y96172D03*
G01X52382Y236177D03*
G01X52382Y96172D03*
G01X217482Y236177D03*
G01X217482Y96172D03*
G01X382582Y236177D03*
G01X382582Y96172D03*
G01X482600Y628802D03*
G01X482600Y488798D03*
G54D11*
G01X31902Y901700D03*
G01X-108102Y901700D03*
G01X-1034379Y123584D03*
G01X-1174384Y123584D03*
G54D10*
G01X-1182179Y421112D03*
G01X-1182179Y281107D03*
G54D11*
G01X-572681Y136512D03*
G01X-712686Y136512D03*
G54D10*
G01X-952500Y-18898D03*
G01X-952500Y-158902D03*
G54D11*
G01X-395186Y-155595D03*
G01X-255181Y-155595D03*
G01X-395186Y9505D03*
G01X-255181Y9505D03*
G01X1631798Y1257300D03*
G01X1771802Y1257300D03*
G01X-2296678Y-1312581D03*
G01X-2436683Y-1312581D03*
G54D10*
G01X-2679700Y-1060298D03*
G01X-2679700Y-1200302D03*
G01X-2679700Y-908202D03*
G01X-2679700Y-768198D03*
G54D11*
G01X-1962302Y-546100D03*
G01X-1822298Y-546100D03*
G54D12*
G01X-101194Y571500D03*
G01X304394Y571500D03*
G54D13*
G01X-456794Y-457200D03*
G01X-51206Y-457200D03*
G54D14*
G01X1522400Y552196D03*
G01X1522400Y362204D03*
G01X1322400Y457200D03*
G01X2005000Y564896D03*
G01X2005000Y374904D03*
G01X1805000Y469900D03*
G54D15*
G01X2015884Y1596093D03*
G54D17*
G01X1590906Y1596093D03*
G54D18*
G01X1633398Y1401102D03*
G01X1973402Y1401102D03*
G54D19*
G01X-849630Y355600D03*
G01X-849630Y482600D03*
G01X-849630Y609600D03*
G01X-849630Y736600D03*
G01X-267970Y736600D03*
G01X-267970Y609600D03*
G01X-267970Y482600D03*
G01X-267970Y355600D03*
G54D20*
G01X-558800Y546100D03*
G54D21*
G01X-1510962Y714947D03*
G01X-1511648Y555054D03*
G01X-1359238Y567754D03*
G01X-1358552Y727647D03*
G01X-1193462Y714947D03*
G01X-1194148Y555054D03*
G01X-1029038Y567754D03*
G01X-1028352Y727647D03*
G54D22*
G01X-788073Y-35192D03*
G01X-788073Y-130188D03*
G01X-788073Y-225184D03*
G01X-548094Y-225184D03*
G01X-548094Y-130188D03*
G01X-548094Y-35192D03*
G54D23*
G01X1854200Y-452349D03*
G01X1727200Y-452349D03*
G01X1600200Y-452349D03*
G01X1473200Y-452349D03*
G01X1346200Y-452349D03*
G01X1219200Y-452349D03*
G01X1092200Y-452349D03*
G01X965200Y-452349D03*
G01X1854200Y122149D03*
G01X1727200Y122149D03*
G01X1600200Y122149D03*
G01X1473200Y122149D03*
G01X1346200Y122149D03*
G01X1219200Y122149D03*
G01X1092200Y122149D03*
G01X965200Y122149D03*
G54D24*
G01X2458390Y-1173797D03*
G01X2418410Y-1173797D03*
G01X2458390Y-1213802D03*
G01X2418410Y-1213802D03*
G54D25*
G01X1968492Y-1217915D03*
G01X1968492Y-737906D03*
G01X1714492Y-1217915D03*
G01X1714492Y-737906D03*
G01X1460492Y-1217915D03*
G01X1460492Y-737906D03*
G01X1206492Y-1217915D03*
G01X1206492Y-737906D03*
G04 Pad End*

M02*

