G04 Layer: TopPasteMaskLayer*
G04 EasyEDA Pro v3.2.58, 2026-03-15 17:59:32*
G04 Gerber Generator version 0.3*
G04 Scale: 100 percent, Rotated: No, Reflected: No*
G04 Dimensions in millimeters*
G04 Leading zeros omitted, absolute positions, 4 integers and 5 decimals*
G04 Generated by one-click*
%FSLAX45Y45*%
%MOMM*%
%ADD10R,3.59999X3.59999*%
%ADD11R,1.0X2.99999*%
%ADD12R,2.99999X1.0*%
%ADD13R,2.0X2.99999*%
%ADD14R,0.3X1.25001*%
%ADD15C,0.8427*%
G75*


G04 PolygonModel Start*
G36*
G01X140806Y-96168D02*
G01X135805Y-101167D01*
G01X55805Y-101167D01*
G01X50806Y-96168D01*
G01X50806Y-16168D01*
G01X55805Y-11167D01*
G01X80009Y-11167D01*
G01X80009Y-48167D01*
G01X113008Y-48167D01*
G01X113008Y-11167D01*
G01X135805Y-11167D01*
G01X140806Y-16168D01*
G01X140806Y-96168D01*
G37*
G36*
G01X50809Y142836D02*
G01X55810Y147834D01*
G01X135810Y147834D01*
G01X140809Y142836D01*
G01X140809Y62836D01*
G01X135810Y57835D01*
G01X111606Y57835D01*
G01X111606Y94835D01*
G01X78607Y94835D01*
G01X78607Y57835D01*
G01X55810Y57835D01*
G01X50809Y62836D01*
G01X50809Y142836D01*
G37*
G36*
G01X140806Y-400968D02*
G01X135805Y-405967D01*
G01X55805Y-405967D01*
G01X50806Y-400968D01*
G01X50806Y-320968D01*
G01X55805Y-315967D01*
G01X80009Y-315967D01*
G01X80009Y-352967D01*
G01X113008Y-352967D01*
G01X113008Y-315967D01*
G01X135805Y-315967D01*
G01X140806Y-320968D01*
G01X140806Y-400968D01*
G37*
G36*
G01X50809Y-161964D02*
G01X55810Y-156966D01*
G01X135810Y-156966D01*
G01X140809Y-161964D01*
G01X140809Y-241964D01*
G01X135810Y-246965D01*
G01X111606Y-246965D01*
G01X111606Y-209965D01*
G01X78607Y-209965D01*
G01X78607Y-246965D01*
G01X55810Y-246965D01*
G01X50809Y-241964D01*
G01X50809Y-161964D01*
G37*
G36*
G01X-1252098Y-170901D02*
G01X-1247099Y-175903D01*
G01X-1247099Y-255902D01*
G01X-1252098Y-260901D01*
G01X-1332098Y-260901D01*
G01X-1337099Y-255902D01*
G01X-1337099Y-231699D01*
G01X-1300099Y-231699D01*
G01X-1300099Y-198699D01*
G01X-1337099Y-198699D01*
G01X-1337099Y-175903D01*
G01X-1332098Y-170901D01*
G01X-1252098Y-170901D01*
G37*
G36*
G01X-1491102Y-260899D02*
G01X-1496101Y-255897D01*
G01X-1496101Y-175898D01*
G01X-1491102Y-170899D01*
G01X-1411102Y-170899D01*
G01X-1406101Y-175898D01*
G01X-1406101Y-200101D01*
G01X-1443101Y-200101D01*
G01X-1443101Y-233101D01*
G01X-1406101Y-233101D01*
G01X-1406101Y-255897D01*
G01X-1411102Y-260899D01*
G01X-1491102Y-260899D01*
G37*
G36*
G01X-1033902Y-248199D02*
G01X-1038901Y-243197D01*
G01X-1038901Y-163198D01*
G01X-1033902Y-158199D01*
G01X-953902Y-158199D01*
G01X-948901Y-163198D01*
G01X-948901Y-187401D01*
G01X-985901Y-187401D01*
G01X-985901Y-220401D01*
G01X-948901Y-220401D01*
G01X-948901Y-243197D01*
G01X-953902Y-248199D01*
G01X-1033902Y-248199D01*
G37*
G36*
G01X-794898Y-158201D02*
G01X-789899Y-163203D01*
G01X-789899Y-243202D01*
G01X-794898Y-248201D01*
G01X-874898Y-248201D01*
G01X-879899Y-243202D01*
G01X-879899Y-218999D01*
G01X-842899Y-218999D01*
G01X-842899Y-185999D01*
G01X-879899Y-185999D01*
G01X-879899Y-163203D01*
G01X-874898Y-158201D01*
G01X-794898Y-158201D01*
G37*
G36*
G01X-1015693Y-414396D02*
G01X-1045695Y-414396D01*
G01X-1045695Y-304396D01*
G01X-1015693Y-304396D01*
G01X-1015693Y-414396D01*
G37*
G36*
G01X-995683Y-304396D02*
G01X-965680Y-304396D01*
G01X-965680Y-414396D01*
G01X-995683Y-414396D01*
G01X-995683Y-304396D01*
G37*
G36*
G01X-1505702Y-304396D02*
G01X-1445702Y-304396D01*
G01X-1445702Y-414396D01*
G01X-1505702Y-414396D01*
G01X-1505702Y-304396D01*
G37*
G36*
G01X-1065705Y-414396D02*
G01X-1095708Y-414396D01*
G01X-1095708Y-304396D01*
G01X-1065705Y-304396D01*
G01X-1065705Y-414396D01*
G37*
G36*
G01X-945683Y-304396D02*
G01X-885683Y-304396D01*
G01X-885683Y-414396D01*
G01X-945683Y-414396D01*
G01X-945683Y-304396D01*
G37*
G36*
G01X-805698Y-414396D02*
G01X-865698Y-414396D01*
G01X-865698Y-304396D01*
G01X-805698Y-304396D01*
G01X-805698Y-414396D01*
G37*
G36*
G01X-1115692Y-414396D02*
G01X-1145695Y-414396D01*
G01X-1145695Y-304396D01*
G01X-1115692Y-304396D01*
G01X-1115692Y-414396D01*
G37*
G36*
G01X-1165705Y-414396D02*
G01X-1195708Y-414396D01*
G01X-1195708Y-304396D01*
G01X-1165705Y-304396D01*
G01X-1165705Y-414396D01*
G37*
G36*
G01X-1425692Y-304396D02*
G01X-1365692Y-304396D01*
G01X-1365692Y-414396D01*
G01X-1425692Y-414396D01*
G01X-1425692Y-304396D01*
G37*
G36*
G01X-1215692Y-414396D02*
G01X-1245695Y-414396D01*
G01X-1245695Y-304396D01*
G01X-1215692Y-304396D01*
G01X-1215692Y-414396D01*
G37*
G36*
G01X-1265679Y-414396D02*
G01X-1295682Y-414396D01*
G01X-1295682Y-304396D01*
G01X-1265679Y-304396D01*
G01X-1265679Y-414396D01*
G37*
G36*
G01X-1315692Y-414396D02*
G01X-1345695Y-414396D01*
G01X-1345695Y-304396D01*
G01X-1315692Y-304396D01*
G01X-1315692Y-414396D01*
G37*
G36*
G01X-718718Y-314556D02*
G01X-715742Y-314853D01*
G01X-712782Y-315300D01*
G01X-709851Y-315892D01*
G01X-706951Y-316631D01*
G01X-704093Y-317513D01*
G01X-701281Y-318536D01*
G01X-698525Y-319697D01*
G01X-695828Y-320995D01*
G01X-693202Y-322428D01*
G01X-690649Y-323987D01*
G01X-688177Y-325671D01*
G01X-685792Y-327480D01*
G01X-683501Y-329402D01*
G01X-681307Y-331437D01*
G01X-679219Y-333578D01*
G01X-677238Y-335821D01*
G01X-675373Y-338160D01*
G01X-673628Y-340589D01*
G01X-672005Y-343103D01*
G01X-670509Y-345694D01*
G01X-669143Y-348356D01*
G01X-667913Y-351081D01*
G01X-666821Y-353868D01*
G01X-665866Y-356702D01*
G01X-665056Y-359583D01*
G01X-664390Y-362499D01*
G01X-663872Y-365445D01*
G01X-663499Y-368414D01*
G01X-663275Y-371399D01*
G01X-663202Y-374388D01*
G01X-663202Y-454388D01*
G01X-663275Y-457378D01*
G01X-663499Y-460362D01*
G01X-663872Y-463332D01*
G01X-664390Y-466278D01*
G01X-665056Y-469194D01*
G01X-665866Y-472074D01*
G01X-666821Y-474909D01*
G01X-667913Y-477695D01*
G01X-669143Y-480421D01*
G01X-670509Y-483083D01*
G01X-672005Y-485673D01*
G01X-673628Y-488188D01*
G01X-675373Y-490616D01*
G01X-677238Y-492956D01*
G01X-679219Y-495198D01*
G01X-681307Y-497340D01*
G01X-683501Y-499374D01*
G01X-685792Y-501297D01*
G01X-688177Y-503105D01*
G01X-690649Y-504789D01*
G01X-693202Y-506349D01*
G01X-695828Y-507782D01*
G01X-698525Y-509079D01*
G01X-701281Y-510240D01*
G01X-704093Y-511264D01*
G01X-706951Y-512145D01*
G01X-709851Y-512884D01*
G01X-712782Y-513476D01*
G01X-715742Y-513923D01*
G01X-718718Y-514220D01*
G01X-721705Y-514370D01*
G01X-724698Y-514370D01*
G01X-727685Y-514220D01*
G01X-730661Y-513923D01*
G01X-733621Y-513476D01*
G01X-736552Y-512884D01*
G01X-739452Y-512145D01*
G01X-742310Y-511264D01*
G01X-745122Y-510240D01*
G01X-747878Y-509079D01*
G01X-750575Y-507782D01*
G01X-753201Y-506349D01*
G01X-755754Y-504789D01*
G01X-758226Y-503105D01*
G01X-760611Y-501297D01*
G01X-762902Y-499374D01*
G01X-765096Y-497340D01*
G01X-767184Y-495198D01*
G01X-769165Y-492956D01*
G01X-771030Y-490616D01*
G01X-772775Y-488188D01*
G01X-774398Y-485673D01*
G01X-775894Y-483083D01*
G01X-777260Y-480421D01*
G01X-778490Y-477695D01*
G01X-779582Y-474909D01*
G01X-780537Y-472074D01*
G01X-781347Y-469194D01*
G01X-782013Y-466278D01*
G01X-782531Y-463332D01*
G01X-782904Y-460362D01*
G01X-783128Y-457378D01*
G01X-783201Y-454388D01*
G01X-783201Y-374388D01*
G01X-783128Y-371399D01*
G01X-782904Y-368414D01*
G01X-782531Y-365445D01*
G01X-782013Y-362499D01*
G01X-781347Y-359583D01*
G01X-780537Y-356702D01*
G01X-779582Y-353868D01*
G01X-778490Y-351081D01*
G01X-777260Y-348356D01*
G01X-775894Y-345694D01*
G01X-774398Y-343103D01*
G01X-772775Y-340589D01*
G01X-771030Y-338160D01*
G01X-769165Y-335821D01*
G01X-767184Y-333578D01*
G01X-765096Y-331437D01*
G01X-762902Y-329402D01*
G01X-760611Y-327480D01*
G01X-758226Y-325671D01*
G01X-755754Y-323987D01*
G01X-753201Y-322428D01*
G01X-750575Y-320995D01*
G01X-747878Y-319697D01*
G01X-745122Y-318536D01*
G01X-742310Y-317513D01*
G01X-739452Y-316631D01*
G01X-736552Y-315892D01*
G01X-733621Y-315300D01*
G01X-730661Y-314853D01*
G01X-727685Y-314556D01*
G01X-724698Y-314406D01*
G01X-721705Y-314406D01*
G01X-718718Y-314556D01*
G37*
G36*
G01X-1589695Y-314406D02*
G01X-1586702Y-314406D01*
G01X-1583715Y-314556D01*
G01X-1580739Y-314853D01*
G01X-1577779Y-315300D01*
G01X-1574848Y-315892D01*
G01X-1571948Y-316631D01*
G01X-1569090Y-317513D01*
G01X-1566278Y-318536D01*
G01X-1563522Y-319697D01*
G01X-1560825Y-320995D01*
G01X-1558199Y-322428D01*
G01X-1555646Y-323987D01*
G01X-1553174Y-325671D01*
G01X-1550789Y-327480D01*
G01X-1548498Y-329402D01*
G01X-1546304Y-331437D01*
G01X-1544216Y-333578D01*
G01X-1542235Y-335821D01*
G01X-1540370Y-338160D01*
G01X-1538625Y-340589D01*
G01X-1537002Y-343103D01*
G01X-1535506Y-345694D01*
G01X-1534140Y-348356D01*
G01X-1532910Y-351081D01*
G01X-1531818Y-353868D01*
G01X-1530863Y-356702D01*
G01X-1530053Y-359583D01*
G01X-1529387Y-362499D01*
G01X-1528869Y-365445D01*
G01X-1528496Y-368414D01*
G01X-1528272Y-371399D01*
G01X-1528199Y-374388D01*
G01X-1528199Y-454388D01*
G01X-1528272Y-457378D01*
G01X-1528496Y-460362D01*
G01X-1528869Y-463332D01*
G01X-1529387Y-466278D01*
G01X-1530053Y-469194D01*
G01X-1530863Y-472074D01*
G01X-1531818Y-474909D01*
G01X-1532910Y-477695D01*
G01X-1534140Y-480421D01*
G01X-1535506Y-483083D01*
G01X-1537002Y-485673D01*
G01X-1538625Y-488188D01*
G01X-1540370Y-490616D01*
G01X-1542235Y-492956D01*
G01X-1544216Y-495198D01*
G01X-1546304Y-497340D01*
G01X-1548498Y-499374D01*
G01X-1550789Y-501297D01*
G01X-1553174Y-503105D01*
G01X-1555646Y-504789D01*
G01X-1558199Y-506349D01*
G01X-1560825Y-507782D01*
G01X-1563522Y-509079D01*
G01X-1566278Y-510240D01*
G01X-1569090Y-511264D01*
G01X-1571948Y-512145D01*
G01X-1574848Y-512884D01*
G01X-1577779Y-513476D01*
G01X-1580739Y-513923D01*
G01X-1583715Y-514220D01*
G01X-1586702Y-514370D01*
G01X-1589695Y-514370D01*
G01X-1592682Y-514220D01*
G01X-1595658Y-513923D01*
G01X-1598618Y-513476D01*
G01X-1601549Y-512884D01*
G01X-1604449Y-512145D01*
G01X-1607307Y-511264D01*
G01X-1610119Y-510240D01*
G01X-1612875Y-509079D01*
G01X-1615572Y-507782D01*
G01X-1618198Y-506349D01*
G01X-1620751Y-504789D01*
G01X-1623223Y-503105D01*
G01X-1625608Y-501297D01*
G01X-1627899Y-499374D01*
G01X-1630093Y-497340D01*
G01X-1632181Y-495198D01*
G01X-1634162Y-492956D01*
G01X-1636027Y-490616D01*
G01X-1637772Y-488188D01*
G01X-1639395Y-485673D01*
G01X-1640891Y-483083D01*
G01X-1642257Y-480421D01*
G01X-1643487Y-477695D01*
G01X-1644579Y-474909D01*
G01X-1645534Y-472074D01*
G01X-1646344Y-469194D01*
G01X-1647010Y-466278D01*
G01X-1647528Y-463332D01*
G01X-1647901Y-460362D01*
G01X-1648125Y-457378D01*
G01X-1648198Y-454388D01*
G01X-1648198Y-374388D01*
G01X-1648125Y-371399D01*
G01X-1647901Y-368414D01*
G01X-1647528Y-365445D01*
G01X-1647010Y-362499D01*
G01X-1646344Y-359583D01*
G01X-1645534Y-356702D01*
G01X-1644579Y-353868D01*
G01X-1643487Y-351081D01*
G01X-1642257Y-348356D01*
G01X-1640891Y-345694D01*
G01X-1639395Y-343103D01*
G01X-1637772Y-340589D01*
G01X-1636027Y-338160D01*
G01X-1634162Y-335821D01*
G01X-1632181Y-333578D01*
G01X-1630093Y-331437D01*
G01X-1627899Y-329402D01*
G01X-1625608Y-327480D01*
G01X-1623223Y-325671D01*
G01X-1620751Y-323987D01*
G01X-1618198Y-322428D01*
G01X-1615572Y-320995D01*
G01X-1612875Y-319697D01*
G01X-1610119Y-318536D01*
G01X-1607307Y-317513D01*
G01X-1604449Y-316631D01*
G01X-1601549Y-315892D01*
G01X-1598618Y-315300D01*
G01X-1595658Y-314853D01*
G01X-1592682Y-314556D01*
G01X-1589695Y-314406D01*
G37*
G36*
G01X-1583715Y-759572D02*
G01X-1580739Y-759869D01*
G01X-1577779Y-760316D01*
G01X-1574848Y-760908D01*
G01X-1571948Y-761647D01*
G01X-1569090Y-762528D01*
G01X-1566278Y-763552D01*
G01X-1563522Y-764713D01*
G01X-1560825Y-766011D01*
G01X-1558199Y-767443D01*
G01X-1555646Y-769003D01*
G01X-1553174Y-770687D01*
G01X-1550789Y-772495D01*
G01X-1548498Y-774418D01*
G01X-1546304Y-776453D01*
G01X-1544216Y-778594D01*
G01X-1542235Y-780837D01*
G01X-1540370Y-783176D01*
G01X-1538625Y-785604D01*
G01X-1537002Y-788119D01*
G01X-1535506Y-790710D01*
G01X-1534140Y-793372D01*
G01X-1532910Y-796097D01*
G01X-1531818Y-798883D01*
G01X-1530863Y-801718D01*
G01X-1530053Y-804598D01*
G01X-1529387Y-807514D01*
G01X-1528869Y-810461D01*
G01X-1528496Y-813430D01*
G01X-1528272Y-816414D01*
G01X-1528199Y-819404D01*
G01X-1528199Y-849404D01*
G01X-1528272Y-852394D01*
G01X-1528496Y-855378D01*
G01X-1528869Y-858347D01*
G01X-1529387Y-861294D01*
G01X-1530053Y-864210D01*
G01X-1530863Y-867090D01*
G01X-1531818Y-869925D01*
G01X-1532910Y-872711D01*
G01X-1534140Y-875436D01*
G01X-1535506Y-878098D01*
G01X-1537002Y-880689D01*
G01X-1538625Y-883204D01*
G01X-1540370Y-885632D01*
G01X-1542235Y-887971D01*
G01X-1544216Y-890214D01*
G01X-1546304Y-892355D01*
G01X-1548498Y-894390D01*
G01X-1550789Y-896313D01*
G01X-1553174Y-898121D01*
G01X-1555646Y-899805D01*
G01X-1558199Y-901365D01*
G01X-1560825Y-902797D01*
G01X-1563522Y-904095D01*
G01X-1566278Y-905256D01*
G01X-1569090Y-906280D01*
G01X-1571948Y-907161D01*
G01X-1574848Y-907900D01*
G01X-1577779Y-908492D01*
G01X-1580739Y-908939D01*
G01X-1583715Y-909236D01*
G01X-1586702Y-909386D01*
G01X-1589695Y-909386D01*
G01X-1592682Y-909236D01*
G01X-1595658Y-908939D01*
G01X-1598618Y-908492D01*
G01X-1601549Y-907900D01*
G01X-1604449Y-907161D01*
G01X-1607307Y-906280D01*
G01X-1610119Y-905256D01*
G01X-1612875Y-904095D01*
G01X-1615572Y-902797D01*
G01X-1618198Y-901365D01*
G01X-1620751Y-899805D01*
G01X-1623223Y-898121D01*
G01X-1625608Y-896313D01*
G01X-1627899Y-894390D01*
G01X-1630093Y-892355D01*
G01X-1632181Y-890214D01*
G01X-1634162Y-887971D01*
G01X-1636027Y-885632D01*
G01X-1637772Y-883204D01*
G01X-1639395Y-880689D01*
G01X-1640891Y-878098D01*
G01X-1642257Y-875436D01*
G01X-1643487Y-872711D01*
G01X-1644579Y-869925D01*
G01X-1645534Y-867090D01*
G01X-1646344Y-864210D01*
G01X-1647010Y-861294D01*
G01X-1647528Y-858347D01*
G01X-1647901Y-855378D01*
G01X-1648125Y-852394D01*
G01X-1648198Y-849404D01*
G01X-1648198Y-819404D01*
G01X-1648125Y-816414D01*
G01X-1647901Y-813430D01*
G01X-1647528Y-810461D01*
G01X-1647010Y-807514D01*
G01X-1646344Y-804598D01*
G01X-1645534Y-801718D01*
G01X-1644579Y-798883D01*
G01X-1643487Y-796097D01*
G01X-1642257Y-793372D01*
G01X-1640891Y-790710D01*
G01X-1639395Y-788119D01*
G01X-1637772Y-785604D01*
G01X-1636027Y-783176D01*
G01X-1634162Y-780837D01*
G01X-1632181Y-778594D01*
G01X-1630093Y-776453D01*
G01X-1627899Y-774418D01*
G01X-1625608Y-772495D01*
G01X-1623223Y-770687D01*
G01X-1620751Y-769003D01*
G01X-1618198Y-767443D01*
G01X-1615572Y-766011D01*
G01X-1612875Y-764713D01*
G01X-1610119Y-763552D01*
G01X-1607307Y-762528D01*
G01X-1604449Y-761647D01*
G01X-1601549Y-760908D01*
G01X-1598618Y-760316D01*
G01X-1595658Y-759869D01*
G01X-1592682Y-759572D01*
G01X-1589695Y-759422D01*
G01X-1586702Y-759422D01*
G01X-1583715Y-759572D01*
G37*
G36*
G01X-724698Y-759422D02*
G01X-721705Y-759422D01*
G01X-718718Y-759572D01*
G01X-715742Y-759869D01*
G01X-712782Y-760316D01*
G01X-709851Y-760908D01*
G01X-706951Y-761647D01*
G01X-704093Y-762528D01*
G01X-701281Y-763552D01*
G01X-698525Y-764713D01*
G01X-695828Y-766011D01*
G01X-693202Y-767443D01*
G01X-690649Y-769003D01*
G01X-688177Y-770687D01*
G01X-685792Y-772495D01*
G01X-683501Y-774418D01*
G01X-681307Y-776453D01*
G01X-679219Y-778594D01*
G01X-677238Y-780837D01*
G01X-675373Y-783176D01*
G01X-673628Y-785604D01*
G01X-672005Y-788119D01*
G01X-670509Y-790710D01*
G01X-669143Y-793372D01*
G01X-667913Y-796097D01*
G01X-666821Y-798883D01*
G01X-665866Y-801718D01*
G01X-665056Y-804598D01*
G01X-664390Y-807514D01*
G01X-663872Y-810461D01*
G01X-663499Y-813430D01*
G01X-663275Y-816414D01*
G01X-663202Y-819404D01*
G01X-663202Y-849404D01*
G01X-663275Y-852394D01*
G01X-663499Y-855378D01*
G01X-663872Y-858347D01*
G01X-664390Y-861294D01*
G01X-665056Y-864210D01*
G01X-665866Y-867090D01*
G01X-666821Y-869925D01*
G01X-667913Y-872711D01*
G01X-669143Y-875436D01*
G01X-670509Y-878098D01*
G01X-672005Y-880689D01*
G01X-673628Y-883204D01*
G01X-675373Y-885632D01*
G01X-677238Y-887971D01*
G01X-679219Y-890214D01*
G01X-681307Y-892355D01*
G01X-683501Y-894390D01*
G01X-685792Y-896313D01*
G01X-688177Y-898121D01*
G01X-690649Y-899805D01*
G01X-693202Y-901365D01*
G01X-695828Y-902797D01*
G01X-698525Y-904095D01*
G01X-701281Y-905256D01*
G01X-704093Y-906280D01*
G01X-706951Y-907161D01*
G01X-709851Y-907900D01*
G01X-712782Y-908492D01*
G01X-715742Y-908939D01*
G01X-718718Y-909236D01*
G01X-721705Y-909386D01*
G01X-724698Y-909386D01*
G01X-727685Y-909236D01*
G01X-730661Y-908939D01*
G01X-733621Y-908492D01*
G01X-736552Y-907900D01*
G01X-739452Y-907161D01*
G01X-742310Y-906280D01*
G01X-745122Y-905256D01*
G01X-747878Y-904095D01*
G01X-750575Y-902797D01*
G01X-753201Y-901365D01*
G01X-755754Y-899805D01*
G01X-758226Y-898121D01*
G01X-760611Y-896313D01*
G01X-762902Y-894390D01*
G01X-765096Y-892355D01*
G01X-767184Y-890214D01*
G01X-769165Y-887971D01*
G01X-771030Y-885632D01*
G01X-772775Y-883204D01*
G01X-774398Y-880689D01*
G01X-775894Y-878098D01*
G01X-777260Y-875436D01*
G01X-778490Y-872711D01*
G01X-779582Y-869925D01*
G01X-780537Y-867090D01*
G01X-781347Y-864210D01*
G01X-782013Y-861294D01*
G01X-782531Y-858347D01*
G01X-782904Y-855378D01*
G01X-783128Y-852394D01*
G01X-783201Y-849404D01*
G01X-783201Y-819404D01*
G01X-783128Y-816414D01*
G01X-782904Y-813430D01*
G01X-782531Y-810461D01*
G01X-782013Y-807514D01*
G01X-781347Y-804598D01*
G01X-780537Y-801718D01*
G01X-779582Y-798883D01*
G01X-778490Y-796097D01*
G01X-777260Y-793372D01*
G01X-775894Y-790710D01*
G01X-774398Y-788119D01*
G01X-772775Y-785604D01*
G01X-771030Y-783176D01*
G01X-769165Y-780837D01*
G01X-767184Y-778594D01*
G01X-765096Y-776453D01*
G01X-762902Y-774418D01*
G01X-760611Y-772495D01*
G01X-758226Y-770687D01*
G01X-755754Y-769003D01*
G01X-753201Y-767443D01*
G01X-750575Y-766011D01*
G01X-747878Y-764713D01*
G01X-745122Y-763552D01*
G01X-742310Y-762528D01*
G01X-739452Y-761647D01*
G01X-736552Y-760908D01*
G01X-733621Y-760316D01*
G01X-730661Y-759869D01*
G01X-727685Y-759572D01*
G01X-724698Y-759422D01*
G37*

G04 Pad Start*
G54D10*
G01X1426108Y237490D03*
G54D11*
G01X2145106Y-772998D03*
G01X2018106Y-772998D03*
G01X1891106Y-772998D03*
G01X1764106Y-772998D03*
G01X1637106Y-772998D03*
G01X1510106Y-772998D03*
G01X1383106Y-772998D03*
G01X1256106Y-772998D03*
G01X1129106Y-772998D03*
G01X1002106Y-772998D03*
G01X875106Y-772998D03*
G01X748106Y-772998D03*
G01X621106Y-772998D03*
G01X494106Y-772998D03*
G01X494106Y1026998D03*
G01X621106Y1026998D03*
G01X748106Y1026998D03*
G01X875106Y1026998D03*
G01X1002106Y1026998D03*
G01X1129106Y1026998D03*
G01X1256106Y1026998D03*
G01X1383106Y1026998D03*
G01X1510106Y1026998D03*
G01X1637106Y1026998D03*
G01X1764106Y1026998D03*
G01X1891106Y1026998D03*
G01X2018106Y1026998D03*
G01X2145106Y1026998D03*
G54D12*
G01X344094Y-444500D03*
G01X344094Y-317500D03*
G01X344094Y-190500D03*
G01X344094Y-63500D03*
G01X344094Y63500D03*
G01X344094Y190500D03*
G01X344094Y317500D03*
G01X344094Y444500D03*
G01X344094Y571500D03*
G01X344094Y698500D03*
G54D13*
G01X-2446299Y-636943D03*
G54D14*
G01X-2046300Y-404457D03*
G01X-2146300Y-404457D03*
G01X-2246300Y-404457D03*
G54D13*
G01X-1846301Y-636943D03*
G04 Pad End*

M02*

